<?xml version="1.0" encoding="UTF-8" standalone="no"?>
<!DOCTYPE svg PUBLIC "-//W3C//DTD SVG 1.1//EN"
 "http://www.w3.org/Graphics/SVG/1.1/DTD/svg11.dtd">
<!-- Generated by graphviz version 2.40.1 (20161225.0304)
 -->
<!-- Title: /home/shiqi/Documents/thesis/new/DG_wave_c/src/dg_io.cpp Pages: 1 -->
<svg width="1387pt" height="110pt"
 viewBox="0.00 0.00 1386.57 110.00" xmlns="http://www.w3.org/2000/svg" xmlns:xlink="http://www.w3.org/1999/xlink">
<g id="graph0" class="graph" transform="scale(1 1) rotate(0) translate(4 106)">
<title>/home/shiqi/Documents/thesis/new/DG_wave_c/src/dg_io.cpp</title>
<polygon fill="#ffffff" stroke="transparent" points="-4,4 -4,-106 1382.5725,-106 1382.5725,4 -4,4"/>
<!-- Node1 -->
<g id="node1" class="node">
<title>Node1</title>
<g id="a_node1"><a xlink:title=" ">
<polygon fill="#bfbfbf" stroke="#000000" points="529.775,-57.5 529.775,-101.5 653.018,-101.5 653.018,-57.5 529.775,-57.5"/>
<text text-anchor="start" x="537.775" y="-88.5" font-family="Helvetica,sans-Serif" font-size="10.00" fill="#000000">/home/shiqi/Documents</text>
<text text-anchor="start" x="537.775" y="-76.5" font-family="Helvetica,sans-Serif" font-size="10.00" fill="#000000">/thesis/new/DG_wave_c</text>
<text text-anchor="middle" x="591.3965" y="-64.5" font-family="Helvetica,sans-Serif" font-size="10.00" fill="#000000">/src/dg_io.cpp</text>
</a>
</g>
</g>
<!-- Node2 -->
<g id="node2" class="node">
<title>Node2</title>
<g id="a_node2"><a xlink:title=" ">
<polygon fill="#ffffff" stroke="#bfbfbf" points="0,-.5 0,-20.5 48.793,-20.5 48.793,-.5 0,-.5"/>
<text text-anchor="middle" x="24.3965" y="-7.5" font-family="Helvetica,sans-Serif" font-size="10.00" fill="#000000">dg_io.h</text>
</a>
</g>
</g>
<!-- Node1&#45;&gt;Node2 -->
<g id="edge1" class="edge">
<title>Node1&#45;&gt;Node2</title>
<path fill="none" stroke="#191970" d="M529.6514,-76.5413C431.5885,-71.007 234.2952,-56.4666 59.0514,-20.7833"/>
<polygon fill="#191970" stroke="#191970" points="59.6378,-17.3306 49.1367,-18.7367 58.2226,-24.1861 59.6378,-17.3306"/>
</g>
<!-- Node3 -->
<g id="node3" class="node">
<title>Node3</title>
<g id="a_node3"><a xlink:title=" ">
<polygon fill="#ffffff" stroke="#bfbfbf" points="67.174,-.5 67.174,-20.5 107.619,-20.5 107.619,-.5 67.174,-.5"/>
<text text-anchor="middle" x="87.3965" y="-7.5" font-family="Helvetica,sans-Serif" font-size="10.00" fill="#000000">mpi.h</text>
</a>
</g>
</g>
<!-- Node1&#45;&gt;Node3 -->
<g id="edge2" class="edge">
<title>Node1&#45;&gt;Node3</title>
<path fill="none" stroke="#191970" d="M529.4996,-76.3235C440.0423,-70.7582 269.5728,-56.4972 117.7872,-20.913"/>
<polygon fill="#191970" stroke="#191970" points="118.3562,-17.4507 107.8174,-18.5382 116.7342,-24.2602 118.3562,-17.4507"/>
</g>
<!-- Node4 -->
<g id="node4" class="node">
<title>Node4</title>
<g id="a_node4"><a xlink:title=" ">
<polygon fill="#ffffff" stroke="#bfbfbf" points="125.7215,-.5 125.7215,-20.5 195.0715,-20.5 195.0715,-.5 125.7215,-.5"/>
<text text-anchor="middle" x="160.3965" y="-7.5" font-family="Helvetica,sans-Serif" font-size="10.00" fill="#000000">dg_param.h</text>
</a>
</g>
</g>
<!-- Node1&#45;&gt;Node4 -->
<g id="edge3" class="edge">
<title>Node1&#45;&gt;Node4</title>
<path fill="none" stroke="#191970" d="M529.4571,-71.7734C454.9062,-62.1082 325.7585,-44.2022 205.5211,-21.0958"/>
<polygon fill="#191970" stroke="#191970" points="205.8864,-17.6016 195.4031,-19.1349 204.5544,-24.4737 205.8864,-17.6016"/>
</g>
<!-- Node5 -->
<g id="node5" class="node">
<title>Node5</title>
<g id="a_node5"><a xlink:title=" ">
<polygon fill="#ffffff" stroke="#bfbfbf" points="213.1595,-.5 213.1595,-20.5 313.6335,-20.5 313.6335,-.5 213.1595,-.5"/>
<text text-anchor="middle" x="263.3965" y="-7.5" font-family="Helvetica,sans-Serif" font-size="10.00" fill="#000000">dg_local_storage.h</text>
</a>
</g>
</g>
<!-- Node1&#45;&gt;Node5 -->
<g id="edge4" class="edge">
<title>Node1&#45;&gt;Node5</title>
<path fill="none" stroke="#191970" d="M529.7022,-66.5216C469.7069,-53.9007 379.2982,-34.8818 320.8055,-22.5769"/>
<polygon fill="#191970" stroke="#191970" points="321.4928,-19.1449 310.9864,-20.5113 320.0517,-25.995 321.4928,-19.1449"/>
</g>
<!-- Node6 -->
<g id="node6" class="node">
<title>Node6</title>
<g id="a_node6"><a xlink:title=" ">
<polygon fill="#ffffff" stroke="#bfbfbf" points="331.895,-.5 331.895,-20.5 382.898,-20.5 382.898,-.5 331.895,-.5"/>
<text text-anchor="middle" x="357.3965" y="-7.5" font-family="Helvetica,sans-Serif" font-size="10.00" fill="#000000">iomanip</text>
</a>
</g>
</g>
<!-- Node1&#45;&gt;Node6 -->
<g id="edge5" class="edge">
<title>Node1&#45;&gt;Node6</title>
<path fill="none" stroke="#191970" d="M529.52,-61.406C492.53,-50.567 444.3495,-36.4102 392.6903,-21.0769"/>
<polygon fill="#191970" stroke="#191970" points="393.5885,-17.6926 383.0058,-18.2006 391.5955,-24.4029 393.5885,-17.6926"/>
</g>
<!-- Node7 -->
<g id="node7" class="node">
<title>Node7</title>
<g id="a_node7"><a xlink:title=" ">
<polygon fill="#ffffff" stroke="#bfbfbf" points="401.174,-.5 401.174,-20.5 441.619,-20.5 441.619,-.5 401.174,-.5"/>
<text text-anchor="middle" x="421.3965" y="-7.5" font-family="Helvetica,sans-Serif" font-size="10.00" fill="#000000">string</text>
</a>
</g>
</g>
<!-- Node1&#45;&gt;Node7 -->
<g id="edge6" class="edge">
<title>Node1&#45;&gt;Node7</title>
<path fill="none" stroke="#191970" d="M537.14,-57.4783C508.7417,-45.9519 475.0522,-32.2779 451.3644,-22.6634"/>
<polygon fill="#191970" stroke="#191970" points="452.4516,-19.3275 441.8694,-18.8096 449.819,-25.8136 452.4516,-19.3275"/>
</g>
<!-- Node8 -->
<g id="node8" class="node">
<title>Node8</title>
<g id="a_node8"><a xlink:title=" ">
<polygon fill="#ffffff" stroke="#bfbfbf" points="459.23,-.5 459.23,-20.5 513.563,-20.5 513.563,-.5 459.23,-.5"/>
<text text-anchor="middle" x="486.3965" y="-7.5" font-family="Helvetica,sans-Serif" font-size="10.00" fill="#000000">iostream</text>
</a>
</g>
</g>
<!-- Node1&#45;&gt;Node8 -->
<g id="edge7" class="edge">
<title>Node1&#45;&gt;Node8</title>
<path fill="none" stroke="#191970" d="M557.8852,-57.4783C542.426,-47.3194 524.4281,-35.4922 510.3584,-26.2464"/>
<polygon fill="#191970" stroke="#191970" points="512.0253,-23.1537 501.7461,-20.5869 508.181,-29.0037 512.0253,-23.1537"/>
</g>
<!-- Node9 -->
<g id="node9" class="node">
<title>Node9</title>
<g id="a_node9"><a xlink:title=" ">
<polygon fill="#ffffff" stroke="#bfbfbf" points="531.619,-.5 531.619,-20.5 583.174,-20.5 583.174,-.5 531.619,-.5"/>
<text text-anchor="middle" x="557.3965" y="-7.5" font-family="Helvetica,sans-Serif" font-size="10.00" fill="#000000">sstream</text>
</a>
</g>
</g>
<!-- Node1&#45;&gt;Node9 -->
<g id="edge8" class="edge">
<title>Node1&#45;&gt;Node9</title>
<path fill="none" stroke="#191970" d="M580.4515,-57.2882C576.0982,-48.4535 571.1356,-38.3823 566.9325,-29.8525"/>
<polygon fill="#191970" stroke="#191970" points="569.989,-28.1368 562.4293,-20.7137 563.7099,-31.2308 569.989,-28.1368"/>
</g>
<!-- Node10 -->
<g id="node10" class="node">
<title>Node10</title>
<g id="a_node10"><a xlink:title=" ">
<polygon fill="#ffffff" stroke="#bfbfbf" points="600.7295,-.5 600.7295,-20.5 650.0635,-20.5 650.0635,-.5 600.7295,-.5"/>
<text text-anchor="middle" x="625.3965" y="-7.5" font-family="Helvetica,sans-Serif" font-size="10.00" fill="#000000">fstream</text>
</a>
</g>
</g>
<!-- Node1&#45;&gt;Node10 -->
<g id="edge9" class="edge">
<title>Node1&#45;&gt;Node10</title>
<path fill="none" stroke="#191970" d="M602.3415,-57.2882C606.6948,-48.4535 611.6574,-38.3823 615.8605,-29.8525"/>
<polygon fill="#191970" stroke="#191970" points="619.0831,-31.2308 620.3637,-20.7137 612.804,-28.1368 619.0831,-31.2308"/>
</g>
<!-- Node11 -->
<g id="node11" class="node">
<title>Node11</title>
<g id="a_node11"><a xlink:title=" ">
<polygon fill="#ffffff" stroke="#bfbfbf" points="667.831,-.5 667.831,-20.5 724.962,-20.5 724.962,-.5 667.831,-.5"/>
<text text-anchor="middle" x="696.3965" y="-7.5" font-family="Helvetica,sans-Serif" font-size="10.00" fill="#000000">dg_unit.h</text>
</a>
</g>
</g>
<!-- Node1&#45;&gt;Node11 -->
<g id="edge10" class="edge">
<title>Node1&#45;&gt;Node11</title>
<path fill="none" stroke="#191970" d="M624.9078,-57.4783C640.367,-47.3194 658.3649,-35.4922 672.4346,-26.2464"/>
<polygon fill="#191970" stroke="#191970" points="674.612,-29.0037 681.0469,-20.5869 670.7677,-23.1537 674.612,-29.0037"/>
</g>
<!-- Node12 -->
<g id="node12" class="node">
<title>Node12</title>
<g id="a_node12"><a xlink:title=" ">
<polygon fill="#ffffff" stroke="#bfbfbf" points="743.2155,-.5 743.2155,-20.5 847.5775,-20.5 847.5775,-.5 743.2155,-.5"/>
<text text-anchor="middle" x="795.3965" y="-7.5" font-family="Helvetica,sans-Serif" font-size="10.00" fill="#000000">dg_cantor_pairing.h</text>
</a>
</g>
</g>
<!-- Node1&#45;&gt;Node12 -->
<g id="edge11" class="edge">
<title>Node1&#45;&gt;Node12</title>
<path fill="none" stroke="#191970" d="M653.1568,-58.6105C686.5157,-47.3273 726.7132,-33.7311 755.8533,-23.8749"/>
<polygon fill="#191970" stroke="#191970" points="757.3187,-27.0741 765.6701,-20.5545 755.0758,-20.4432 757.3187,-27.0741"/>
</g>
<!-- Node13 -->
<g id="node13" class="node">
<title>Node13</title>
<g id="a_node13"><a xlink:title=" ">
<polygon fill="#ffffff" stroke="#bfbfbf" points="865.7835,-.5 865.7835,-20.5 909.0095,-20.5 909.0095,-.5 865.7835,-.5"/>
<text text-anchor="middle" x="887.3965" y="-7.5" font-family="Helvetica,sans-Serif" font-size="10.00" fill="#000000">vector</text>
</a>
</g>
</g>
<!-- Node1&#45;&gt;Node13 -->
<g id="edge12" class="edge">
<title>Node1&#45;&gt;Node13</title>
<path fill="none" stroke="#191970" d="M653.1797,-67.851C704.8691,-57.6535 780.6718,-41.6516 855.4147,-21.0577"/>
<polygon fill="#191970" stroke="#191970" points="856.7792,-24.3109 865.4734,-18.2561 854.901,-17.5676 856.7792,-24.3109"/>
</g>
<!-- Node14 -->
<g id="node14" class="node">
<title>Node14</title>
<g id="a_node14"><a xlink:title=" ">
<polygon fill="#ffffff" stroke="#bfbfbf" points="927.108,-.5 927.108,-20.5 1013.685,-20.5 1013.685,-.5 927.108,-.5"/>
<text text-anchor="middle" x="970.3965" y="-7.5" font-family="Helvetica,sans-Serif" font-size="10.00" fill="#000000">unordered_map</text>
</a>
</g>
</g>
<!-- Node1&#45;&gt;Node14 -->
<g id="edge13" class="edge">
<title>Node1&#45;&gt;Node14</title>
<path fill="none" stroke="#191970" d="M653.2483,-68.8564C716.8754,-57.812 819.1227,-39.8 916.9385,-21.2507"/>
<polygon fill="#191970" stroke="#191970" points="917.8288,-24.6442 926.9991,-19.3379 916.5213,-17.7674 917.8288,-24.6442"/>
</g>
<!-- Node15 -->
<g id="node15" class="node">
<title>Node15</title>
<g id="a_node15"><a xlink:title=" ">
<polygon fill="#ffffff" stroke="#bfbfbf" points="1031.6565,-.5 1031.6565,-20.5 1157.1365,-20.5 1157.1365,-.5 1031.6565,-.5"/>
<text text-anchor="middle" x="1094.3965" y="-7.5" font-family="Helvetica,sans-Serif" font-size="10.00" fill="#000000">dg_interface_construct.h</text>
</a>
</g>
</g>
<!-- Node1&#45;&gt;Node15 -->
<g id="edge14" class="edge">
<title>Node1&#45;&gt;Node15</title>
<path fill="none" stroke="#191970" d="M653.1607,-71.3122C734.9056,-60.4321 883.7938,-40.4644 1021.6664,-21.0927"/>
<polygon fill="#191970" stroke="#191970" points="1022.1582,-24.5581 1031.5731,-19.6991 1021.1831,-17.6263 1022.1582,-24.5581"/>
</g>
<!-- Node16 -->
<g id="node16" class="node">
<title>Node16</title>
<g id="a_node16"><a xlink:title=" ">
<polygon fill="#ffffff" stroke="#bfbfbf" points="1174.8715,-.5 1174.8715,-20.5 1295.9215,-20.5 1295.9215,-.5 1174.8715,-.5"/>
<text text-anchor="middle" x="1235.3965" y="-7.5" font-family="Helvetica,sans-Serif" font-size="10.00" fill="#000000">dg_nodal_2d_storage.h</text>
</a>
</g>
</g>
<!-- Node1&#45;&gt;Node16 -->
<g id="edge15" class="edge">
<title>Node1&#45;&gt;Node16</title>
<path fill="none" stroke="#191970" d="M653.203,-74.2257C756.8476,-65.1581 972.4691,-45.3417 1164.8264,-21.1548"/>
<polygon fill="#191970" stroke="#191970" points="1165.3561,-24.6157 1174.8382,-19.8892 1164.4782,-17.671 1165.3561,-24.6157"/>
</g>
<!-- Node17 -->
<g id="node17" class="node">
<title>Node17</title>
<g id="a_node17"><a xlink:title=" ">
<polygon fill="#ffffff" stroke="#bfbfbf" points="1314.2205,-.5 1314.2205,-20.5 1378.5725,-20.5 1378.5725,-.5 1314.2205,-.5"/>
<text text-anchor="middle" x="1346.3965" y="-7.5" font-family="Helvetica,sans-Serif" font-size="10.00" fill="#000000">dg_basis.h</text>
</a>
</g>
</g>
<!-- Node1&#45;&gt;Node17 -->
<g id="edge16" class="edge">
<title>Node1&#45;&gt;Node17</title>
<path fill="none" stroke="#191970" d="M653.4323,-77.9389C776.1755,-74.0873 1058.6557,-61.4312 1303.6627,-21.0642"/>
<polygon fill="#191970" stroke="#191970" points="1304.5406,-24.4662 1313.829,-19.3695 1303.3896,-17.5615 1304.5406,-24.4662"/>
</g>
</g>
</svg>
