<?xml version="1.0" encoding="UTF-8" standalone="no"?>
<!DOCTYPE svg PUBLIC "-//W3C//DTD SVG 1.1//EN"
 "http://www.w3.org/Graphics/SVG/1.1/DTD/svg11.dtd">
<!-- Generated by graphviz version 2.40.1 (20161225.0304)
 -->
<!-- Title: /home/shiqi/Documents/thesis/new/DG_wave_c/src/dg_read_mesh_2d.cpp Pages: 1 -->
<svg width="905pt" height="110pt"
 viewBox="0.00 0.00 905.39 110.00" xmlns="http://www.w3.org/2000/svg" xmlns:xlink="http://www.w3.org/1999/xlink">
<g id="graph0" class="graph" transform="scale(1 1) rotate(0) translate(4 106)">
<title>/home/shiqi/Documents/thesis/new/DG_wave_c/src/dg_read_mesh_2d.cpp</title>
<polygon fill="#ffffff" stroke="transparent" points="-4,4 -4,-106 901.39,-106 901.39,4 -4,4"/>
<!-- Node1 -->
<g id="node1" class="node">
<title>Node1</title>
<g id="a_node1"><a xlink:title=" ">
<polygon fill="#bfbfbf" stroke="#000000" points="278.6475,-57.5 278.6475,-101.5 415.7975,-101.5 415.7975,-57.5 278.6475,-57.5"/>
<text text-anchor="start" x="286.6475" y="-88.5" font-family="Helvetica,sans-Serif" font-size="10.00" fill="#000000">/home/shiqi/Documents</text>
<text text-anchor="start" x="286.6475" y="-76.5" font-family="Helvetica,sans-Serif" font-size="10.00" fill="#000000">/thesis/new/DG_wave_c</text>
<text text-anchor="middle" x="347.2225" y="-64.5" font-family="Helvetica,sans-Serif" font-size="10.00" fill="#000000">/src/dg_read_mesh_2d.cpp</text>
</a>
</g>
</g>
<!-- Node2 -->
<g id="node2" class="node">
<title>Node2</title>
<g id="a_node2"><a xlink:title=" ">
<polygon fill="#ffffff" stroke="#bfbfbf" points="0,-.5 0,-20.5 40.445,-20.5 40.445,-.5 0,-.5"/>
<text text-anchor="middle" x="20.2225" y="-7.5" font-family="Helvetica,sans-Serif" font-size="10.00" fill="#000000">mpi.h</text>
</a>
</g>
</g>
<!-- Node1&#45;&gt;Node2 -->
<g id="edge1" class="edge">
<title>Node1&#45;&gt;Node2</title>
<path fill="none" stroke="#191970" d="M278.4717,-69.0852C219.9367,-59.518 133.5817,-43.752 50.5381,-21.0776"/>
<polygon fill="#191970" stroke="#191970" points="51.2629,-17.6466 40.6915,-18.3517 49.3952,-24.3929 51.2629,-17.6466"/>
</g>
<!-- Node3 -->
<g id="node3" class="node">
<title>Node3</title>
<g id="a_node3"><a xlink:title=" ">
<polygon fill="#ffffff" stroke="#bfbfbf" points="58.056,-.5 58.056,-20.5 112.389,-20.5 112.389,-.5 58.056,-.5"/>
<text text-anchor="middle" x="85.2225" y="-7.5" font-family="Helvetica,sans-Serif" font-size="10.00" fill="#000000">iostream</text>
</a>
</g>
</g>
<!-- Node1&#45;&gt;Node3 -->
<g id="edge2" class="edge">
<title>Node1&#45;&gt;Node3</title>
<path fill="none" stroke="#191970" d="M278.3393,-62.2499C235.8604,-51.4768 180.0373,-37.0778 122.3628,-21.2659"/>
<polygon fill="#191970" stroke="#191970" points="123.2855,-17.8898 112.7154,-18.6124 121.4291,-24.6391 123.2855,-17.8898"/>
</g>
<!-- Node4 -->
<g id="node4" class="node">
<title>Node4</title>
<g id="a_node4"><a xlink:title=" ">
<polygon fill="#ffffff" stroke="#bfbfbf" points="130.5555,-.5 130.5555,-20.5 179.8895,-20.5 179.8895,-.5 130.5555,-.5"/>
<text text-anchor="middle" x="155.2225" y="-7.5" font-family="Helvetica,sans-Serif" font-size="10.00" fill="#000000">fstream</text>
</a>
</g>
</g>
<!-- Node1&#45;&gt;Node4 -->
<g id="edge3" class="edge">
<title>Node1&#45;&gt;Node4</title>
<path fill="none" stroke="#191970" d="M285.9446,-57.4783C254.2202,-46.0773 216.6491,-32.5752 189.9458,-22.9787"/>
<polygon fill="#191970" stroke="#191970" points="190.873,-19.5928 180.2785,-19.5045 188.5055,-26.1803 190.873,-19.5928"/>
</g>
<!-- Node5 -->
<g id="node5" class="node">
<title>Node5</title>
<g id="a_node5"><a xlink:title=" ">
<polygon fill="#ffffff" stroke="#bfbfbf" points="198,-.5 198,-20.5 238.445,-20.5 238.445,-.5 198,-.5"/>
<text text-anchor="middle" x="218.2225" y="-7.5" font-family="Helvetica,sans-Serif" font-size="10.00" fill="#000000">string</text>
</a>
</g>
</g>
<!-- Node1&#45;&gt;Node5 -->
<g id="edge4" class="edge">
<title>Node1&#45;&gt;Node5</title>
<path fill="none" stroke="#191970" d="M306.0514,-57.4783C286.516,-47.0291 263.6809,-34.815 246.1918,-25.4603"/>
<polygon fill="#191970" stroke="#191970" points="247.5492,-22.2172 237.0805,-20.5869 244.2476,-28.3897 247.5492,-22.2172"/>
</g>
<!-- Node6 -->
<g id="node6" class="node">
<title>Node6</title>
<g id="a_node6"><a xlink:title=" ">
<polygon fill="#ffffff" stroke="#bfbfbf" points="256.445,-.5 256.445,-20.5 308,-20.5 308,-.5 256.445,-.5"/>
<text text-anchor="middle" x="282.2225" y="-7.5" font-family="Helvetica,sans-Serif" font-size="10.00" fill="#000000">sstream</text>
</a>
</g>
</g>
<!-- Node1&#45;&gt;Node6 -->
<g id="edge5" class="edge">
<title>Node1&#45;&gt;Node6</title>
<path fill="none" stroke="#191970" d="M326.2983,-57.2882C317.4331,-47.8774 307.246,-37.0634 298.9002,-28.204"/>
<polygon fill="#191970" stroke="#191970" points="301.2487,-25.5927 291.8441,-20.7137 296.1534,-30.3925 301.2487,-25.5927"/>
</g>
<!-- Node7 -->
<g id="node7" class="node">
<title>Node7</title>
<g id="a_node7"><a xlink:title=" ">
<polygon fill="#ffffff" stroke="#bfbfbf" points="325.6095,-.5 325.6095,-20.5 368.8355,-20.5 368.8355,-.5 325.6095,-.5"/>
<text text-anchor="middle" x="347.2225" y="-7.5" font-family="Helvetica,sans-Serif" font-size="10.00" fill="#000000">cmath</text>
</a>
</g>
</g>
<!-- Node1&#45;&gt;Node7 -->
<g id="edge6" class="edge">
<title>Node1&#45;&gt;Node7</title>
<path fill="none" stroke="#191970" d="M347.2225,-57.2882C347.2225,-48.8377 347.2225,-39.2557 347.2225,-30.9736"/>
<polygon fill="#191970" stroke="#191970" points="350.7226,-30.7136 347.2225,-20.7137 343.7226,-30.7137 350.7226,-30.7136"/>
</g>
<!-- Node8 -->
<g id="node8" class="node">
<title>Node8</title>
<g id="a_node8"><a xlink:title=" ">
<polygon fill="#ffffff" stroke="#bfbfbf" points="386.5475,-.5 386.5475,-20.5 455.8975,-20.5 455.8975,-.5 386.5475,-.5"/>
<text text-anchor="middle" x="421.2225" y="-7.5" font-family="Helvetica,sans-Serif" font-size="10.00" fill="#000000">dg_param.h</text>
</a>
</g>
</g>
<!-- Node1&#45;&gt;Node8 -->
<g id="edge7" class="edge">
<title>Node1&#45;&gt;Node8</title>
<path fill="none" stroke="#191970" d="M371.0439,-57.2882C381.3426,-47.6853 393.2082,-36.6214 402.8147,-27.6641"/>
<polygon fill="#191970" stroke="#191970" points="405.3417,-30.0932 410.2687,-20.7137 400.568,-24.9735 405.3417,-30.0932"/>
</g>
<!-- Node9 -->
<g id="node9" class="node">
<title>Node9</title>
<g id="a_node9"><a xlink:title=" ">
<polygon fill="#ffffff" stroke="#bfbfbf" points="474.3705,-.5 474.3705,-20.5 582.0745,-20.5 582.0745,-.5 474.3705,-.5"/>
<text text-anchor="middle" x="528.2225" y="-7.5" font-family="Helvetica,sans-Serif" font-size="10.00" fill="#000000">dg_read_mesh_2d.h</text>
</a>
</g>
</g>
<!-- Node1&#45;&gt;Node9 -->
<g id="edge8" class="edge">
<title>Node1&#45;&gt;Node9</title>
<path fill="none" stroke="#191970" d="M404.9897,-57.4783C433.6688,-46.5453 467.4163,-33.6802 492.3375,-24.1799"/>
<polygon fill="#191970" stroke="#191970" points="493.6655,-27.4194 501.7628,-20.5869 491.1719,-20.8786 493.6655,-27.4194"/>
</g>
<!-- Node10 -->
<g id="node10" class="node">
<title>Node10</title>
<g id="a_node10"><a xlink:title=" ">
<polygon fill="#ffffff" stroke="#bfbfbf" points="599.6975,-.5 599.6975,-20.5 720.7475,-20.5 720.7475,-.5 599.6975,-.5"/>
<text text-anchor="middle" x="660.2225" y="-7.5" font-family="Helvetica,sans-Serif" font-size="10.00" fill="#000000">dg_nodal_2d_storage.h</text>
</a>
</g>
</g>
<!-- Node1&#45;&gt;Node10 -->
<g id="edge9" class="edge">
<title>Node1&#45;&gt;Node10</title>
<path fill="none" stroke="#191970" d="M415.9117,-64.3577C472.5464,-51.8727 551.8652,-34.3871 604.5827,-22.7656"/>
<polygon fill="#191970" stroke="#191970" points="605.4187,-26.1655 614.4308,-20.5947 603.9117,-19.3296 605.4187,-26.1655"/>
</g>
<!-- Node11 -->
<g id="node11" class="node">
<title>Node11</title>
<g id="a_node11"><a xlink:title=" ">
<polygon fill="#ffffff" stroke="#bfbfbf" points="738.93,-.5 738.93,-20.5 835.515,-20.5 835.515,-.5 738.93,-.5"/>
<text text-anchor="middle" x="787.2225" y="-7.5" font-family="Helvetica,sans-Serif" font-size="10.00" fill="#000000">dg_single_index.h</text>
</a>
</g>
</g>
<!-- Node1&#45;&gt;Node11 -->
<g id="edge10" class="edge">
<title>Node1&#45;&gt;Node11</title>
<path fill="none" stroke="#191970" d="M415.8177,-69.6686C490.363,-58.8384 613.2426,-40.5619 728.6591,-21.2299"/>
<polygon fill="#191970" stroke="#191970" points="729.4489,-24.6463 738.7304,-19.5371 728.2885,-17.7432 729.4489,-24.6463"/>
</g>
<!-- Node12 -->
<g id="node12" class="node">
<title>Node12</title>
<g id="a_node12"><a xlink:title=" ">
<polygon fill="#ffffff" stroke="#bfbfbf" points="853.055,-.5 853.055,-20.5 897.39,-20.5 897.39,-.5 853.055,-.5"/>
<text text-anchor="middle" x="875.2225" y="-7.5" font-family="Helvetica,sans-Serif" font-size="10.00" fill="#000000">cstdlib</text>
</a>
</g>
</g>
<!-- Node1&#45;&gt;Node12 -->
<g id="edge11" class="edge">
<title>Node1&#45;&gt;Node12</title>
<path fill="none" stroke="#191970" d="M415.9161,-75.9696C510.5433,-70.101 686.1877,-55.5948 843.1946,-20.8469"/>
<polygon fill="#191970" stroke="#191970" points="844.0411,-24.2441 853.031,-18.6376 842.5071,-17.4142 844.0411,-24.2441"/>
</g>
</g>
</svg>
