<?xml version="1.0" encoding="UTF-8" standalone="no"?>
<!DOCTYPE svg PUBLIC "-//W3C//DTD SVG 1.1//EN"
 "http://www.w3.org/Graphics/SVG/1.1/DTD/svg11.dtd">
<!-- Generated by graphviz version 2.40.1 (20161225.0304)
 -->
<!-- Title: /home/shiqi/Documents/thesis/DG_wave_c/src/dg_advection_diffusion_driver.cpp Pages: 1 -->
<svg width="275pt" height="122pt"
 viewBox="0.00 0.00 274.75 122.00" xmlns="http://www.w3.org/2000/svg" xmlns:xlink="http://www.w3.org/1999/xlink">
<g id="graph0" class="graph" transform="scale(1 1) rotate(0) translate(4 118)">
<title>/home/shiqi/Documents/thesis/DG_wave_c/src/dg_advection_diffusion_driver.cpp</title>
<polygon fill="#ffffff" stroke="transparent" points="-4,4 -4,-118 270.7475,-118 270.7475,4 -4,4"/>
<!-- Node1 -->
<g id="node1" class="node">
<title>Node1</title>
<g id="a_node1"><a xlink:title=" ">
<polygon fill="#bfbfbf" stroke="#000000" points="32.7025,-57.5 32.7025,-113.5 153.7425,-113.5 153.7425,-57.5 32.7025,-57.5"/>
<text text-anchor="start" x="40.7025" y="-100.5" font-family="Helvetica,sans-Serif" font-size="10.00" fill="#000000">/home/shiqi/Documents</text>
<text text-anchor="start" x="40.7025" y="-88.5" font-family="Helvetica,sans-Serif" font-size="10.00" fill="#000000">/thesis/DG_wave_c/src</text>
<text text-anchor="start" x="40.7025" y="-76.5" font-family="Helvetica,sans-Serif" font-size="10.00" fill="#000000">/dg_advection_diffusion</text>
<text text-anchor="middle" x="93.2225" y="-64.5" font-family="Helvetica,sans-Serif" font-size="10.00" fill="#000000">_driver.cpp</text>
</a>
</g>
</g>
<!-- Node2 -->
<g id="node2" class="node">
<title>Node2</title>
<g id="a_node2"><a xlink:title=" ">
<polygon fill="#ffffff" stroke="#bfbfbf" points="0,-.5 0,-20.5 40.445,-20.5 40.445,-.5 0,-.5"/>
<text text-anchor="middle" x="20.2225" y="-7.5" font-family="Helvetica,sans-Serif" font-size="10.00" fill="#000000">mpi.h</text>
</a>
</g>
</g>
<!-- Node1&#45;&gt;Node2 -->
<g id="edge1" class="edge">
<title>Node1&#45;&gt;Node2</title>
<path fill="none" stroke="#191970" d="M65.6243,-57.1457C56.1033,-47.3638 45.7215,-36.6976 37.2916,-28.0368"/>
<polygon fill="#191970" stroke="#191970" points="39.6623,-25.4543 30.1793,-20.7296 34.6461,-30.3368 39.6623,-25.4543"/>
</g>
<!-- Node3 -->
<g id="node3" class="node">
<title>Node3</title>
<g id="a_node3"><a xlink:title=" ">
<polygon fill="#ffffff" stroke="#bfbfbf" points="58.5475,-.5 58.5475,-20.5 127.8975,-20.5 127.8975,-.5 58.5475,-.5"/>
<text text-anchor="middle" x="93.2225" y="-7.5" font-family="Helvetica,sans-Serif" font-size="10.00" fill="#000000">dg_param.h</text>
</a>
</g>
</g>
<!-- Node1&#45;&gt;Node3 -->
<g id="edge2" class="edge">
<title>Node1&#45;&gt;Node3</title>
<path fill="none" stroke="#191970" d="M93.2225,-57.1457C93.2225,-48.3619 93.2225,-38.8652 93.2225,-30.7476"/>
<polygon fill="#191970" stroke="#191970" points="96.7226,-30.7295 93.2225,-20.7296 89.7226,-30.7296 96.7226,-30.7295"/>
</g>
<!-- Node4 -->
<g id="node4" class="node">
<title>Node4</title>
<g id="a_node4"><a xlink:title=" ">
<polygon fill="#ffffff" stroke="#bfbfbf" points="145.6975,-.5 145.6975,-20.5 266.7475,-20.5 266.7475,-.5 145.6975,-.5"/>
<text text-anchor="middle" x="206.2225" y="-7.5" font-family="Helvetica,sans-Serif" font-size="10.00" fill="#000000">dg_nodal_2d_storage.h</text>
</a>
</g>
</g>
<!-- Node1&#45;&gt;Node4 -->
<g id="edge3" class="edge">
<title>Node1&#45;&gt;Node4</title>
<path fill="none" stroke="#191970" d="M135.621,-57.3594C151.3948,-46.8901 168.7351,-35.381 182.2833,-26.3889"/>
<polygon fill="#191970" stroke="#191970" points="184.5947,-29.0555 190.9911,-20.6094 180.7237,-23.2232 184.5947,-29.0555"/>
</g>
</g>
</svg>
