<?xml version="1.0" encoding="UTF-8" standalone="no"?>
<!DOCTYPE svg PUBLIC "-//W3C//DTD SVG 1.1//EN"
 "http://www.w3.org/Graphics/SVG/1.1/DTD/svg11.dtd">
<!-- Generated by graphviz version 2.40.1 (20161225.0304)
 -->
<!-- Title: /home/shiqi/Documents/thesis/new/DG_wave_c/src/dg_riemann_solver.cpp Pages: 1 -->
<svg width="332pt" height="110pt"
 viewBox="0.00 0.00 332.35 110.00" xmlns="http://www.w3.org/2000/svg" xmlns:xlink="http://www.w3.org/1999/xlink">
<g id="graph0" class="graph" transform="scale(1 1) rotate(0) translate(4 106)">
<title>/home/shiqi/Documents/thesis/new/DG_wave_c/src/dg_riemann_solver.cpp</title>
<polygon fill="#ffffff" stroke="transparent" points="-4,4 -4,-106 328.3515,-106 328.3515,4 -4,4"/>
<!-- Node1 -->
<g id="node1" class="node">
<title>Node1</title>
<g id="a_node1"><a xlink:title=" ">
<polygon fill="#bfbfbf" stroke="#000000" points="111.277,-57.5 111.277,-101.5 250.076,-101.5 250.076,-57.5 111.277,-57.5"/>
<text text-anchor="start" x="119.277" y="-88.5" font-family="Helvetica,sans-Serif" font-size="10.00" fill="#000000">/home/shiqi/Documents</text>
<text text-anchor="start" x="119.277" y="-76.5" font-family="Helvetica,sans-Serif" font-size="10.00" fill="#000000">/thesis/new/DG_wave_c</text>
<text text-anchor="middle" x="180.6765" y="-64.5" font-family="Helvetica,sans-Serif" font-size="10.00" fill="#000000">/src/dg_riemann_solver.cpp</text>
</a>
</g>
</g>
<!-- Node2 -->
<g id="node2" class="node">
<title>Node2</title>
<g id="a_node2"><a xlink:title=" ">
<polygon fill="#ffffff" stroke="#bfbfbf" points="0,-.5 0,-20.5 109.353,-20.5 109.353,-.5 0,-.5"/>
<text text-anchor="middle" x="54.6765" y="-7.5" font-family="Helvetica,sans-Serif" font-size="10.00" fill="#000000">dg_riemann_solver.h</text>
</a>
</g>
</g>
<!-- Node1&#45;&gt;Node2 -->
<g id="edge1" class="edge">
<title>Node1&#45;&gt;Node2</title>
<path fill="none" stroke="#191970" d="M140.4629,-57.4783C121.3818,-47.0291 99.0777,-34.815 81.9954,-25.4603"/>
<polygon fill="#191970" stroke="#191970" points="83.5481,-22.3202 73.096,-20.5869 80.1858,-28.4599 83.5481,-22.3202"/>
</g>
<!-- Node3 -->
<g id="node3" class="node">
<title>Node3</title>
<g id="a_node3"><a xlink:title=" ">
<polygon fill="#ffffff" stroke="#bfbfbf" points="127.0635,-.5 127.0635,-20.5 170.2895,-20.5 170.2895,-.5 127.0635,-.5"/>
<text text-anchor="middle" x="148.6765" y="-7.5" font-family="Helvetica,sans-Serif" font-size="10.00" fill="#000000">vector</text>
</a>
</g>
</g>
<!-- Node1&#45;&gt;Node3 -->
<g id="edge2" class="edge">
<title>Node1&#45;&gt;Node3</title>
<path fill="none" stroke="#191970" d="M170.3754,-57.2882C166.2781,-48.4535 161.6074,-38.3823 157.6516,-29.8525"/>
<polygon fill="#191970" stroke="#191970" points="160.7957,-28.313 153.4133,-20.7137 154.4454,-31.2581 160.7957,-28.313"/>
</g>
<!-- Node4 -->
<g id="node4" class="node">
<title>Node4</title>
<g id="a_node4"><a xlink:title=" ">
<polygon fill="#ffffff" stroke="#bfbfbf" points="188.5635,-.5 188.5635,-20.5 236.7895,-20.5 236.7895,-.5 188.5635,-.5"/>
<text text-anchor="middle" x="212.6765" y="-7.5" font-family="Helvetica,sans-Serif" font-size="10.00" fill="#000000">cassert</text>
</a>
</g>
</g>
<!-- Node1&#45;&gt;Node4 -->
<g id="edge3" class="edge">
<title>Node1&#45;&gt;Node4</title>
<path fill="none" stroke="#191970" d="M190.9776,-57.2882C195.0749,-48.4535 199.7456,-38.3823 203.7014,-29.8525"/>
<polygon fill="#191970" stroke="#191970" points="206.9076,-31.2581 207.9397,-20.7137 200.5573,-28.313 206.9076,-31.2581"/>
</g>
<!-- Node5 -->
<g id="node5" class="node">
<title>Node5</title>
<g id="a_node5"><a xlink:title=" ">
<polygon fill="#ffffff" stroke="#bfbfbf" points="255.0015,-.5 255.0015,-20.5 324.3515,-20.5 324.3515,-.5 255.0015,-.5"/>
<text text-anchor="middle" x="289.6765" y="-7.5" font-family="Helvetica,sans-Serif" font-size="10.00" fill="#000000">dg_param.h</text>
</a>
</g>
</g>
<!-- Node1&#45;&gt;Node5 -->
<g id="edge4" class="edge">
<title>Node1&#45;&gt;Node5</title>
<path fill="none" stroke="#191970" d="M215.4645,-57.4783C231.6654,-47.2226 250.5522,-35.2667 265.2179,-25.9829"/>
<polygon fill="#191970" stroke="#191970" points="267.1649,-28.8929 273.7422,-20.5869 263.4208,-22.9783 267.1649,-28.8929"/>
</g>
</g>
</svg>
