<?xml version="1.0" encoding="UTF-8" standalone="no"?>
<!DOCTYPE svg PUBLIC "-//W3C//DTD SVG 1.1//EN"
 "http://www.w3.org/Graphics/SVG/1.1/DTD/svg11.dtd">
<!-- Generated by graphviz version 2.40.1 (20161225.0304)
 -->
<!-- Title: /home/shiqi/Documents/thesis/DG_wave_c/src/dg_main.cpp Pages: 1 -->
<svg width="401pt" height="122pt"
 viewBox="0.00 0.00 401.12 122.00" xmlns="http://www.w3.org/2000/svg" xmlns:xlink="http://www.w3.org/1999/xlink">
<g id="graph0" class="graph" transform="scale(1 1) rotate(0) translate(4 118)">
<title>/home/shiqi/Documents/thesis/DG_wave_c/src/dg_main.cpp</title>
<polygon fill="#ffffff" stroke="transparent" points="-4,4 -4,-118 397.1225,-118 397.1225,4 -4,4"/>
<!-- Node1 -->
<g id="node1" class="node">
<title>Node1</title>
<g id="a_node1"><a xlink:title=" ">
<polygon fill="#bfbfbf" stroke="#000000" points="98.9355,-69.5 98.9355,-113.5 219.3975,-113.5 219.3975,-69.5 98.9355,-69.5"/>
<text text-anchor="start" x="106.9355" y="-100.5" font-family="Helvetica,sans-Serif" font-size="10.00" fill="#000000">/home/shiqi/Documents</text>
<text text-anchor="start" x="106.9355" y="-88.5" font-family="Helvetica,sans-Serif" font-size="10.00" fill="#000000">/thesis/DG_wave_c/src</text>
<text text-anchor="middle" x="159.1665" y="-76.5" font-family="Helvetica,sans-Serif" font-size="10.00" fill="#000000">/dg_main.cpp</text>
</a>
</g>
</g>
<!-- Node2 -->
<g id="node2" class="node">
<title>Node2</title>
<g id="a_node2"><a xlink:title=" ">
<polygon fill="#ffffff" stroke="#bfbfbf" points="0,-6.5 0,-26.5 54.333,-26.5 54.333,-6.5 0,-6.5"/>
<text text-anchor="middle" x="27.1665" y="-13.5" font-family="Helvetica,sans-Serif" font-size="10.00" fill="#000000">iostream</text>
</a>
</g>
</g>
<!-- Node1&#45;&gt;Node2 -->
<g id="edge1" class="edge">
<title>Node1&#45;&gt;Node2</title>
<path fill="none" stroke="#191970" d="M120.2761,-69.4032C98.84,-57.2236 72.7859,-42.4201 53.6957,-31.5734"/>
<polygon fill="#191970" stroke="#191970" points="55.358,-28.4924 44.9343,-26.5954 51.8999,-34.5786 55.358,-28.4924"/>
</g>
<!-- Node3 -->
<g id="node3" class="node">
<title>Node3</title>
<g id="a_node3"><a xlink:title=" ">
<polygon fill="#ffffff" stroke="#bfbfbf" points="71.944,-6.5 71.944,-26.5 112.389,-26.5 112.389,-6.5 71.944,-6.5"/>
<text text-anchor="middle" x="92.1665" y="-13.5" font-family="Helvetica,sans-Serif" font-size="10.00" fill="#000000">mpi.h</text>
</a>
</g>
</g>
<!-- Node1&#45;&gt;Node3 -->
<g id="edge2" class="edge">
<title>Node1&#45;&gt;Node3</title>
<path fill="none" stroke="#191970" d="M139.4267,-69.4032C129.4364,-58.2201 117.4701,-44.8249 108.0782,-34.3117"/>
<polygon fill="#191970" stroke="#191970" points="110.4574,-31.7212 101.185,-26.5954 105.237,-36.3848 110.4574,-31.7212"/>
</g>
<!-- Node4 -->
<g id="node4" class="node">
<title>Node4</title>
<g id="a_node4"><a xlink:title=" ">
<polygon fill="#ffffff" stroke="#bfbfbf" points="130.6055,-6.5 130.6055,-26.5 187.7275,-26.5 187.7275,-6.5 130.6055,-6.5"/>
<text text-anchor="middle" x="159.1665" y="-13.5" font-family="Helvetica,sans-Serif" font-size="10.00" fill="#000000">dg_mpi.h</text>
</a>
</g>
</g>
<!-- Node1&#45;&gt;Node4 -->
<g id="edge3" class="edge">
<title>Node1&#45;&gt;Node4</title>
<path fill="none" stroke="#191970" d="M159.1665,-69.4032C159.1665,-59.1059 159.1665,-46.9331 159.1665,-36.8616"/>
<polygon fill="#191970" stroke="#191970" points="162.6666,-36.5953 159.1665,-26.5954 155.6666,-36.5954 162.6666,-36.5953"/>
</g>
<!-- Node5 -->
<g id="node5" class="node">
<title>Node5</title>
<g id="a_node5"><a xlink:title=" ">
<polygon fill="#ffffff" stroke="#bfbfbf" points="205.4915,-6.5 205.4915,-26.5 274.8415,-26.5 274.8415,-6.5 205.4915,-6.5"/>
<text text-anchor="middle" x="240.1665" y="-13.5" font-family="Helvetica,sans-Serif" font-size="10.00" fill="#000000">dg_param.h</text>
</a>
</g>
</g>
<!-- Node1&#45;&gt;Node5 -->
<g id="edge4" class="edge">
<title>Node1&#45;&gt;Node5</title>
<path fill="none" stroke="#191970" d="M183.0311,-69.4032C195.348,-57.9986 210.1494,-44.2936 221.6007,-33.6905"/>
<polygon fill="#191970" stroke="#191970" points="224.3038,-35.9576 229.2635,-26.5954 219.5479,-30.8213 224.3038,-35.9576"/>
</g>
<!-- Node6 -->
<g id="node6" class="node">
<title>Node6</title>
<g id="a_node6"><a xlink:title=" ">
<polygon fill="#ffffff" stroke="#bfbfbf" points="293.2105,-.5 293.2105,-32.5 393.1225,-32.5 393.1225,-.5 293.2105,-.5"/>
<text text-anchor="start" x="301.2105" y="-19.5" font-family="Helvetica,sans-Serif" font-size="10.00" fill="#000000">dg_prepare_hilbert</text>
<text text-anchor="middle" x="343.1665" y="-7.5" font-family="Helvetica,sans-Serif" font-size="10.00" fill="#000000">_scheme.h</text>
</a>
</g>
</g>
<!-- Node1&#45;&gt;Node6 -->
<g id="edge5" class="edge">
<title>Node1&#45;&gt;Node6</title>
<path fill="none" stroke="#191970" d="M213.3774,-69.4032C239.0389,-58.9433 269.448,-46.5483 294.379,-36.3862"/>
<polygon fill="#191970" stroke="#191970" points="295.7053,-39.6253 303.6445,-32.6095 293.0631,-33.1431 295.7053,-39.6253"/>
</g>
</g>
</svg>
