<?xml version="1.0" encoding="UTF-8" standalone="no"?>
<!DOCTYPE svg PUBLIC "-//W3C//DTD SVG 1.1//EN"
 "http://www.w3.org/Graphics/SVG/1.1/DTD/svg11.dtd">
<!-- Generated by graphviz version 2.40.1 (20161225.0304)
 -->
<!-- Title: /home/shiqi/Documents/thesis/DG_wave_c/src/dg_hilbert_sort.cpp Pages: 1 -->
<svg width="577pt" height="110pt"
 viewBox="0.00 0.00 577.46 110.00" xmlns="http://www.w3.org/2000/svg" xmlns:xlink="http://www.w3.org/1999/xlink">
<g id="graph0" class="graph" transform="scale(1 1) rotate(0) translate(4 106)">
<title>/home/shiqi/Documents/thesis/DG_wave_c/src/dg_hilbert_sort.cpp</title>
<polygon fill="#ffffff" stroke="transparent" points="-4,4 -4,-106 573.459,-106 573.459,4 -4,4"/>
<!-- Node1 -->
<g id="node1" class="node">
<title>Node1</title>
<g id="a_node1"><a xlink:title=" ">
<polygon fill="#bfbfbf" stroke="#000000" points="186.9355,-57.5 186.9355,-101.5 307.3975,-101.5 307.3975,-57.5 186.9355,-57.5"/>
<text text-anchor="start" x="194.9355" y="-88.5" font-family="Helvetica,sans-Serif" font-size="10.00" fill="#000000">/home/shiqi/Documents</text>
<text text-anchor="start" x="194.9355" y="-76.5" font-family="Helvetica,sans-Serif" font-size="10.00" fill="#000000">/thesis/DG_wave_c/src</text>
<text text-anchor="middle" x="247.1665" y="-64.5" font-family="Helvetica,sans-Serif" font-size="10.00" fill="#000000">/dg_hilbert_sort.cpp</text>
</a>
</g>
</g>
<!-- Node2 -->
<g id="node2" class="node">
<title>Node2</title>
<g id="a_node2"><a xlink:title=" ">
<polygon fill="#ffffff" stroke="#bfbfbf" points="0,-.5 0,-20.5 54.333,-20.5 54.333,-.5 0,-.5"/>
<text text-anchor="middle" x="27.1665" y="-7.5" font-family="Helvetica,sans-Serif" font-size="10.00" fill="#000000">iostream</text>
</a>
</g>
</g>
<!-- Node1&#45;&gt;Node2 -->
<g id="edge1" class="edge">
<title>Node1&#45;&gt;Node2</title>
<path fill="none" stroke="#191970" d="M186.7595,-60.5542C147.5646,-48.2612 97.7452,-32.6361 64.2844,-22.1415"/>
<polygon fill="#191970" stroke="#191970" points="65.0442,-18.7118 54.455,-19.0587 62.9493,-25.391 65.0442,-18.7118"/>
</g>
<!-- Node3 -->
<g id="node3" class="node">
<title>Node3</title>
<g id="a_node3"><a xlink:title=" ">
<polygon fill="#ffffff" stroke="#bfbfbf" points="71.944,-.5 71.944,-20.5 112.389,-20.5 112.389,-.5 71.944,-.5"/>
<text text-anchor="middle" x="92.1665" y="-7.5" font-family="Helvetica,sans-Serif" font-size="10.00" fill="#000000">mpi.h</text>
</a>
</g>
</g>
<!-- Node1&#45;&gt;Node3 -->
<g id="edge2" class="edge">
<title>Node1&#45;&gt;Node3</title>
<path fill="none" stroke="#191970" d="M197.6974,-57.4783C172.6506,-46.3284 143.0896,-33.169 121.6355,-23.6184"/>
<polygon fill="#191970" stroke="#191970" points="122.9531,-20.3739 112.394,-19.5045 120.1063,-26.7689 122.9531,-20.3739"/>
</g>
<!-- Node4 -->
<g id="node4" class="node">
<title>Node4</title>
<g id="a_node4"><a xlink:title=" ">
<polygon fill="#ffffff" stroke="#bfbfbf" points="130.6415,-.5 130.6415,-20.5 251.6915,-20.5 251.6915,-.5 130.6415,-.5"/>
<text text-anchor="middle" x="191.1665" y="-7.5" font-family="Helvetica,sans-Serif" font-size="10.00" fill="#000000">dg_nodal_2d_storage.h</text>
</a>
</g>
</g>
<!-- Node1&#45;&gt;Node4 -->
<g id="edge3" class="edge">
<title>Node1&#45;&gt;Node4</title>
<path fill="none" stroke="#191970" d="M229.1395,-57.2882C221.6576,-48.0694 213.083,-37.5042 205.9772,-28.7488"/>
<polygon fill="#191970" stroke="#191970" points="208.4752,-26.2727 199.4559,-20.7137 203.04,-30.6839 208.4752,-26.2727"/>
</g>
<!-- Node5 -->
<g id="node5" class="node">
<title>Node5</title>
<g id="a_node5"><a xlink:title=" ">
<polygon fill="#ffffff" stroke="#bfbfbf" points="269.4915,-.5 269.4915,-20.5 338.8415,-20.5 338.8415,-.5 269.4915,-.5"/>
<text text-anchor="middle" x="304.1665" y="-7.5" font-family="Helvetica,sans-Serif" font-size="10.00" fill="#000000">dg_param.h</text>
</a>
</g>
</g>
<!-- Node1&#45;&gt;Node5 -->
<g id="edge4" class="edge">
<title>Node1&#45;&gt;Node5</title>
<path fill="none" stroke="#191970" d="M265.5154,-57.2882C273.2102,-47.9734 282.0406,-37.2839 289.3169,-28.4758"/>
<polygon fill="#191970" stroke="#191970" points="292.0586,-30.6524 295.7291,-20.7137 286.6619,-26.1942 292.0586,-30.6524"/>
</g>
<!-- Node6 -->
<g id="node6" class="node">
<title>Node6</title>
<g id="a_node6"><a xlink:title=" ">
<polygon fill="#ffffff" stroke="#bfbfbf" points="357.0445,-.5 357.0445,-20.5 455.2885,-20.5 455.2885,-.5 357.0445,-.5"/>
<text text-anchor="middle" x="406.1665" y="-7.5" font-family="Helvetica,sans-Serif" font-size="10.00" fill="#000000">dg_hilbert_curve.h</text>
</a>
</g>
</g>
<!-- Node1&#45;&gt;Node6 -->
<g id="edge5" class="edge">
<title>Node1&#45;&gt;Node6</title>
<path fill="none" stroke="#191970" d="M297.9123,-57.4783C322.6596,-46.7388 351.7031,-34.135 373.4736,-24.6875"/>
<polygon fill="#191970" stroke="#191970" points="375.1428,-27.7786 382.9229,-20.5869 372.3561,-21.3571 375.1428,-27.7786"/>
</g>
<!-- Node7 -->
<g id="node7" class="node">
<title>Node7</title>
<g id="a_node7"><a xlink:title=" ">
<polygon fill="#ffffff" stroke="#bfbfbf" points="472.874,-.5 472.874,-20.5 569.459,-20.5 569.459,-.5 472.874,-.5"/>
<text text-anchor="middle" x="521.1665" y="-7.5" font-family="Helvetica,sans-Serif" font-size="10.00" fill="#000000">dg_single_index.h</text>
</a>
</g>
</g>
<!-- Node1&#45;&gt;Node7 -->
<g id="edge6" class="edge">
<title>Node1&#45;&gt;Node7</title>
<path fill="none" stroke="#191970" d="M307.6362,-64.2722C356.8224,-51.8859 425.3863,-34.6198 471.4274,-23.0255"/>
<polygon fill="#191970" stroke="#191970" points="472.3394,-26.4052 481.1819,-20.5691 470.63,-19.6171 472.3394,-26.4052"/>
</g>
</g>
</svg>
