<?xml version="1.0" encoding="UTF-8" standalone="no"?>
<!DOCTYPE svg PUBLIC "-//W3C//DTD SVG 1.1//EN"
 "http://www.w3.org/Graphics/SVG/1.1/DTD/svg11.dtd">
<!-- Generated by graphviz version 2.40.1 (20161225.0304)
 -->
<!-- Title: /home/shiqi/Documents/thesis/new/DG_wave_c/src/dg_external_state.cpp Pages: 1 -->
<svg width="439pt" height="110pt"
 viewBox="0.00 0.00 438.58 110.00" xmlns="http://www.w3.org/2000/svg" xmlns:xlink="http://www.w3.org/1999/xlink">
<g id="graph0" class="graph" transform="scale(1 1) rotate(0) translate(4 106)">
<title>/home/shiqi/Documents/thesis/new/DG_wave_c/src/dg_external_state.cpp</title>
<polygon fill="#ffffff" stroke="transparent" points="-4,4 -4,-106 434.5815,-106 434.5815,4 -4,4"/>
<!-- Node1 -->
<g id="node1" class="node">
<title>Node1</title>
<g id="a_node1"><a xlink:title=" ">
<polygon fill="#bfbfbf" stroke="#000000" points="166.277,-57.5 166.277,-101.5 299.536,-101.5 299.536,-57.5 166.277,-57.5"/>
<text text-anchor="start" x="174.277" y="-88.5" font-family="Helvetica,sans-Serif" font-size="10.00" fill="#000000">/home/shiqi/Documents</text>
<text text-anchor="start" x="174.277" y="-76.5" font-family="Helvetica,sans-Serif" font-size="10.00" fill="#000000">/thesis/new/DG_wave_c</text>
<text text-anchor="middle" x="232.9065" y="-64.5" font-family="Helvetica,sans-Serif" font-size="10.00" fill="#000000">/src/dg_external_state.cpp</text>
</a>
</g>
</g>
<!-- Node2 -->
<g id="node2" class="node">
<title>Node2</title>
<g id="a_node2"><a xlink:title=" ">
<polygon fill="#ffffff" stroke="#bfbfbf" points="0,-.5 0,-20.5 103.813,-20.5 103.813,-.5 0,-.5"/>
<text text-anchor="middle" x="51.9065" y="-7.5" font-family="Helvetica,sans-Serif" font-size="10.00" fill="#000000">dg_external_state.h</text>
</a>
</g>
</g>
<!-- Node1&#45;&gt;Node2 -->
<g id="edge1" class="edge">
<title>Node1&#45;&gt;Node2</title>
<path fill="none" stroke="#191970" d="M175.1393,-57.4783C146.4602,-46.5453 112.7127,-33.6802 87.7915,-24.1799"/>
<polygon fill="#191970" stroke="#191970" points="88.9571,-20.8786 78.3662,-20.5869 86.4635,-27.4194 88.9571,-20.8786"/>
</g>
<!-- Node3 -->
<g id="node3" class="node">
<title>Node3</title>
<g id="a_node3"><a xlink:title=" ">
<polygon fill="#ffffff" stroke="#bfbfbf" points="122.2935,-.5 122.2935,-20.5 165.5195,-20.5 165.5195,-.5 122.2935,-.5"/>
<text text-anchor="middle" x="143.9065" y="-7.5" font-family="Helvetica,sans-Serif" font-size="10.00" fill="#000000">vector</text>
</a>
</g>
</g>
<!-- Node1&#45;&gt;Node3 -->
<g id="edge2" class="edge">
<title>Node1&#45;&gt;Node3</title>
<path fill="none" stroke="#191970" d="M204.2564,-57.2882C191.4986,-47.3972 176.7414,-35.9563 165.0133,-26.8637"/>
<polygon fill="#191970" stroke="#191970" points="167.1283,-24.0747 157.0807,-20.7137 162.8393,-29.6069 167.1283,-24.0747"/>
</g>
<!-- Node4 -->
<g id="node4" class="node">
<title>Node4</title>
<g id="a_node4"><a xlink:title=" ">
<polygon fill="#ffffff" stroke="#bfbfbf" points="183.4995,-.5 183.4995,-20.5 282.3135,-20.5 282.3135,-.5 183.4995,-.5"/>
<text text-anchor="middle" x="232.9065" y="-7.5" font-family="Helvetica,sans-Serif" font-size="10.00" fill="#000000">dg_user_defined.h</text>
</a>
</g>
</g>
<!-- Node1&#45;&gt;Node4 -->
<g id="edge3" class="edge">
<title>Node1&#45;&gt;Node4</title>
<path fill="none" stroke="#191970" d="M232.9065,-57.2882C232.9065,-48.8377 232.9065,-39.2557 232.9065,-30.9736"/>
<polygon fill="#191970" stroke="#191970" points="236.4066,-30.7136 232.9065,-20.7137 229.4066,-30.7137 236.4066,-30.7136"/>
</g>
<!-- Node5 -->
<g id="node5" class="node">
<title>Node5</title>
<g id="a_node5"><a xlink:title=" ">
<polygon fill="#ffffff" stroke="#bfbfbf" points="300.2935,-.5 300.2935,-20.5 343.5195,-20.5 343.5195,-.5 300.2935,-.5"/>
<text text-anchor="middle" x="321.9065" y="-7.5" font-family="Helvetica,sans-Serif" font-size="10.00" fill="#000000">cmath</text>
</a>
</g>
</g>
<!-- Node1&#45;&gt;Node5 -->
<g id="edge4" class="edge">
<title>Node1&#45;&gt;Node5</title>
<path fill="none" stroke="#191970" d="M261.5566,-57.2882C274.3144,-47.3972 289.0716,-35.9563 300.7997,-26.8637"/>
<polygon fill="#191970" stroke="#191970" points="302.9737,-29.6069 308.7323,-20.7137 298.6847,-24.0747 302.9737,-29.6069"/>
</g>
<!-- Node6 -->
<g id="node6" class="node">
<title>Node6</title>
<g id="a_node6"><a xlink:title=" ">
<polygon fill="#ffffff" stroke="#bfbfbf" points="361.2315,-.5 361.2315,-20.5 430.5815,-20.5 430.5815,-.5 361.2315,-.5"/>
<text text-anchor="middle" x="395.9065" y="-7.5" font-family="Helvetica,sans-Serif" font-size="10.00" fill="#000000">dg_param.h</text>
</a>
</g>
</g>
<!-- Node1&#45;&gt;Node6 -->
<g id="edge5" class="edge">
<title>Node1&#45;&gt;Node6</title>
<path fill="none" stroke="#191970" d="M284.9289,-57.4783C310.4131,-46.6905 340.3413,-34.0215 362.6923,-24.56"/>
<polygon fill="#191970" stroke="#191970" points="364.2336,-27.7083 372.0781,-20.5869 361.5048,-21.262 364.2336,-27.7083"/>
</g>
</g>
</svg>
