<?xml version="1.0" encoding="UTF-8" standalone="no"?>
<!DOCTYPE svg PUBLIC "-//W3C//DTD SVG 1.1//EN"
 "http://www.w3.org/Graphics/SVG/1.1/DTD/svg11.dtd">
<!-- Generated by graphviz version 2.40.1 (20161225.0304)
 -->
<!-- Title: /home/shiqi/Documents/thesis/new/DG_wave_c/src/dg_neighbour_list.cpp Pages: 1 -->
<svg width="548pt" height="110pt"
 viewBox="0.00 0.00 548.24 110.00" xmlns="http://www.w3.org/2000/svg" xmlns:xlink="http://www.w3.org/1999/xlink">
<g id="graph0" class="graph" transform="scale(1 1) rotate(0) translate(4 106)">
<title>/home/shiqi/Documents/thesis/new/DG_wave_c/src/dg_neighbour_list.cpp</title>
<polygon fill="#ffffff" stroke="transparent" points="-4,4 -4,-106 544.239,-106 544.239,4 -4,4"/>
<!-- Node1 -->
<g id="node1" class="node">
<title>Node1</title>
<g id="a_node1"><a xlink:title=" ">
<polygon fill="#bfbfbf" stroke="#000000" points="227.277,-57.5 227.277,-101.5 359.975,-101.5 359.975,-57.5 227.277,-57.5"/>
<text text-anchor="start" x="235.277" y="-88.5" font-family="Helvetica,sans-Serif" font-size="10.00" fill="#000000">/home/shiqi/Documents</text>
<text text-anchor="start" x="235.277" y="-76.5" font-family="Helvetica,sans-Serif" font-size="10.00" fill="#000000">/thesis/new/DG_wave_c</text>
<text text-anchor="middle" x="293.626" y="-64.5" font-family="Helvetica,sans-Serif" font-size="10.00" fill="#000000">/src/dg_neighbour_list.cpp</text>
</a>
</g>
</g>
<!-- Node2 -->
<g id="node2" class="node">
<title>Node2</title>
<g id="a_node2"><a xlink:title=" ">
<polygon fill="#ffffff" stroke="#bfbfbf" points="0,-.5 0,-20.5 103.252,-20.5 103.252,-.5 0,-.5"/>
<text text-anchor="middle" x="51.626" y="-7.5" font-family="Helvetica,sans-Serif" font-size="10.00" fill="#000000">dg_neighbour_list.h</text>
</a>
</g>
</g>
<!-- Node1&#45;&gt;Node2 -->
<g id="edge1" class="edge">
<title>Node1&#45;&gt;Node2</title>
<path fill="none" stroke="#191970" d="M227.1783,-60.5542C185.7387,-48.7387 133.5024,-33.8449 96.8246,-23.3872"/>
<polygon fill="#191970" stroke="#191970" points="97.4905,-19.9376 86.914,-20.5615 95.571,-26.6693 97.4905,-19.9376"/>
</g>
<!-- Node3 -->
<g id="node3" class="node">
<title>Node3</title>
<g id="a_node3"><a xlink:title=" ">
<polygon fill="#ffffff" stroke="#bfbfbf" points="121.3375,-.5 121.3375,-20.5 207.9145,-20.5 207.9145,-.5 121.3375,-.5"/>
<text text-anchor="middle" x="164.626" y="-7.5" font-family="Helvetica,sans-Serif" font-size="10.00" fill="#000000">unordered_map</text>
</a>
</g>
</g>
<!-- Node1&#45;&gt;Node3 -->
<g id="edge2" class="edge">
<title>Node1&#45;&gt;Node3</title>
<path fill="none" stroke="#191970" d="M252.4549,-57.4783C232.9195,-47.0291 210.0844,-34.815 192.5953,-25.4603"/>
<polygon fill="#191970" stroke="#191970" points="193.9527,-22.2172 183.484,-20.5869 190.6511,-28.3897 193.9527,-22.2172"/>
</g>
<!-- Node4 -->
<g id="node4" class="node">
<title>Node4</title>
<g id="a_node4"><a xlink:title=" ">
<polygon fill="#ffffff" stroke="#bfbfbf" points="226.013,-.5 226.013,-20.5 269.239,-20.5 269.239,-.5 226.013,-.5"/>
<text text-anchor="middle" x="247.626" y="-7.5" font-family="Helvetica,sans-Serif" font-size="10.00" fill="#000000">vector</text>
</a>
</g>
</g>
<!-- Node1&#45;&gt;Node4 -->
<g id="edge3" class="edge">
<title>Node1&#45;&gt;Node4</title>
<path fill="none" stroke="#191970" d="M278.8181,-57.2882C272.8003,-48.2615 265.9219,-37.9438 260.1583,-29.2984"/>
<polygon fill="#191970" stroke="#191970" points="262.8943,-27.0927 254.4351,-20.7137 257.07,-30.9757 262.8943,-27.0927"/>
</g>
<!-- Node5 -->
<g id="node5" class="node">
<title>Node5</title>
<g id="a_node5"><a xlink:title=" ">
<polygon fill="#ffffff" stroke="#bfbfbf" points="287.445,-.5 287.445,-20.5 391.807,-20.5 391.807,-.5 287.445,-.5"/>
<text text-anchor="middle" x="339.626" y="-7.5" font-family="Helvetica,sans-Serif" font-size="10.00" fill="#000000">dg_cantor_pairing.h</text>
</a>
</g>
</g>
<!-- Node1&#45;&gt;Node5 -->
<g id="edge4" class="edge">
<title>Node1&#45;&gt;Node5</title>
<path fill="none" stroke="#191970" d="M308.4339,-57.2882C314.4517,-48.2615 321.3301,-37.9438 327.0937,-29.2984"/>
<polygon fill="#191970" stroke="#191970" points="330.182,-30.9757 332.8169,-20.7137 324.3577,-27.0927 330.182,-30.9757"/>
</g>
<!-- Node6 -->
<g id="node6" class="node">
<title>Node6</title>
<g id="a_node6"><a xlink:title=" ">
<polygon fill="#ffffff" stroke="#bfbfbf" points="409.951,-.5 409.951,-20.5 479.301,-20.5 479.301,-.5 409.951,-.5"/>
<text text-anchor="middle" x="444.626" y="-7.5" font-family="Helvetica,sans-Serif" font-size="10.00" fill="#000000">dg_param.h</text>
</a>
</g>
</g>
<!-- Node1&#45;&gt;Node6 -->
<g id="edge5" class="edge">
<title>Node1&#45;&gt;Node6</title>
<path fill="none" stroke="#191970" d="M341.8185,-57.4783C365.2148,-46.7872 392.6545,-34.2486 413.2982,-24.8154"/>
<polygon fill="#191970" stroke="#191970" points="414.9111,-27.9265 422.5519,-20.5869 412.0018,-21.5597 414.9111,-27.9265"/>
</g>
<!-- Node7 -->
<g id="node7" class="node">
<title>Node7</title>
<g id="a_node7"><a xlink:title=" ">
<polygon fill="#ffffff" stroke="#bfbfbf" points="497.013,-.5 497.013,-20.5 540.239,-20.5 540.239,-.5 497.013,-.5"/>
<text text-anchor="middle" x="518.626" y="-7.5" font-family="Helvetica,sans-Serif" font-size="10.00" fill="#000000">cmath</text>
</a>
</g>
</g>
<!-- Node1&#45;&gt;Node7 -->
<g id="edge6" class="edge">
<title>Node1&#45;&gt;Node7</title>
<path fill="none" stroke="#191970" d="M360.1948,-60.3395C395.5534,-49.9728 439.9427,-36.6607 486.9574,-21.466"/>
<polygon fill="#191970" stroke="#191970" points="488.2796,-24.7166 496.7097,-18.2991 486.1176,-18.0589 488.2796,-24.7166"/>
</g>
</g>
</svg>
