<?xml version="1.0" encoding="UTF-8" standalone="no"?>
<!DOCTYPE svg PUBLIC "-//W3C//DTD SVG 1.1//EN"
 "http://www.w3.org/Graphics/SVG/1.1/DTD/svg11.dtd">
<!-- Generated by graphviz version 2.40.1 (20161225.0304)
 -->
<!-- Title: /home/shiqi/Documents/thesis/new/DG_wave_c/src/dg_load_balancing.cpp Pages: 1 -->
<svg width="794pt" height="110pt"
 viewBox="0.00 0.00 794.30 110.00" xmlns="http://www.w3.org/2000/svg" xmlns:xlink="http://www.w3.org/1999/xlink">
<g id="graph0" class="graph" transform="scale(1 1) rotate(0) translate(4 106)">
<title>/home/shiqi/Documents/thesis/new/DG_wave_c/src/dg_load_balancing.cpp</title>
<polygon fill="#ffffff" stroke="transparent" points="-4,4 -4,-106 790.2975,-106 790.2975,4 -4,4"/>
<!-- Node1 -->
<g id="node1" class="node">
<title>Node1</title>
<g id="a_node1"><a xlink:title=" ">
<polygon fill="#bfbfbf" stroke="#000000" points="374.277,-57.5 374.277,-101.5 511.985,-101.5 511.985,-57.5 374.277,-57.5"/>
<text text-anchor="start" x="382.277" y="-88.5" font-family="Helvetica,sans-Serif" font-size="10.00" fill="#000000">/home/shiqi/Documents</text>
<text text-anchor="start" x="382.277" y="-76.5" font-family="Helvetica,sans-Serif" font-size="10.00" fill="#000000">/thesis/new/DG_wave_c</text>
<text text-anchor="middle" x="443.131" y="-64.5" font-family="Helvetica,sans-Serif" font-size="10.00" fill="#000000">/src/dg_load_balancing.cpp</text>
</a>
</g>
</g>
<!-- Node2 -->
<g id="node2" class="node">
<title>Node2</title>
<g id="a_node2"><a xlink:title=" ">
<polygon fill="#ffffff" stroke="#bfbfbf" points="0,-.5 0,-20.5 108.262,-20.5 108.262,-.5 0,-.5"/>
<text text-anchor="middle" x="54.131" y="-7.5" font-family="Helvetica,sans-Serif" font-size="10.00" fill="#000000">dg_load_balancing.h</text>
</a>
</g>
</g>
<!-- Node1&#45;&gt;Node2 -->
<g id="edge1" class="edge">
<title>Node1&#45;&gt;Node2</title>
<path fill="none" stroke="#191970" d="M374.0338,-67.2437C301.7218,-54.4171 189.0952,-34.4397 118.5736,-21.9307"/>
<polygon fill="#191970" stroke="#191970" points="118.9417,-18.4414 108.484,-20.141 117.719,-25.3338 118.9417,-18.4414"/>
</g>
<!-- Node3 -->
<g id="node3" class="node">
<title>Node3</title>
<g id="a_node3"><a xlink:title=" ">
<polygon fill="#ffffff" stroke="#bfbfbf" points="126.3405,-.5 126.3405,-20.5 237.9215,-20.5 237.9215,-.5 126.3405,-.5"/>
<text text-anchor="middle" x="182.131" y="-7.5" font-family="Helvetica,sans-Serif" font-size="10.00" fill="#000000">dg_reallocate_elem.h</text>
</a>
</g>
</g>
<!-- Node1&#45;&gt;Node3 -->
<g id="edge2" class="edge">
<title>Node1&#45;&gt;Node3</title>
<path fill="none" stroke="#191970" d="M374.2149,-61.2808C328.8261,-49.2815 270.5409,-33.8727 230.1374,-23.1913"/>
<polygon fill="#191970" stroke="#191970" points="230.8317,-19.7547 220.2693,-20.5825 229.0425,-26.5222 230.8317,-19.7547"/>
</g>
<!-- Node4 -->
<g id="node4" class="node">
<title>Node4</title>
<g id="a_node4"><a xlink:title=" ">
<polygon fill="#ffffff" stroke="#bfbfbf" points="255.949,-.5 255.949,-20.5 360.313,-20.5 360.313,-.5 255.949,-.5"/>
<text text-anchor="middle" x="308.131" y="-7.5" font-family="Helvetica,sans-Serif" font-size="10.00" fill="#000000">dg_proc_mapping.h</text>
</a>
</g>
</g>
<!-- Node1&#45;&gt;Node4 -->
<g id="edge3" class="edge">
<title>Node1&#45;&gt;Node4</title>
<path fill="none" stroke="#191970" d="M400.045,-57.4783C379.4117,-46.9323 355.2609,-34.5886 336.8942,-25.2012"/>
<polygon fill="#191970" stroke="#191970" points="338.3634,-22.0215 327.8662,-20.5869 335.1776,-28.2546 338.3634,-22.0215"/>
</g>
<!-- Node5 -->
<g id="node5" class="node">
<title>Node5</title>
<g id="a_node5"><a xlink:title=" ">
<polygon fill="#ffffff" stroke="#bfbfbf" points="377.8915,-.5 377.8915,-20.5 508.3705,-20.5 508.3705,-.5 377.8915,-.5"/>
<text text-anchor="middle" x="443.131" y="-7.5" font-family="Helvetica,sans-Serif" font-size="10.00" fill="#000000">dg_mpi_table_construct.h</text>
</a>
</g>
</g>
<!-- Node1&#45;&gt;Node5 -->
<g id="edge4" class="edge">
<title>Node1&#45;&gt;Node5</title>
<path fill="none" stroke="#191970" d="M443.131,-57.2882C443.131,-48.8377 443.131,-39.2557 443.131,-30.9736"/>
<polygon fill="#191970" stroke="#191970" points="446.6311,-30.7136 443.131,-20.7137 439.6311,-30.7137 446.6311,-30.7136"/>
</g>
<!-- Node6 -->
<g id="node6" class="node">
<title>Node6</title>
<g id="a_node6"><a xlink:title=" ">
<polygon fill="#ffffff" stroke="#bfbfbf" points="525.894,-.5 525.894,-20.5 626.368,-20.5 626.368,-.5 525.894,-.5"/>
<text text-anchor="middle" x="576.131" y="-7.5" font-family="Helvetica,sans-Serif" font-size="10.00" fill="#000000">dg_local_storage.h</text>
</a>
</g>
</g>
<!-- Node1&#45;&gt;Node6 -->
<g id="edge5" class="edge">
<title>Node1&#45;&gt;Node6</title>
<path fill="none" stroke="#191970" d="M485.5787,-57.4783C505.9063,-46.9323 529.6993,-34.5886 547.7939,-25.2012"/>
<polygon fill="#191970" stroke="#191970" points="549.4235,-28.2988 556.6882,-20.5869 546.1999,-22.0852 549.4235,-28.2988"/>
</g>
<!-- Node7 -->
<g id="node7" class="node">
<title>Node7</title>
<g id="a_node7"><a xlink:title=" ">
<polygon fill="#ffffff" stroke="#bfbfbf" points="644.456,-.5 644.456,-20.5 713.806,-20.5 713.806,-.5 644.456,-.5"/>
<text text-anchor="middle" x="679.131" y="-7.5" font-family="Helvetica,sans-Serif" font-size="10.00" fill="#000000">dg_param.h</text>
</a>
</g>
</g>
<!-- Node1&#45;&gt;Node7 -->
<g id="edge6" class="edge">
<title>Node1&#45;&gt;Node7</title>
<path fill="none" stroke="#191970" d="M512.0264,-59.3569C551.6515,-47.7715 600.2683,-33.5573 634.8248,-23.4539"/>
<polygon fill="#191970" stroke="#191970" points="636.0091,-26.7543 644.6251,-20.5886 634.0447,-20.0355 636.0091,-26.7543"/>
</g>
<!-- Node8 -->
<g id="node8" class="node">
<title>Node8</title>
<g id="a_node8"><a xlink:title=" ">
<polygon fill="#ffffff" stroke="#bfbfbf" points="731.9645,-.5 731.9645,-20.5 786.2975,-20.5 786.2975,-.5 731.9645,-.5"/>
<text text-anchor="middle" x="759.131" y="-7.5" font-family="Helvetica,sans-Serif" font-size="10.00" fill="#000000">iostream</text>
</a>
</g>
</g>
<!-- Node1&#45;&gt;Node8 -->
<g id="edge7" class="edge">
<title>Node1&#45;&gt;Node8</title>
<path fill="none" stroke="#191970" d="M512.2252,-66.6194C566.7718,-56.0938 644.9728,-40.2168 721.8224,-21.2038"/>
<polygon fill="#191970" stroke="#191970" points="722.8176,-24.5629 731.6736,-18.7473 721.1238,-17.7709 722.8176,-24.5629"/>
</g>
</g>
</svg>
