<?xml version="1.0" encoding="UTF-8" standalone="no"?>
<!DOCTYPE svg PUBLIC "-//W3C//DTD SVG 1.1//EN"
 "http://www.w3.org/Graphics/SVG/1.1/DTD/svg11.dtd">
<!-- Generated by graphviz version 2.40.1 (20161225.0304)
 -->
<!-- Title: /home/shiqi/Documents/thesis/new/DG_wave_c/src/dg_user_defined.cpp Pages: 1 -->
<svg width="869pt" height="110pt"
 viewBox="0.00 0.00 868.69 110.00" xmlns="http://www.w3.org/2000/svg" xmlns:xlink="http://www.w3.org/1999/xlink">
<g id="graph0" class="graph" transform="scale(1 1) rotate(0) translate(4 106)">
<title>/home/shiqi/Documents/thesis/new/DG_wave_c/src/dg_user_defined.cpp</title>
<polygon fill="#ffffff" stroke="transparent" points="-4,4 -4,-106 864.694,-106 864.694,4 -4,4"/>
<!-- Node1 -->
<g id="node1" class="node">
<title>Node1</title>
<g id="a_node1"><a xlink:title=" ">
<polygon fill="#bfbfbf" stroke="#000000" points="370.277,-57.5 370.277,-101.5 498.537,-101.5 498.537,-57.5 370.277,-57.5"/>
<text text-anchor="start" x="378.277" y="-88.5" font-family="Helvetica,sans-Serif" font-size="10.00" fill="#000000">/home/shiqi/Documents</text>
<text text-anchor="start" x="378.277" y="-76.5" font-family="Helvetica,sans-Serif" font-size="10.00" fill="#000000">/thesis/new/DG_wave_c</text>
<text text-anchor="middle" x="434.407" y="-64.5" font-family="Helvetica,sans-Serif" font-size="10.00" fill="#000000">/src/dg_user_defined.cpp</text>
</a>
</g>
</g>
<!-- Node2 -->
<g id="node2" class="node">
<title>Node2</title>
<g id="a_node2"><a xlink:title=" ">
<polygon fill="#ffffff" stroke="#bfbfbf" points="0,-.5 0,-20.5 98.814,-20.5 98.814,-.5 0,-.5"/>
<text text-anchor="middle" x="49.407" y="-7.5" font-family="Helvetica,sans-Serif" font-size="10.00" fill="#000000">dg_user_defined.h</text>
</a>
</g>
</g>
<!-- Node1&#45;&gt;Node2 -->
<g id="edge1" class="edge">
<title>Node1&#45;&gt;Node2</title>
<path fill="none" stroke="#191970" d="M369.9667,-67.951C297.2305,-54.9151 179.8524,-33.8785 109.121,-21.202"/>
<polygon fill="#191970" stroke="#191970" points="109.4951,-17.7134 99.0345,-19.3943 108.2602,-24.6036 109.4951,-17.7134"/>
</g>
<!-- Node3 -->
<g id="node3" class="node">
<title>Node3</title>
<g id="a_node3"><a xlink:title=" ">
<polygon fill="#ffffff" stroke="#bfbfbf" points="117.1695,-.5 117.1695,-20.5 207.6445,-20.5 207.6445,-.5 117.1695,-.5"/>
<text text-anchor="middle" x="162.407" y="-7.5" font-family="Helvetica,sans-Serif" font-size="10.00" fill="#000000">dg_affine_map.h</text>
</a>
</g>
</g>
<!-- Node1&#45;&gt;Node3 -->
<g id="edge2" class="edge">
<title>Node1&#45;&gt;Node3</title>
<path fill="none" stroke="#191970" d="M369.9468,-63.148C321.5594,-50.8732 256.2818,-34.3138 211.9467,-23.0671"/>
<polygon fill="#191970" stroke="#191970" points="212.539,-19.6065 201.9854,-20.5401 210.8178,-26.3916 212.539,-19.6065"/>
</g>
<!-- Node4 -->
<g id="node4" class="node">
<title>Node4</title>
<g id="a_node4"><a xlink:title=" ">
<polygon fill="#ffffff" stroke="#bfbfbf" points="225.794,-.5 225.794,-20.5 269.02,-20.5 269.02,-.5 225.794,-.5"/>
<text text-anchor="middle" x="247.407" y="-7.5" font-family="Helvetica,sans-Serif" font-size="10.00" fill="#000000">cmath</text>
</a>
</g>
</g>
<!-- Node1&#45;&gt;Node4 -->
<g id="edge3" class="edge">
<title>Node1&#45;&gt;Node4</title>
<path fill="none" stroke="#191970" d="M374.7249,-57.4783C342.8788,-45.7276 304.9836,-31.7449 278.8631,-22.1068"/>
<polygon fill="#191970" stroke="#191970" points="280.0591,-18.8175 269.4658,-18.6393 277.6359,-25.3847 280.0591,-18.8175"/>
</g>
<!-- Node5 -->
<g id="node5" class="node">
<title>Node5</title>
<g id="a_node5"><a xlink:title=" ">
<polygon fill="#ffffff" stroke="#bfbfbf" points="286.732,-.5 286.732,-20.5 356.082,-20.5 356.082,-.5 286.732,-.5"/>
<text text-anchor="middle" x="321.407" y="-7.5" font-family="Helvetica,sans-Serif" font-size="10.00" fill="#000000">dg_param.h</text>
</a>
</g>
</g>
<!-- Node1&#45;&gt;Node5 -->
<g id="edge4" class="edge">
<title>Node1&#45;&gt;Node5</title>
<path fill="none" stroke="#191970" d="M398.3424,-57.4783C381.5469,-47.2226 361.967,-35.2667 346.7631,-25.9829"/>
<polygon fill="#191970" stroke="#191970" points="348.2848,-22.8112 337.9261,-20.5869 344.6367,-28.7855 348.2848,-22.8112"/>
</g>
<!-- Node6 -->
<g id="node6" class="node">
<title>Node6</title>
<g id="a_node6"><a xlink:title=" ">
<polygon fill="#ffffff" stroke="#bfbfbf" points="373.882,-.5 373.882,-20.5 494.932,-20.5 494.932,-.5 373.882,-.5"/>
<text text-anchor="middle" x="434.407" y="-7.5" font-family="Helvetica,sans-Serif" font-size="10.00" fill="#000000">dg_nodal_2d_storage.h</text>
</a>
</g>
</g>
<!-- Node1&#45;&gt;Node6 -->
<g id="edge5" class="edge">
<title>Node1&#45;&gt;Node6</title>
<path fill="none" stroke="#191970" d="M434.407,-57.2882C434.407,-48.8377 434.407,-39.2557 434.407,-30.9736"/>
<polygon fill="#191970" stroke="#191970" points="437.9071,-30.7136 434.407,-20.7137 430.9071,-30.7137 437.9071,-30.7136"/>
</g>
<!-- Node7 -->
<g id="node7" class="node">
<title>Node7</title>
<g id="a_node7"><a xlink:title=" ">
<polygon fill="#ffffff" stroke="#bfbfbf" points="513.1145,-.5 513.1145,-20.5 609.6995,-20.5 609.6995,-.5 513.1145,-.5"/>
<text text-anchor="middle" x="561.407" y="-7.5" font-family="Helvetica,sans-Serif" font-size="10.00" fill="#000000">dg_single_index.h</text>
</a>
</g>
</g>
<!-- Node1&#45;&gt;Node7 -->
<g id="edge6" class="edge">
<title>Node1&#45;&gt;Node7</title>
<path fill="none" stroke="#191970" d="M474.9398,-57.4783C494.1723,-47.0291 516.6534,-34.815 533.8713,-25.4603"/>
<polygon fill="#191970" stroke="#191970" points="535.7253,-28.4363 542.8413,-20.5869 532.3835,-22.2855 535.7253,-28.4363"/>
</g>
<!-- Node8 -->
<g id="node8" class="node">
<title>Node8</title>
<g id="a_node8"><a xlink:title=" ">
<polygon fill="#ffffff" stroke="#bfbfbf" points="627.794,-.5 627.794,-20.5 671.02,-20.5 671.02,-.5 627.794,-.5"/>
<text text-anchor="middle" x="649.407" y="-7.5" font-family="Helvetica,sans-Serif" font-size="10.00" fill="#000000">vector</text>
</a>
</g>
</g>
<!-- Node1&#45;&gt;Node8 -->
<g id="edge7" class="edge">
<title>Node1&#45;&gt;Node8</title>
<path fill="none" stroke="#191970" d="M498.7931,-59.3544C531.8054,-48.9491 572.8734,-35.8883 618.0443,-21.081"/>
<polygon fill="#191970" stroke="#191970" points="619.3356,-24.3409 627.7441,-17.8951 617.1512,-17.6904 619.3356,-24.3409"/>
</g>
<!-- Node9 -->
<g id="node9" class="node">
<title>Node9</title>
<g id="a_node9"><a xlink:title=" ">
<polygon fill="#ffffff" stroke="#bfbfbf" points="689.1185,-.5 689.1185,-20.5 775.6955,-20.5 775.6955,-.5 689.1185,-.5"/>
<text text-anchor="middle" x="732.407" y="-7.5" font-family="Helvetica,sans-Serif" font-size="10.00" fill="#000000">unordered_map</text>
</a>
</g>
</g>
<!-- Node1&#45;&gt;Node9 -->
<g id="edge8" class="edge">
<title>Node1&#45;&gt;Node9</title>
<path fill="none" stroke="#191970" d="M498.7017,-64.613C552.5986,-52.1335 628.6376,-34.5271 679.1729,-22.826"/>
<polygon fill="#191970" stroke="#191970" points="679.973,-26.2334 688.9258,-20.5678 678.394,-19.4138 679.973,-26.2334"/>
</g>
<!-- Node10 -->
<g id="node10" class="node">
<title>Node10</title>
<g id="a_node10"><a xlink:title=" ">
<polygon fill="#ffffff" stroke="#bfbfbf" points="794.12,-.5 794.12,-20.5 860.694,-20.5 860.694,-.5 794.12,-.5"/>
<text text-anchor="middle" x="827.407" y="-7.5" font-family="Helvetica,sans-Serif" font-size="10.00" fill="#000000">dg_kx_ky.h</text>
</a>
</g>
</g>
<!-- Node1&#45;&gt;Node10 -->
<g id="edge9" class="edge">
<title>Node1&#45;&gt;Node10</title>
<path fill="none" stroke="#191970" d="M498.8578,-70.1877C567.1475,-59.9915 678.3045,-42.4584 783.7971,-21.0104"/>
<polygon fill="#191970" stroke="#191970" points="784.5649,-24.4259 793.6591,-18.9904 783.1601,-17.5683 784.5649,-24.4259"/>
</g>
</g>
</svg>
