<?xml version="1.0" encoding="UTF-8" standalone="no"?>
<!DOCTYPE svg PUBLIC "-//W3C//DTD SVG 1.1//EN"
 "http://www.w3.org/Graphics/SVG/1.1/DTD/svg11.dtd">
<!-- Generated by graphviz version 2.40.1 (20161225.0304)
 -->
<!-- Title: /home/shiqi/Documents/thesis/new/DG_wave_c/src/dg_elem_length.cpp Pages: 1 -->
<svg width="251pt" height="110pt"
 viewBox="0.00 0.00 251.35 110.00" xmlns="http://www.w3.org/2000/svg" xmlns:xlink="http://www.w3.org/1999/xlink">
<g id="graph0" class="graph" transform="scale(1 1) rotate(0) translate(4 106)">
<title>/home/shiqi/Documents/thesis/new/DG_wave_c/src/dg_elem_length.cpp</title>
<polygon fill="#ffffff" stroke="transparent" points="-4,4 -4,-106 247.35,-106 247.35,4 -4,4"/>
<!-- Node1 -->
<g id="node1" class="node">
<title>Node1</title>
<g id="a_node1"><a xlink:title=" ">
<polygon fill="#bfbfbf" stroke="#000000" points="85.277,-57.5 85.277,-101.5 210.197,-101.5 210.197,-57.5 85.277,-57.5"/>
<text text-anchor="start" x="93.277" y="-88.5" font-family="Helvetica,sans-Serif" font-size="10.00" fill="#000000">/home/shiqi/Documents</text>
<text text-anchor="start" x="93.277" y="-76.5" font-family="Helvetica,sans-Serif" font-size="10.00" fill="#000000">/thesis/new/DG_wave_c</text>
<text text-anchor="middle" x="147.737" y="-64.5" font-family="Helvetica,sans-Serif" font-size="10.00" fill="#000000">/src/dg_elem_length.cpp</text>
</a>
</g>
</g>
<!-- Node2 -->
<g id="node2" class="node">
<title>Node2</title>
<g id="a_node2"><a xlink:title=" ">
<polygon fill="#ffffff" stroke="#bfbfbf" points="0,-.5 0,-20.5 95.474,-20.5 95.474,-.5 0,-.5"/>
<text text-anchor="middle" x="47.737" y="-7.5" font-family="Helvetica,sans-Serif" font-size="10.00" fill="#000000">dg_elem_length.h</text>
</a>
</g>
</g>
<!-- Node1&#45;&gt;Node2 -->
<g id="edge1" class="edge">
<title>Node1&#45;&gt;Node2</title>
<path fill="none" stroke="#191970" d="M115.8214,-57.4783C101.2386,-47.4161 84.2838,-35.7173 70.9417,-26.5113"/>
<polygon fill="#191970" stroke="#191970" points="72.5742,-23.3854 62.3556,-20.5869 68.5987,-29.1469 72.5742,-23.3854"/>
</g>
<!-- Node3 -->
<g id="node3" class="node">
<title>Node3</title>
<g id="a_node3"><a xlink:title=" ">
<polygon fill="#ffffff" stroke="#bfbfbf" points="113.062,-.5 113.062,-20.5 182.412,-20.5 182.412,-.5 113.062,-.5"/>
<text text-anchor="middle" x="147.737" y="-7.5" font-family="Helvetica,sans-Serif" font-size="10.00" fill="#000000">dg_param.h</text>
</a>
</g>
</g>
<!-- Node1&#45;&gt;Node3 -->
<g id="edge2" class="edge">
<title>Node1&#45;&gt;Node3</title>
<path fill="none" stroke="#191970" d="M147.737,-57.2882C147.737,-48.8377 147.737,-39.2557 147.737,-30.9736"/>
<polygon fill="#191970" stroke="#191970" points="151.2371,-30.7136 147.737,-20.7137 144.2371,-30.7137 151.2371,-30.7136"/>
</g>
<!-- Node4 -->
<g id="node4" class="node">
<title>Node4</title>
<g id="a_node4"><a xlink:title=" ">
<polygon fill="#ffffff" stroke="#bfbfbf" points="200.124,-.5 200.124,-20.5 243.35,-20.5 243.35,-.5 200.124,-.5"/>
<text text-anchor="middle" x="221.737" y="-7.5" font-family="Helvetica,sans-Serif" font-size="10.00" fill="#000000">cmath</text>
</a>
</g>
</g>
<!-- Node1&#45;&gt;Node4 -->
<g id="edge3" class="edge">
<title>Node1&#45;&gt;Node4</title>
<path fill="none" stroke="#191970" d="M171.5584,-57.2882C181.8571,-47.6853 193.7227,-36.6214 203.3292,-27.6641"/>
<polygon fill="#191970" stroke="#191970" points="205.8562,-30.0932 210.7832,-20.7137 201.0825,-24.9735 205.8562,-30.0932"/>
</g>
</g>
</svg>
