<?xml version="1.0" encoding="UTF-8" standalone="no"?>
<!DOCTYPE svg PUBLIC "-//W3C//DTD SVG 1.1//EN"
 "http://www.w3.org/Graphics/SVG/1.1/DTD/svg11.dtd">
<!-- Generated by graphviz version 2.40.1 (20161225.0304)
 -->
<!-- Title: /home/shiqi/Documents/thesis/DG_wave_c/src/dg_basis.cpp Pages: 1 -->
<svg width="295pt" height="110pt"
 viewBox="0.00 0.00 295.46 110.00" xmlns="http://www.w3.org/2000/svg" xmlns:xlink="http://www.w3.org/1999/xlink">
<g id="graph0" class="graph" transform="scale(1 1) rotate(0) translate(4 106)">
<title>/home/shiqi/Documents/thesis/DG_wave_c/src/dg_basis.cpp</title>
<polygon fill="#ffffff" stroke="transparent" points="-4,4 -4,-106 291.459,-106 291.459,4 -4,4"/>
<!-- Node1 -->
<g id="node1" class="node">
<title>Node1</title>
<g id="a_node1"><a xlink:title=" ">
<polygon fill="#bfbfbf" stroke="#000000" points="60.9355,-57.5 60.9355,-101.5 181.3975,-101.5 181.3975,-57.5 60.9355,-57.5"/>
<text text-anchor="start" x="68.9355" y="-88.5" font-family="Helvetica,sans-Serif" font-size="10.00" fill="#000000">/home/shiqi/Documents</text>
<text text-anchor="start" x="68.9355" y="-76.5" font-family="Helvetica,sans-Serif" font-size="10.00" fill="#000000">/thesis/DG_wave_c/src</text>
<text text-anchor="middle" x="121.1665" y="-64.5" font-family="Helvetica,sans-Serif" font-size="10.00" fill="#000000">/dg_basis.cpp</text>
</a>
</g>
</g>
<!-- Node2 -->
<g id="node2" class="node">
<title>Node2</title>
<g id="a_node2"><a xlink:title=" ">
<polygon fill="#ffffff" stroke="#bfbfbf" points="0,-.5 0,-20.5 54.333,-20.5 54.333,-.5 0,-.5"/>
<text text-anchor="middle" x="27.1665" y="-7.5" font-family="Helvetica,sans-Serif" font-size="10.00" fill="#000000">iostream</text>
</a>
</g>
</g>
<!-- Node1&#45;&gt;Node2 -->
<g id="edge1" class="edge">
<title>Node1&#45;&gt;Node2</title>
<path fill="none" stroke="#191970" d="M91.1659,-57.4783C77.458,-47.4161 61.5205,-35.7173 48.9789,-26.5113"/>
<polygon fill="#191970" stroke="#191970" points="51.0405,-23.6828 40.908,-20.5869 46.8983,-29.3257 51.0405,-23.6828"/>
</g>
<!-- Node3 -->
<g id="node3" class="node">
<title>Node3</title>
<g id="a_node3"><a xlink:title=" ">
<polygon fill="#ffffff" stroke="#bfbfbf" points="72.784,-.5 72.784,-20.5 111.549,-20.5 111.549,-.5 72.784,-.5"/>
<text text-anchor="middle" x="92.1665" y="-7.5" font-family="Helvetica,sans-Serif" font-size="10.00" fill="#000000">limits</text>
</a>
</g>
</g>
<!-- Node1&#45;&gt;Node3 -->
<g id="edge2" class="edge">
<title>Node1&#45;&gt;Node3</title>
<path fill="none" stroke="#191970" d="M111.8311,-57.2882C108.1583,-48.5496 103.9771,-38.6011 100.4173,-30.1311"/>
<polygon fill="#191970" stroke="#191970" points="103.5605,-28.5764 96.4592,-20.7137 97.1073,-31.2887 103.5605,-28.5764"/>
</g>
<!-- Node4 -->
<g id="node4" class="node">
<title>Node4</title>
<g id="a_node4"><a xlink:title=" ">
<polygon fill="#ffffff" stroke="#bfbfbf" points="129.5535,-.5 129.5535,-20.5 172.7795,-20.5 172.7795,-.5 129.5535,-.5"/>
<text text-anchor="middle" x="151.1665" y="-7.5" font-family="Helvetica,sans-Serif" font-size="10.00" fill="#000000">cmath</text>
</a>
</g>
</g>
<!-- Node1&#45;&gt;Node4 -->
<g id="edge3" class="edge">
<title>Node1&#45;&gt;Node4</title>
<path fill="none" stroke="#191970" d="M130.8238,-57.2882C134.6232,-48.5496 138.9486,-38.6011 142.6312,-30.1311"/>
<polygon fill="#191970" stroke="#191970" points="145.9482,-31.2799 146.7258,-20.7137 139.5287,-28.4888 145.9482,-31.2799"/>
</g>
<!-- Node5 -->
<g id="node5" class="node">
<title>Node5</title>
<g id="a_node5"><a xlink:title=" ">
<polygon fill="#ffffff" stroke="#bfbfbf" points="190.874,-.5 190.874,-20.5 287.459,-20.5 287.459,-.5 190.874,-.5"/>
<text text-anchor="middle" x="239.1665" y="-7.5" font-family="Helvetica,sans-Serif" font-size="10.00" fill="#000000">dg_single_index.h</text>
</a>
</g>
</g>
<!-- Node1&#45;&gt;Node5 -->
<g id="edge4" class="edge">
<title>Node1&#45;&gt;Node5</title>
<path fill="none" stroke="#191970" d="M158.8269,-57.4783C176.531,-47.1259 197.1978,-35.041 213.1365,-25.7209"/>
<polygon fill="#191970" stroke="#191970" points="215.0508,-28.6561 221.9165,-20.5869 211.5173,-22.6133 215.0508,-28.6561"/>
</g>
</g>
</svg>
