<?xml version="1.0" encoding="UTF-8" standalone="no"?>
<!DOCTYPE svg PUBLIC "-//W3C//DTD SVG 1.1//EN"
 "http://www.w3.org/Graphics/SVG/1.1/DTD/svg11.dtd">
<!-- Generated by graphviz version 2.40.1 (20161225.0304)
 -->
<!-- Title: /home/shiqi/Documents/thesis/new/DG_wave_c/src/dg_flux_vector.cpp Pages: 1 -->
<svg width="245pt" height="110pt"
 viewBox="0.00 0.00 245.35 110.00" xmlns="http://www.w3.org/2000/svg" xmlns:xlink="http://www.w3.org/1999/xlink">
<g id="graph0" class="graph" transform="scale(1 1) rotate(0) translate(4 106)">
<title>/home/shiqi/Documents/thesis/new/DG_wave_c/src/dg_flux_vector.cpp</title>
<polygon fill="#ffffff" stroke="transparent" points="-4,4 -4,-106 241.3535,-106 241.3535,4 -4,4"/>
<!-- Node1 -->
<g id="node1" class="node">
<title>Node1</title>
<g id="a_node1"><a xlink:title=" ">
<polygon fill="#bfbfbf" stroke="#000000" points="67.057,-57.5 67.057,-101.5 190.3,-101.5 190.3,-57.5 67.057,-57.5"/>
<text text-anchor="start" x="75.057" y="-88.5" font-family="Helvetica,sans-Serif" font-size="10.00" fill="#000000">/home/shiqi/Documents</text>
<text text-anchor="start" x="75.057" y="-76.5" font-family="Helvetica,sans-Serif" font-size="10.00" fill="#000000">/thesis/new/DG_wave_c</text>
<text text-anchor="middle" x="128.6785" y="-64.5" font-family="Helvetica,sans-Serif" font-size="10.00" fill="#000000">/src/dg_flux_vector.cpp</text>
</a>
</g>
</g>
<!-- Node2 -->
<g id="node2" class="node">
<title>Node2</title>
<g id="a_node2"><a xlink:title=" ">
<polygon fill="#ffffff" stroke="#bfbfbf" points="0,-.5 0,-20.5 89.357,-20.5 89.357,-.5 0,-.5"/>
<text text-anchor="middle" x="44.6785" y="-7.5" font-family="Helvetica,sans-Serif" font-size="10.00" fill="#000000">dg_flux_vector.h</text>
</a>
</g>
</g>
<!-- Node1&#45;&gt;Node2 -->
<g id="edge1" class="edge">
<title>Node1&#45;&gt;Node2</title>
<path fill="none" stroke="#191970" d="M101.638,-57.2882C89.7138,-47.4933 75.939,-36.1783 64.9227,-27.1292"/>
<polygon fill="#191970" stroke="#191970" points="67.0614,-24.3566 57.1125,-20.7137 62.6182,-29.7657 67.0614,-24.3566"/>
</g>
<!-- Node3 -->
<g id="node3" class="node">
<title>Node3</title>
<g id="a_node3"><a xlink:title=" ">
<polygon fill="#ffffff" stroke="#bfbfbf" points="107.0655,-.5 107.0655,-20.5 150.2915,-20.5 150.2915,-.5 107.0655,-.5"/>
<text text-anchor="middle" x="128.6785" y="-7.5" font-family="Helvetica,sans-Serif" font-size="10.00" fill="#000000">vector</text>
</a>
</g>
</g>
<!-- Node1&#45;&gt;Node3 -->
<g id="edge2" class="edge">
<title>Node1&#45;&gt;Node3</title>
<path fill="none" stroke="#191970" d="M128.6785,-57.2882C128.6785,-48.8377 128.6785,-39.2557 128.6785,-30.9736"/>
<polygon fill="#191970" stroke="#191970" points="132.1786,-30.7136 128.6785,-20.7137 125.1786,-30.7137 132.1786,-30.7136"/>
</g>
<!-- Node4 -->
<g id="node4" class="node">
<title>Node4</title>
<g id="a_node4"><a xlink:title=" ">
<polygon fill="#ffffff" stroke="#bfbfbf" points="168.0035,-.5 168.0035,-20.5 237.3535,-20.5 237.3535,-.5 168.0035,-.5"/>
<text text-anchor="middle" x="202.6785" y="-7.5" font-family="Helvetica,sans-Serif" font-size="10.00" fill="#000000">dg_param.h</text>
</a>
</g>
</g>
<!-- Node1&#45;&gt;Node4 -->
<g id="edge3" class="edge">
<title>Node1&#45;&gt;Node4</title>
<path fill="none" stroke="#191970" d="M152.4999,-57.2882C162.7986,-47.6853 174.6642,-36.6214 184.2707,-27.6641"/>
<polygon fill="#191970" stroke="#191970" points="186.7977,-30.0932 191.7247,-20.7137 182.024,-24.9735 186.7977,-30.0932"/>
</g>
</g>
</svg>
