<?xml version="1.0" encoding="UTF-8" standalone="no"?>
<!DOCTYPE svg PUBLIC "-//W3C//DTD SVG 1.1//EN"
 "http://www.w3.org/Graphics/SVG/1.1/DTD/svg11.dtd">
<!-- Generated by graphviz version 2.40.1 (20161225.0304)
 -->
<!-- Title: /home/shiqihe/Documents/amr/code/cpp/src/dg_main.cpp Pages: 1 -->
<svg width="283pt" height="98pt"
 viewBox="0.00 0.00 282.84 98.00" xmlns="http://www.w3.org/2000/svg" xmlns:xlink="http://www.w3.org/1999/xlink">
<g id="graph0" class="graph" transform="scale(1 1) rotate(0) translate(4 94)">
<title>/home/shiqihe/Documents/amr/code/cpp/src/dg_main.cpp</title>
<polygon fill="#ffffff" stroke="transparent" points="-4,4 -4,-94 278.8415,-94 278.8415,4 -4,4"/>
<!-- Node0 -->
<g id="node1" class="node">
<title>Node0</title>
<polygon fill="#bfbfbf" stroke="#000000" points="47.4285,-57.5 47.4285,-89.5 202.9045,-89.5 202.9045,-57.5 47.4285,-57.5"/>
<text text-anchor="start" x="55.4285" y="-76.5" font-family="Helvetica,sans-Serif" font-size="10.00" fill="#000000">/home/shiqihe/Documents</text>
<text text-anchor="middle" x="125.1665" y="-64.5" font-family="Helvetica,sans-Serif" font-size="10.00" fill="#000000">/amr/code/cpp/src/dg_main.cpp</text>
</g>
<!-- Node1 -->
<g id="node2" class="node">
<title>Node1</title>
<polygon fill="#ffffff" stroke="#bfbfbf" points="0,-.5 0,-20.5 54.333,-20.5 54.333,-.5 0,-.5"/>
<text text-anchor="middle" x="27.1665" y="-7.5" font-family="Helvetica,sans-Serif" font-size="10.00" fill="#000000">iostream</text>
</g>
<!-- Node0&#45;&gt;Node1 -->
<g id="edge1" class="edge">
<title>Node0&#45;&gt;Node1</title>
<path fill="none" stroke="#191970" d="M100.1834,-57.4394C85.2495,-47.839 66.3613,-35.6967 51.5374,-26.167"/>
<polygon fill="#191970" stroke="#191970" points="53.2087,-23.0806 42.9042,-20.6171 49.4234,-28.9689 53.2087,-23.0806"/>
</g>
<!-- Node2 -->
<g id="node3" class="node">
<title>Node2</title>
<polygon fill="#ffffff" stroke="#bfbfbf" points="71.944,-.5 71.944,-20.5 112.389,-20.5 112.389,-.5 71.944,-.5"/>
<text text-anchor="middle" x="92.1665" y="-7.5" font-family="Helvetica,sans-Serif" font-size="10.00" fill="#000000">mpi.h</text>
</g>
<!-- Node0&#45;&gt;Node2 -->
<g id="edge2" class="edge">
<title>Node0&#45;&gt;Node2</title>
<path fill="none" stroke="#191970" d="M116.6682,-57.2759C112.2836,-48.9054 106.9044,-38.6361 102.3043,-29.854"/>
<polygon fill="#191970" stroke="#191970" points="105.2768,-27.9856 97.5362,-20.7513 99.0759,-31.2336 105.2768,-27.9856"/>
</g>
<!-- Node3 -->
<g id="node4" class="node">
<title>Node3</title>
<polygon fill="#ffffff" stroke="#bfbfbf" points="130.6055,-.5 130.6055,-20.5 187.7275,-20.5 187.7275,-.5 130.6055,-.5"/>
<text text-anchor="middle" x="159.1665" y="-7.5" font-family="Helvetica,sans-Serif" font-size="10.00" fill="#000000">dg_mpi.h</text>
</g>
<!-- Node0&#45;&gt;Node3 -->
<g id="edge3" class="edge">
<title>Node0&#45;&gt;Node3</title>
<path fill="none" stroke="#191970" d="M133.9223,-57.2759C138.4883,-48.8154 144.1013,-38.415 148.8741,-29.5712"/>
<polygon fill="#191970" stroke="#191970" points="151.9648,-31.2138 153.6341,-20.7513 145.8046,-27.8892 151.9648,-31.2138"/>
</g>
<!-- Node4 -->
<g id="node5" class="node">
<title>Node4</title>
<polygon fill="#ffffff" stroke="#bfbfbf" points="205.4915,-.5 205.4915,-20.5 274.8415,-20.5 274.8415,-.5 205.4915,-.5"/>
<text text-anchor="middle" x="240.1665" y="-7.5" font-family="Helvetica,sans-Serif" font-size="10.00" fill="#000000">dg_param.h</text>
</g>
<!-- Node0&#45;&gt;Node4 -->
<g id="edge4" class="edge">
<title>Node0&#45;&gt;Node4</title>
<path fill="none" stroke="#191970" d="M154.4834,-57.4394C172.3386,-47.6579 195.0106,-35.2376 212.5475,-25.6304"/>
<polygon fill="#191970" stroke="#191970" points="214.6101,-28.4913 221.6987,-20.6171 211.2469,-22.3521 214.6101,-28.4913"/>
</g>
</g>
</svg>
