<?xml version="1.0" encoding="UTF-8" standalone="no"?>
<!DOCTYPE svg PUBLIC "-//W3C//DTD SVG 1.1//EN"
 "http://www.w3.org/Graphics/SVG/1.1/DTD/svg11.dtd">
<!-- Generated by graphviz version 2.40.1 (20161225.0304)
 -->
<!-- Title: /home/shiqi/Documents/thesis/new/DG_wave_c/src/dg_reallocate_elem.cpp Pages: 1 -->
<svg width="848pt" height="110pt"
 viewBox="0.00 0.00 847.89 110.00" xmlns="http://www.w3.org/2000/svg" xmlns:xlink="http://www.w3.org/1999/xlink">
<g id="graph0" class="graph" transform="scale(1 1) rotate(0) translate(4 106)">
<title>/home/shiqi/Documents/thesis/new/DG_wave_c/src/dg_reallocate_elem.cpp</title>
<polygon fill="#ffffff" stroke="transparent" points="-4,4 -4,-106 843.8895,-106 843.8895,4 -4,4"/>
<!-- Node1 -->
<g id="node1" class="node">
<title>Node1</title>
<g id="a_node1"><a xlink:title=" ">
<polygon fill="#bfbfbf" stroke="#000000" points="406.709,-57.5 406.709,-101.5 547.736,-101.5 547.736,-57.5 406.709,-57.5"/>
<text text-anchor="start" x="414.709" y="-88.5" font-family="Helvetica,sans-Serif" font-size="10.00" fill="#000000">/home/shiqi/Documents</text>
<text text-anchor="start" x="414.709" y="-76.5" font-family="Helvetica,sans-Serif" font-size="10.00" fill="#000000">/thesis/new/DG_wave_c</text>
<text text-anchor="middle" x="477.2225" y="-64.5" font-family="Helvetica,sans-Serif" font-size="10.00" fill="#000000">/src/dg_reallocate_elem.cpp</text>
</a>
</g>
</g>
<!-- Node2 -->
<g id="node2" class="node">
<title>Node2</title>
<g id="a_node2"><a xlink:title=" ">
<polygon fill="#ffffff" stroke="#bfbfbf" points="0,-.5 0,-20.5 40.445,-20.5 40.445,-.5 0,-.5"/>
<text text-anchor="middle" x="20.2225" y="-7.5" font-family="Helvetica,sans-Serif" font-size="10.00" fill="#000000">mpi.h</text>
</a>
</g>
</g>
<!-- Node1&#45;&gt;Node2 -->
<g id="edge1" class="edge">
<title>Node1&#45;&gt;Node2</title>
<path fill="none" stroke="#191970" d="M406.6814,-74.4578C323.2219,-67.468 180.2083,-52.2711 50.3733,-20.8897"/>
<polygon fill="#191970" stroke="#191970" points="51.198,-17.4883 40.6519,-18.5033 49.5291,-24.2865 51.198,-17.4883"/>
</g>
<!-- Node3 -->
<g id="node3" class="node">
<title>Node3</title>
<g id="a_node3"><a xlink:title=" ">
<polygon fill="#ffffff" stroke="#bfbfbf" points="58.432,-.5 58.432,-20.5 170.013,-20.5 170.013,-.5 58.432,-.5"/>
<text text-anchor="middle" x="114.2225" y="-7.5" font-family="Helvetica,sans-Serif" font-size="10.00" fill="#000000">dg_reallocate_elem.h</text>
</a>
</g>
</g>
<!-- Node1&#45;&gt;Node3 -->
<g id="edge2" class="edge">
<title>Node1&#45;&gt;Node3</title>
<path fill="none" stroke="#191970" d="M406.3707,-66.0323C339.6838,-53.3563 240.7708,-34.5546 176.8929,-22.4126"/>
<polygon fill="#191970" stroke="#191970" points="177.4297,-18.952 166.952,-20.523 176.1225,-25.8289 177.4297,-18.952"/>
</g>
<!-- Node4 -->
<g id="node4" class="node">
<title>Node4</title>
<g id="a_node4"><a xlink:title=" ">
<polygon fill="#ffffff" stroke="#bfbfbf" points="187.9855,-.5 187.9855,-20.5 288.4595,-20.5 288.4595,-.5 187.9855,-.5"/>
<text text-anchor="middle" x="238.2225" y="-7.5" font-family="Helvetica,sans-Serif" font-size="10.00" fill="#000000">dg_local_storage.h</text>
</a>
</g>
</g>
<!-- Node1&#45;&gt;Node4 -->
<g id="edge3" class="edge">
<title>Node1&#45;&gt;Node4</title>
<path fill="none" stroke="#191970" d="M406.4847,-59.0778C366.395,-47.5038 317.4676,-33.3783 282.7296,-23.3493"/>
<polygon fill="#191970" stroke="#191970" points="283.4578,-19.9167 272.8794,-20.5055 281.5161,-26.642 283.4578,-19.9167"/>
</g>
<!-- Node5 -->
<g id="node5" class="node">
<title>Node5</title>
<g id="a_node5"><a xlink:title=" ">
<polygon fill="#ffffff" stroke="#bfbfbf" points="306.367,-.5 306.367,-20.5 424.078,-20.5 424.078,-.5 306.367,-.5"/>
<text text-anchor="middle" x="365.2225" y="-7.5" font-family="Helvetica,sans-Serif" font-size="10.00" fill="#000000">dg_derived_datatype.h</text>
</a>
</g>
</g>
<!-- Node1&#45;&gt;Node5 -->
<g id="edge4" class="edge">
<title>Node1&#45;&gt;Node5</title>
<path fill="none" stroke="#191970" d="M441.4771,-57.4783C424.8302,-47.2226 405.4236,-35.2667 390.3542,-25.9829"/>
<polygon fill="#191970" stroke="#191970" points="391.9452,-22.8522 381.5954,-20.5869 388.2735,-28.812 391.9452,-22.8522"/>
</g>
<!-- Node6 -->
<g id="node6" class="node">
<title>Node6</title>
<g id="a_node6"><a xlink:title=" ">
<polygon fill="#ffffff" stroke="#bfbfbf" points="442.5475,-.5 442.5475,-20.5 511.8975,-20.5 511.8975,-.5 442.5475,-.5"/>
<text text-anchor="middle" x="477.2225" y="-7.5" font-family="Helvetica,sans-Serif" font-size="10.00" fill="#000000">dg_param.h</text>
</a>
</g>
</g>
<!-- Node1&#45;&gt;Node6 -->
<g id="edge5" class="edge">
<title>Node1&#45;&gt;Node6</title>
<path fill="none" stroke="#191970" d="M477.2225,-57.2882C477.2225,-48.8377 477.2225,-39.2557 477.2225,-30.9736"/>
<polygon fill="#191970" stroke="#191970" points="480.7226,-30.7136 477.2225,-20.7137 473.7226,-30.7137 480.7226,-30.7136"/>
</g>
<!-- Node7 -->
<g id="node7" class="node">
<title>Node7</title>
<g id="a_node7"><a xlink:title=" ">
<polygon fill="#ffffff" stroke="#bfbfbf" points="530.0415,-.5 530.0415,-20.5 634.4035,-20.5 634.4035,-.5 530.0415,-.5"/>
<text text-anchor="middle" x="582.2225" y="-7.5" font-family="Helvetica,sans-Serif" font-size="10.00" fill="#000000">dg_cantor_pairing.h</text>
</a>
</g>
</g>
<!-- Node1&#45;&gt;Node7 -->
<g id="edge6" class="edge">
<title>Node1&#45;&gt;Node7</title>
<path fill="none" stroke="#191970" d="M510.7338,-57.4783C526.193,-47.3194 544.1909,-35.4922 558.2606,-26.2464"/>
<polygon fill="#191970" stroke="#191970" points="560.438,-29.0037 566.8729,-20.5869 556.5937,-23.1537 560.438,-29.0037"/>
</g>
<!-- Node8 -->
<g id="node8" class="node">
<title>Node8</title>
<g id="a_node8"><a xlink:title=" ">
<polygon fill="#ffffff" stroke="#bfbfbf" points="652.1095,-.5 652.1095,-20.5 700.3355,-20.5 700.3355,-.5 652.1095,-.5"/>
<text text-anchor="middle" x="676.2225" y="-7.5" font-family="Helvetica,sans-Serif" font-size="10.00" fill="#000000">cassert</text>
</a>
</g>
</g>
<!-- Node1&#45;&gt;Node8 -->
<g id="edge7" class="edge">
<title>Node1&#45;&gt;Node8</title>
<path fill="none" stroke="#191970" d="M540.7345,-57.4783C574.3682,-45.8163 614.3424,-31.9559 642.116,-22.3259"/>
<polygon fill="#191970" stroke="#191970" points="643.4605,-25.5642 651.762,-18.9813 641.1672,-18.9505 643.4605,-25.5642"/>
</g>
<!-- Node9 -->
<g id="node9" class="node">
<title>Node9</title>
<g id="a_node9"><a xlink:title=" ">
<polygon fill="#ffffff" stroke="#bfbfbf" points="718.056,-.5 718.056,-20.5 772.389,-20.5 772.389,-.5 718.056,-.5"/>
<text text-anchor="middle" x="745.2225" y="-7.5" font-family="Helvetica,sans-Serif" font-size="10.00" fill="#000000">iostream</text>
</a>
</g>
</g>
<!-- Node1&#45;&gt;Node9 -->
<g id="edge8" class="edge">
<title>Node1&#45;&gt;Node9</title>
<path fill="none" stroke="#191970" d="M547.9617,-62.3789C591.5787,-51.6552 648.8862,-37.2675 707.8701,-21.3096"/>
<polygon fill="#191970" stroke="#191970" points="709.0016,-24.6292 717.7345,-18.6302 707.1667,-17.8739 709.0016,-24.6292"/>
</g>
<!-- Node10 -->
<g id="node10" class="node">
<title>Node10</title>
<g id="a_node10"><a xlink:title=" ">
<polygon fill="#ffffff" stroke="#bfbfbf" points="790.5555,-.5 790.5555,-20.5 839.8895,-20.5 839.8895,-.5 790.5555,-.5"/>
<text text-anchor="middle" x="815.2225" y="-7.5" font-family="Helvetica,sans-Serif" font-size="10.00" fill="#000000">fstream</text>
</a>
</g>
</g>
<!-- Node1&#45;&gt;Node10 -->
<g id="edge9" class="edge">
<title>Node1&#45;&gt;Node10</title>
<path fill="none" stroke="#191970" d="M548.0373,-68.1324C607.6593,-58.0452 695.2981,-42.0132 780.5804,-20.9572"/>
<polygon fill="#191970" stroke="#191970" points="781.5729,-24.317 790.4284,-18.5004 779.8785,-17.5251 781.5729,-24.317"/>
</g>
</g>
</svg>
