<?xml version="1.0" encoding="UTF-8" standalone="no"?>
<!DOCTYPE svg PUBLIC "-//W3C//DTD SVG 1.1//EN"
 "http://www.w3.org/Graphics/SVG/1.1/DTD/svg11.dtd">
<!-- Generated by graphviz version 2.40.1 (20161225.0304)
 -->
<!-- Title: /home/shiqihe/Documents/amr/code/cpp/src/dg_read_mesh_2d.cpp Pages: 1 -->
<svg width="529pt" height="110pt"
 viewBox="0.00 0.00 529.07 110.00" xmlns="http://www.w3.org/2000/svg" xmlns:xlink="http://www.w3.org/1999/xlink">
<g id="graph0" class="graph" transform="scale(1 1) rotate(0) translate(4 106)">
<title>/home/shiqihe/Documents/amr/code/cpp/src/dg_read_mesh_2d.cpp</title>
<polygon fill="#ffffff" stroke="transparent" points="-4,4 -4,-106 525.0745,-106 525.0745,4 -4,4"/>
<!-- Node0 -->
<g id="node1" class="node">
<title>Node0</title>
<polygon fill="#bfbfbf" stroke="#000000" points="150.763,-57.5 150.763,-101.5 285.682,-101.5 285.682,-57.5 150.763,-57.5"/>
<text text-anchor="start" x="158.763" y="-88.5" font-family="Helvetica,sans-Serif" font-size="10.00" fill="#000000">/home/shiqihe/Documents</text>
<text text-anchor="start" x="158.763" y="-76.5" font-family="Helvetica,sans-Serif" font-size="10.00" fill="#000000">/amr/code/cpp/src/dg_read</text>
<text text-anchor="middle" x="218.2225" y="-64.5" font-family="Helvetica,sans-Serif" font-size="10.00" fill="#000000">_mesh_2d.cpp</text>
</g>
<!-- Node1 -->
<g id="node2" class="node">
<title>Node1</title>
<polygon fill="#ffffff" stroke="#bfbfbf" points="0,-.5 0,-20.5 40.445,-20.5 40.445,-.5 0,-.5"/>
<text text-anchor="middle" x="20.2225" y="-7.5" font-family="Helvetica,sans-Serif" font-size="10.00" fill="#000000">mpi.h</text>
</g>
<!-- Node0&#45;&gt;Node1 -->
<g id="edge1" class="edge">
<title>Node0&#45;&gt;Node1</title>
<path fill="none" stroke="#191970" d="M153.9475,-57.4899C124.707,-47.4206 89.4501,-35.2018 50.0467,-21.2647"/>
<polygon fill="#191970" stroke="#191970" points="51.0857,-17.9197 40.4909,-17.8798 48.7483,-24.518 51.0857,-17.9197"/>
</g>
<!-- Node2 -->
<g id="node3" class="node">
<title>Node2</title>
<polygon fill="#ffffff" stroke="#bfbfbf" points="58.056,-.5 58.056,-20.5 112.389,-20.5 112.389,-.5 58.056,-.5"/>
<text text-anchor="middle" x="85.2225" y="-7.5" font-family="Helvetica,sans-Serif" font-size="10.00" fill="#000000">iostream</text>
</g>
<!-- Node0&#45;&gt;Node2 -->
<g id="edge2" class="edge">
<title>Node0&#45;&gt;Node2</title>
<path fill="none" stroke="#191970" d="M175.7748,-57.4783C155.4472,-46.9323 131.6542,-34.5886 113.5596,-25.2012"/>
<polygon fill="#191970" stroke="#191970" points="115.1536,-22.0852 104.6653,-20.5869 111.93,-28.2988 115.1536,-22.0852"/>
</g>
<!-- Node3 -->
<g id="node4" class="node">
<title>Node3</title>
<polygon fill="#ffffff" stroke="#bfbfbf" points="130.5555,-.5 130.5555,-20.5 179.8895,-20.5 179.8895,-.5 130.5555,-.5"/>
<text text-anchor="middle" x="155.2225" y="-7.5" font-family="Helvetica,sans-Serif" font-size="10.00" fill="#000000">fstream</text>
</g>
<!-- Node0&#45;&gt;Node3 -->
<g id="edge3" class="edge">
<title>Node0&#45;&gt;Node3</title>
<path fill="none" stroke="#191970" d="M197.9421,-57.2882C189.3497,-47.8774 179.476,-37.0634 171.387,-28.204"/>
<polygon fill="#191970" stroke="#191970" points="173.8755,-25.7386 164.548,-20.7137 168.706,-30.4585 173.8755,-25.7386"/>
</g>
<!-- Node4 -->
<g id="node5" class="node">
<title>Node4</title>
<polygon fill="#ffffff" stroke="#bfbfbf" points="198,-.5 198,-20.5 238.445,-20.5 238.445,-.5 198,-.5"/>
<text text-anchor="middle" x="218.2225" y="-7.5" font-family="Helvetica,sans-Serif" font-size="10.00" fill="#000000">string</text>
</g>
<!-- Node0&#45;&gt;Node4 -->
<g id="edge4" class="edge">
<title>Node0&#45;&gt;Node4</title>
<path fill="none" stroke="#191970" d="M218.2225,-57.2882C218.2225,-48.8377 218.2225,-39.2557 218.2225,-30.9736"/>
<polygon fill="#191970" stroke="#191970" points="221.7226,-30.7136 218.2225,-20.7137 214.7226,-30.7137 221.7226,-30.7136"/>
</g>
<!-- Node5 -->
<g id="node6" class="node">
<title>Node5</title>
<polygon fill="#ffffff" stroke="#bfbfbf" points="256.445,-.5 256.445,-20.5 308,-20.5 308,-.5 256.445,-.5"/>
<text text-anchor="middle" x="282.2225" y="-7.5" font-family="Helvetica,sans-Serif" font-size="10.00" fill="#000000">sstream</text>
</g>
<!-- Node0&#45;&gt;Node5 -->
<g id="edge5" class="edge">
<title>Node0&#45;&gt;Node5</title>
<path fill="none" stroke="#191970" d="M238.8248,-57.2882C247.5536,-47.8774 257.584,-37.0634 265.8014,-28.204"/>
<polygon fill="#191970" stroke="#191970" points="268.5146,-30.4256 272.749,-20.7137 263.3824,-25.6653 268.5146,-30.4256"/>
</g>
<!-- Node6 -->
<g id="node7" class="node">
<title>Node6</title>
<polygon fill="#ffffff" stroke="#bfbfbf" points="325.5475,-.5 325.5475,-20.5 394.8975,-20.5 394.8975,-.5 325.5475,-.5"/>
<text text-anchor="middle" x="360.2225" y="-7.5" font-family="Helvetica,sans-Serif" font-size="10.00" fill="#000000">dg_param.h</text>
</g>
<!-- Node0&#45;&gt;Node6 -->
<g id="edge6" class="edge">
<title>Node0&#45;&gt;Node6</title>
<path fill="none" stroke="#191970" d="M263.5426,-57.4783C285.3453,-46.884 310.8819,-34.4753 330.2333,-25.0722"/>
<polygon fill="#191970" stroke="#191970" points="331.9993,-28.1055 339.464,-20.5869 328.94,-21.8094 331.9993,-28.1055"/>
</g>
<!-- Node7 -->
<g id="node8" class="node">
<title>Node7</title>
<polygon fill="#ffffff" stroke="#bfbfbf" points="413.3705,-.5 413.3705,-20.5 521.0745,-20.5 521.0745,-.5 413.3705,-.5"/>
<text text-anchor="middle" x="467.2225" y="-7.5" font-family="Helvetica,sans-Serif" font-size="10.00" fill="#000000">dg_read_mesh_2d.h</text>
</g>
<!-- Node0&#45;&gt;Node7 -->
<g id="edge7" class="edge">
<title>Node0&#45;&gt;Node7</title>
<path fill="none" stroke="#191970" d="M285.9339,-60.7366C328.8983,-48.8308 383.3459,-33.7429 421.3065,-23.2237"/>
<polygon fill="#191970" stroke="#191970" points="422.3661,-26.5621 431.0683,-20.5186 420.4968,-19.8163 422.3661,-26.5621"/>
</g>
</g>
</svg>
