<?xml version="1.0" encoding="UTF-8" standalone="no"?>
<!DOCTYPE svg PUBLIC "-//W3C//DTD SVG 1.1//EN"
 "http://www.w3.org/Graphics/SVG/1.1/DTD/svg11.dtd">
<!-- Generated by graphviz version 2.40.1 (20161225.0304)
 -->
<!-- Title: /home/shiqi/Documents/thesis/new/DG_wave_c/src/dg_gen_status.cpp Pages: 1 -->
<svg width="698pt" height="110pt"
 viewBox="0.00 0.00 698.13 110.00" xmlns="http://www.w3.org/2000/svg" xmlns:xlink="http://www.w3.org/1999/xlink">
<g id="graph0" class="graph" transform="scale(1 1) rotate(0) translate(4 106)">
<title>/home/shiqi/Documents/thesis/new/DG_wave_c/src/dg_gen_status.cpp</title>
<polygon fill="#ffffff" stroke="transparent" points="-4,4 -4,-106 694.13,-106 694.13,4 -4,4"/>
<!-- Node1 -->
<g id="node1" class="node">
<title>Node1</title>
<g id="a_node1"><a xlink:title=" ">
<polygon fill="#bfbfbf" stroke="#000000" points="271.342,-57.5 271.342,-101.5 394.585,-101.5 394.585,-57.5 271.342,-57.5"/>
<text text-anchor="start" x="279.342" y="-88.5" font-family="Helvetica,sans-Serif" font-size="10.00" fill="#000000">/home/shiqi/Documents</text>
<text text-anchor="start" x="279.342" y="-76.5" font-family="Helvetica,sans-Serif" font-size="10.00" fill="#000000">/thesis/new/DG_wave_c</text>
<text text-anchor="middle" x="332.9635" y="-64.5" font-family="Helvetica,sans-Serif" font-size="10.00" fill="#000000">/src/dg_gen_status.cpp</text>
</a>
</g>
</g>
<!-- Node2 -->
<g id="node2" class="node">
<title>Node2</title>
<g id="a_node2"><a xlink:title=" ">
<polygon fill="#ffffff" stroke="#bfbfbf" points="0,-.5 0,-20.5 89.927,-20.5 89.927,-.5 0,-.5"/>
<text text-anchor="middle" x="44.9635" y="-7.5" font-family="Helvetica,sans-Serif" font-size="10.00" fill="#000000">dg_gen_status.h</text>
</a>
</g>
</g>
<!-- Node1&#45;&gt;Node2 -->
<g id="edge1" class="edge">
<title>Node1&#45;&gt;Node2</title>
<path fill="none" stroke="#191970" d="M271.1803,-64.6978C219.2252,-52.2502 145.7964,-34.6579 96.8454,-22.93"/>
<polygon fill="#191970" stroke="#191970" points="97.632,-19.5195 87.0917,-20.5932 96.001,-26.3269 97.632,-19.5195"/>
</g>
<!-- Node3 -->
<g id="node3" class="node">
<title>Node3</title>
<g id="a_node3"><a xlink:title=" ">
<polygon fill="#ffffff" stroke="#bfbfbf" points="107.8505,-.5 107.8505,-20.5 156.0765,-20.5 156.0765,-.5 107.8505,-.5"/>
<text text-anchor="middle" x="131.9635" y="-7.5" font-family="Helvetica,sans-Serif" font-size="10.00" fill="#000000">cassert</text>
</a>
</g>
</g>
<!-- Node1&#45;&gt;Node3 -->
<g id="edge2" class="edge">
<title>Node1&#45;&gt;Node3</title>
<path fill="none" stroke="#191970" d="M271.2909,-58.3288C236.606,-46.422 194.6298,-32.0123 165.8757,-22.1415"/>
<polygon fill="#191970" stroke="#191970" points="166.8847,-18.7875 156.2901,-18.8509 164.6119,-25.4082 166.8847,-18.7875"/>
</g>
<!-- Node4 -->
<g id="node4" class="node">
<title>Node4</title>
<g id="a_node4"><a xlink:title=" ">
<polygon fill="#ffffff" stroke="#bfbfbf" points="174.3505,-.5 174.3505,-20.5 217.5765,-20.5 217.5765,-.5 174.3505,-.5"/>
<text text-anchor="middle" x="195.9635" y="-7.5" font-family="Helvetica,sans-Serif" font-size="10.00" fill="#000000">cmath</text>
</a>
</g>
</g>
<!-- Node1&#45;&gt;Node4 -->
<g id="edge3" class="edge">
<title>Node1&#45;&gt;Node4</title>
<path fill="none" stroke="#191970" d="M289.2392,-57.4783C268.3002,-46.9323 243.7916,-34.5886 225.1529,-25.2012"/>
<polygon fill="#191970" stroke="#191970" points="226.4966,-21.9592 215.991,-20.5869 223.3479,-28.211 226.4966,-21.9592"/>
</g>
<!-- Node5 -->
<g id="node5" class="node">
<title>Node5</title>
<g id="a_node5"><a xlink:title=" ">
<polygon fill="#ffffff" stroke="#bfbfbf" points="235.501,-.5 235.501,-20.5 330.426,-20.5 330.426,-.5 235.501,-.5"/>
<text text-anchor="middle" x="282.9635" y="-7.5" font-family="Helvetica,sans-Serif" font-size="10.00" fill="#000000">dg_status_table.h</text>
</a>
</g>
</g>
<!-- Node1&#45;&gt;Node5 -->
<g id="edge4" class="edge">
<title>Node1&#45;&gt;Node5</title>
<path fill="none" stroke="#191970" d="M316.868,-57.2882C310.2573,-48.1655 302.6912,-37.7242 296.386,-29.023"/>
<polygon fill="#191970" stroke="#191970" points="299.0666,-26.7575 290.3647,-20.7137 293.3984,-30.8649 299.0666,-26.7575"/>
</g>
<!-- Node6 -->
<g id="node6" class="node">
<title>Node6</title>
<g id="a_node6"><a xlink:title=" ">
<polygon fill="#ffffff" stroke="#bfbfbf" points="348.2885,-.5 348.2885,-20.5 417.6385,-20.5 417.6385,-.5 348.2885,-.5"/>
<text text-anchor="middle" x="382.9635" y="-7.5" font-family="Helvetica,sans-Serif" font-size="10.00" fill="#000000">dg_param.h</text>
</a>
</g>
</g>
<!-- Node1&#45;&gt;Node6 -->
<g id="edge5" class="edge">
<title>Node1&#45;&gt;Node6</title>
<path fill="none" stroke="#191970" d="M349.059,-57.2882C355.6697,-48.1655 363.2358,-37.7242 369.541,-29.023"/>
<polygon fill="#191970" stroke="#191970" points="372.5286,-30.8649 375.5623,-20.7137 366.8604,-26.7575 372.5286,-30.8649"/>
</g>
<!-- Node7 -->
<g id="node7" class="node">
<title>Node7</title>
<g id="a_node7"><a xlink:title=" ">
<polygon fill="#ffffff" stroke="#bfbfbf" points="435.4385,-.5 435.4385,-20.5 556.4885,-20.5 556.4885,-.5 435.4385,-.5"/>
<text text-anchor="middle" x="495.9635" y="-7.5" font-family="Helvetica,sans-Serif" font-size="10.00" fill="#000000">dg_nodal_2d_storage.h</text>
</a>
</g>
</g>
<!-- Node1&#45;&gt;Node7 -->
<g id="edge6" class="edge">
<title>Node1&#45;&gt;Node7</title>
<path fill="none" stroke="#191970" d="M384.9859,-57.4783C410.4701,-46.6905 440.3983,-34.0215 462.7493,-24.56"/>
<polygon fill="#191970" stroke="#191970" points="464.2906,-27.7083 472.1351,-20.5869 461.5618,-21.262 464.2906,-27.7083"/>
</g>
<!-- Node8 -->
<g id="node8" class="node">
<title>Node8</title>
<g id="a_node8"><a xlink:title=" ">
<polygon fill="#ffffff" stroke="#bfbfbf" points="574.3505,-.5 574.3505,-20.5 617.5765,-20.5 617.5765,-.5 574.3505,-.5"/>
<text text-anchor="middle" x="595.9635" y="-7.5" font-family="Helvetica,sans-Serif" font-size="10.00" fill="#000000">vector</text>
</a>
</g>
</g>
<!-- Node1&#45;&gt;Node8 -->
<g id="edge7" class="edge">
<title>Node1&#45;&gt;Node8</title>
<path fill="none" stroke="#191970" d="M394.7003,-65.6113C439.5996,-55.1413 501.9851,-39.8346 564.4632,-21.2958"/>
<polygon fill="#191970" stroke="#191970" points="565.5076,-24.6367 574.0835,-18.4154 563.4998,-17.9308 565.5076,-24.6367"/>
</g>
<!-- Node9 -->
<g id="node9" class="node">
<title>Node9</title>
<g id="a_node9"><a xlink:title=" ">
<polygon fill="#ffffff" stroke="#bfbfbf" points="635.797,-.5 635.797,-20.5 690.13,-20.5 690.13,-.5 635.797,-.5"/>
<text text-anchor="middle" x="662.9635" y="-7.5" font-family="Helvetica,sans-Serif" font-size="10.00" fill="#000000">iostream</text>
</a>
</g>
</g>
<!-- Node1&#45;&gt;Node9 -->
<g id="edge8" class="edge">
<title>Node1&#45;&gt;Node9</title>
<path fill="none" stroke="#191970" d="M394.6851,-68.8398C452.1976,-58.5397 540.4965,-41.7924 625.6798,-21.1754"/>
<polygon fill="#191970" stroke="#191970" points="626.6284,-24.5467 635.5128,-18.7746 624.968,-17.7465 626.6284,-24.5467"/>
</g>
</g>
</svg>
