<?xml version="1.0" encoding="UTF-8" standalone="no"?>
<!DOCTYPE svg PUBLIC "-//W3C//DTD SVG 1.1//EN"
 "http://www.w3.org/Graphics/SVG/1.1/DTD/svg11.dtd">
<!-- Generated by graphviz version 2.40.1 (20161225.0304)
 -->
<!-- Title: /home/shiqi/Documents/thesis/new/DG_wave_c/src/dg_LB_quality.cpp Pages: 1 -->
<svg width="884pt" height="110pt"
 viewBox="0.00 0.00 884.39 110.00" xmlns="http://www.w3.org/2000/svg" xmlns:xlink="http://www.w3.org/1999/xlink">
<g id="graph0" class="graph" transform="scale(1 1) rotate(0) translate(4 106)">
<title>/home/shiqi/Documents/thesis/new/DG_wave_c/src/dg_LB_quality.cpp</title>
<polygon fill="#ffffff" stroke="transparent" points="-4,4 -4,-106 880.389,-106 880.389,4 -4,4"/>
<!-- Node1 -->
<g id="node1" class="node">
<title>Node1</title>
<g id="a_node1"><a xlink:title=" ">
<polygon fill="#bfbfbf" stroke="#000000" points="420.601,-57.5 420.601,-101.5 543.844,-101.5 543.844,-57.5 420.601,-57.5"/>
<text text-anchor="start" x="428.601" y="-88.5" font-family="Helvetica,sans-Serif" font-size="10.00" fill="#000000">/home/shiqi/Documents</text>
<text text-anchor="start" x="428.601" y="-76.5" font-family="Helvetica,sans-Serif" font-size="10.00" fill="#000000">/thesis/new/DG_wave_c</text>
<text text-anchor="middle" x="482.2225" y="-64.5" font-family="Helvetica,sans-Serif" font-size="10.00" fill="#000000">/src/dg_LB_quality.cpp</text>
</a>
</g>
</g>
<!-- Node2 -->
<g id="node2" class="node">
<title>Node2</title>
<g id="a_node2"><a xlink:title=" ">
<polygon fill="#ffffff" stroke="#bfbfbf" points="0,-.5 0,-20.5 40.445,-20.5 40.445,-.5 0,-.5"/>
<text text-anchor="middle" x="20.2225" y="-7.5" font-family="Helvetica,sans-Serif" font-size="10.00" fill="#000000">mpi.h</text>
</a>
</g>
</g>
<!-- Node1&#45;&gt;Node2 -->
<g id="edge1" class="edge">
<title>Node1&#45;&gt;Node2</title>
<path fill="none" stroke="#191970" d="M420.5015,-75.3181C337.7885,-68.7984 186.5444,-53.6656 50.4242,-20.8972"/>
<polygon fill="#191970" stroke="#191970" points="51.196,-17.4829 40.6509,-18.5073 49.5332,-24.2826 51.196,-17.4829"/>
</g>
<!-- Node3 -->
<g id="node3" class="node">
<title>Node3</title>
<g id="a_node3"><a xlink:title=" ">
<polygon fill="#ffffff" stroke="#bfbfbf" points="58.5475,-.5 58.5475,-20.5 127.8975,-20.5 127.8975,-.5 58.5475,-.5"/>
<text text-anchor="middle" x="93.2225" y="-7.5" font-family="Helvetica,sans-Serif" font-size="10.00" fill="#000000">dg_param.h</text>
</a>
</g>
</g>
<!-- Node1&#45;&gt;Node3 -->
<g id="edge2" class="edge">
<title>Node1&#45;&gt;Node3</title>
<path fill="none" stroke="#191970" d="M420.295,-70.2662C353.2299,-59.9816 242.9016,-42.2368 138.3397,-21.1306"/>
<polygon fill="#191970" stroke="#191970" points="138.7373,-17.6399 128.2405,-19.0777 137.3429,-24.4997 138.7373,-17.6399"/>
</g>
<!-- Node4 -->
<g id="node4" class="node">
<title>Node4</title>
<g id="a_node4"><a xlink:title=" ">
<polygon fill="#ffffff" stroke="#bfbfbf" points="146.3745,-.5 146.3745,-20.5 234.0705,-20.5 234.0705,-.5 146.3745,-.5"/>
<text text-anchor="middle" x="190.2225" y="-7.5" font-family="Helvetica,sans-Serif" font-size="10.00" fill="#000000">dg_LB_quality.h</text>
</a>
</g>
</g>
<!-- Node1&#45;&gt;Node4 -->
<g id="edge3" class="edge">
<title>Node1&#45;&gt;Node4</title>
<path fill="none" stroke="#191970" d="M420.2968,-64.8669C367.5159,-52.3947 292.4971,-34.6676 242.6415,-22.8867"/>
<polygon fill="#191970" stroke="#191970" points="243.248,-19.4337 232.7111,-20.5401 241.6382,-26.2461 243.248,-19.4337"/>
</g>
<!-- Node5 -->
<g id="node5" class="node">
<title>Node5</title>
<g id="a_node5"><a xlink:title=" ">
<polygon fill="#ffffff" stroke="#bfbfbf" points="251.706,-.5 251.706,-20.5 352.739,-20.5 352.739,-.5 251.706,-.5"/>
<text text-anchor="middle" x="302.2225" y="-7.5" font-family="Helvetica,sans-Serif" font-size="10.00" fill="#000000">dg_element_load.h</text>
</a>
</g>
</g>
<!-- Node1&#45;&gt;Node5 -->
<g id="edge4" class="edge">
<title>Node1&#45;&gt;Node5</title>
<path fill="none" stroke="#191970" d="M424.7745,-57.4783C396.2538,-46.5453 362.6927,-33.6802 337.9092,-24.1799"/>
<polygon fill="#191970" stroke="#191970" points="339.1263,-20.8982 328.5361,-20.5869 336.6207,-27.4344 339.1263,-20.8982"/>
</g>
<!-- Node6 -->
<g id="node6" class="node">
<title>Node6</title>
<g id="a_node6"><a xlink:title=" ">
<polygon fill="#ffffff" stroke="#bfbfbf" points="370.6095,-.5 370.6095,-20.5 413.8355,-20.5 413.8355,-.5 370.6095,-.5"/>
<text text-anchor="middle" x="392.2225" y="-7.5" font-family="Helvetica,sans-Serif" font-size="10.00" fill="#000000">vector</text>
</a>
</g>
</g>
<!-- Node1&#45;&gt;Node6 -->
<g id="edge5" class="edge">
<title>Node1&#45;&gt;Node6</title>
<path fill="none" stroke="#191970" d="M453.2505,-57.2882C440.3493,-47.3972 425.4263,-35.9563 413.5664,-26.8637"/>
<polygon fill="#191970" stroke="#191970" points="415.6103,-24.0204 405.5447,-20.7137 411.3512,-29.5757 415.6103,-24.0204"/>
</g>
<!-- Node7 -->
<g id="node7" class="node">
<title>Node7</title>
<g id="a_node7"><a xlink:title=" ">
<polygon fill="#ffffff" stroke="#bfbfbf" points="431.9855,-.5 431.9855,-20.5 532.4595,-20.5 532.4595,-.5 431.9855,-.5"/>
<text text-anchor="middle" x="482.2225" y="-7.5" font-family="Helvetica,sans-Serif" font-size="10.00" fill="#000000">dg_local_storage.h</text>
</a>
</g>
</g>
<!-- Node1&#45;&gt;Node7 -->
<g id="edge6" class="edge">
<title>Node1&#45;&gt;Node7</title>
<path fill="none" stroke="#191970" d="M482.2225,-57.2882C482.2225,-48.8377 482.2225,-39.2557 482.2225,-30.9736"/>
<polygon fill="#191970" stroke="#191970" points="485.7226,-30.7136 482.2225,-20.7137 478.7226,-30.7137 485.7226,-30.7136"/>
</g>
<!-- Node8 -->
<g id="node8" class="node">
<title>Node8</title>
<g id="a_node8"><a xlink:title=" ">
<polygon fill="#ffffff" stroke="#bfbfbf" points="550.5555,-.5 550.5555,-20.5 599.8895,-20.5 599.8895,-.5 550.5555,-.5"/>
<text text-anchor="middle" x="575.2225" y="-7.5" font-family="Helvetica,sans-Serif" font-size="10.00" fill="#000000">fstream</text>
</a>
</g>
</g>
<!-- Node1&#45;&gt;Node8 -->
<g id="edge7" class="edge">
<title>Node1&#45;&gt;Node8</title>
<path fill="none" stroke="#191970" d="M511.904,-57.4783C525.2501,-47.5763 540.7324,-36.0895 553.0468,-26.9529"/>
<polygon fill="#191970" stroke="#191970" points="555.4324,-29.5411 561.3779,-20.7718 551.2615,-23.9194 555.4324,-29.5411"/>
</g>
<!-- Node9 -->
<g id="node9" class="node">
<title>Node9</title>
<g id="a_node9"><a xlink:title=" ">
<polygon fill="#ffffff" stroke="#bfbfbf" points="617.721,-.5 617.721,-20.5 668.724,-20.5 668.724,-.5 617.721,-.5"/>
<text text-anchor="middle" x="643.2225" y="-7.5" font-family="Helvetica,sans-Serif" font-size="10.00" fill="#000000">iomanip</text>
</a>
</g>
</g>
<!-- Node1&#45;&gt;Node9 -->
<g id="edge8" class="edge">
<title>Node1&#45;&gt;Node9</title>
<path fill="none" stroke="#191970" d="M533.6066,-57.4783C558.7781,-46.6905 588.3391,-34.0215 610.4158,-24.56"/>
<polygon fill="#191970" stroke="#191970" points="611.8738,-27.7431 619.6865,-20.5869 609.1163,-21.3091 611.8738,-27.7431"/>
</g>
<!-- Node10 -->
<g id="node10" class="node">
<title>Node10</title>
<g id="a_node10"><a xlink:title=" ">
<polygon fill="#ffffff" stroke="#bfbfbf" points="686.445,-.5 686.445,-20.5 738,-20.5 738,-.5 686.445,-.5"/>
<text text-anchor="middle" x="712.2225" y="-7.5" font-family="Helvetica,sans-Serif" font-size="10.00" fill="#000000">sstream</text>
</a>
</g>
</g>
<!-- Node1&#45;&gt;Node10 -->
<g id="edge9" class="edge">
<title>Node1&#45;&gt;Node10</title>
<path fill="none" stroke="#191970" d="M544.0604,-61.2065C580.324,-50.4406 627.2738,-36.4374 676.664,-21.4589"/>
<polygon fill="#191970" stroke="#191970" points="677.6896,-24.8053 686.2416,-18.5512 675.6561,-18.1072 677.6896,-24.8053"/>
</g>
<!-- Node11 -->
<g id="node11" class="node">
<title>Node11</title>
<g id="a_node11"><a xlink:title=" ">
<polygon fill="#ffffff" stroke="#bfbfbf" points="756.1095,-.5 756.1095,-20.5 804.3355,-20.5 804.3355,-.5 756.1095,-.5"/>
<text text-anchor="middle" x="780.2225" y="-7.5" font-family="Helvetica,sans-Serif" font-size="10.00" fill="#000000">cassert</text>
</a>
</g>
</g>
<!-- Node1&#45;&gt;Node11 -->
<g id="edge10" class="edge">
<title>Node1&#45;&gt;Node11</title>
<path fill="none" stroke="#191970" d="M543.9187,-67.5331C595.555,-57.1419 671.3257,-41.0231 745.7703,-21.2344"/>
<polygon fill="#191970" stroke="#191970" points="747.0357,-24.5188 755.7872,-18.547 745.2218,-17.7579 747.0357,-24.5188"/>
</g>
<!-- Node12 -->
<g id="node12" class="node">
<title>Node12</title>
<g id="a_node12"><a xlink:title=" ">
<polygon fill="#ffffff" stroke="#bfbfbf" points="822.056,-.5 822.056,-20.5 876.389,-20.5 876.389,-.5 822.056,-.5"/>
<text text-anchor="middle" x="849.2225" y="-7.5" font-family="Helvetica,sans-Serif" font-size="10.00" fill="#000000">iostream</text>
</a>
</g>
</g>
<!-- Node1&#45;&gt;Node12 -->
<g id="edge11" class="edge">
<title>Node1&#45;&gt;Node12</title>
<path fill="none" stroke="#191970" d="M543.9394,-70.649C608.5762,-60.9171 713.1579,-43.8692 811.9393,-21.127"/>
<polygon fill="#191970" stroke="#191970" points="812.8397,-24.5111 821.7865,-18.8362 811.2535,-17.6931 812.8397,-24.5111"/>
</g>
</g>
</svg>
