<?xml version="1.0" encoding="UTF-8" standalone="no"?>
<!DOCTYPE svg PUBLIC "-//W3C//DTD SVG 1.1//EN"
 "http://www.w3.org/Graphics/SVG/1.1/DTD/svg11.dtd">
<!-- Generated by graphviz version 2.40.1 (20161225.0304)
 -->
<!-- Title: /home/shiqi/Documents/thesis/new/DG_wave_c/src/dg_construct_mpi_boundary.cpp Pages: 1 -->
<svg width="1136pt" height="122pt"
 viewBox="0.00 0.00 1136.41 122.00" xmlns="http://www.w3.org/2000/svg" xmlns:xlink="http://www.w3.org/1999/xlink">
<g id="graph0" class="graph" transform="scale(1 1) rotate(0) translate(4 118)">
<title>/home/shiqi/Documents/thesis/new/DG_wave_c/src/dg_construct_mpi_boundary.cpp</title>
<polygon fill="#ffffff" stroke="transparent" points="-4,4 -4,-118 1132.41,-118 1132.41,4 -4,4"/>
<!-- Node1 -->
<g id="node1" class="node">
<title>Node1</title>
<g id="a_node1"><a xlink:title=" ">
<polygon fill="#bfbfbf" stroke="#000000" points="544.622,-57.5 544.622,-113.5 667.865,-113.5 667.865,-57.5 544.622,-57.5"/>
<text text-anchor="start" x="552.622" y="-100.5" font-family="Helvetica,sans-Serif" font-size="10.00" fill="#000000">/home/shiqi/Documents</text>
<text text-anchor="start" x="552.622" y="-88.5" font-family="Helvetica,sans-Serif" font-size="10.00" fill="#000000">/thesis/new/DG_wave_c</text>
<text text-anchor="start" x="552.622" y="-76.5" font-family="Helvetica,sans-Serif" font-size="10.00" fill="#000000">/src/dg_construct_mpi</text>
<text text-anchor="middle" x="606.2435" y="-64.5" font-family="Helvetica,sans-Serif" font-size="10.00" fill="#000000">_boundary.cpp</text>
</a>
</g>
</g>
<!-- Node2 -->
<g id="node2" class="node">
<title>Node2</title>
<g id="a_node2"><a xlink:title=" ">
<polygon fill="#ffffff" stroke="#bfbfbf" points="0,-.5 0,-20.5 150.487,-20.5 150.487,-.5 0,-.5"/>
<text text-anchor="middle" x="75.2435" y="-7.5" font-family="Helvetica,sans-Serif" font-size="10.00" fill="#000000">dg_construct_mpi_boundary.h</text>
</a>
</g>
</g>
<!-- Node1&#45;&gt;Node2 -->
<g id="edge1" class="edge">
<title>Node1&#45;&gt;Node2</title>
<path fill="none" stroke="#191970" d="M544.5523,-76.7866C448.4484,-63.2126 262.9696,-37.015 156.2218,-21.9376"/>
<polygon fill="#191970" stroke="#191970" points="156.5341,-18.4471 146.1428,-20.514 155.555,-25.3783 156.5341,-18.4471"/>
</g>
<!-- Node3 -->
<g id="node3" class="node">
<title>Node3</title>
<g id="a_node3"><a xlink:title=" ">
<polygon fill="#ffffff" stroke="#bfbfbf" points="168.0065,-.5 168.0065,-20.5 268.4805,-20.5 268.4805,-.5 168.0065,-.5"/>
<text text-anchor="middle" x="218.2435" y="-7.5" font-family="Helvetica,sans-Serif" font-size="10.00" fill="#000000">dg_local_storage.h</text>
</a>
</g>
</g>
<!-- Node1&#45;&gt;Node3 -->
<g id="edge2" class="edge">
<title>Node1&#45;&gt;Node3</title>
<path fill="none" stroke="#191970" d="M544.3347,-73.5331C471.2832,-59.4123 350.6439,-36.0929 278.3748,-22.1233"/>
<polygon fill="#191970" stroke="#191970" points="278.9908,-18.6777 268.5083,-20.2161 277.6623,-25.5505 278.9908,-18.6777"/>
</g>
<!-- Node4 -->
<g id="node4" class="node">
<title>Node4</title>
<g id="a_node4"><a xlink:title=" ">
<polygon fill="#ffffff" stroke="#bfbfbf" points="286.678,-.5 286.678,-20.5 343.809,-20.5 343.809,-.5 286.678,-.5"/>
<text text-anchor="middle" x="315.2435" y="-7.5" font-family="Helvetica,sans-Serif" font-size="10.00" fill="#000000">dg_unit.h</text>
</a>
</g>
</g>
<!-- Node1&#45;&gt;Node4 -->
<g id="edge3" class="edge">
<title>Node1&#45;&gt;Node4</title>
<path fill="none" stroke="#191970" d="M544.5476,-70.137C495.5689,-57.8568 425.088,-40.0004 353.9071,-21.1406"/>
<polygon fill="#191970" stroke="#191970" points="354.4241,-17.6566 343.8607,-18.4732 352.6277,-24.4222 354.4241,-17.6566"/>
</g>
<!-- Node5 -->
<g id="node5" class="node">
<title>Node5</title>
<g id="a_node5"><a xlink:title=" ">
<polygon fill="#ffffff" stroke="#bfbfbf" points="362.0625,-.5 362.0625,-20.5 466.4245,-20.5 466.4245,-.5 362.0625,-.5"/>
<text text-anchor="middle" x="414.2435" y="-7.5" font-family="Helvetica,sans-Serif" font-size="10.00" fill="#000000">dg_cantor_pairing.h</text>
</a>
</g>
</g>
<!-- Node1&#45;&gt;Node5 -->
<g id="edge4" class="edge">
<title>Node1&#45;&gt;Node5</title>
<path fill="none" stroke="#191970" d="M544.4366,-61.3567C513.1363,-49.13 476.2575,-34.7242 449.7561,-24.3721"/>
<polygon fill="#191970" stroke="#191970" points="450.7287,-20.9945 440.1406,-20.6161 448.1817,-27.5147 450.7287,-20.9945"/>
</g>
<!-- Node6 -->
<g id="node6" class="node">
<title>Node6</title>
<g id="a_node6"><a xlink:title=" ">
<polygon fill="#ffffff" stroke="#bfbfbf" points="484.7185,-.5 484.7185,-20.5 605.7685,-20.5 605.7685,-.5 484.7185,-.5"/>
<text text-anchor="middle" x="545.2435" y="-7.5" font-family="Helvetica,sans-Serif" font-size="10.00" fill="#000000">dg_nodal_2d_storage.h</text>
</a>
</g>
</g>
<!-- Node1&#45;&gt;Node6 -->
<g id="edge5" class="edge">
<title>Node1&#45;&gt;Node6</title>
<path fill="none" stroke="#191970" d="M583.182,-57.1457C575.3884,-47.5634 566.9047,-37.1326 559.94,-28.5695"/>
<polygon fill="#191970" stroke="#191970" points="562.5887,-26.2791 553.5635,-20.7296 557.1581,-30.696 562.5887,-26.2791"/>
</g>
<!-- Node7 -->
<g id="node7" class="node">
<title>Node7</title>
<g id="a_node7"><a xlink:title=" ">
<polygon fill="#ffffff" stroke="#bfbfbf" points="623.955,-.5 623.955,-20.5 710.532,-20.5 710.532,-.5 623.955,-.5"/>
<text text-anchor="middle" x="667.2435" y="-7.5" font-family="Helvetica,sans-Serif" font-size="10.00" fill="#000000">unordered_map</text>
</a>
</g>
</g>
<!-- Node1&#45;&gt;Node7 -->
<g id="edge6" class="edge">
<title>Node1&#45;&gt;Node7</title>
<path fill="none" stroke="#191970" d="M629.305,-57.1457C637.0986,-47.5634 645.5823,-37.1326 652.547,-28.5695"/>
<polygon fill="#191970" stroke="#191970" points="655.3289,-30.696 658.9235,-20.7296 649.8983,-26.2791 655.3289,-30.696"/>
</g>
<!-- Node8 -->
<g id="node8" class="node">
<title>Node8</title>
<g id="a_node8"><a xlink:title=" ">
<polygon fill="#ffffff" stroke="#bfbfbf" points="728.5685,-.5 728.5685,-20.5 797.9185,-20.5 797.9185,-.5 728.5685,-.5"/>
<text text-anchor="middle" x="763.2435" y="-7.5" font-family="Helvetica,sans-Serif" font-size="10.00" fill="#000000">dg_param.h</text>
</a>
</g>
</g>
<!-- Node1&#45;&gt;Node8 -->
<g id="edge7" class="edge">
<title>Node1&#45;&gt;Node8</title>
<path fill="none" stroke="#191970" d="M665.1512,-57.3594C688.226,-46.3364 713.7136,-34.1608 732.9239,-24.9839"/>
<polygon fill="#191970" stroke="#191970" points="734.5666,-28.0781 742.0813,-20.6094 731.5493,-21.7617 734.5666,-28.0781"/>
</g>
<!-- Node9 -->
<g id="node9" class="node">
<title>Node9</title>
<g id="a_node9"><a xlink:title=" ">
<polygon fill="#ffffff" stroke="#bfbfbf" points="816.23,-.5 816.23,-20.5 912.257,-20.5 912.257,-.5 816.23,-.5"/>
<text text-anchor="middle" x="864.2435" y="-7.5" font-family="Helvetica,sans-Serif" font-size="10.00" fill="#000000">dg_search_rank.h</text>
</a>
</g>
</g>
<!-- Node1&#45;&gt;Node9 -->
<g id="edge8" class="edge">
<title>Node1&#45;&gt;Node9</title>
<path fill="none" stroke="#191970" d="M668.0409,-67.5356C714.827,-53.935 777.9755,-35.5779 819.8483,-23.4056"/>
<polygon fill="#191970" stroke="#191970" points="820.8638,-26.7553 829.4893,-20.603 818.9098,-20.0336 820.8638,-26.7553"/>
</g>
<!-- Node10 -->
<g id="node10" class="node">
<title>Node10</title>
<g id="a_node10"><a xlink:title=" ">
<polygon fill="#ffffff" stroke="#bfbfbf" points="930.5,-.5 930.5,-20.5 1055.987,-20.5 1055.987,-.5 930.5,-.5"/>
<text text-anchor="middle" x="993.2435" y="-7.5" font-family="Helvetica,sans-Serif" font-size="10.00" fill="#000000">dg_put_into_mpi_table.h</text>
</a>
</g>
</g>
<!-- Node1&#45;&gt;Node10 -->
<g id="edge9" class="edge">
<title>Node1&#45;&gt;Node10</title>
<path fill="none" stroke="#191970" d="M667.9927,-73.5331C740.3465,-59.5111 859.5038,-36.4185 931.7479,-22.4177"/>
<polygon fill="#191970" stroke="#191970" points="932.4694,-25.8431 941.6208,-20.5044 931.1375,-18.971 932.4694,-25.8431"/>
</g>
<!-- Node11 -->
<g id="node11" class="node">
<title>Node11</title>
<g id="a_node11"><a xlink:title=" ">
<polygon fill="#ffffff" stroke="#bfbfbf" points="1074.077,-.5 1074.077,-20.5 1128.41,-20.5 1128.41,-.5 1074.077,-.5"/>
<text text-anchor="middle" x="1101.2435" y="-7.5" font-family="Helvetica,sans-Serif" font-size="10.00" fill="#000000">iostream</text>
</a>
</g>
</g>
<!-- Node1&#45;&gt;Node11 -->
<g id="edge10" class="edge">
<title>Node1&#45;&gt;Node11</title>
<path fill="none" stroke="#191970" d="M667.9895,-79.6814C754.5994,-70.8894 917.106,-52.0934 1063.7483,-21.0939"/>
<polygon fill="#191970" stroke="#191970" points="1064.7834,-24.4518 1073.8303,-18.9377 1063.3194,-17.6065 1064.7834,-24.4518"/>
</g>
</g>
</svg>
