<?xml version="1.0" encoding="UTF-8" standalone="no"?>
<!DOCTYPE svg PUBLIC "-//W3C//DTD SVG 1.1//EN"
 "http://www.w3.org/Graphics/SVG/1.1/DTD/svg11.dtd">
<!-- Generated by graphviz version 2.40.1 (20161225.0304)
 -->
<!-- Title: /home/shiqi/Documents/thesis/new/DG_wave_c/src/dg_advection_diffusion_driver.cpp Pages: 1 -->
<svg width="1590pt" height="122pt"
 viewBox="0.00 0.00 1590.39 122.00" xmlns="http://www.w3.org/2000/svg" xmlns:xlink="http://www.w3.org/1999/xlink">
<g id="graph0" class="graph" transform="scale(1 1) rotate(0) translate(4 118)">
<title>/home/shiqi/Documents/thesis/new/DG_wave_c/src/dg_advection_diffusion_driver.cpp</title>
<polygon fill="#ffffff" stroke="transparent" points="-4,4 -4,-118 1586.389,-118 1586.389,4 -4,4"/>
<!-- Node1 -->
<g id="node1" class="node">
<title>Node1</title>
<g id="a_node1"><a xlink:title=" ">
<polygon fill="#bfbfbf" stroke="#000000" points="701.6485,-57.5 701.6485,-113.5 838.7965,-113.5 838.7965,-57.5 701.6485,-57.5"/>
<text text-anchor="start" x="709.6485" y="-100.5" font-family="Helvetica,sans-Serif" font-size="10.00" fill="#000000">/home/shiqi/Documents</text>
<text text-anchor="start" x="709.6485" y="-88.5" font-family="Helvetica,sans-Serif" font-size="10.00" fill="#000000">/thesis/new/DG_wave_c</text>
<text text-anchor="start" x="709.6485" y="-76.5" font-family="Helvetica,sans-Serif" font-size="10.00" fill="#000000">/src/dg_advection_diffusion</text>
<text text-anchor="middle" x="770.2225" y="-64.5" font-family="Helvetica,sans-Serif" font-size="10.00" fill="#000000">_driver.cpp</text>
</a>
</g>
</g>
<!-- Node2 -->
<g id="node2" class="node">
<title>Node2</title>
<g id="a_node2"><a xlink:title=" ">
<polygon fill="#ffffff" stroke="#bfbfbf" points="0,-.5 0,-20.5 40.445,-20.5 40.445,-.5 0,-.5"/>
<text text-anchor="middle" x="20.2225" y="-7.5" font-family="Helvetica,sans-Serif" font-size="10.00" fill="#000000">mpi.h</text>
</a>
</g>
</g>
<!-- Node1&#45;&gt;Node2 -->
<g id="edge1" class="edge">
<title>Node1&#45;&gt;Node2</title>
<path fill="none" stroke="#191970" d="M701.4678,-81.6184C550.005,-72.7088 190.57,-49.5069 50.7044,-20.7918"/>
<polygon fill="#191970" stroke="#191970" points="51.1353,-17.3046 40.6232,-18.6258 49.6648,-24.1484 51.1353,-17.3046"/>
</g>
<!-- Node3 -->
<g id="node3" class="node">
<title>Node3</title>
<g id="a_node3"><a xlink:title=" ">
<polygon fill="#ffffff" stroke="#bfbfbf" points="58.5475,-.5 58.5475,-20.5 127.8975,-20.5 127.8975,-.5 58.5475,-.5"/>
<text text-anchor="middle" x="93.2225" y="-7.5" font-family="Helvetica,sans-Serif" font-size="10.00" fill="#000000">dg_param.h</text>
</a>
</g>
</g>
<!-- Node1&#45;&gt;Node3 -->
<g id="edge2" class="edge">
<title>Node1&#45;&gt;Node3</title>
<path fill="none" stroke="#191970" d="M701.313,-81.6169C586.2533,-74.4472 347.7205,-56.6601 138.2897,-21.1959"/>
<polygon fill="#191970" stroke="#191970" points="138.7864,-17.7301 128.3394,-19.4937 137.606,-24.6299 138.7864,-17.7301"/>
</g>
<!-- Node4 -->
<g id="node4" class="node">
<title>Node4</title>
<g id="a_node4"><a xlink:title=" ">
<polygon fill="#ffffff" stroke="#bfbfbf" points="145.595,-.5 145.595,-20.5 248.85,-20.5 248.85,-.5 145.595,-.5"/>
<text text-anchor="middle" x="197.2225" y="-7.5" font-family="Helvetica,sans-Serif" font-size="10.00" fill="#000000">dg_basis_storage.h</text>
</a>
</g>
</g>
<!-- Node1&#45;&gt;Node4 -->
<g id="edge3" class="edge">
<title>Node1&#45;&gt;Node4</title>
<path fill="none" stroke="#191970" d="M701.3513,-77.8241C604.9351,-66.8557 424.0107,-45.4646 259.4264,-21.128"/>
<polygon fill="#191970" stroke="#191970" points="259.5168,-17.6031 249.111,-19.5956 258.4881,-24.5271 259.5168,-17.6031"/>
</g>
<!-- Node5 -->
<g id="node5" class="node">
<title>Node5</title>
<g id="a_node5"><a xlink:title=" ">
<polygon fill="#ffffff" stroke="#bfbfbf" points="267.2045,-.5 267.2045,-20.5 363.2405,-20.5 363.2405,-.5 267.2045,-.5"/>
<text text-anchor="middle" x="315.2225" y="-7.5" font-family="Helvetica,sans-Serif" font-size="10.00" fill="#000000">dg_create_hash.h</text>
</a>
</g>
</g>
<!-- Node1&#45;&gt;Node5 -->
<g id="edge4" class="edge">
<title>Node1&#45;&gt;Node5</title>
<path fill="none" stroke="#191970" d="M701.479,-74.8192C624.2547,-62.717 494.894,-42.134 373.619,-21.2169"/>
<polygon fill="#191970" stroke="#191970" points="373.8616,-17.707 363.4115,-19.4522 372.6691,-24.6047 373.8616,-17.707"/>
</g>
<!-- Node6 -->
<g id="node6" class="node">
<title>Node6</title>
<g id="a_node6"><a xlink:title=" ">
<polygon fill="#ffffff" stroke="#bfbfbf" points="380.979,-.5 380.979,-20.5 531.466,-20.5 531.466,-.5 380.979,-.5"/>
<text text-anchor="middle" x="456.2225" y="-7.5" font-family="Helvetica,sans-Serif" font-size="10.00" fill="#000000">dg_construct_mpi_boundary.h</text>
</a>
</g>
</g>
<!-- Node1&#45;&gt;Node6 -->
<g id="edge5" class="edge">
<title>Node1&#45;&gt;Node6</title>
<path fill="none" stroke="#191970" d="M701.3139,-69.0409C643.1414,-55.1462 561.1126,-35.5534 508.2976,-22.9383"/>
<polygon fill="#191970" stroke="#191970" points="509.0037,-19.5086 498.4642,-20.5896 507.3775,-26.3171 509.0037,-19.5086"/>
</g>
<!-- Node7 -->
<g id="node7" class="node">
<title>Node7</title>
<g id="a_node7"><a xlink:title=" ">
<polygon fill="#ffffff" stroke="#bfbfbf" points="549.327,-.5 549.327,-20.5 603.118,-20.5 603.118,-.5 549.327,-.5"/>
<text text-anchor="middle" x="576.2225" y="-7.5" font-family="Helvetica,sans-Serif" font-size="10.00" fill="#000000">dg_init.h</text>
</a>
</g>
</g>
<!-- Node1&#45;&gt;Node7 -->
<g id="edge6" class="edge">
<title>Node1&#45;&gt;Node7</title>
<path fill="none" stroke="#191970" d="M701.5523,-58.9523C671.1449,-47.1968 636.666,-33.8673 611.5796,-24.169"/>
<polygon fill="#191970" stroke="#191970" points="612.7068,-20.8523 602.1174,-20.5109 610.1826,-27.3814 612.7068,-20.8523"/>
</g>
<!-- Node8 -->
<g id="node8" class="node">
<title>Node8</title>
<g id="a_node8"><a xlink:title=" ">
<polygon fill="#ffffff" stroke="#bfbfbf" points="620.826,-.5 620.826,-20.5 669.619,-20.5 669.619,-.5 620.826,-.5"/>
<text text-anchor="middle" x="645.2225" y="-7.5" font-family="Helvetica,sans-Serif" font-size="10.00" fill="#000000">dg_io.h</text>
</a>
</g>
</g>
<!-- Node1&#45;&gt;Node8 -->
<g id="edge7" class="edge">
<title>Node1&#45;&gt;Node8</title>
<path fill="none" stroke="#191970" d="M723.3215,-57.3594C705.5371,-46.6887 685.9525,-34.938 670.844,-25.8729"/>
<polygon fill="#191970" stroke="#191970" points="672.4471,-22.7531 662.0714,-20.6094 668.8456,-28.7556 672.4471,-22.7531"/>
</g>
<!-- Node9 -->
<g id="node9" class="node">
<title>Node9</title>
<g id="a_node9"><a xlink:title=" ">
<polygon fill="#ffffff" stroke="#bfbfbf" points="687.2075,-.5 687.2075,-20.5 753.2375,-20.5 753.2375,-.5 687.2075,-.5"/>
<text text-anchor="middle" x="720.2225" y="-7.5" font-family="Helvetica,sans-Serif" font-size="10.00" fill="#000000">dg_adapt.h</text>
</a>
</g>
</g>
<!-- Node1&#45;&gt;Node9 -->
<g id="edge8" class="edge">
<title>Node1&#45;&gt;Node9</title>
<path fill="none" stroke="#191970" d="M751.3196,-57.1457C745.0645,-47.763 738.2671,-37.5669 732.6272,-29.1071"/>
<polygon fill="#191970" stroke="#191970" points="735.5014,-27.1086 727.0422,-20.7296 729.6771,-30.9915 735.5014,-27.1086"/>
</g>
<!-- Node10 -->
<g id="node10" class="node">
<title>Node10</title>
<g id="a_node10"><a xlink:title=" ">
<polygon fill="#ffffff" stroke="#bfbfbf" points="770.9855,-.5 770.9855,-20.5 871.4595,-20.5 871.4595,-.5 770.9855,-.5"/>
<text text-anchor="middle" x="821.2225" y="-7.5" font-family="Helvetica,sans-Serif" font-size="10.00" fill="#000000">dg_local_storage.h</text>
</a>
</g>
</g>
<!-- Node1&#45;&gt;Node10 -->
<g id="edge9" class="edge">
<title>Node1&#45;&gt;Node10</title>
<path fill="none" stroke="#191970" d="M789.5034,-57.1457C795.8836,-47.763 802.817,-37.5669 808.5697,-29.1071"/>
<polygon fill="#191970" stroke="#191970" points="811.5375,-30.9669 814.2664,-20.7296 805.749,-27.0307 811.5375,-30.9669"/>
</g>
<!-- Node11 -->
<g id="node11" class="node">
<title>Node11</title>
<g id="a_node11"><a xlink:title=" ">
<polygon fill="#ffffff" stroke="#bfbfbf" points="889.0915,-.5 889.0915,-20.5 997.3535,-20.5 997.3535,-.5 889.0915,-.5"/>
<text text-anchor="middle" x="943.2225" y="-7.5" font-family="Helvetica,sans-Serif" font-size="10.00" fill="#000000">dg_load_balancing.h</text>
</a>
</g>
</g>
<!-- Node1&#45;&gt;Node11 -->
<g id="edge10" class="edge">
<title>Node1&#45;&gt;Node11</title>
<path fill="none" stroke="#191970" d="M835.1335,-57.3594C860.9082,-46.1854 889.4149,-33.827 910.679,-24.6084"/>
<polygon fill="#191970" stroke="#191970" points="912.1208,-27.7982 919.9036,-20.6094 909.3365,-21.3758 912.1208,-27.7982"/>
</g>
<!-- Node12 -->
<g id="node12" class="node">
<title>Node12</title>
<g id="a_node12"><a xlink:title=" ">
<polygon fill="#ffffff" stroke="#bfbfbf" points="1015.367,-.5 1015.367,-20.5 1133.078,-20.5 1133.078,-.5 1015.367,-.5"/>
<text text-anchor="middle" x="1074.2225" y="-7.5" font-family="Helvetica,sans-Serif" font-size="10.00" fill="#000000">dg_derived_datatype.h</text>
</a>
</g>
</g>
<!-- Node1&#45;&gt;Node12 -->
<g id="edge11" class="edge">
<title>Node1&#45;&gt;Node12</title>
<path fill="none" stroke="#191970" d="M838.8251,-68.575C894.9731,-54.7227 973.1106,-35.4454 1023.6786,-22.9697"/>
<polygon fill="#191970" stroke="#191970" points="1024.5394,-26.3624 1033.4099,-20.5689 1022.8626,-19.5662 1024.5394,-26.3624"/>
</g>
<!-- Node13 -->
<g id="node13" class="node">
<title>Node13</title>
<g id="a_node13"><a xlink:title=" ">
<polygon fill="#ffffff" stroke="#bfbfbf" points="1150.7045,-.5 1150.7045,-20.5 1251.7405,-20.5 1251.7405,-.5 1150.7045,-.5"/>
<text text-anchor="middle" x="1201.2225" y="-7.5" font-family="Helvetica,sans-Serif" font-size="10.00" fill="#000000">dg_step_by_RK3.h</text>
</a>
</g>
</g>
<!-- Node1&#45;&gt;Node13 -->
<g id="edge12" class="edge">
<title>Node1&#45;&gt;Node13</title>
<path fill="none" stroke="#191970" d="M838.8011,-73.7032C911.2683,-61.2163 1029.1876,-40.8371 1140.6239,-21.2761"/>
<polygon fill="#191970" stroke="#191970" points="1141.4508,-24.6845 1150.6946,-19.5075 1140.2399,-17.7901 1141.4508,-24.6845"/>
</g>
<!-- Node14 -->
<g id="node14" class="node">
<title>Node14</title>
<g id="a_node14"><a xlink:title=" ">
<polygon fill="#ffffff" stroke="#bfbfbf" points="1269.2715,-.5 1269.2715,-20.5 1329.1735,-20.5 1329.1735,-.5 1269.2715,-.5"/>
<text text-anchor="middle" x="1299.2225" y="-7.5" font-family="Helvetica,sans-Serif" font-size="10.00" fill="#000000">dg_CFL.h</text>
</a>
</g>
</g>
<!-- Node1&#45;&gt;Node14 -->
<g id="edge13" class="edge">
<title>Node1&#45;&gt;Node14</title>
<path fill="none" stroke="#191970" d="M839.0302,-79.5056C932.4061,-70.6959 1104.4881,-52.0707 1258.8876,-21.2947"/>
<polygon fill="#191970" stroke="#191970" points="1259.9199,-24.6571 1269.031,-19.2499 1258.5366,-17.7951 1259.9199,-24.6571"/>
</g>
<!-- Node15 -->
<g id="node15" class="node">
<title>Node15</title>
<g id="a_node15"><a xlink:title=" ">
<polygon fill="#ffffff" stroke="#bfbfbf" points="1347.3745,-.5 1347.3745,-20.5 1435.0705,-20.5 1435.0705,-.5 1347.3745,-.5"/>
<text text-anchor="middle" x="1391.2225" y="-7.5" font-family="Helvetica,sans-Serif" font-size="10.00" fill="#000000">dg_LB_quality.h</text>
</a>
</g>
</g>
<!-- Node1&#45;&gt;Node15 -->
<g id="edge14" class="edge">
<title>Node1&#45;&gt;Node15</title>
<path fill="none" stroke="#191970" d="M839.1022,-79.5273C944.3251,-69.9945 1151.5594,-49.6121 1337.3603,-21.0311"/>
<polygon fill="#191970" stroke="#191970" points="1337.9662,-24.479 1347.3124,-19.489 1336.8943,-17.5616 1337.9662,-24.479"/>
</g>
<!-- Node16 -->
<g id="node16" class="node">
<title>Node16</title>
<g id="a_node16"><a xlink:title=" ">
<polygon fill="#ffffff" stroke="#bfbfbf" points="1452.6565,-.5 1452.6565,-20.5 1509.7885,-20.5 1509.7885,-.5 1452.6565,-.5"/>
<text text-anchor="middle" x="1481.2225" y="-7.5" font-family="Helvetica,sans-Serif" font-size="10.00" fill="#000000">dg_test.h</text>
</a>
</g>
</g>
<!-- Node1&#45;&gt;Node16 -->
<g id="edge15" class="edge">
<title>Node1&#45;&gt;Node16</title>
<path fill="none" stroke="#191970" d="M839.2046,-83.0204C960.0737,-77.7764 1217.9013,-62.5847 1442.2723,-21.123"/>
<polygon fill="#191970" stroke="#191970" points="1443.0698,-24.5346 1452.2562,-19.2564 1441.7833,-17.6538 1443.0698,-24.5346"/>
</g>
<!-- Node17 -->
<g id="node17" class="node">
<title>Node17</title>
<g id="a_node17"><a xlink:title=" ">
<polygon fill="#ffffff" stroke="#bfbfbf" points="1528.056,-.5 1528.056,-20.5 1582.389,-20.5 1582.389,-.5 1528.056,-.5"/>
<text text-anchor="middle" x="1555.2225" y="-7.5" font-family="Helvetica,sans-Serif" font-size="10.00" fill="#000000">iostream</text>
</a>
</g>
</g>
<!-- Node1&#45;&gt;Node17 -->
<g id="edge16" class="edge">
<title>Node1&#45;&gt;Node17</title>
<path fill="none" stroke="#191970" d="M838.9931,-84.1155C969.8932,-80.4957 1263.7375,-67.6429 1517.6843,-20.9812"/>
<polygon fill="#191970" stroke="#191970" points="1518.6488,-24.3619 1527.8405,-19.0929 1517.3691,-17.4799 1518.6488,-24.3619"/>
</g>
</g>
</svg>
