<?xml version="1.0" encoding="UTF-8" standalone="no"?>
<!DOCTYPE svg PUBLIC "-//W3C//DTD SVG 1.1//EN"
 "http://www.w3.org/Graphics/SVG/1.1/DTD/svg11.dtd">
<!-- Generated by graphviz version 2.40.1 (20161225.0304)
 -->
<!-- Title: /home/shiqi/Documents/thesis/DG_wave_c/src/dg_hilbert_sort.cpp Pages: 1 -->
<svg width="686pt" height="110pt"
 viewBox="0.00 0.00 686.40 110.00" xmlns="http://www.w3.org/2000/svg" xmlns:xlink="http://www.w3.org/1999/xlink">
<g id="graph0" class="graph" transform="scale(1 1) rotate(0) translate(4 106)">
<title>/home/shiqi/Documents/thesis/DG_wave_c/src/dg_hilbert_sort.cpp</title>
<polygon fill="#ffffff" stroke="transparent" points="-4,4 -4,-106 682.3985,-106 682.3985,4 -4,4"/>
<!-- Node1 -->
<g id="node1" class="node">
<title>Node1</title>
<g id="a_node1"><a xlink:title=" ">
<polygon fill="#bfbfbf" stroke="#000000" points="243.9355,-57.5 243.9355,-101.5 364.3975,-101.5 364.3975,-57.5 243.9355,-57.5"/>
<text text-anchor="start" x="251.9355" y="-88.5" font-family="Helvetica,sans-Serif" font-size="10.00" fill="#000000">/home/shiqi/Documents</text>
<text text-anchor="start" x="251.9355" y="-76.5" font-family="Helvetica,sans-Serif" font-size="10.00" fill="#000000">/thesis/DG_wave_c/src</text>
<text text-anchor="middle" x="304.1665" y="-64.5" font-family="Helvetica,sans-Serif" font-size="10.00" fill="#000000">/dg_hilbert_sort.cpp</text>
</a>
</g>
</g>
<!-- Node2 -->
<g id="node2" class="node">
<title>Node2</title>
<g id="a_node2"><a xlink:title=" ">
<polygon fill="#ffffff" stroke="#bfbfbf" points="0,-.5 0,-20.5 54.333,-20.5 54.333,-.5 0,-.5"/>
<text text-anchor="middle" x="27.1665" y="-7.5" font-family="Helvetica,sans-Serif" font-size="10.00" fill="#000000">iostream</text>
</a>
</g>
</g>
<!-- Node1&#45;&gt;Node2 -->
<g id="edge1" class="edge">
<title>Node1&#45;&gt;Node2</title>
<path fill="none" stroke="#191970" d="M243.5562,-65.5962C196.9924,-54.7294 130.8664,-38.899 64.4471,-21.2693"/>
<polygon fill="#191970" stroke="#191970" points="65.2119,-17.851 54.6477,-18.6555 63.4078,-24.6145 65.2119,-17.851"/>
</g>
<!-- Node3 -->
<g id="node3" class="node">
<title>Node3</title>
<g id="a_node3"><a xlink:title=" ">
<polygon fill="#ffffff" stroke="#bfbfbf" points="71.944,-.5 71.944,-20.5 112.389,-20.5 112.389,-.5 71.944,-.5"/>
<text text-anchor="middle" x="92.1665" y="-7.5" font-family="Helvetica,sans-Serif" font-size="10.00" fill="#000000">mpi.h</text>
</a>
</g>
</g>
<!-- Node1&#45;&gt;Node3 -->
<g id="edge2" class="edge">
<title>Node1&#45;&gt;Node3</title>
<path fill="none" stroke="#191970" d="M243.8095,-60.8389C210.3493,-50.3463 167.8005,-36.7636 121.9377,-21.1887"/>
<polygon fill="#191970" stroke="#191970" points="123.0079,-17.8558 112.4134,-17.9417 120.749,-24.4814 123.0079,-17.8558"/>
</g>
<!-- Node4 -->
<g id="node4" class="node">
<title>Node4</title>
<g id="a_node4"><a xlink:title=" ">
<polygon fill="#ffffff" stroke="#bfbfbf" points="130.6415,-.5 130.6415,-20.5 251.6915,-20.5 251.6915,-.5 130.6415,-.5"/>
<text text-anchor="middle" x="191.1665" y="-7.5" font-family="Helvetica,sans-Serif" font-size="10.00" fill="#000000">dg_nodal_2d_storage.h</text>
</a>
</g>
</g>
<!-- Node1&#45;&gt;Node4 -->
<g id="edge3" class="edge">
<title>Node1&#45;&gt;Node4</title>
<path fill="none" stroke="#191970" d="M268.1019,-57.4783C251.3064,-47.2226 231.7265,-35.2667 216.5226,-25.9829"/>
<polygon fill="#191970" stroke="#191970" points="218.0443,-22.8112 207.6856,-20.5869 214.3962,-28.7855 218.0443,-22.8112"/>
</g>
<!-- Node5 -->
<g id="node5" class="node">
<title>Node5</title>
<g id="a_node5"><a xlink:title=" ">
<polygon fill="#ffffff" stroke="#bfbfbf" points="269.4915,-.5 269.4915,-20.5 338.8415,-20.5 338.8415,-.5 269.4915,-.5"/>
<text text-anchor="middle" x="304.1665" y="-7.5" font-family="Helvetica,sans-Serif" font-size="10.00" fill="#000000">dg_param.h</text>
</a>
</g>
</g>
<!-- Node1&#45;&gt;Node5 -->
<g id="edge4" class="edge">
<title>Node1&#45;&gt;Node5</title>
<path fill="none" stroke="#191970" d="M304.1665,-57.2882C304.1665,-48.8377 304.1665,-39.2557 304.1665,-30.9736"/>
<polygon fill="#191970" stroke="#191970" points="307.6666,-30.7136 304.1665,-20.7137 300.6666,-30.7137 307.6666,-30.7136"/>
</g>
<!-- Node6 -->
<g id="node6" class="node">
<title>Node6</title>
<g id="a_node6"><a xlink:title=" ">
<polygon fill="#ffffff" stroke="#bfbfbf" points="357.0445,-.5 357.0445,-20.5 455.2885,-20.5 455.2885,-.5 357.0445,-.5"/>
<text text-anchor="middle" x="406.1665" y="-7.5" font-family="Helvetica,sans-Serif" font-size="10.00" fill="#000000">dg_hilbert_curve.h</text>
</a>
</g>
</g>
<!-- Node1&#45;&gt;Node6 -->
<g id="edge5" class="edge">
<title>Node1&#45;&gt;Node6</title>
<path fill="none" stroke="#191970" d="M336.7204,-57.4783C351.7379,-47.3194 369.2216,-35.4922 382.8892,-26.2464"/>
<polygon fill="#191970" stroke="#191970" points="384.9337,-29.089 391.2555,-20.5869 381.0115,-23.291 384.9337,-29.089"/>
</g>
<!-- Node7 -->
<g id="node7" class="node">
<title>Node7</title>
<g id="a_node7"><a xlink:title=" ">
<polygon fill="#ffffff" stroke="#bfbfbf" points="472.874,-.5 472.874,-20.5 569.459,-20.5 569.459,-.5 472.874,-.5"/>
<text text-anchor="middle" x="521.1665" y="-7.5" font-family="Helvetica,sans-Serif" font-size="10.00" fill="#000000">dg_single_index.h</text>
</a>
</g>
</g>
<!-- Node1&#45;&gt;Node7 -->
<g id="edge6" class="edge">
<title>Node1&#45;&gt;Node7</title>
<path fill="none" stroke="#191970" d="M364.6131,-60.2797C401.3222,-48.6072 447.2279,-34.0104 479.8158,-23.6484"/>
<polygon fill="#191970" stroke="#191970" points="481.0075,-26.9422 489.4767,-20.5765 478.8863,-20.2713 481.0075,-26.9422"/>
</g>
<!-- Node8 -->
<g id="node8" class="node">
<title>Node8</title>
<g id="a_node8"><a xlink:title=" ">
<polygon fill="#ffffff" stroke="#bfbfbf" points="587.9345,-.5 587.9345,-20.5 678.3985,-20.5 678.3985,-.5 587.9345,-.5"/>
<text text-anchor="middle" x="633.1665" y="-7.5" font-family="Helvetica,sans-Serif" font-size="10.00" fill="#000000">dg_hilbert_sort.h</text>
</a>
</g>
</g>
<!-- Node1&#45;&gt;Node8 -->
<g id="edge7" class="edge">
<title>Node1&#45;&gt;Node8</title>
<path fill="none" stroke="#191970" d="M364.5102,-66.8443C425.4484,-54.064 518.7819,-34.4895 577.8566,-22.0999"/>
<polygon fill="#191970" stroke="#191970" points="578.6838,-25.5027 587.7524,-20.0245 577.2469,-18.6517 578.6838,-25.5027"/>
</g>
</g>
</svg>
