<?xml version="1.0" encoding="UTF-8" standalone="no"?>
<!DOCTYPE svg PUBLIC "-//W3C//DTD SVG 1.1//EN"
 "http://www.w3.org/Graphics/SVG/1.1/DTD/svg11.dtd">
<!-- Generated by graphviz version 2.40.1 (20161225.0304)
 -->
<!-- Title: /home/shiqi/Documents/thesis/new/DG_wave_c/src/dg_prefinement.cpp Pages: 1 -->
<svg width="1311pt" height="122pt"
 viewBox="0.00 0.00 1311.07 122.00" xmlns="http://www.w3.org/2000/svg" xmlns:xlink="http://www.w3.org/1999/xlink">
<g id="graph0" class="graph" transform="scale(1 1) rotate(0) translate(4 118)">
<title>/home/shiqi/Documents/thesis/new/DG_wave_c/src/dg_prefinement.cpp</title>
<polygon fill="#ffffff" stroke="transparent" points="-4,4 -4,-118 1307.0685,-118 1307.0685,4 -4,4"/>
<!-- Node1 -->
<g id="node1" class="node">
<title>Node1</title>
<g id="a_node1"><a xlink:title=" ">
<polygon fill="#bfbfbf" stroke="#000000" points="591.277,-69.5 591.277,-113.5 714.527,-113.5 714.527,-69.5 591.277,-69.5"/>
<text text-anchor="start" x="599.277" y="-100.5" font-family="Helvetica,sans-Serif" font-size="10.00" fill="#000000">/home/shiqi/Documents</text>
<text text-anchor="start" x="599.277" y="-88.5" font-family="Helvetica,sans-Serif" font-size="10.00" fill="#000000">/thesis/new/DG_wave_c</text>
<text text-anchor="middle" x="652.902" y="-76.5" font-family="Helvetica,sans-Serif" font-size="10.00" fill="#000000">/src/dg_prefinement.cpp</text>
</a>
</g>
</g>
<!-- Node2 -->
<g id="node2" class="node">
<title>Node2</title>
<g id="a_node2"><a xlink:title=" ">
<polygon fill="#ffffff" stroke="#bfbfbf" points="0,-6.5 0,-26.5 93.804,-26.5 93.804,-6.5 0,-6.5"/>
<text text-anchor="middle" x="46.902" y="-13.5" font-family="Helvetica,sans-Serif" font-size="10.00" fill="#000000">dg_prefinement.h</text>
</a>
</g>
</g>
<!-- Node1&#45;&gt;Node2 -->
<g id="edge1" class="edge">
<title>Node1&#45;&gt;Node2</title>
<path fill="none" stroke="#191970" d="M590.9036,-88.5592C488.4764,-82.8871 277.8441,-67.7801 102.902,-33 97.7529,-31.9763 92.395,-30.6914 87.1234,-29.2929"/>
<polygon fill="#191970" stroke="#191970" points="87.7438,-25.8319 77.1702,-26.5022 85.854,-32.572 87.7438,-25.8319"/>
</g>
<!-- Node3 -->
<g id="node3" class="node">
<title>Node3</title>
<g id="a_node3"><a xlink:title=" ">
<polygon fill="#ffffff" stroke="#bfbfbf" points="112.289,-6.5 112.289,-26.5 155.515,-26.5 155.515,-6.5 112.289,-6.5"/>
<text text-anchor="middle" x="133.902" y="-13.5" font-family="Helvetica,sans-Serif" font-size="10.00" fill="#000000">vector</text>
</a>
</g>
</g>
<!-- Node1&#45;&gt;Node3 -->
<g id="edge2" class="edge">
<title>Node1&#45;&gt;Node3</title>
<path fill="none" stroke="#191970" d="M591.1479,-87.0683C478.0368,-78.4633 242.0467,-58.1142 163.902,-33 162.229,-32.4623 160.5424,-31.8288 158.8676,-31.1288"/>
<polygon fill="#191970" stroke="#191970" points="160.1032,-27.8373 149.5814,-26.5956 157.0324,-34.1278 160.1032,-27.8373"/>
</g>
<!-- Node4 -->
<g id="node4" class="node">
<title>Node4</title>
<g id="a_node4"><a xlink:title=" ">
<polygon fill="#ffffff" stroke="#bfbfbf" points="173.3365,-6.5 173.3365,-26.5 230.4675,-26.5 230.4675,-6.5 173.3365,-6.5"/>
<text text-anchor="middle" x="201.902" y="-13.5" font-family="Helvetica,sans-Serif" font-size="10.00" fill="#000000">dg_unit.h</text>
</a>
</g>
</g>
<!-- Node1&#45;&gt;Node4 -->
<g id="edge3" class="edge">
<title>Node1&#45;&gt;Node4</title>
<path fill="none" stroke="#191970" d="M591.1059,-88.153C509.1974,-82.5054 360.8138,-68.0465 238.902,-33 236.4178,-32.2859 233.8844,-31.4367 231.367,-30.5061"/>
<polygon fill="#191970" stroke="#191970" points="232.4566,-27.1704 221.8758,-26.6258 229.8076,-33.6498 232.4566,-27.1704"/>
</g>
<!-- Node5 -->
<g id="node5" class="node">
<title>Node5</title>
<g id="a_node5"><a xlink:title=" ">
<polygon fill="#ffffff" stroke="#bfbfbf" points="248.227,-6.5 248.227,-26.5 317.577,-26.5 317.577,-6.5 248.227,-6.5"/>
<text text-anchor="middle" x="282.902" y="-13.5" font-family="Helvetica,sans-Serif" font-size="10.00" fill="#000000">dg_param.h</text>
</a>
</g>
</g>
<!-- Node1&#45;&gt;Node5 -->
<g id="edge4" class="edge">
<title>Node1&#45;&gt;Node5</title>
<path fill="none" stroke="#191970" d="M591.2541,-84.0184C524.9281,-75.1502 416.7366,-58.3066 325.902,-33 322.7439,-32.1202 319.4944,-31.0989 316.2639,-30.0041"/>
<polygon fill="#191970" stroke="#191970" points="317.3335,-26.6692 306.7391,-26.567 314.9574,-33.2536 317.3335,-26.6692"/>
</g>
<!-- Node6 -->
<g id="node6" class="node">
<title>Node6</title>
<g id="a_node6"><a xlink:title=" ">
<polygon fill="#ffffff" stroke="#bfbfbf" points="335.3275,-.5 335.3275,-32.5 452.4765,-32.5 452.4765,-.5 335.3275,-.5"/>
<text text-anchor="start" x="343.3275" y="-19.5" font-family="Helvetica,sans-Serif" font-size="10.00" fill="#000000">dg_interpolate_to_new</text>
<text text-anchor="middle" x="393.902" y="-7.5" font-family="Helvetica,sans-Serif" font-size="10.00" fill="#000000">_points.h</text>
</a>
</g>
</g>
<!-- Node1&#45;&gt;Node6 -->
<g id="edge5" class="edge">
<title>Node1&#45;&gt;Node6</title>
<path fill="none" stroke="#191970" d="M591.1941,-73.6309C551.3851,-62.1032 499.6732,-47.1287 459.1791,-35.4026"/>
<polygon fill="#191970" stroke="#191970" points="459.9833,-31.9918 449.4044,-32.5721 458.0362,-38.7156 459.9833,-31.9918"/>
</g>
<!-- Node7 -->
<g id="node7" class="node">
<title>Node7</title>
<g id="a_node7"><a xlink:title=" ">
<polygon fill="#ffffff" stroke="#bfbfbf" points="470.377,-6.5 470.377,-26.5 591.427,-26.5 591.427,-6.5 470.377,-6.5"/>
<text text-anchor="middle" x="530.902" y="-13.5" font-family="Helvetica,sans-Serif" font-size="10.00" fill="#000000">dg_nodal_2d_storage.h</text>
</a>
</g>
</g>
<!-- Node1&#45;&gt;Node7 -->
<g id="edge6" class="edge">
<title>Node1&#45;&gt;Node7</title>
<path fill="none" stroke="#191970" d="M616.9578,-69.4032C597.3258,-57.3343 573.5029,-42.6891 555.9042,-31.8702"/>
<polygon fill="#191970" stroke="#191970" points="557.6758,-28.8508 547.3238,-26.5954 554.0098,-34.8141 557.6758,-28.8508"/>
</g>
<!-- Node8 -->
<g id="node8" class="node">
<title>Node8</title>
<g id="a_node8"><a xlink:title=" ">
<polygon fill="#ffffff" stroke="#bfbfbf" points="609.6135,-6.5 609.6135,-26.5 696.1905,-26.5 696.1905,-6.5 609.6135,-6.5"/>
<text text-anchor="middle" x="652.902" y="-13.5" font-family="Helvetica,sans-Serif" font-size="10.00" fill="#000000">unordered_map</text>
</a>
</g>
</g>
<!-- Node1&#45;&gt;Node8 -->
<g id="edge7" class="edge">
<title>Node1&#45;&gt;Node8</title>
<path fill="none" stroke="#191970" d="M652.902,-69.4032C652.902,-59.1059 652.902,-46.9331 652.902,-36.8616"/>
<polygon fill="#191970" stroke="#191970" points="656.4021,-36.5953 652.902,-26.5954 649.4021,-36.5954 656.4021,-36.5953"/>
</g>
<!-- Node9 -->
<g id="node9" class="node">
<title>Node9</title>
<g id="a_node9"><a xlink:title=" ">
<polygon fill="#ffffff" stroke="#bfbfbf" points="714.665,-6.5 714.665,-26.5 815.139,-26.5 815.139,-6.5 714.665,-6.5"/>
<text text-anchor="middle" x="764.902" y="-13.5" font-family="Helvetica,sans-Serif" font-size="10.00" fill="#000000">dg_local_storage.h</text>
</a>
</g>
</g>
<!-- Node1&#45;&gt;Node9 -->
<g id="edge8" class="edge">
<title>Node1&#45;&gt;Node9</title>
<path fill="none" stroke="#191970" d="M685.8999,-69.4032C703.7575,-57.445 725.392,-42.9576 741.503,-32.1689"/>
<polygon fill="#191970" stroke="#191970" points="743.4646,-35.0677 749.8263,-26.5954 739.5697,-29.2513 743.4646,-35.0677"/>
</g>
<!-- Node10 -->
<g id="node10" class="node">
<title>Node10</title>
<g id="a_node10"><a xlink:title=" ">
<polygon fill="#ffffff" stroke="#bfbfbf" points="833.4395,-6.5 833.4395,-26.5 928.3645,-26.5 928.3645,-6.5 833.4395,-6.5"/>
<text text-anchor="middle" x="880.902" y="-13.5" font-family="Helvetica,sans-Serif" font-size="10.00" fill="#000000">dg_status_table.h</text>
</a>
</g>
</g>
<!-- Node1&#45;&gt;Node10 -->
<g id="edge9" class="edge">
<title>Node1&#45;&gt;Node10</title>
<path fill="none" stroke="#191970" d="M714.6021,-71.2039C754.5729,-58.0556 805.4954,-41.3048 840.3974,-29.8239"/>
<polygon fill="#191970" stroke="#191970" points="841.8334,-33.0361 850.2389,-26.5865 839.646,-26.3866 841.8334,-33.0361"/>
</g>
<!-- Node11 -->
<g id="node11" class="node">
<title>Node11</title>
<g id="a_node11"><a xlink:title=" ">
<polygon fill="#ffffff" stroke="#bfbfbf" points="946.721,-6.5 946.721,-26.5 1051.083,-26.5 1051.083,-6.5 946.721,-6.5"/>
<text text-anchor="middle" x="998.902" y="-13.5" font-family="Helvetica,sans-Serif" font-size="10.00" fill="#000000">dg_cantor_pairing.h</text>
</a>
</g>
</g>
<!-- Node1&#45;&gt;Node11 -->
<g id="edge10" class="edge">
<title>Node1&#45;&gt;Node11</title>
<path fill="none" stroke="#191970" d="M714.618,-79.8396C772.2964,-68.6932 860.7126,-50.9697 936.902,-33 941.9888,-31.8002 947.2938,-30.486 952.5661,-29.1395"/>
<polygon fill="#191970" stroke="#191970" points="953.8007,-32.435 962.5987,-26.532 952.0398,-25.66 953.8007,-32.435"/>
</g>
<!-- Node12 -->
<g id="node12" class="node">
<title>Node12</title>
<g id="a_node12"><a xlink:title=" ">
<polygon fill="#ffffff" stroke="#bfbfbf" points="1068.789,-6.5 1068.789,-26.5 1117.015,-26.5 1117.015,-6.5 1068.789,-6.5"/>
<text text-anchor="middle" x="1092.902" y="-13.5" font-family="Helvetica,sans-Serif" font-size="10.00" fill="#000000">cassert</text>
</a>
</g>
</g>
<!-- Node1&#45;&gt;Node12 -->
<g id="edge11" class="edge">
<title>Node1&#45;&gt;Node12</title>
<path fill="none" stroke="#191970" d="M714.5883,-88.7755C795.5169,-83.8236 941.1861,-70.1401 1059.902,-33 1061.8277,-32.3976 1063.7791,-31.6936 1065.7207,-30.9221"/>
<polygon fill="#191970" stroke="#191970" points="1067.5026,-33.9583 1075.1835,-26.6607 1064.6282,-27.5756 1067.5026,-33.9583"/>
</g>
<!-- Node13 -->
<g id="node13" class="node">
<title>Node13</title>
<g id="a_node13"><a xlink:title=" ">
<polygon fill="#ffffff" stroke="#bfbfbf" points="1134.6095,-6.5 1134.6095,-26.5 1231.1945,-26.5 1231.1945,-6.5 1134.6095,-6.5"/>
<text text-anchor="middle" x="1182.902" y="-13.5" font-family="Helvetica,sans-Serif" font-size="10.00" fill="#000000">dg_single_index.h</text>
</a>
</g>
</g>
<!-- Node1&#45;&gt;Node13 -->
<g id="edge12" class="edge">
<title>Node1&#45;&gt;Node13</title>
<path fill="none" stroke="#191970" d="M714.6371,-87.0104C805.431,-79.6994 980.004,-62.9417 1125.902,-33 1131.0062,-31.9525 1136.3185,-30.6748 1141.5574,-29.2989"/>
<polygon fill="#191970" stroke="#191970" points="1142.7577,-32.5986 1151.4676,-26.5663 1140.897,-25.8504 1142.7577,-32.5986"/>
</g>
<!-- Node14 -->
<g id="node14" class="node">
<title>Node14</title>
<g id="a_node14"><a xlink:title=" ">
<polygon fill="#ffffff" stroke="#bfbfbf" points="1248.7355,-6.5 1248.7355,-26.5 1303.0685,-26.5 1303.0685,-6.5 1248.7355,-6.5"/>
<text text-anchor="middle" x="1275.902" y="-13.5" font-family="Helvetica,sans-Serif" font-size="10.00" fill="#000000">iostream</text>
</a>
</g>
</g>
<!-- Node1&#45;&gt;Node14 -->
<g id="edge13" class="edge">
<title>Node1&#45;&gt;Node14</title>
<path fill="none" stroke="#191970" d="M714.5719,-87.9346C844.4111,-80.0077 1142.0389,-59.5107 1239.902,-33 1242.3988,-32.3236 1244.9393,-31.4897 1247.4568,-30.559"/>
<polygon fill="#191970" stroke="#191970" points="1249.0262,-33.6968 1256.9105,-26.6196 1246.3336,-27.2354 1249.0262,-33.6968"/>
</g>
</g>
</svg>
