<?xml version="1.0" encoding="UTF-8" standalone="no"?>
<!DOCTYPE svg PUBLIC "-//W3C//DTD SVG 1.1//EN"
 "http://www.w3.org/Graphics/SVG/1.1/DTD/svg11.dtd">
<!-- Generated by graphviz version 2.40.1 (20161225.0304)
 -->
<!-- Title: /home/shiqi/Documents/thesis/DG_wave_c/src/dg_get_dual_coord.cpp Pages: 1 -->
<svg width="131pt" height="110pt"
 viewBox="0.00 0.00 131.27 110.00" xmlns="http://www.w3.org/2000/svg" xmlns:xlink="http://www.w3.org/1999/xlink">
<g id="graph0" class="graph" transform="scale(1 1) rotate(0) translate(4 106)">
<title>/home/shiqi/Documents/thesis/DG_wave_c/src/dg_get_dual_coord.cpp</title>
<polygon fill="#ffffff" stroke="transparent" points="-4,4 -4,-106 127.27,-106 127.27,4 -4,4"/>
<!-- Node1 -->
<g id="node1" class="node">
<title>Node1</title>
<g id="a_node1"><a xlink:title=" ">
<polygon fill="#bfbfbf" stroke="#000000" points="0,-57.5 0,-101.5 123.27,-101.5 123.27,-57.5 0,-57.5"/>
<text text-anchor="start" x="8" y="-88.5" font-family="Helvetica,sans-Serif" font-size="10.00" fill="#000000">/home/shiqi/Documents</text>
<text text-anchor="start" x="8" y="-76.5" font-family="Helvetica,sans-Serif" font-size="10.00" fill="#000000">/thesis/DG_wave_c/src</text>
<text text-anchor="middle" x="61.635" y="-64.5" font-family="Helvetica,sans-Serif" font-size="10.00" fill="#000000">/dg_get_dual_coord.cpp</text>
</a>
</g>
</g>
<!-- Node2 -->
<g id="node2" class="node">
<title>Node2</title>
<g id="a_node2"><a xlink:title=" ">
<polygon fill="#ffffff" stroke="#bfbfbf" points="11.4125,-.5 11.4125,-20.5 51.8575,-20.5 51.8575,-.5 11.4125,-.5"/>
<text text-anchor="middle" x="31.635" y="-7.5" font-family="Helvetica,sans-Serif" font-size="10.00" fill="#000000">mpi.h</text>
</a>
</g>
</g>
<!-- Node1&#45;&gt;Node2 -->
<g id="edge1" class="edge">
<title>Node1&#45;&gt;Node2</title>
<path fill="none" stroke="#191970" d="M51.9777,-57.2882C48.1783,-48.5496 43.8529,-38.6011 40.1703,-30.1311"/>
<polygon fill="#191970" stroke="#191970" points="43.2728,-28.4888 36.0757,-20.7137 36.8533,-31.2799 43.2728,-28.4888"/>
</g>
<!-- Node3 -->
<g id="node3" class="node">
<title>Node3</title>
<g id="a_node3"><a xlink:title=" ">
<polygon fill="#ffffff" stroke="#bfbfbf" points="70.022,-.5 70.022,-20.5 113.248,-20.5 113.248,-.5 70.022,-.5"/>
<text text-anchor="middle" x="91.635" y="-7.5" font-family="Helvetica,sans-Serif" font-size="10.00" fill="#000000">cmath</text>
</a>
</g>
</g>
<!-- Node1&#45;&gt;Node3 -->
<g id="edge2" class="edge">
<title>Node1&#45;&gt;Node3</title>
<path fill="none" stroke="#191970" d="M71.2923,-57.2882C75.0917,-48.5496 79.4171,-38.6011 83.0997,-30.1311"/>
<polygon fill="#191970" stroke="#191970" points="86.4167,-31.2799 87.1943,-20.7137 79.9972,-28.4888 86.4167,-31.2799"/>
</g>
</g>
</svg>
