<?xml version="1.0" encoding="UTF-8" standalone="no"?>
<!DOCTYPE svg PUBLIC "-//W3C//DTD SVG 1.1//EN"
 "http://www.w3.org/Graphics/SVG/1.1/DTD/svg11.dtd">
<!-- Generated by graphviz version 2.40.1 (20161225.0304)
 -->
<!-- Title: /home/shiqihe/Documents/amr/code/cpp/src/dg_read_mesh_2d.cpp Pages: 1 -->
<svg width="188pt" height="110pt"
 viewBox="0.00 0.00 187.89 110.00" xmlns="http://www.w3.org/2000/svg" xmlns:xlink="http://www.w3.org/1999/xlink">
<g id="graph0" class="graph" transform="scale(1 1) rotate(0) translate(4 106)">
<title>/home/shiqihe/Documents/amr/code/cpp/src/dg_read_mesh_2d.cpp</title>
<polygon fill="#ffffff" stroke="transparent" points="-4,4 -4,-106 183.8895,-106 183.8895,4 -4,4"/>
<!-- Node0 -->
<g id="node1" class="node">
<title>Node0</title>
<polygon fill="#bfbfbf" stroke="#000000" points="17.763,-57.5 17.763,-101.5 152.682,-101.5 152.682,-57.5 17.763,-57.5"/>
<text text-anchor="start" x="25.763" y="-88.5" font-family="Helvetica,sans-Serif" font-size="10.00" fill="#000000">/home/shiqihe/Documents</text>
<text text-anchor="start" x="25.763" y="-76.5" font-family="Helvetica,sans-Serif" font-size="10.00" fill="#000000">/amr/code/cpp/src/dg_read</text>
<text text-anchor="middle" x="85.2225" y="-64.5" font-family="Helvetica,sans-Serif" font-size="10.00" fill="#000000">_mesh_2d.cpp</text>
</g>
<!-- Node1 -->
<g id="node2" class="node">
<title>Node1</title>
<polygon fill="#ffffff" stroke="#bfbfbf" points="0,-.5 0,-20.5 40.445,-20.5 40.445,-.5 0,-.5"/>
<text text-anchor="middle" x="20.2225" y="-7.5" font-family="Helvetica,sans-Serif" font-size="10.00" fill="#000000">mpi.h</text>
</g>
<!-- Node0&#45;&gt;Node1 -->
<g id="edge1" class="edge">
<title>Node0&#45;&gt;Node1</title>
<path fill="none" stroke="#191970" d="M64.2983,-57.2882C55.4331,-47.8774 45.246,-37.0634 36.9002,-28.204"/>
<polygon fill="#191970" stroke="#191970" points="39.2487,-25.5927 29.8441,-20.7137 34.1534,-30.3925 39.2487,-25.5927"/>
</g>
<!-- Node2 -->
<g id="node3" class="node">
<title>Node2</title>
<polygon fill="#ffffff" stroke="#bfbfbf" points="58.056,-.5 58.056,-20.5 112.389,-20.5 112.389,-.5 58.056,-.5"/>
<text text-anchor="middle" x="85.2225" y="-7.5" font-family="Helvetica,sans-Serif" font-size="10.00" fill="#000000">iostream</text>
</g>
<!-- Node0&#45;&gt;Node2 -->
<g id="edge2" class="edge">
<title>Node0&#45;&gt;Node2</title>
<path fill="none" stroke="#191970" d="M85.2225,-57.2882C85.2225,-48.8377 85.2225,-39.2557 85.2225,-30.9736"/>
<polygon fill="#191970" stroke="#191970" points="88.7226,-30.7136 85.2225,-20.7137 81.7226,-30.7137 88.7226,-30.7136"/>
</g>
<!-- Node3 -->
<g id="node4" class="node">
<title>Node3</title>
<polygon fill="#ffffff" stroke="#bfbfbf" points="130.5555,-.5 130.5555,-20.5 179.8895,-20.5 179.8895,-.5 130.5555,-.5"/>
<text text-anchor="middle" x="155.2225" y="-7.5" font-family="Helvetica,sans-Serif" font-size="10.00" fill="#000000">fstream</text>
</g>
<!-- Node0&#45;&gt;Node3 -->
<g id="edge3" class="edge">
<title>Node0&#45;&gt;Node3</title>
<path fill="none" stroke="#191970" d="M107.7563,-57.2882C117.4008,-47.7813 128.4982,-36.8426 137.5364,-27.9334"/>
<polygon fill="#191970" stroke="#191970" points="140.196,-30.2263 144.8608,-20.7137 135.282,-25.2411 140.196,-30.2263"/>
</g>
</g>
</svg>
