<?xml version="1.0" encoding="UTF-8" standalone="no"?>
<!DOCTYPE svg PUBLIC "-//W3C//DTD SVG 1.1//EN"
 "http://www.w3.org/Graphics/SVG/1.1/DTD/svg11.dtd">
<!-- Generated by graphviz version 2.40.1 (20161225.0304)
 -->
<!-- Title: /home/shiqi/Documents/thesis/new/DG_wave_c/src/dg_cantor_pairing.cpp Pages: 1 -->
<svg width="250pt" height="110pt"
 viewBox="0.00 0.00 250.35 110.00" xmlns="http://www.w3.org/2000/svg" xmlns:xlink="http://www.w3.org/1999/xlink">
<g id="graph0" class="graph" transform="scale(1 1) rotate(0) translate(4 106)">
<title>/home/shiqi/Documents/thesis/new/DG_wave_c/src/dg_cantor_pairing.cpp</title>
<polygon fill="#ffffff" stroke="transparent" points="-4,4 -4,-106 246.3475,-106 246.3475,4 -4,4"/>
<!-- Node1 -->
<g id="node1" class="node">
<title>Node1</title>
<g id="a_node1"><a xlink:title=" ">
<polygon fill="#bfbfbf" stroke="#000000" points="79.277,-57.5 79.277,-101.5 213.085,-101.5 213.085,-57.5 79.277,-57.5"/>
<text text-anchor="start" x="87.277" y="-88.5" font-family="Helvetica,sans-Serif" font-size="10.00" fill="#000000">/home/shiqi/Documents</text>
<text text-anchor="start" x="87.277" y="-76.5" font-family="Helvetica,sans-Serif" font-size="10.00" fill="#000000">/thesis/new/DG_wave_c</text>
<text text-anchor="middle" x="146.181" y="-64.5" font-family="Helvetica,sans-Serif" font-size="10.00" fill="#000000">/src/dg_cantor_pairing.cpp</text>
</a>
</g>
</g>
<!-- Node2 -->
<g id="node2" class="node">
<title>Node2</title>
<g id="a_node2"><a xlink:title=" ">
<polygon fill="#ffffff" stroke="#bfbfbf" points="0,-.5 0,-20.5 104.362,-20.5 104.362,-.5 0,-.5"/>
<text text-anchor="middle" x="52.181" y="-7.5" font-family="Helvetica,sans-Serif" font-size="10.00" fill="#000000">dg_cantor_pairing.h</text>
</a>
</g>
</g>
<!-- Node1&#45;&gt;Node2 -->
<g id="edge1" class="edge">
<title>Node1&#45;&gt;Node2</title>
<path fill="none" stroke="#191970" d="M116.1804,-57.4783C102.4725,-47.4161 86.535,-35.7173 73.9934,-26.5113"/>
<polygon fill="#191970" stroke="#191970" points="76.055,-23.6828 65.9225,-20.5869 71.9128,-29.3257 76.055,-23.6828"/>
</g>
<!-- Node3 -->
<g id="node3" class="node">
<title>Node3</title>
<g id="a_node3"><a xlink:title=" ">
<polygon fill="#ffffff" stroke="#bfbfbf" points="122.068,-.5 122.068,-20.5 170.294,-20.5 170.294,-.5 122.068,-.5"/>
<text text-anchor="middle" x="146.181" y="-7.5" font-family="Helvetica,sans-Serif" font-size="10.00" fill="#000000">cassert</text>
</a>
</g>
</g>
<!-- Node1&#45;&gt;Node3 -->
<g id="edge2" class="edge">
<title>Node1&#45;&gt;Node3</title>
<path fill="none" stroke="#191970" d="M146.181,-57.2882C146.181,-48.8377 146.181,-39.2557 146.181,-30.9736"/>
<polygon fill="#191970" stroke="#191970" points="149.6811,-30.7136 146.181,-20.7137 142.6811,-30.7137 149.6811,-30.7136"/>
</g>
<!-- Node4 -->
<g id="node4" class="node">
<title>Node4</title>
<g id="a_node4"><a xlink:title=" ">
<polygon fill="#ffffff" stroke="#bfbfbf" points="188.0145,-.5 188.0145,-20.5 242.3475,-20.5 242.3475,-.5 188.0145,-.5"/>
<text text-anchor="middle" x="215.181" y="-7.5" font-family="Helvetica,sans-Serif" font-size="10.00" fill="#000000">iostream</text>
</a>
</g>
</g>
<!-- Node1&#45;&gt;Node4 -->
<g id="edge3" class="edge">
<title>Node1&#45;&gt;Node4</title>
<path fill="none" stroke="#191970" d="M168.3928,-57.2882C177.8997,-47.7813 188.8384,-36.8426 197.7476,-27.9334"/>
<polygon fill="#191970" stroke="#191970" points="200.3711,-30.2597 204.9673,-20.7137 195.4213,-25.3099 200.3711,-30.2597"/>
</g>
</g>
</svg>
