<?xml version="1.0" encoding="UTF-8" standalone="no"?>
<!DOCTYPE svg PUBLIC "-//W3C//DTD SVG 1.1//EN"
 "http://www.w3.org/Graphics/SVG/1.1/DTD/svg11.dtd">
<!-- Generated by graphviz version 2.40.1 (20161225.0304)
 -->
<!-- Title: /home/shiqihe/Documents/amr/code/cpp/src/dg_param.cpp Pages: 1 -->
<svg width="266pt" height="98pt"
 viewBox="0.00 0.00 265.84 98.00" xmlns="http://www.w3.org/2000/svg" xmlns:xlink="http://www.w3.org/1999/xlink">
<g id="graph0" class="graph" transform="scale(1 1) rotate(0) translate(4 94)">
<title>/home/shiqihe/Documents/amr/code/cpp/src/dg_param.cpp</title>
<polygon fill="#ffffff" stroke="transparent" points="-4,4 -4,-94 261.8415,-94 261.8415,4 -4,4"/>
<!-- Node0 -->
<g id="node1" class="node">
<title>Node0</title>
<polygon fill="#bfbfbf" stroke="#000000" points="40.094,-57.5 40.094,-89.5 202.239,-89.5 202.239,-57.5 40.094,-57.5"/>
<text text-anchor="start" x="48.094" y="-76.5" font-family="Helvetica,sans-Serif" font-size="10.00" fill="#000000">/home/shiqihe/Documents</text>
<text text-anchor="middle" x="121.1665" y="-64.5" font-family="Helvetica,sans-Serif" font-size="10.00" fill="#000000">/amr/code/cpp/src/dg_param.cpp</text>
</g>
<!-- Node1 -->
<g id="node2" class="node">
<title>Node1</title>
<polygon fill="#ffffff" stroke="#bfbfbf" points="0,-.5 0,-20.5 54.333,-20.5 54.333,-.5 0,-.5"/>
<text text-anchor="middle" x="27.1665" y="-7.5" font-family="Helvetica,sans-Serif" font-size="10.00" fill="#000000">iostream</text>
</g>
<!-- Node0&#45;&gt;Node1 -->
<g id="edge1" class="edge">
<title>Node0&#45;&gt;Node1</title>
<path fill="none" stroke="#191970" d="M96.9592,-57.2759C82.7691,-47.7655 64.9216,-35.8039 50.827,-26.3576"/>
<polygon fill="#191970" stroke="#191970" points="52.4384,-23.2242 42.1829,-20.5642 48.5412,-29.039 52.4384,-23.2242"/>
</g>
<!-- Node2 -->
<g id="node3" class="node">
<title>Node2</title>
<polygon fill="#ffffff" stroke="#bfbfbf" points="71.944,-.5 71.944,-20.5 112.389,-20.5 112.389,-.5 71.944,-.5"/>
<text text-anchor="middle" x="92.1665" y="-7.5" font-family="Helvetica,sans-Serif" font-size="10.00" fill="#000000">mpi.h</text>
</g>
<!-- Node0&#45;&gt;Node2 -->
<g id="edge2" class="edge">
<title>Node0&#45;&gt;Node2</title>
<path fill="none" stroke="#191970" d="M113.6983,-57.2759C109.8452,-48.9054 105.118,-38.6361 101.0755,-29.854"/>
<polygon fill="#191970" stroke="#191970" points="104.2462,-28.3716 96.8853,-20.7513 97.8875,-31.2986 104.2462,-28.3716"/>
</g>
<!-- Node3 -->
<g id="node4" class="node">
<title>Node3</title>
<polygon fill="#ffffff" stroke="#bfbfbf" points="129.944,-.5 129.944,-20.5 170.389,-20.5 170.389,-.5 129.944,-.5"/>
<text text-anchor="middle" x="150.1665" y="-7.5" font-family="Helvetica,sans-Serif" font-size="10.00" fill="#000000">string</text>
</g>
<!-- Node0&#45;&gt;Node3 -->
<g id="edge3" class="edge">
<title>Node0&#45;&gt;Node3</title>
<path fill="none" stroke="#191970" d="M128.6347,-57.2759C132.4878,-48.9054 137.215,-38.6361 141.2575,-29.854"/>
<polygon fill="#191970" stroke="#191970" points="144.4455,-31.2986 145.4477,-20.7513 138.0868,-28.3716 144.4455,-31.2986"/>
</g>
<!-- Node4 -->
<g id="node5" class="node">
<title>Node4</title>
<polygon fill="#ffffff" stroke="#bfbfbf" points="188.4915,-.5 188.4915,-20.5 257.8415,-20.5 257.8415,-.5 188.4915,-.5"/>
<text text-anchor="middle" x="223.1665" y="-7.5" font-family="Helvetica,sans-Serif" font-size="10.00" fill="#000000">dg_param.h</text>
</g>
<!-- Node0&#45;&gt;Node4 -->
<g id="edge4" class="edge">
<title>Node0&#45;&gt;Node4</title>
<path fill="none" stroke="#191970" d="M147.1693,-57.4394C162.8594,-47.7485 182.7432,-35.4673 198.2364,-25.898"/>
<polygon fill="#191970" stroke="#191970" points="200.1176,-28.8499 206.7864,-20.6171 196.4392,-22.8943 200.1176,-28.8499"/>
</g>
</g>
</svg>
