<?xml version="1.0" encoding="UTF-8" standalone="no"?>
<!DOCTYPE svg PUBLIC "-//W3C//DTD SVG 1.1//EN"
 "http://www.w3.org/Graphics/SVG/1.1/DTD/svg11.dtd">
<!-- Generated by graphviz version 2.40.1 (20161225.0304)
 -->
<!-- Title: /home/shiqi/Documents/thesis/DG_wave_c/src/dg_main.cpp Pages: 1 -->
<svg width="1116pt" height="122pt"
 viewBox="0.00 0.00 1116.46 122.00" xmlns="http://www.w3.org/2000/svg" xmlns:xlink="http://www.w3.org/1999/xlink">
<g id="graph0" class="graph" transform="scale(1 1) rotate(0) translate(4 118)">
<title>/home/shiqi/Documents/thesis/DG_wave_c/src/dg_main.cpp</title>
<polygon fill="#ffffff" stroke="transparent" points="-4,4 -4,-118 1112.459,-118 1112.459,4 -4,4"/>
<!-- Node1 -->
<g id="node1" class="node">
<title>Node1</title>
<g id="a_node1"><a xlink:title=" ">
<polygon fill="#bfbfbf" stroke="#000000" points="399.9355,-69.5 399.9355,-113.5 520.3975,-113.5 520.3975,-69.5 399.9355,-69.5"/>
<text text-anchor="start" x="407.9355" y="-100.5" font-family="Helvetica,sans-Serif" font-size="10.00" fill="#000000">/home/shiqi/Documents</text>
<text text-anchor="start" x="407.9355" y="-88.5" font-family="Helvetica,sans-Serif" font-size="10.00" fill="#000000">/thesis/DG_wave_c/src</text>
<text text-anchor="middle" x="460.1665" y="-76.5" font-family="Helvetica,sans-Serif" font-size="10.00" fill="#000000">/dg_main.cpp</text>
</a>
</g>
</g>
<!-- Node2 -->
<g id="node2" class="node">
<title>Node2</title>
<g id="a_node2"><a xlink:title=" ">
<polygon fill="#ffffff" stroke="#bfbfbf" points="0,-6.5 0,-26.5 54.333,-26.5 54.333,-6.5 0,-6.5"/>
<text text-anchor="middle" x="27.1665" y="-13.5" font-family="Helvetica,sans-Serif" font-size="10.00" fill="#000000">iostream</text>
</a>
</g>
</g>
<!-- Node1&#45;&gt;Node2 -->
<g id="edge1" class="edge">
<title>Node1&#45;&gt;Node2</title>
<path fill="none" stroke="#191970" d="M399.839,-87.9379C321.0294,-82.0855 179.3948,-67.4351 63.1665,-33 60.744,-32.2823 58.2751,-31.4306 55.823,-30.4982"/>
<polygon fill="#191970" stroke="#191970" points="57.1584,-27.2629 46.5834,-26.6147 54.446,-33.716 57.1584,-27.2629"/>
</g>
<!-- Node3 -->
<g id="node3" class="node">
<title>Node3</title>
<g id="a_node3"><a xlink:title=" ">
<polygon fill="#ffffff" stroke="#bfbfbf" points="71.944,-6.5 71.944,-26.5 112.389,-26.5 112.389,-6.5 71.944,-6.5"/>
<text text-anchor="middle" x="92.1665" y="-13.5" font-family="Helvetica,sans-Serif" font-size="10.00" fill="#000000">mpi.h</text>
</a>
</g>
</g>
<!-- Node1&#45;&gt;Node3 -->
<g id="edge2" class="edge">
<title>Node1&#45;&gt;Node3</title>
<path fill="none" stroke="#191970" d="M399.7812,-87.4042C330.7137,-81.289 215.0594,-66.6456 121.1665,-33 119.7351,-32.4871 118.2923,-31.9058 116.8555,-31.2757"/>
<polygon fill="#191970" stroke="#191970" points="118.1481,-28.0072 107.6453,-26.6135 114.9866,-34.2526 118.1481,-28.0072"/>
</g>
<!-- Node4 -->
<g id="node4" class="node">
<title>Node4</title>
<g id="a_node4"><a xlink:title=" ">
<polygon fill="#ffffff" stroke="#bfbfbf" points="130.6055,-6.5 130.6055,-26.5 187.7275,-26.5 187.7275,-6.5 130.6055,-6.5"/>
<text text-anchor="middle" x="159.1665" y="-13.5" font-family="Helvetica,sans-Serif" font-size="10.00" fill="#000000">dg_mpi.h</text>
</a>
</g>
</g>
<!-- Node1&#45;&gt;Node4 -->
<g id="edge3" class="edge">
<title>Node1&#45;&gt;Node4</title>
<path fill="none" stroke="#191970" d="M399.7361,-81.6895C345.6158,-72.0635 264.4854,-55.5471 196.1665,-33 193.7704,-32.2092 191.3192,-31.316 188.8755,-30.3647"/>
<polygon fill="#191970" stroke="#191970" points="190.1959,-27.1232 179.6194,-26.5007 187.4993,-33.583 190.1959,-27.1232"/>
</g>
<!-- Node5 -->
<g id="node5" class="node">
<title>Node5</title>
<g id="a_node5"><a xlink:title=" ">
<polygon fill="#ffffff" stroke="#bfbfbf" points="205.4915,-6.5 205.4915,-26.5 274.8415,-26.5 274.8415,-6.5 205.4915,-6.5"/>
<text text-anchor="middle" x="240.1665" y="-13.5" font-family="Helvetica,sans-Serif" font-size="10.00" fill="#000000">dg_param.h</text>
</a>
</g>
</g>
<!-- Node1&#45;&gt;Node5 -->
<g id="edge4" class="edge">
<title>Node1&#45;&gt;Node5</title>
<path fill="none" stroke="#191970" d="M399.6958,-72.0266C365.6507,-60.9064 322.4173,-46.5236 284.1665,-33 281.5874,-32.0881 278.929,-31.1321 276.2564,-30.159"/>
<polygon fill="#191970" stroke="#191970" points="277.2252,-26.786 266.6318,-26.6096 274.8031,-33.3536 277.2252,-26.786"/>
</g>
<!-- Node6 -->
<g id="node6" class="node">
<title>Node6</title>
<g id="a_node6"><a xlink:title=" ">
<polygon fill="#ffffff" stroke="#bfbfbf" points="293.2105,-.5 293.2105,-32.5 393.1225,-32.5 393.1225,-.5 293.2105,-.5"/>
<text text-anchor="start" x="301.2105" y="-19.5" font-family="Helvetica,sans-Serif" font-size="10.00" fill="#000000">dg_prepare_hilbert</text>
<text text-anchor="middle" x="343.1665" y="-7.5" font-family="Helvetica,sans-Serif" font-size="10.00" fill="#000000">_scheme.h</text>
</a>
</g>
</g>
<!-- Node1&#45;&gt;Node6 -->
<g id="edge5" class="edge">
<title>Node1&#45;&gt;Node6</title>
<path fill="none" stroke="#191970" d="M425.6955,-69.4032C410.3689,-59.5785 392.379,-48.0465 377.1139,-38.2612"/>
<polygon fill="#191970" stroke="#191970" points="378.7894,-35.1778 368.4817,-32.7277 375.0117,-41.071 378.7894,-35.1778"/>
</g>
<!-- Node7 -->
<g id="node7" class="node">
<title>Node7</title>
<g id="a_node7"><a xlink:title=" ">
<polygon fill="#ffffff" stroke="#bfbfbf" points="411.0455,-6.5 411.0455,-26.5 509.2875,-26.5 509.2875,-6.5 411.0455,-6.5"/>
<text text-anchor="middle" x="460.1665" y="-13.5" font-family="Helvetica,sans-Serif" font-size="10.00" fill="#000000">dg_start_parallel.h</text>
</a>
</g>
</g>
<!-- Node1&#45;&gt;Node7 -->
<g id="edge6" class="edge">
<title>Node1&#45;&gt;Node7</title>
<path fill="none" stroke="#191970" d="M460.1665,-69.4032C460.1665,-59.1059 460.1665,-46.9331 460.1665,-36.8616"/>
<polygon fill="#191970" stroke="#191970" points="463.6666,-36.5953 460.1665,-26.5954 456.6666,-36.5954 463.6666,-36.5953"/>
</g>
<!-- Node8 -->
<g id="node8" class="node">
<title>Node8</title>
<g id="a_node8"><a xlink:title=" ">
<polygon fill="#ffffff" stroke="#bfbfbf" points="526.9905,-6.5 526.9905,-26.5 591.3425,-26.5 591.3425,-6.5 526.9905,-6.5"/>
<text text-anchor="middle" x="559.1665" y="-13.5" font-family="Helvetica,sans-Serif" font-size="10.00" fill="#000000">dg_basis.h</text>
</a>
</g>
</g>
<!-- Node1&#45;&gt;Node8 -->
<g id="edge7" class="edge">
<title>Node1&#45;&gt;Node8</title>
<path fill="none" stroke="#191970" d="M489.3343,-69.4032C504.8268,-57.6665 523.5354,-43.4933 537.6874,-32.7721"/>
<polygon fill="#191970" stroke="#191970" points="539.9832,-35.4238 545.8406,-26.5954 535.7562,-29.8441 539.9832,-35.4238"/>
</g>
<!-- Node9 -->
<g id="node9" class="node">
<title>Node9</title>
<g id="a_node9"><a xlink:title=" ">
<polygon fill="#ffffff" stroke="#bfbfbf" points="608.933,-6.5 608.933,-26.5 699.4,-26.5 699.4,-6.5 608.933,-6.5"/>
<text text-anchor="middle" x="654.1665" y="-13.5" font-family="Helvetica,sans-Serif" font-size="10.00" fill="#000000">dg_constructor.h</text>
</a>
</g>
</g>
<!-- Node1&#45;&gt;Node9 -->
<g id="edge8" class="edge">
<title>Node1&#45;&gt;Node9</title>
<path fill="none" stroke="#191970" d="M517.3236,-69.4032C550.117,-56.7253 590.2641,-41.2045 618.5674,-30.2626"/>
<polygon fill="#191970" stroke="#191970" points="619.988,-33.4659 628.0532,-26.5954 617.4638,-26.9368 619.988,-33.4659"/>
</g>
<!-- Node10 -->
<g id="node10" class="node">
<title>Node10</title>
<g id="a_node10"><a xlink:title=" ">
<polygon fill="#ffffff" stroke="#bfbfbf" points="717.868,-6.5 717.868,-26.5 854.465,-26.5 854.465,-6.5 717.868,-6.5"/>
<text text-anchor="middle" x="786.1665" y="-13.5" font-family="Helvetica,sans-Serif" font-size="10.00" fill="#000000">dg_poly_level_and_order.h</text>
</a>
</g>
</g>
<!-- Node1&#45;&gt;Node10 -->
<g id="edge9" class="edge">
<title>Node1&#45;&gt;Node10</title>
<path fill="none" stroke="#191970" d="M520.7206,-77.5688C581.5173,-63.5819 674.2907,-42.2383 732.5157,-28.843"/>
<polygon fill="#191970" stroke="#191970" points="733.6548,-32.1724 742.6155,-26.5194 732.0853,-25.3506 733.6548,-32.1724"/>
</g>
<!-- Node11 -->
<g id="node11" class="node">
<title>Node11</title>
<g id="a_node11"><a xlink:title=" ">
<polygon fill="#ffffff" stroke="#bfbfbf" points="872.6415,-6.5 872.6415,-26.5 993.6915,-26.5 993.6915,-6.5 872.6415,-6.5"/>
<text text-anchor="middle" x="933.1665" y="-13.5" font-family="Helvetica,sans-Serif" font-size="10.00" fill="#000000">dg_nodal_2d_storage.h</text>
</a>
</g>
</g>
<!-- Node1&#45;&gt;Node11 -->
<g id="edge10" class="edge">
<title>Node1&#45;&gt;Node11</title>
<path fill="none" stroke="#191970" d="M520.5232,-84.4088C599.5697,-74.7403 742.3144,-55.9694 863.1665,-33 869.7596,-31.7469 876.67,-30.2926 883.4737,-28.7769"/>
<polygon fill="#191970" stroke="#191970" points="884.347,-32.1677 893.3164,-26.5285 882.788,-25.3434 884.347,-32.1677"/>
</g>
<!-- Node12 -->
<g id="node12" class="node">
<title>Node12</title>
<g id="a_node12"><a xlink:title=" ">
<polygon fill="#ffffff" stroke="#bfbfbf" points="1011.874,-6.5 1011.874,-26.5 1108.459,-26.5 1108.459,-6.5 1011.874,-6.5"/>
<text text-anchor="middle" x="1060.1665" y="-13.5" font-family="Helvetica,sans-Serif" font-size="10.00" fill="#000000">dg_single_index.h</text>
</a>
</g>
</g>
<!-- Node1&#45;&gt;Node12 -->
<g id="edge11" class="edge">
<title>Node1&#45;&gt;Node12</title>
<path fill="none" stroke="#191970" d="M520.5429,-88.4413C621.3341,-82.5683 829.9024,-67.1397 1003.1665,-33 1008.3404,-31.9805 1013.7241,-30.7091 1019.0269,-29.3272"/>
<polygon fill="#191970" stroke="#191970" points="1020.3346,-32.5976 1029.0483,-26.5708 1018.4781,-25.8482 1020.3346,-32.5976"/>
</g>
</g>
</svg>
