<?xml version="1.0" encoding="UTF-8" standalone="no"?>
<!DOCTYPE svg PUBLIC "-//W3C//DTD SVG 1.1//EN"
 "http://www.w3.org/Graphics/SVG/1.1/DTD/svg11.dtd">
<!-- Generated by graphviz version 2.40.1 (20161225.0304)
 -->
<!-- Title: /home/shiqi/Documents/thesis/DG_wave_c/src/dg_prepare_hilbert_scheme.cpp Pages: 1 -->
<svg width="501pt" height="110pt"
 viewBox="0.00 0.00 501.45 110.00" xmlns="http://www.w3.org/2000/svg" xmlns:xlink="http://www.w3.org/1999/xlink">
<g id="graph0" class="graph" transform="scale(1 1) rotate(0) translate(4 106)">
<title>/home/shiqi/Documents/thesis/DG_wave_c/src/dg_prepare_hilbert_scheme.cpp</title>
<polygon fill="#ffffff" stroke="transparent" points="-4,4 -4,-106 497.4545,-106 497.4545,4 -4,4"/>
<!-- Node1 -->
<g id="node1" class="node">
<title>Node1</title>
<g id="a_node1"><a xlink:title=" ">
<polygon fill="#bfbfbf" stroke="#000000" points="119.146,-57.5 119.146,-101.5 281.299,-101.5 281.299,-57.5 119.146,-57.5"/>
<text text-anchor="start" x="127.146" y="-88.5" font-family="Helvetica,sans-Serif" font-size="10.00" fill="#000000">/home/shiqi/Documents</text>
<text text-anchor="start" x="127.146" y="-76.5" font-family="Helvetica,sans-Serif" font-size="10.00" fill="#000000">/thesis/DG_wave_c/src</text>
<text text-anchor="middle" x="200.2225" y="-64.5" font-family="Helvetica,sans-Serif" font-size="10.00" fill="#000000">/dg_prepare_hilbert_scheme.cpp</text>
</a>
</g>
</g>
<!-- Node2 -->
<g id="node2" class="node">
<title>Node2</title>
<g id="a_node2"><a xlink:title=" ">
<polygon fill="#ffffff" stroke="#bfbfbf" points="0,-.5 0,-20.5 40.445,-20.5 40.445,-.5 0,-.5"/>
<text text-anchor="middle" x="20.2225" y="-7.5" font-family="Helvetica,sans-Serif" font-size="10.00" fill="#000000">mpi.h</text>
</a>
</g>
</g>
<!-- Node1&#45;&gt;Node2 -->
<g id="edge1" class="edge">
<title>Node1&#45;&gt;Node2</title>
<path fill="none" stroke="#191970" d="M142.7745,-57.4783C111.8922,-45.6401 75.1003,-31.5365 49.9412,-21.8922"/>
<polygon fill="#191970" stroke="#191970" points="51.1684,-18.6143 40.5781,-18.303 48.6628,-25.1505 51.1684,-18.6143"/>
</g>
<!-- Node3 -->
<g id="node3" class="node">
<title>Node3</title>
<g id="a_node3"><a xlink:title=" ">
<polygon fill="#ffffff" stroke="#bfbfbf" points="58.5475,-.5 58.5475,-20.5 127.8975,-20.5 127.8975,-.5 58.5475,-.5"/>
<text text-anchor="middle" x="93.2225" y="-7.5" font-family="Helvetica,sans-Serif" font-size="10.00" fill="#000000">dg_param.h</text>
</a>
</g>
</g>
<!-- Node1&#45;&gt;Node3 -->
<g id="edge2" class="edge">
<title>Node1&#45;&gt;Node3</title>
<path fill="none" stroke="#191970" d="M166.0728,-57.4783C150.3192,-47.3194 131.9785,-35.4922 117.6408,-26.2464"/>
<polygon fill="#191970" stroke="#191970" points="119.1654,-23.0649 108.8644,-20.5869 115.3717,-28.9478 119.1654,-23.0649"/>
</g>
<!-- Node4 -->
<g id="node4" class="node">
<title>Node4</title>
<g id="a_node4"><a xlink:title=" ">
<polygon fill="#ffffff" stroke="#bfbfbf" points="146.3705,-.5 146.3705,-20.5 254.0745,-20.5 254.0745,-.5 146.3705,-.5"/>
<text text-anchor="middle" x="200.2225" y="-7.5" font-family="Helvetica,sans-Serif" font-size="10.00" fill="#000000">dg_read_mesh_2d.h</text>
</a>
</g>
</g>
<!-- Node1&#45;&gt;Node4 -->
<g id="edge3" class="edge">
<title>Node1&#45;&gt;Node4</title>
<path fill="none" stroke="#191970" d="M200.2225,-57.2882C200.2225,-48.8377 200.2225,-39.2557 200.2225,-30.9736"/>
<polygon fill="#191970" stroke="#191970" points="203.7226,-30.7136 200.2225,-20.7137 196.7226,-30.7137 203.7226,-30.7136"/>
</g>
<!-- Node5 -->
<g id="node5" class="node">
<title>Node5</title>
<g id="a_node5"><a xlink:title=" ">
<polygon fill="#ffffff" stroke="#bfbfbf" points="271.587,-.5 271.587,-20.5 384.858,-20.5 384.858,-.5 271.587,-.5"/>
<text text-anchor="middle" x="328.2225" y="-7.5" font-family="Helvetica,sans-Serif" font-size="10.00" fill="#000000">dg_gen_dual_graph.h</text>
</a>
</g>
</g>
<!-- Node1&#45;&gt;Node5 -->
<g id="edge4" class="edge">
<title>Node1&#45;&gt;Node5</title>
<path fill="none" stroke="#191970" d="M241.0744,-57.4783C260.4584,-47.0291 283.1165,-34.815 300.47,-25.4603"/>
<polygon fill="#191970" stroke="#191970" points="302.3689,-28.4129 309.5106,-20.5869 299.0473,-22.2511 302.3689,-28.4129"/>
</g>
<!-- Node6 -->
<g id="node6" class="node">
<title>Node6</title>
<g id="a_node6"><a xlink:title=" ">
<polygon fill="#ffffff" stroke="#bfbfbf" points="402.9905,-.5 402.9905,-20.5 493.4545,-20.5 493.4545,-.5 402.9905,-.5"/>
<text text-anchor="middle" x="448.2225" y="-7.5" font-family="Helvetica,sans-Serif" font-size="10.00" fill="#000000">dg_hilbert_sort.h</text>
</a>
</g>
</g>
<!-- Node1&#45;&gt;Node6 -->
<g id="edge5" class="edge">
<title>Node1&#45;&gt;Node6</title>
<path fill="none" stroke="#191970" d="M279.3731,-57.4783C319.8853,-46.2067 367.7791,-32.8814 402.1916,-23.307"/>
<polygon fill="#191970" stroke="#191970" points="403.2724,-26.6393 411.9683,-20.5869 401.396,-19.8955 403.2724,-26.6393"/>
</g>
</g>
</svg>
