<?xml version="1.0" encoding="UTF-8" standalone="no"?>
<!DOCTYPE svg PUBLIC "-//W3C//DTD SVG 1.1//EN"
 "http://www.w3.org/Graphics/SVG/1.1/DTD/svg11.dtd">
<!-- Generated by graphviz version 2.40.1 (20161225.0304)
 -->
<!-- Title: /home/shiqi/Documents/thesis/new/DG_wave_c/src/dg_nodal_2d_storage.cpp Pages: 1 -->
<svg width="295pt" height="110pt"
 viewBox="0.00 0.00 294.81 110.00" xmlns="http://www.w3.org/2000/svg" xmlns:xlink="http://www.w3.org/1999/xlink">
<g id="graph0" class="graph" transform="scale(1 1) rotate(0) translate(4 106)">
<title>/home/shiqi/Documents/thesis/new/DG_wave_c/src/dg_nodal_2d_storage.cpp</title>
<polygon fill="#ffffff" stroke="transparent" points="-4,4 -4,-106 290.8135,-106 290.8135,4 -4,4"/>
<!-- Node1 -->
<g id="node1" class="node">
<title>Node1</title>
<g id="a_node1"><a xlink:title=" ">
<polygon fill="#bfbfbf" stroke="#000000" points="85.277,-57.5 85.277,-101.5 235.773,-101.5 235.773,-57.5 85.277,-57.5"/>
<text text-anchor="start" x="93.277" y="-88.5" font-family="Helvetica,sans-Serif" font-size="10.00" fill="#000000">/home/shiqi/Documents</text>
<text text-anchor="start" x="93.277" y="-76.5" font-family="Helvetica,sans-Serif" font-size="10.00" fill="#000000">/thesis/new/DG_wave_c</text>
<text text-anchor="middle" x="160.525" y="-64.5" font-family="Helvetica,sans-Serif" font-size="10.00" fill="#000000">/src/dg_nodal_2d_storage.cpp</text>
</a>
</g>
</g>
<!-- Node2 -->
<g id="node2" class="node">
<title>Node2</title>
<g id="a_node2"><a xlink:title=" ">
<polygon fill="#ffffff" stroke="#bfbfbf" points="0,-.5 0,-20.5 121.05,-20.5 121.05,-.5 0,-.5"/>
<text text-anchor="middle" x="60.525" y="-7.5" font-family="Helvetica,sans-Serif" font-size="10.00" fill="#000000">dg_nodal_2d_storage.h</text>
</a>
</g>
</g>
<!-- Node1&#45;&gt;Node2 -->
<g id="edge1" class="edge">
<title>Node1&#45;&gt;Node2</title>
<path fill="none" stroke="#191970" d="M128.6094,-57.4783C114.0266,-47.4161 97.0718,-35.7173 83.7297,-26.5113"/>
<polygon fill="#191970" stroke="#191970" points="85.3622,-23.3854 75.1436,-20.5869 81.3867,-29.1469 85.3622,-23.3854"/>
</g>
<!-- Node3 -->
<g id="node3" class="node">
<title>Node3</title>
<g id="a_node3"><a xlink:title=" ">
<polygon fill="#ffffff" stroke="#bfbfbf" points="138.912,-.5 138.912,-20.5 182.138,-20.5 182.138,-.5 138.912,-.5"/>
<text text-anchor="middle" x="160.525" y="-7.5" font-family="Helvetica,sans-Serif" font-size="10.00" fill="#000000">vector</text>
</a>
</g>
</g>
<!-- Node1&#45;&gt;Node3 -->
<g id="edge2" class="edge">
<title>Node1&#45;&gt;Node3</title>
<path fill="none" stroke="#191970" d="M160.525,-57.2882C160.525,-48.8377 160.525,-39.2557 160.525,-30.9736"/>
<polygon fill="#191970" stroke="#191970" points="164.0251,-30.7136 160.525,-20.7137 157.0251,-30.7137 164.0251,-30.7136"/>
</g>
<!-- Node4 -->
<g id="node4" class="node">
<title>Node4</title>
<g id="a_node4"><a xlink:title=" ">
<polygon fill="#ffffff" stroke="#bfbfbf" points="200.2365,-.5 200.2365,-20.5 286.8135,-20.5 286.8135,-.5 200.2365,-.5"/>
<text text-anchor="middle" x="243.525" y="-7.5" font-family="Helvetica,sans-Serif" font-size="10.00" fill="#000000">unordered_map</text>
</a>
</g>
</g>
<!-- Node1&#45;&gt;Node4 -->
<g id="edge3" class="edge">
<title>Node1&#45;&gt;Node4</title>
<path fill="none" stroke="#191970" d="M187.2436,-57.2882C199.0259,-47.4933 212.6366,-36.1783 223.5218,-27.1292"/>
<polygon fill="#191970" stroke="#191970" points="225.7866,-29.7979 231.239,-20.7137 221.3117,-24.415 225.7866,-29.7979"/>
</g>
</g>
</svg>
