<?xml version="1.0" encoding="UTF-8" standalone="no"?>
<!DOCTYPE svg PUBLIC "-//W3C//DTD SVG 1.1//EN"
 "http://www.w3.org/Graphics/SVG/1.1/DTD/svg11.dtd">
<!-- Generated by graphviz version 2.40.1 (20161225.0304)
 -->
<!-- Title: /home/shiqi/Documents/thesis/new/DG_wave_c/src/dg_CFL.cpp Pages: 1 -->
<svg width="294pt" height="110pt"
 viewBox="0.00 0.00 294.12 110.00" xmlns="http://www.w3.org/2000/svg" xmlns:xlink="http://www.w3.org/1999/xlink">
<g id="graph0" class="graph" transform="scale(1 1) rotate(0) translate(4 106)">
<title>/home/shiqi/Documents/thesis/new/DG_wave_c/src/dg_CFL.cpp</title>
<polygon fill="#ffffff" stroke="transparent" points="-4,4 -4,-106 290.1175,-106 290.1175,4 -4,4"/>
<!-- Node1 -->
<g id="node1" class="node">
<title>Node1</title>
<g id="a_node1"><a xlink:title=" ">
<polygon fill="#bfbfbf" stroke="#000000" points="78.3295,-57.5 78.3295,-101.5 201.5725,-101.5 201.5725,-57.5 78.3295,-57.5"/>
<text text-anchor="start" x="86.3295" y="-88.5" font-family="Helvetica,sans-Serif" font-size="10.00" fill="#000000">/home/shiqi/Documents</text>
<text text-anchor="start" x="86.3295" y="-76.5" font-family="Helvetica,sans-Serif" font-size="10.00" fill="#000000">/thesis/new/DG_wave_c</text>
<text text-anchor="middle" x="139.951" y="-64.5" font-family="Helvetica,sans-Serif" font-size="10.00" fill="#000000">/src/dg_CFL.cpp</text>
</a>
</g>
</g>
<!-- Node2 -->
<g id="node2" class="node">
<title>Node2</title>
<g id="a_node2"><a xlink:title=" ">
<polygon fill="#ffffff" stroke="#bfbfbf" points="0,-.5 0,-20.5 59.902,-20.5 59.902,-.5 0,-.5"/>
<text text-anchor="middle" x="29.951" y="-7.5" font-family="Helvetica,sans-Serif" font-size="10.00" fill="#000000">dg_CFL.h</text>
</a>
</g>
</g>
<!-- Node1&#45;&gt;Node2 -->
<g id="edge1" class="edge">
<title>Node1&#45;&gt;Node2</title>
<path fill="none" stroke="#191970" d="M104.8439,-57.4783C88.4943,-47.2226 69.4342,-35.2667 54.634,-25.9829"/>
<polygon fill="#191970" stroke="#191970" points="56.3627,-22.9358 46.0315,-20.5869 52.643,-28.8657 56.3627,-22.9358"/>
</g>
<!-- Node3 -->
<g id="node3" class="node">
<title>Node3</title>
<g id="a_node3"><a xlink:title=" ">
<polygon fill="#ffffff" stroke="#bfbfbf" points="77.838,-.5 77.838,-20.5 126.064,-20.5 126.064,-.5 77.838,-.5"/>
<text text-anchor="middle" x="101.951" y="-7.5" font-family="Helvetica,sans-Serif" font-size="10.00" fill="#000000">cassert</text>
</a>
</g>
</g>
<!-- Node1&#45;&gt;Node3 -->
<g id="edge2" class="edge">
<title>Node1&#45;&gt;Node3</title>
<path fill="none" stroke="#191970" d="M127.7184,-57.2882C122.8001,-48.3575 117.1858,-38.1632 112.456,-29.5749"/>
<polygon fill="#191970" stroke="#191970" points="115.4659,-27.7847 107.5759,-20.7137 109.3342,-31.1616 115.4659,-27.7847"/>
</g>
<!-- Node4 -->
<g id="node4" class="node">
<title>Node4</title>
<g id="a_node4"><a xlink:title=" ">
<polygon fill="#ffffff" stroke="#bfbfbf" points="144.276,-.5 144.276,-20.5 213.626,-20.5 213.626,-.5 144.276,-.5"/>
<text text-anchor="middle" x="178.951" y="-7.5" font-family="Helvetica,sans-Serif" font-size="10.00" fill="#000000">dg_param.h</text>
</a>
</g>
</g>
<!-- Node1&#45;&gt;Node4 -->
<g id="edge3" class="edge">
<title>Node1&#45;&gt;Node4</title>
<path fill="none" stroke="#191970" d="M152.5055,-57.2882C157.5533,-48.3575 163.3153,-38.1632 168.1696,-29.5749"/>
<polygon fill="#191970" stroke="#191970" points="171.3044,-31.1415 173.1781,-20.7137 165.2105,-27.6971 171.3044,-31.1415"/>
</g>
<!-- Node5 -->
<g id="node5" class="node">
<title>Node5</title>
<g id="a_node5"><a xlink:title=" ">
<polygon fill="#ffffff" stroke="#bfbfbf" points="231.7845,-.5 231.7845,-20.5 286.1175,-20.5 286.1175,-.5 231.7845,-.5"/>
<text text-anchor="middle" x="258.951" y="-7.5" font-family="Helvetica,sans-Serif" font-size="10.00" fill="#000000">iostream</text>
</a>
</g>
</g>
<!-- Node1&#45;&gt;Node5 -->
<g id="edge4" class="edge">
<title>Node1&#45;&gt;Node5</title>
<path fill="none" stroke="#191970" d="M177.9305,-57.4783C195.7847,-47.1259 216.6267,-35.041 232.7004,-25.7209"/>
<polygon fill="#191970" stroke="#191970" points="234.6595,-28.6308 241.5548,-20.5869 231.1482,-22.5752 234.6595,-28.6308"/>
</g>
</g>
</svg>
