<?xml version="1.0" encoding="UTF-8" standalone="no"?>
<!DOCTYPE svg PUBLIC "-//W3C//DTD SVG 1.1//EN"
 "http://www.w3.org/Graphics/SVG/1.1/DTD/svg11.dtd">
<!-- Generated by graphviz version 2.40.1 (20161225.0304)
 -->
<!-- Title: /home/shiqi/Documents/thesis/new/DG_wave_c/src/dg_error_estimator.cpp Pages: 1 -->
<svg width="1100pt" height="110pt"
 viewBox="0.00 0.00 1099.56 110.00" xmlns="http://www.w3.org/2000/svg" xmlns:xlink="http://www.w3.org/1999/xlink">
<g id="graph0" class="graph" transform="scale(1 1) rotate(0) translate(4 106)">
<title>/home/shiqi/Documents/thesis/new/DG_wave_c/src/dg_error_estimator.cpp</title>
<polygon fill="#ffffff" stroke="transparent" points="-4,4 -4,-106 1095.562,-106 1095.562,4 -4,4"/>
<!-- Node1 -->
<g id="node1" class="node">
<title>Node1</title>
<g id="a_node1"><a xlink:title=" ">
<polygon fill="#bfbfbf" stroke="#000000" points="451.277,-57.5 451.277,-101.5 589.514,-101.5 589.514,-57.5 451.277,-57.5"/>
<text text-anchor="start" x="459.277" y="-88.5" font-family="Helvetica,sans-Serif" font-size="10.00" fill="#000000">/home/shiqi/Documents</text>
<text text-anchor="start" x="459.277" y="-76.5" font-family="Helvetica,sans-Serif" font-size="10.00" fill="#000000">/thesis/new/DG_wave_c</text>
<text text-anchor="middle" x="520.3955" y="-64.5" font-family="Helvetica,sans-Serif" font-size="10.00" fill="#000000">/src/dg_error_estimator.cpp</text>
</a>
</g>
</g>
<!-- Node2 -->
<g id="node2" class="node">
<title>Node2</title>
<g id="a_node2"><a xlink:title=" ">
<polygon fill="#ffffff" stroke="#bfbfbf" points="0,-.5 0,-20.5 108.791,-20.5 108.791,-.5 0,-.5"/>
<text text-anchor="middle" x="54.3955" y="-7.5" font-family="Helvetica,sans-Serif" font-size="10.00" fill="#000000">dg_error_estimator.h</text>
</a>
</g>
</g>
<!-- Node1&#45;&gt;Node2 -->
<g id="edge1" class="edge">
<title>Node1&#45;&gt;Node2</title>
<path fill="none" stroke="#191970" d="M451.1579,-69.8997C372.9391,-58.9525 241.5573,-40.2591 118.9596,-21.2233"/>
<polygon fill="#191970" stroke="#191970" points="119.4393,-17.7559 109.0199,-19.6761 118.3626,-24.6726 119.4393,-17.7559"/>
</g>
<!-- Node3 -->
<g id="node3" class="node">
<title>Node3</title>
<g id="a_node3"><a xlink:title=" ">
<polygon fill="#ffffff" stroke="#bfbfbf" points="126.83,-.5 126.83,-20.5 183.961,-20.5 183.961,-.5 126.83,-.5"/>
<text text-anchor="middle" x="155.3955" y="-7.5" font-family="Helvetica,sans-Serif" font-size="10.00" fill="#000000">dg_unit.h</text>
</a>
</g>
</g>
<!-- Node1&#45;&gt;Node3 -->
<g id="edge2" class="edge">
<title>Node1&#45;&gt;Node3</title>
<path fill="none" stroke="#191970" d="M451.1977,-69.22C386.813,-59.1869 288.0628,-42.6084 193.9754,-21.214"/>
<polygon fill="#191970" stroke="#191970" points="194.5352,-17.7515 184.0055,-18.9246 192.9685,-24.5739 194.5352,-17.7515"/>
</g>
<!-- Node4 -->
<g id="node4" class="node">
<title>Node4</title>
<g id="a_node4"><a xlink:title=" ">
<polygon fill="#ffffff" stroke="#bfbfbf" points="201.7825,-.5 201.7825,-20.5 245.0085,-20.5 245.0085,-.5 201.7825,-.5"/>
<text text-anchor="middle" x="223.3955" y="-7.5" font-family="Helvetica,sans-Serif" font-size="10.00" fill="#000000">vector</text>
</a>
</g>
</g>
<!-- Node1&#45;&gt;Node4 -->
<g id="edge3" class="edge">
<title>Node1&#45;&gt;Node4</title>
<path fill="none" stroke="#191970" d="M451.2677,-66.4696C399.5944,-56.2302 327.1102,-40.8151 255.0233,-20.9595"/>
<polygon fill="#191970" stroke="#191970" points="255.8903,-17.5679 245.318,-18.2583 254.0133,-24.3115 255.8903,-17.5679"/>
</g>
<!-- Node5 -->
<g id="node5" class="node">
<title>Node5</title>
<g id="a_node5"><a xlink:title=" ">
<polygon fill="#ffffff" stroke="#bfbfbf" points="263.2825,-.5 263.2825,-20.5 311.5085,-20.5 311.5085,-.5 263.2825,-.5"/>
<text text-anchor="middle" x="287.3955" y="-7.5" font-family="Helvetica,sans-Serif" font-size="10.00" fill="#000000">cassert</text>
</a>
</g>
</g>
<!-- Node1&#45;&gt;Node5 -->
<g id="edge4" class="edge">
<title>Node1&#45;&gt;Node5</title>
<path fill="none" stroke="#191970" d="M450.8569,-59.5947C414.7507,-49.157 369.6936,-35.9741 321.2565,-21.221"/>
<polygon fill="#191970" stroke="#191970" points="322.1119,-17.8227 311.5256,-18.2497 320.0676,-24.5176 322.1119,-17.8227"/>
</g>
<!-- Node6 -->
<g id="node6" class="node">
<title>Node6</title>
<g id="a_node6"><a xlink:title=" ">
<polygon fill="#ffffff" stroke="#bfbfbf" points="329.7205,-.5 329.7205,-20.5 399.0705,-20.5 399.0705,-.5 329.7205,-.5"/>
<text text-anchor="middle" x="364.3955" y="-7.5" font-family="Helvetica,sans-Serif" font-size="10.00" fill="#000000">dg_param.h</text>
</a>
</g>
</g>
<!-- Node1&#45;&gt;Node6 -->
<g id="edge5" class="edge">
<title>Node1&#45;&gt;Node6</title>
<path fill="none" stroke="#191970" d="M470.6072,-57.4783C446.3268,-46.7388 417.8312,-34.135 396.4716,-24.6875"/>
<polygon fill="#191970" stroke="#191970" points="397.7617,-21.4311 387.2006,-20.5869 394.9301,-27.8329 397.7617,-21.4311"/>
</g>
<!-- Node7 -->
<g id="node7" class="node">
<title>Node7</title>
<g id="a_node7"><a xlink:title=" ">
<polygon fill="#ffffff" stroke="#bfbfbf" points="417.103,-.5 417.103,-20.5 513.688,-20.5 513.688,-.5 417.103,-.5"/>
<text text-anchor="middle" x="465.3955" y="-7.5" font-family="Helvetica,sans-Serif" font-size="10.00" fill="#000000">dg_single_index.h</text>
</a>
</g>
</g>
<!-- Node1&#45;&gt;Node7 -->
<g id="edge6" class="edge">
<title>Node1&#45;&gt;Node7</title>
<path fill="none" stroke="#191970" d="M502.6904,-57.2882C495.3421,-48.0694 486.9206,-37.5042 479.9417,-28.7488"/>
<polygon fill="#191970" stroke="#191970" points="482.5069,-26.3518 473.5368,-20.7137 477.0331,-30.715 482.5069,-26.3518"/>
</g>
<!-- Node8 -->
<g id="node8" class="node">
<title>Node8</title>
<g id="a_node8"><a xlink:title=" ">
<polygon fill="#ffffff" stroke="#bfbfbf" points="532.107,-.5 532.107,-20.5 618.684,-20.5 618.684,-.5 532.107,-.5"/>
<text text-anchor="middle" x="575.3955" y="-7.5" font-family="Helvetica,sans-Serif" font-size="10.00" fill="#000000">unordered_map</text>
</a>
</g>
</g>
<!-- Node1&#45;&gt;Node8 -->
<g id="edge7" class="edge">
<title>Node1&#45;&gt;Node8</title>
<path fill="none" stroke="#191970" d="M538.1006,-57.2882C545.4489,-48.0694 553.8704,-37.5042 560.8493,-28.7488"/>
<polygon fill="#191970" stroke="#191970" points="563.7579,-30.715 567.2542,-20.7137 558.2841,-26.3518 563.7579,-30.715"/>
</g>
<!-- Node9 -->
<g id="node9" class="node">
<title>Node9</title>
<g id="a_node9"><a xlink:title=" ">
<polygon fill="#ffffff" stroke="#bfbfbf" points="636.2195,-.5 636.2195,-20.5 700.5715,-20.5 700.5715,-.5 636.2195,-.5"/>
<text text-anchor="middle" x="668.3955" y="-7.5" font-family="Helvetica,sans-Serif" font-size="10.00" fill="#000000">dg_basis.h</text>
</a>
</g>
</g>
<!-- Node1&#45;&gt;Node9 -->
<g id="edge8" class="edge">
<title>Node1&#45;&gt;Node9</title>
<path fill="none" stroke="#191970" d="M567.6305,-57.4783C590.562,-46.7872 617.4566,-34.2486 637.6901,-24.8154"/>
<polygon fill="#191970" stroke="#191970" points="639.1755,-27.9846 646.7599,-20.5869 636.2176,-21.6402 639.1755,-27.9846"/>
</g>
<!-- Node10 -->
<g id="node10" class="node">
<title>Node10</title>
<g id="a_node10"><a xlink:title=" ">
<polygon fill="#ffffff" stroke="#bfbfbf" points="718.8705,-.5 718.8705,-20.5 839.9205,-20.5 839.9205,-.5 718.8705,-.5"/>
<text text-anchor="middle" x="779.3955" y="-7.5" font-family="Helvetica,sans-Serif" font-size="10.00" fill="#000000">dg_nodal_2d_storage.h</text>
</a>
</g>
</g>
<!-- Node1&#45;&gt;Node10 -->
<g id="edge9" class="edge">
<title>Node1&#45;&gt;Node10</title>
<path fill="none" stroke="#191970" d="M589.8027,-61.0093C634.8348,-49.0123 692.3237,-33.6967 732.1304,-23.0919"/>
<polygon fill="#191970" stroke="#191970" points="733.0895,-26.4585 741.8515,-20.5021 731.2875,-19.6944 733.0895,-26.4585"/>
</g>
<!-- Node11 -->
<g id="node11" class="node">
<title>Node11</title>
<g id="a_node11"><a xlink:title=" ">
<polygon fill="#ffffff" stroke="#bfbfbf" points="857.7825,-.5 857.7825,-20.5 901.0085,-20.5 901.0085,-.5 857.7825,-.5"/>
<text text-anchor="middle" x="879.3955" y="-7.5" font-family="Helvetica,sans-Serif" font-size="10.00" fill="#000000">cmath</text>
</a>
</g>
</g>
<!-- Node1&#45;&gt;Node11 -->
<g id="edge10" class="edge">
<title>Node1&#45;&gt;Node11</title>
<path fill="none" stroke="#191970" d="M589.7787,-70.4712C654.5558,-61.2941 753.9317,-45.3054 847.6405,-21.1872"/>
<polygon fill="#191970" stroke="#191970" points="848.7746,-24.5085 857.5663,-18.596 847.0064,-17.7355 848.7746,-24.5085"/>
</g>
<!-- Node12 -->
<g id="node12" class="node">
<title>Node12</title>
<g id="a_node12"><a xlink:title=" ">
<polygon fill="#ffffff" stroke="#bfbfbf" points="919.1585,-.5 919.1585,-20.5 1019.6325,-20.5 1019.6325,-.5 919.1585,-.5"/>
<text text-anchor="middle" x="969.3955" y="-7.5" font-family="Helvetica,sans-Serif" font-size="10.00" fill="#000000">dg_local_storage.h</text>
</a>
</g>
</g>
<!-- Node1&#45;&gt;Node12 -->
<g id="edge11" class="edge">
<title>Node1&#45;&gt;Node12</title>
<path fill="none" stroke="#191970" d="M589.5245,-69.7108C665.4186,-58.8326 791.132,-40.4289 908.9629,-21.2062"/>
<polygon fill="#191970" stroke="#191970" points="909.577,-24.6523 918.8805,-19.5832 908.4465,-17.7442 909.577,-24.6523"/>
</g>
<!-- Node13 -->
<g id="node13" class="node">
<title>Node13</title>
<g id="a_node13"><a xlink:title=" ">
<polygon fill="#ffffff" stroke="#bfbfbf" points="1037.229,-.5 1037.229,-20.5 1091.562,-20.5 1091.562,-.5 1037.229,-.5"/>
<text text-anchor="middle" x="1064.3955" y="-7.5" font-family="Helvetica,sans-Serif" font-size="10.00" fill="#000000">iostream</text>
</a>
</g>
</g>
<!-- Node1&#45;&gt;Node13 -->
<g id="edge12" class="edge">
<title>Node1&#45;&gt;Node13</title>
<path fill="none" stroke="#191970" d="M589.5834,-75.2559C685.8712,-68.5261 865.7126,-52.9732 1026.8984,-21.0373"/>
<polygon fill="#191970" stroke="#191970" points="1027.8819,-24.4097 1036.9973,-19.0097 1026.504,-17.5467 1027.8819,-24.4097"/>
</g>
</g>
</svg>
