<?xml version="1.0" encoding="UTF-8" standalone="no"?>
<!DOCTYPE svg PUBLIC "-//W3C//DTD SVG 1.1//EN"
 "http://www.w3.org/Graphics/SVG/1.1/DTD/svg11.dtd">
<!-- Generated by graphviz version 2.40.1 (20161225.0304)
 -->
<!-- Title: /home/shiqi/Documents/thesis/new/DG_wave_c/src/dg_a_times_spatial_derivative.cpp Pages: 1 -->
<svg width="1061pt" height="134pt"
 viewBox="0.00 0.00 1060.78 134.00" xmlns="http://www.w3.org/2000/svg" xmlns:xlink="http://www.w3.org/1999/xlink">
<g id="graph0" class="graph" transform="scale(1 1) rotate(0) translate(4 130)">
<title>/home/shiqi/Documents/thesis/new/DG_wave_c/src/dg_a_times_spatial_derivative.cpp</title>
<polygon fill="#ffffff" stroke="transparent" points="-4,4 -4,-130 1056.7795,-130 1056.7795,4 -4,4"/>
<!-- Node1 -->
<g id="node1" class="node">
<title>Node1</title>
<g id="a_node1"><a xlink:title=" ">
<polygon fill="#bfbfbf" stroke="#000000" points="475.9915,-69.5 475.9915,-125.5 599.2345,-125.5 599.2345,-69.5 475.9915,-69.5"/>
<text text-anchor="start" x="483.9915" y="-112.5" font-family="Helvetica,sans-Serif" font-size="10.00" fill="#000000">/home/shiqi/Documents</text>
<text text-anchor="start" x="483.9915" y="-100.5" font-family="Helvetica,sans-Serif" font-size="10.00" fill="#000000">/thesis/new/DG_wave_c</text>
<text text-anchor="start" x="483.9915" y="-88.5" font-family="Helvetica,sans-Serif" font-size="10.00" fill="#000000">/src/dg_a_times_spatial</text>
<text text-anchor="middle" x="537.613" y="-76.5" font-family="Helvetica,sans-Serif" font-size="10.00" fill="#000000">_derivative.cpp</text>
</a>
</g>
</g>
<!-- Node2 -->
<g id="node2" class="node">
<title>Node2</title>
<g id="a_node2"><a xlink:title=" ">
<polygon fill="#ffffff" stroke="#bfbfbf" points="0,-6.5 0,-26.5 43.226,-26.5 43.226,-6.5 0,-6.5"/>
<text text-anchor="middle" x="21.613" y="-13.5" font-family="Helvetica,sans-Serif" font-size="10.00" fill="#000000">vector</text>
</a>
</g>
</g>
<!-- Node1&#45;&gt;Node2 -->
<g id="edge1" class="edge">
<title>Node1&#45;&gt;Node2</title>
<path fill="none" stroke="#191970" d="M475.7911,-92.1635C363.1919,-81.9705 129.1409,-58.4679 51.613,-33 49.9435,-32.4516 48.2596,-31.8098 46.5868,-31.1035"/>
<polygon fill="#191970" stroke="#191970" points="47.8257,-27.813 37.3059,-26.5542 44.7446,-34.0985 47.8257,-27.813"/>
</g>
<!-- Node3 -->
<g id="node3" class="node">
<title>Node3</title>
<g id="a_node3"><a xlink:title=" ">
<polygon fill="#ffffff" stroke="#bfbfbf" points="61.0475,-6.5 61.0475,-26.5 118.1785,-26.5 118.1785,-6.5 61.0475,-6.5"/>
<text text-anchor="middle" x="89.613" y="-13.5" font-family="Helvetica,sans-Serif" font-size="10.00" fill="#000000">dg_unit.h</text>
</a>
</g>
</g>
<!-- Node1&#45;&gt;Node3 -->
<g id="edge2" class="edge">
<title>Node1&#45;&gt;Node3</title>
<path fill="none" stroke="#191970" d="M475.7712,-92.6886C394.5713,-85.263 248.1817,-68.0414 127.613,-33 124.9842,-32.236 122.2971,-31.3344 119.6271,-30.3531"/>
<polygon fill="#191970" stroke="#191970" points="120.7513,-27.0329 110.1674,-26.5529 118.1419,-33.5284 120.7513,-27.0329"/>
</g>
<!-- Node4 -->
<g id="node4" class="node">
<title>Node4</title>
<g id="a_node4"><a xlink:title=" ">
<polygon fill="#ffffff" stroke="#bfbfbf" points="136.376,-6.5 136.376,-26.5 236.85,-26.5 236.85,-6.5 136.376,-6.5"/>
<text text-anchor="middle" x="186.613" y="-13.5" font-family="Helvetica,sans-Serif" font-size="10.00" fill="#000000">dg_local_storage.h</text>
</a>
</g>
</g>
<!-- Node1&#45;&gt;Node4 -->
<g id="edge3" class="edge">
<title>Node1&#45;&gt;Node4</title>
<path fill="none" stroke="#191970" d="M475.858,-84.8942C416.5969,-72.5535 324.6869,-52.7742 245.613,-33 240.8956,-31.8203 235.9814,-30.5357 231.0911,-29.2213"/>
<polygon fill="#191970" stroke="#191970" points="231.7267,-25.7667 221.1576,-26.5056 229.8806,-32.5189 231.7267,-25.7667"/>
</g>
<!-- Node5 -->
<g id="node5" class="node">
<title>Node5</title>
<g id="a_node5"><a xlink:title=" ">
<polygon fill="#ffffff" stroke="#bfbfbf" points="254.546,-.5 254.546,-32.5 356.68,-32.5 356.68,-.5 254.546,-.5"/>
<text text-anchor="start" x="262.546" y="-19.5" font-family="Helvetica,sans-Serif" font-size="10.00" fill="#000000">dg_a_times_spatial</text>
<text text-anchor="middle" x="305.613" y="-7.5" font-family="Helvetica,sans-Serif" font-size="10.00" fill="#000000">_derivative.h</text>
</a>
</g>
</g>
<!-- Node1&#45;&gt;Node5 -->
<g id="edge4" class="edge">
<title>Node1&#45;&gt;Node5</title>
<path fill="none" stroke="#191970" d="M475.746,-75.8999C440.0414,-63.4341 395.5167,-47.8888 360.9728,-35.8282"/>
<polygon fill="#191970" stroke="#191970" points="362.1047,-32.5163 351.5099,-32.5244 359.7973,-39.1251 362.1047,-32.5163"/>
</g>
<!-- Node6 -->
<g id="node6" class="node">
<title>Node6</title>
<g id="a_node6"><a xlink:title=" ">
<polygon fill="#ffffff" stroke="#bfbfbf" points="374.3245,-6.5 374.3245,-26.5 460.9015,-26.5 460.9015,-6.5 374.3245,-6.5"/>
<text text-anchor="middle" x="417.613" y="-13.5" font-family="Helvetica,sans-Serif" font-size="10.00" fill="#000000">unordered_map</text>
</a>
</g>
</g>
<!-- Node1&#45;&gt;Node6 -->
<g id="edge5" class="edge">
<title>Node1&#45;&gt;Node6</title>
<path fill="none" stroke="#191970" d="M495.9796,-69.3975C477.6453,-57.0218 456.7789,-42.937 441.1899,-32.4144"/>
<polygon fill="#191970" stroke="#191970" points="442.9268,-29.3641 432.6801,-26.6703 439.0104,-35.166 442.9268,-29.3641"/>
</g>
<!-- Node7 -->
<g id="node7" class="node">
<title>Node7</title>
<g id="a_node7"><a xlink:title=" ">
<polygon fill="#ffffff" stroke="#bfbfbf" points="478.488,-6.5 478.488,-26.5 596.738,-26.5 596.738,-6.5 478.488,-6.5"/>
<text text-anchor="middle" x="537.613" y="-13.5" font-family="Helvetica,sans-Serif" font-size="10.00" fill="#000000">dg_spatial_derivative.h</text>
</a>
</g>
</g>
<!-- Node1&#45;&gt;Node7 -->
<g id="edge6" class="edge">
<title>Node1&#45;&gt;Node7</title>
<path fill="none" stroke="#191970" d="M537.613,-69.1701C537.613,-58.5461 537.613,-46.6903 537.613,-36.9211"/>
<polygon fill="#191970" stroke="#191970" points="541.1131,-36.6102 537.613,-26.6102 534.1131,-36.6103 541.1131,-36.6102"/>
</g>
<!-- Node8 -->
<g id="node8" class="node">
<title>Node8</title>
<g id="a_node8"><a xlink:title=" ">
<polygon fill="#ffffff" stroke="#bfbfbf" points="615.0575,-6.5 615.0575,-26.5 672.1685,-26.5 672.1685,-6.5 615.0575,-6.5"/>
<text text-anchor="middle" x="643.613" y="-13.5" font-family="Helvetica,sans-Serif" font-size="10.00" fill="#000000">algorithm</text>
</a>
</g>
</g>
<!-- Node1&#45;&gt;Node8 -->
<g id="edge7" class="edge">
<title>Node1&#45;&gt;Node8</title>
<path fill="none" stroke="#191970" d="M574.3892,-69.3975C590.2817,-57.2532 608.3282,-43.4629 622.0098,-33.0081"/>
<polygon fill="#191970" stroke="#191970" points="624.4831,-35.5231 630.3037,-26.6703 620.2329,-29.961 624.4831,-35.5231"/>
</g>
<!-- Node9 -->
<g id="node9" class="node">
<title>Node9</title>
<g id="a_node9"><a xlink:title=" ">
<polygon fill="#ffffff" stroke="#bfbfbf" points="689.938,-6.5 689.938,-26.5 759.288,-26.5 759.288,-6.5 689.938,-6.5"/>
<text text-anchor="middle" x="724.613" y="-13.5" font-family="Helvetica,sans-Serif" font-size="10.00" fill="#000000">dg_param.h</text>
</a>
</g>
</g>
<!-- Node1&#45;&gt;Node9 -->
<g id="edge8" class="edge">
<title>Node1&#45;&gt;Node9</title>
<path fill="none" stroke="#191970" d="M599.362,-70.7531C630.3034,-57.3507 666.5087,-41.6682 692.0132,-30.6208"/>
<polygon fill="#191970" stroke="#191970" points="693.4458,-33.8145 701.2308,-26.6281 690.6635,-27.3912 693.4458,-33.8145"/>
</g>
<!-- Node10 -->
<g id="node10" class="node">
<title>Node10</title>
<g id="a_node10"><a xlink:title=" ">
<polygon fill="#ffffff" stroke="#bfbfbf" points="776.9345,-6.5 776.9345,-26.5 866.2915,-26.5 866.2915,-6.5 776.9345,-6.5"/>
<text text-anchor="middle" x="821.613" y="-13.5" font-family="Helvetica,sans-Serif" font-size="10.00" fill="#000000">dg_flux_vector.h</text>
</a>
</g>
</g>
<!-- Node1&#45;&gt;Node10 -->
<g id="edge9" class="edge">
<title>Node1&#45;&gt;Node10</title>
<path fill="none" stroke="#191970" d="M599.5235,-80.7467C646.1206,-68.008 711.5067,-49.8578 768.613,-33 772.4039,-31.8809 776.3406,-30.6969 780.279,-29.4974"/>
<polygon fill="#191970" stroke="#191970" points="781.4601,-32.7961 789.9904,-26.5123 779.4034,-26.105 781.4601,-32.7961"/>
</g>
<!-- Node11 -->
<g id="node11" class="node">
<title>Node11</title>
<g id="a_node11"><a xlink:title=" ">
<polygon fill="#ffffff" stroke="#bfbfbf" points="884.3205,-6.5 884.3205,-26.5 980.9055,-26.5 980.9055,-6.5 884.3205,-6.5"/>
<text text-anchor="middle" x="932.613" y="-13.5" font-family="Helvetica,sans-Serif" font-size="10.00" fill="#000000">dg_single_index.h</text>
</a>
</g>
</g>
<!-- Node1&#45;&gt;Node11 -->
<g id="edge10" class="edge">
<title>Node1&#45;&gt;Node11</title>
<path fill="none" stroke="#191970" d="M599.3492,-87.4982C667.394,-76.0619 779.9012,-55.9325 875.613,-33 880.3123,-31.874 885.2032,-30.6068 890.0576,-29.2877"/>
<polygon fill="#191970" stroke="#191970" points="891.2097,-32.5999 899.8978,-26.5363 889.3247,-25.8585 891.2097,-32.5999"/>
</g>
<!-- Node12 -->
<g id="node12" class="node">
<title>Node12</title>
<g id="a_node12"><a xlink:title=" ">
<polygon fill="#ffffff" stroke="#bfbfbf" points="998.4465,-6.5 998.4465,-26.5 1052.7795,-26.5 1052.7795,-6.5 998.4465,-6.5"/>
<text text-anchor="middle" x="1025.613" y="-13.5" font-family="Helvetica,sans-Serif" font-size="10.00" fill="#000000">iostream</text>
</a>
</g>
</g>
<!-- Node1&#45;&gt;Node12 -->
<g id="edge11" class="edge">
<title>Node1&#45;&gt;Node12</title>
<path fill="none" stroke="#191970" d="M599.4814,-94.311C687.6649,-88.5069 853.8586,-72.8836 989.613,-33 992.0372,-32.2878 994.5072,-31.44 996.9601,-30.5103"/>
<polygon fill="#191970" stroke="#191970" points="998.3349,-33.7291 1006.2012,-26.6318 995.6259,-27.2746 998.3349,-33.7291"/>
</g>
</g>
</svg>
