<?xml version="1.0" encoding="UTF-8" standalone="no"?>
<!DOCTYPE svg PUBLIC "-//W3C//DTD SVG 1.1//EN"
 "http://www.w3.org/Graphics/SVG/1.1/DTD/svg11.dtd">
<!-- Generated by graphviz version 2.40.1 (20161225.0304)
 -->
<!-- Title: /home/shiqi/Documents/thesis/new/DG_wave_c/src/dg_index_local_global.cpp Pages: 1 -->
<svg width="250pt" height="110pt"
 viewBox="0.00 0.00 249.87 110.00" xmlns="http://www.w3.org/2000/svg" xmlns:xlink="http://www.w3.org/1999/xlink">
<g id="graph0" class="graph" transform="scale(1 1) rotate(0) translate(4 106)">
<title>/home/shiqi/Documents/thesis/new/DG_wave_c/src/dg_index_local_global.cpp</title>
<polygon fill="#ffffff" stroke="transparent" points="-4,4 -4,-106 245.8665,-106 245.8665,4 -4,4"/>
<!-- Node1 -->
<g id="node1" class="node">
<title>Node1</title>
<g id="a_node1"><a xlink:title=" ">
<polygon fill="#bfbfbf" stroke="#000000" points="50.277,-57.5 50.277,-101.5 202.982,-101.5 202.982,-57.5 50.277,-57.5"/>
<text text-anchor="start" x="58.277" y="-88.5" font-family="Helvetica,sans-Serif" font-size="10.00" fill="#000000">/home/shiqi/Documents</text>
<text text-anchor="start" x="58.277" y="-76.5" font-family="Helvetica,sans-Serif" font-size="10.00" fill="#000000">/thesis/new/DG_wave_c</text>
<text text-anchor="middle" x="126.6295" y="-64.5" font-family="Helvetica,sans-Serif" font-size="10.00" fill="#000000">/src/dg_index_local_global.cpp</text>
</a>
</g>
</g>
<!-- Node2 -->
<g id="node2" class="node">
<title>Node2</title>
<g id="a_node2"><a xlink:title=" ">
<polygon fill="#ffffff" stroke="#bfbfbf" points="0,-.5 0,-20.5 123.259,-20.5 123.259,-.5 0,-.5"/>
<text text-anchor="middle" x="61.6295" y="-7.5" font-family="Helvetica,sans-Serif" font-size="10.00" fill="#000000">dg_index_local_global.h</text>
</a>
</g>
</g>
<!-- Node1&#45;&gt;Node2 -->
<g id="edge1" class="edge">
<title>Node1&#45;&gt;Node2</title>
<path fill="none" stroke="#191970" d="M105.7053,-57.2882C96.8401,-47.8774 86.653,-37.0634 78.3072,-28.204"/>
<polygon fill="#191970" stroke="#191970" points="80.6557,-25.5927 71.2511,-20.7137 75.5604,-30.3925 80.6557,-25.5927"/>
</g>
<!-- Node3 -->
<g id="node3" class="node">
<title>Node3</title>
<g id="a_node3"><a xlink:title=" ">
<polygon fill="#ffffff" stroke="#bfbfbf" points="141.3925,-.5 141.3925,-20.5 241.8665,-20.5 241.8665,-.5 141.3925,-.5"/>
<text text-anchor="middle" x="191.6295" y="-7.5" font-family="Helvetica,sans-Serif" font-size="10.00" fill="#000000">dg_local_storage.h</text>
</a>
</g>
</g>
<!-- Node1&#45;&gt;Node3 -->
<g id="edge2" class="edge">
<title>Node1&#45;&gt;Node3</title>
<path fill="none" stroke="#191970" d="M147.5537,-57.2882C156.4189,-47.8774 166.606,-37.0634 174.9518,-28.204"/>
<polygon fill="#191970" stroke="#191970" points="177.6986,-30.3925 182.0079,-20.7137 172.6033,-25.5927 177.6986,-30.3925"/>
</g>
</g>
</svg>
