<?xml version="1.0" encoding="UTF-8" standalone="no"?>
<!DOCTYPE svg PUBLIC "-//W3C//DTD SVG 1.1//EN"
 "http://www.w3.org/Graphics/SVG/1.1/DTD/svg11.dtd">
<!-- Generated by graphviz version 2.40.1 (20161225.0304)
 -->
<!-- Title: /home/shiqi/Documents/thesis/DG_wave_c/src/dg_local_storage.cpp Pages: 1 -->
<svg width="166pt" height="110pt"
 viewBox="0.00 0.00 166.46 110.00" xmlns="http://www.w3.org/2000/svg" xmlns:xlink="http://www.w3.org/1999/xlink">
<g id="graph0" class="graph" transform="scale(1 1) rotate(0) translate(4 106)">
<title>/home/shiqi/Documents/thesis/DG_wave_c/src/dg_local_storage.cpp</title>
<polygon fill="#ffffff" stroke="transparent" points="-4,4 -4,-106 162.4595,-106 162.4595,4 -4,4"/>
<!-- Node1 -->
<g id="node1" class="node">
<title>Node1</title>
<g id="a_node1"><a xlink:title=" ">
<polygon fill="#bfbfbf" stroke="#000000" points="3.9915,-57.5 3.9915,-101.5 124.4535,-101.5 124.4535,-57.5 3.9915,-57.5"/>
<text text-anchor="start" x="11.9915" y="-88.5" font-family="Helvetica,sans-Serif" font-size="10.00" fill="#000000">/home/shiqi/Documents</text>
<text text-anchor="start" x="11.9915" y="-76.5" font-family="Helvetica,sans-Serif" font-size="10.00" fill="#000000">/thesis/DG_wave_c/src</text>
<text text-anchor="middle" x="64.2225" y="-64.5" font-family="Helvetica,sans-Serif" font-size="10.00" fill="#000000">/dg_local_storage.cpp</text>
</a>
</g>
</g>
<!-- Node2 -->
<g id="node2" class="node">
<title>Node2</title>
<g id="a_node2"><a xlink:title=" ">
<polygon fill="#ffffff" stroke="#bfbfbf" points="0,-.5 0,-20.5 40.445,-20.5 40.445,-.5 0,-.5"/>
<text text-anchor="middle" x="20.2225" y="-7.5" font-family="Helvetica,sans-Serif" font-size="10.00" fill="#000000">mpi.h</text>
</a>
</g>
</g>
<!-- Node1&#45;&gt;Node2 -->
<g id="edge1" class="edge">
<title>Node1&#45;&gt;Node2</title>
<path fill="none" stroke="#191970" d="M50.0584,-57.2882C44.3023,-48.2615 37.7229,-37.9438 32.2099,-29.2984"/>
<polygon fill="#191970" stroke="#191970" points="35.0633,-27.2634 26.7356,-20.7137 29.1612,-31.0271 35.0633,-27.2634"/>
</g>
<!-- Node3 -->
<g id="node3" class="node">
<title>Node3</title>
<g id="a_node3"><a xlink:title=" ">
<polygon fill="#ffffff" stroke="#bfbfbf" points="57.9855,-.5 57.9855,-20.5 158.4595,-20.5 158.4595,-.5 57.9855,-.5"/>
<text text-anchor="middle" x="108.2225" y="-7.5" font-family="Helvetica,sans-Serif" font-size="10.00" fill="#000000">dg_local_storage.h</text>
</a>
</g>
</g>
<!-- Node1&#45;&gt;Node3 -->
<g id="edge2" class="edge">
<title>Node1&#45;&gt;Node3</title>
<path fill="none" stroke="#191970" d="M78.3866,-57.2882C84.1427,-48.2615 90.7221,-37.9438 96.2351,-29.2984"/>
<polygon fill="#191970" stroke="#191970" points="99.2838,-31.0271 101.7094,-20.7137 93.3817,-27.2634 99.2838,-31.0271"/>
</g>
</g>
</svg>
