<?xml version="1.0" encoding="UTF-8" standalone="no"?>
<!DOCTYPE svg PUBLIC "-//W3C//DTD SVG 1.1//EN"
 "http://www.w3.org/Graphics/SVG/1.1/DTD/svg11.dtd">
<!-- Generated by graphviz version 2.40.1 (20161225.0304)
 -->
<!-- Title: /home/shiqi/Documents/thesis/new/DG_wave_c/src/dg_cross_section.cpp Pages: 1 -->
<svg width="1393pt" height="110pt"
 viewBox="0.00 0.00 1393.40 110.00" xmlns="http://www.w3.org/2000/svg" xmlns:xlink="http://www.w3.org/1999/xlink">
<g id="graph0" class="graph" transform="scale(1 1) rotate(0) translate(4 106)">
<title>/home/shiqi/Documents/thesis/new/DG_wave_c/src/dg_cross_section.cpp</title>
<polygon fill="#ffffff" stroke="transparent" points="-4,4 -4,-106 1389.4035,-106 1389.4035,4 -4,4"/>
<!-- Node1 -->
<g id="node1" class="node">
<title>Node1</title>
<g id="a_node1"><a xlink:title=" ">
<polygon fill="#bfbfbf" stroke="#000000" points="530.375,-57.5 530.375,-101.5 661.958,-101.5 661.958,-57.5 530.375,-57.5"/>
<text text-anchor="start" x="538.375" y="-88.5" font-family="Helvetica,sans-Serif" font-size="10.00" fill="#000000">/home/shiqi/Documents</text>
<text text-anchor="start" x="538.375" y="-76.5" font-family="Helvetica,sans-Serif" font-size="10.00" fill="#000000">/thesis/new/DG_wave_c</text>
<text text-anchor="middle" x="596.1665" y="-64.5" font-family="Helvetica,sans-Serif" font-size="10.00" fill="#000000">/src/dg_cross_section.cpp</text>
</a>
</g>
</g>
<!-- Node2 -->
<g id="node2" class="node">
<title>Node2</title>
<g id="a_node2"><a xlink:title=" ">
<polygon fill="#ffffff" stroke="#bfbfbf" points="0,-.5 0,-20.5 54.333,-20.5 54.333,-.5 0,-.5"/>
<text text-anchor="middle" x="27.1665" y="-7.5" font-family="Helvetica,sans-Serif" font-size="10.00" fill="#000000">iostream</text>
</a>
</g>
</g>
<!-- Node1&#45;&gt;Node2 -->
<g id="edge1" class="edge">
<title>Node1&#45;&gt;Node2</title>
<path fill="none" stroke="#191970" d="M529.9581,-75.9557C430.5541,-69.8157 236.8836,-54.6785 64.5717,-21.0071"/>
<polygon fill="#191970" stroke="#191970" points="65.051,-17.5341 54.5616,-19.0251 63.6913,-24.4008 65.051,-17.5341"/>
</g>
<!-- Node3 -->
<g id="node3" class="node">
<title>Node3</title>
<g id="a_node3"><a xlink:title=" ">
<polygon fill="#ffffff" stroke="#bfbfbf" points="71.944,-.5 71.944,-20.5 112.389,-20.5 112.389,-.5 71.944,-.5"/>
<text text-anchor="middle" x="92.1665" y="-7.5" font-family="Helvetica,sans-Serif" font-size="10.00" fill="#000000">mpi.h</text>
</a>
</g>
</g>
<!-- Node1&#45;&gt;Node3 -->
<g id="edge2" class="edge">
<title>Node1&#45;&gt;Node3</title>
<path fill="none" stroke="#191970" d="M530.0266,-76.0568C439.4722,-70.3069 271.9876,-55.9686 122.4127,-20.8796"/>
<polygon fill="#191970" stroke="#191970" points="123.1264,-17.4517 112.5874,-18.5382 121.5036,-24.261 123.1264,-17.4517"/>
</g>
<!-- Node4 -->
<g id="node4" class="node">
<title>Node4</title>
<g id="a_node4"><a xlink:title=" ">
<polygon fill="#ffffff" stroke="#bfbfbf" points="130.4915,-.5 130.4915,-20.5 199.8415,-20.5 199.8415,-.5 130.4915,-.5"/>
<text text-anchor="middle" x="165.1665" y="-7.5" font-family="Helvetica,sans-Serif" font-size="10.00" fill="#000000">dg_param.h</text>
</a>
</g>
</g>
<!-- Node1&#45;&gt;Node4 -->
<g id="edge3" class="edge">
<title>Node1&#45;&gt;Node4</title>
<path fill="none" stroke="#191970" d="M530.1402,-71.2424C454.9852,-61.4562 328.382,-43.7986 210.1254,-21.0642"/>
<polygon fill="#191970" stroke="#191970" points="210.6565,-17.6021 200.1731,-19.1349 209.3242,-24.4741 210.6565,-17.6021"/>
</g>
<!-- Node5 -->
<g id="node5" class="node">
<title>Node5</title>
<g id="a_node5"><a xlink:title=" ">
<polygon fill="#ffffff" stroke="#bfbfbf" points="218.098,-.5 218.098,-20.5 320.235,-20.5 320.235,-.5 218.098,-.5"/>
<text text-anchor="middle" x="269.1665" y="-7.5" font-family="Helvetica,sans-Serif" font-size="10.00" fill="#000000">dg_cross_section.h</text>
</a>
</g>
</g>
<!-- Node1&#45;&gt;Node5 -->
<g id="edge4" class="edge">
<title>Node1&#45;&gt;Node5</title>
<path fill="none" stroke="#191970" d="M529.9932,-65.5368C470.3117,-52.9435 383.4278,-34.6102 326.6069,-22.6205"/>
<polygon fill="#191970" stroke="#191970" points="327.2168,-19.1722 316.7096,-20.532 325.7715,-26.0213 327.2168,-19.1722"/>
</g>
<!-- Node6 -->
<g id="node6" class="node">
<title>Node6</title>
<g id="a_node6"><a xlink:title=" ">
<polygon fill="#ffffff" stroke="#bfbfbf" points="338.0535,-.5 338.0535,-20.5 386.2795,-20.5 386.2795,-.5 338.0535,-.5"/>
<text text-anchor="middle" x="362.1665" y="-7.5" font-family="Helvetica,sans-Serif" font-size="10.00" fill="#000000">cassert</text>
</a>
</g>
</g>
<!-- Node1&#45;&gt;Node6 -->
<g id="edge5" class="edge">
<title>Node1&#45;&gt;Node6</title>
<path fill="none" stroke="#191970" d="M529.9578,-60.6779C493.0805,-50.0896 446.1121,-36.4326 396.0181,-21.2148"/>
<polygon fill="#191970" stroke="#191970" points="396.8814,-17.8191 386.2955,-18.2535 394.8418,-24.5154 396.8814,-17.8191"/>
</g>
<!-- Node7 -->
<g id="node7" class="node">
<title>Node7</title>
<g id="a_node7"><a xlink:title=" ">
<polygon fill="#ffffff" stroke="#bfbfbf" points="404.389,-.5 404.389,-20.5 455.944,-20.5 455.944,-.5 404.389,-.5"/>
<text text-anchor="middle" x="430.1665" y="-7.5" font-family="Helvetica,sans-Serif" font-size="10.00" fill="#000000">sstream</text>
</a>
</g>
</g>
<!-- Node1&#45;&gt;Node7 -->
<g id="edge6" class="edge">
<title>Node1&#45;&gt;Node7</title>
<path fill="none" stroke="#191970" d="M543.1867,-57.4783C517.117,-46.6421 486.4809,-33.9078 463.6863,-24.4329"/>
<polygon fill="#191970" stroke="#191970" points="465.0109,-21.1933 454.4334,-20.5869 462.3241,-27.6571 465.0109,-21.1933"/>
</g>
<!-- Node8 -->
<g id="node8" class="node">
<title>Node8</title>
<g id="a_node8"><a xlink:title=" ">
<polygon fill="#ffffff" stroke="#bfbfbf" points="473.4995,-.5 473.4995,-20.5 522.8335,-20.5 522.8335,-.5 473.4995,-.5"/>
<text text-anchor="middle" x="498.1665" y="-7.5" font-family="Helvetica,sans-Serif" font-size="10.00" fill="#000000">fstream</text>
</a>
</g>
</g>
<!-- Node1&#45;&gt;Node8 -->
<g id="edge7" class="edge">
<title>Node1&#45;&gt;Node8</title>
<path fill="none" stroke="#191970" d="M564.8892,-57.4783C550.5981,-47.4161 533.9824,-35.7173 520.9071,-26.5113"/>
<polygon fill="#191970" stroke="#191970" points="522.6844,-23.4821 512.4928,-20.5869 518.6544,-29.2057 522.6844,-23.4821"/>
</g>
<!-- Node9 -->
<g id="node9" class="node">
<title>Node9</title>
<g id="a_node9"><a xlink:title=" ">
<polygon fill="#ffffff" stroke="#bfbfbf" points="540.944,-.5 540.944,-20.5 581.389,-20.5 581.389,-.5 540.944,-.5"/>
<text text-anchor="middle" x="561.1665" y="-7.5" font-family="Helvetica,sans-Serif" font-size="10.00" fill="#000000">string</text>
</a>
</g>
</g>
<!-- Node1&#45;&gt;Node9 -->
<g id="edge8" class="edge">
<title>Node1&#45;&gt;Node9</title>
<path fill="none" stroke="#191970" d="M584.8996,-57.2882C580.4183,-48.4535 575.3097,-38.3823 570.983,-29.8525"/>
<polygon fill="#191970" stroke="#191970" points="573.9926,-28.0486 566.3473,-20.7137 567.7498,-31.2153 573.9926,-28.0486"/>
</g>
<!-- Node10 -->
<g id="node10" class="node">
<title>Node10</title>
<g id="a_node10"><a xlink:title=" ">
<polygon fill="#ffffff" stroke="#bfbfbf" points="598.9905,-.5 598.9905,-20.5 663.3425,-20.5 663.3425,-.5 598.9905,-.5"/>
<text text-anchor="middle" x="631.1665" y="-7.5" font-family="Helvetica,sans-Serif" font-size="10.00" fill="#000000">dg_basis.h</text>
</a>
</g>
</g>
<!-- Node1&#45;&gt;Node10 -->
<g id="edge9" class="edge">
<title>Node1&#45;&gt;Node10</title>
<path fill="none" stroke="#191970" d="M607.4334,-57.2882C611.9147,-48.4535 617.0233,-38.3823 621.35,-29.8525"/>
<polygon fill="#191970" stroke="#191970" points="624.5832,-31.2153 625.9857,-20.7137 618.3404,-28.0486 624.5832,-31.2153"/>
</g>
<!-- Node11 -->
<g id="node11" class="node">
<title>Node11</title>
<g id="a_node11"><a xlink:title=" ">
<polygon fill="#ffffff" stroke="#bfbfbf" points="680.929,-.5 680.929,-20.5 771.404,-20.5 771.404,-.5 680.929,-.5"/>
<text text-anchor="middle" x="726.1665" y="-7.5" font-family="Helvetica,sans-Serif" font-size="10.00" fill="#000000">dg_affine_map.h</text>
</a>
</g>
</g>
<!-- Node1&#45;&gt;Node11 -->
<g id="edge10" class="edge">
<title>Node1&#45;&gt;Node11</title>
<path fill="none" stroke="#191970" d="M637.6567,-57.4783C657.3436,-47.0291 680.3557,-34.815 697.9804,-25.4603"/>
<polygon fill="#191970" stroke="#191970" points="699.9702,-28.3667 707.1623,-20.5869 696.6884,-22.1836 699.9702,-28.3667"/>
</g>
<!-- Node12 -->
<g id="node12" class="node">
<title>Node12</title>
<g id="a_node12"><a xlink:title=" ">
<polygon fill="#ffffff" stroke="#bfbfbf" points="789.874,-.5 789.874,-20.5 886.459,-20.5 886.459,-.5 789.874,-.5"/>
<text text-anchor="middle" x="838.1665" y="-7.5" font-family="Helvetica,sans-Serif" font-size="10.00" fill="#000000">dg_single_index.h</text>
</a>
</g>
</g>
<!-- Node1&#45;&gt;Node12 -->
<g id="edge11" class="edge">
<title>Node1&#45;&gt;Node12</title>
<path fill="none" stroke="#191970" d="M661.9744,-60.7366C703.5532,-48.8815 756.1978,-33.8713 793.0695,-23.3582"/>
<polygon fill="#191970" stroke="#191970" points="794.3716,-26.6265 803.0287,-20.5186 792.4522,-19.8948 794.3716,-26.6265"/>
</g>
<!-- Node13 -->
<g id="node13" class="node">
<title>Node13</title>
<g id="a_node13"><a xlink:title=" ">
<polygon fill="#ffffff" stroke="#bfbfbf" points="904.5535,-.5 904.5535,-20.5 947.7795,-20.5 947.7795,-.5 904.5535,-.5"/>
<text text-anchor="middle" x="926.1665" y="-7.5" font-family="Helvetica,sans-Serif" font-size="10.00" fill="#000000">vector</text>
</a>
</g>
</g>
<!-- Node1&#45;&gt;Node13 -->
<g id="edge12" class="edge">
<title>Node1&#45;&gt;Node13</title>
<path fill="none" stroke="#191970" d="M662.0667,-69.206C720.7736,-59.4463 809.0834,-43.3211 894.4112,-20.9384"/>
<polygon fill="#191970" stroke="#191970" points="895.4948,-24.272 904.2615,-18.3227 893.6982,-17.5065 895.4948,-24.272"/>
</g>
<!-- Node14 -->
<g id="node14" class="node">
<title>Node14</title>
<g id="a_node14"><a xlink:title=" ">
<polygon fill="#ffffff" stroke="#bfbfbf" points="965.601,-.5 965.601,-20.5 1022.732,-20.5 1022.732,-.5 965.601,-.5"/>
<text text-anchor="middle" x="994.1665" y="-7.5" font-family="Helvetica,sans-Serif" font-size="10.00" fill="#000000">dg_unit.h</text>
</a>
</g>
</g>
<!-- Node1&#45;&gt;Node14 -->
<g id="edge13" class="edge">
<title>Node1&#45;&gt;Node14</title>
<path fill="none" stroke="#191970" d="M662.1463,-71.1465C732.6573,-61.6938 847.8198,-44.7479 955.5049,-21.1951"/>
<polygon fill="#191970" stroke="#191970" points="956.5584,-24.5468 965.5667,-18.97 955.0469,-17.7119 956.5584,-24.5468"/>
</g>
<!-- Node15 -->
<g id="node15" class="node">
<title>Node15</title>
<g id="a_node15"><a xlink:title=" ">
<polygon fill="#ffffff" stroke="#bfbfbf" points="1040.6415,-.5 1040.6415,-20.5 1161.6915,-20.5 1161.6915,-.5 1040.6415,-.5"/>
<text text-anchor="middle" x="1101.1665" y="-7.5" font-family="Helvetica,sans-Serif" font-size="10.00" fill="#000000">dg_nodal_2d_storage.h</text>
</a>
</g>
</g>
<!-- Node1&#45;&gt;Node15 -->
<g id="edge14" class="edge">
<title>Node1&#45;&gt;Node15</title>
<path fill="none" stroke="#191970" d="M662.3259,-70.9921C745.7145,-60.186 893.7371,-40.7307 1030.3591,-21.2424"/>
<polygon fill="#191970" stroke="#191970" points="1031.1893,-24.6594 1040.5933,-19.7794 1030.1987,-17.7299 1031.1893,-24.6594"/>
</g>
<!-- Node16 -->
<g id="node16" class="node">
<title>Node16</title>
<g id="a_node16"><a xlink:title=" ">
<polygon fill="#ffffff" stroke="#bfbfbf" points="1179.878,-.5 1179.878,-20.5 1266.455,-20.5 1266.455,-.5 1179.878,-.5"/>
<text text-anchor="middle" x="1223.1665" y="-7.5" font-family="Helvetica,sans-Serif" font-size="10.00" fill="#000000">unordered_map</text>
</a>
</g>
</g>
<!-- Node1&#45;&gt;Node16 -->
<g id="edge15" class="edge">
<title>Node1&#45;&gt;Node16</title>
<path fill="none" stroke="#191970" d="M661.9664,-74.9114C767.1935,-67.1098 979.9786,-49.4344 1169.6529,-21.1149"/>
<polygon fill="#191970" stroke="#191970" points="1170.4442,-24.5353 1179.8112,-19.5846 1169.4014,-17.6134 1170.4442,-24.5353"/>
</g>
<!-- Node17 -->
<g id="node17" class="node">
<title>Node17</title>
<g id="a_node17"><a xlink:title=" ">
<polygon fill="#ffffff" stroke="#bfbfbf" points="1284.9295,-.5 1284.9295,-20.5 1385.4035,-20.5 1385.4035,-.5 1284.9295,-.5"/>
<text text-anchor="middle" x="1335.1665" y="-7.5" font-family="Helvetica,sans-Serif" font-size="10.00" fill="#000000">dg_local_storage.h</text>
</a>
</g>
</g>
<!-- Node1&#45;&gt;Node17 -->
<g id="edge16" class="edge">
<title>Node1&#45;&gt;Node17</title>
<path fill="none" stroke="#191970" d="M662.3965,-75.7204C782.3769,-68.4518 1043.8264,-50.6795 1274.8644,-20.9319"/>
<polygon fill="#191970" stroke="#191970" points="1275.3341,-24.4004 1284.8006,-19.6426 1274.4334,-17.4586 1275.3341,-24.4004"/>
</g>
</g>
</svg>
