<?xml version="1.0" encoding="UTF-8" standalone="no"?>
<!DOCTYPE svg PUBLIC "-//W3C//DTD SVG 1.1//EN"
 "http://www.w3.org/Graphics/SVG/1.1/DTD/svg11.dtd">
<!-- Generated by graphviz version 2.40.1 (20161225.0304)
 -->
<!-- Title: /home/shiqi/Documents/thesis/new/DG_wave_c/src/dg_adapt.cpp Pages: 1 -->
<svg width="704pt" height="110pt"
 viewBox="0.00 0.00 703.69 110.00" xmlns="http://www.w3.org/2000/svg" xmlns:xlink="http://www.w3.org/1999/xlink">
<g id="graph0" class="graph" transform="scale(1 1) rotate(0) translate(4 106)">
<title>/home/shiqi/Documents/thesis/new/DG_wave_c/src/dg_adapt.cpp</title>
<polygon fill="#ffffff" stroke="transparent" points="-4,4 -4,-106 699.69,-106 699.69,4 -4,4"/>
<!-- Node1 -->
<g id="node1" class="node">
<title>Node1</title>
<g id="a_node1"><a xlink:title=" ">
<polygon fill="#bfbfbf" stroke="#000000" points="317.3935,-57.5 317.3935,-101.5 440.6365,-101.5 440.6365,-57.5 317.3935,-57.5"/>
<text text-anchor="start" x="325.3935" y="-88.5" font-family="Helvetica,sans-Serif" font-size="10.00" fill="#000000">/home/shiqi/Documents</text>
<text text-anchor="start" x="325.3935" y="-76.5" font-family="Helvetica,sans-Serif" font-size="10.00" fill="#000000">/thesis/new/DG_wave_c</text>
<text text-anchor="middle" x="379.015" y="-64.5" font-family="Helvetica,sans-Serif" font-size="10.00" fill="#000000">/src/dg_adapt.cpp</text>
</a>
</g>
</g>
<!-- Node2 -->
<g id="node2" class="node">
<title>Node2</title>
<g id="a_node2"><a xlink:title=" ">
<polygon fill="#ffffff" stroke="#bfbfbf" points="0,-.5 0,-20.5 66.03,-20.5 66.03,-.5 0,-.5"/>
<text text-anchor="middle" x="33.015" y="-7.5" font-family="Helvetica,sans-Serif" font-size="10.00" fill="#000000">dg_adapt.h</text>
</a>
</g>
</g>
<!-- Node1&#45;&gt;Node2 -->
<g id="edge1" class="edge">
<title>Node1&#45;&gt;Node2</title>
<path fill="none" stroke="#191970" d="M317.3837,-68.6645C258.0483,-58.0008 165.5685,-40.774 76.4526,-21.2399"/>
<polygon fill="#191970" stroke="#191970" points="76.9656,-17.769 66.4465,-19.0336 75.4583,-24.6048 76.9656,-17.769"/>
</g>
<!-- Node3 -->
<g id="node3" class="node">
<title>Node3</title>
<g id="a_node3"><a xlink:title=" ">
<polygon fill="#ffffff" stroke="#bfbfbf" points="83.778,-.5 83.778,-20.5 184.252,-20.5 184.252,-.5 83.778,-.5"/>
<text text-anchor="middle" x="134.015" y="-7.5" font-family="Helvetica,sans-Serif" font-size="10.00" fill="#000000">dg_local_storage.h</text>
</a>
</g>
</g>
<!-- Node1&#45;&gt;Node3 -->
<g id="edge2" class="edge">
<title>Node1&#45;&gt;Node3</title>
<path fill="none" stroke="#191970" d="M317.1912,-62.0884C274.3791,-50.0311 218.339,-34.2484 179.5727,-23.3305"/>
<polygon fill="#191970" stroke="#191970" points="180.1899,-19.8683 169.6155,-20.5263 178.2923,-26.6062 180.1899,-19.8683"/>
</g>
<!-- Node4 -->
<g id="node4" class="node">
<title>Node4</title>
<g id="a_node4"><a xlink:title=" ">
<polygon fill="#ffffff" stroke="#bfbfbf" points="201.7755,-.5 201.7755,-20.5 332.2545,-20.5 332.2545,-.5 201.7755,-.5"/>
<text text-anchor="middle" x="267.015" y="-7.5" font-family="Helvetica,sans-Serif" font-size="10.00" fill="#000000">dg_mpi_table_construct.h</text>
</a>
</g>
</g>
<!-- Node1&#45;&gt;Node4 -->
<g id="edge3" class="edge">
<title>Node1&#45;&gt;Node4</title>
<path fill="none" stroke="#191970" d="M343.2696,-57.4783C326.6227,-47.2226 307.2161,-35.2667 292.1467,-25.9829"/>
<polygon fill="#191970" stroke="#191970" points="293.7377,-22.8522 283.3879,-20.5869 290.066,-28.812 293.7377,-22.8522"/>
</g>
<!-- Node5 -->
<g id="node5" class="node">
<title>Node5</title>
<g id="a_node5"><a xlink:title=" ">
<polygon fill="#ffffff" stroke="#bfbfbf" points="349.899,-.5 349.899,-20.5 408.131,-20.5 408.131,-.5 349.899,-.5"/>
<text text-anchor="middle" x="379.015" y="-7.5" font-family="Helvetica,sans-Serif" font-size="10.00" fill="#000000">dg_amr.h</text>
</a>
</g>
</g>
<!-- Node1&#45;&gt;Node5 -->
<g id="edge4" class="edge">
<title>Node1&#45;&gt;Node5</title>
<path fill="none" stroke="#191970" d="M379.015,-57.2882C379.015,-48.8377 379.015,-39.2557 379.015,-30.9736"/>
<polygon fill="#191970" stroke="#191970" points="382.5151,-30.7136 379.015,-20.7137 375.5151,-30.7137 382.5151,-30.7136"/>
</g>
<!-- Node6 -->
<g id="node6" class="node">
<title>Node6</title>
<g id="a_node6"><a xlink:title=" ">
<polygon fill="#ffffff" stroke="#bfbfbf" points="426.6195,-.5 426.6195,-20.5 535.4105,-20.5 535.4105,-.5 426.6195,-.5"/>
<text text-anchor="middle" x="481.015" y="-7.5" font-family="Helvetica,sans-Serif" font-size="10.00" fill="#000000">dg_error_estimator.h</text>
</a>
</g>
</g>
<!-- Node1&#45;&gt;Node6 -->
<g id="edge5" class="edge">
<title>Node1&#45;&gt;Node6</title>
<path fill="none" stroke="#191970" d="M411.5689,-57.4783C426.5864,-47.3194 444.0701,-35.4922 457.7377,-26.2464"/>
<polygon fill="#191970" stroke="#191970" points="459.7822,-29.089 466.104,-20.5869 455.86,-23.291 459.7822,-29.089"/>
</g>
<!-- Node7 -->
<g id="node7" class="node">
<title>Node7</title>
<g id="a_node7"><a xlink:title=" ">
<polygon fill="#ffffff" stroke="#bfbfbf" points="553.8485,-.5 553.8485,-20.5 608.1815,-20.5 608.1815,-.5 553.8485,-.5"/>
<text text-anchor="middle" x="581.015" y="-7.5" font-family="Helvetica,sans-Serif" font-size="10.00" fill="#000000">iostream</text>
</a>
</g>
</g>
<!-- Node1&#45;&gt;Node7 -->
<g id="edge6" class="edge">
<title>Node1&#45;&gt;Node7</title>
<path fill="none" stroke="#191970" d="M440.7193,-58.4228C474.4502,-46.9009 515.1088,-33.0125 543.9524,-23.16"/>
<polygon fill="#191970" stroke="#191970" points="545.2994,-26.3985 553.6312,-19.8539 543.0367,-19.7743 545.2994,-26.3985"/>
</g>
<!-- Node8 -->
<g id="node8" class="node">
<title>Node8</title>
<g id="a_node8"><a xlink:title=" ">
<polygon fill="#ffffff" stroke="#bfbfbf" points="626.34,-.5 626.34,-20.5 695.69,-20.5 695.69,-.5 626.34,-.5"/>
<text text-anchor="middle" x="661.015" y="-7.5" font-family="Helvetica,sans-Serif" font-size="10.00" fill="#000000">dg_param.h</text>
</a>
</g>
</g>
<!-- Node1&#45;&gt;Node8 -->
<g id="edge7" class="edge">
<title>Node1&#45;&gt;Node8</title>
<path fill="none" stroke="#191970" d="M440.9011,-64.3577C493.919,-51.3852 569.0017,-33.0139 616.3375,-21.4317"/>
<polygon fill="#191970" stroke="#191970" points="617.4078,-24.7732 626.2894,-18.9967 615.7441,-17.9737 617.4078,-24.7732"/>
</g>
</g>
</svg>
