<?xml version="1.0" encoding="UTF-8" standalone="no"?>
<!DOCTYPE svg PUBLIC "-//W3C//DTD SVG 1.1//EN"
 "http://www.w3.org/Graphics/SVG/1.1/DTD/svg11.dtd">
<!-- Generated by graphviz version 2.40.1 (20161225.0304)
 -->
<!-- Title: /home/shiqi/Documents/thesis/new/DG_wave_c/src/dg_main.cpp Pages: 1 -->
<svg width="1144pt" height="122pt"
 viewBox="0.00 0.00 1144.19 122.00" xmlns="http://www.w3.org/2000/svg" xmlns:xlink="http://www.w3.org/1999/xlink">
<g id="graph0" class="graph" transform="scale(1 1) rotate(0) translate(4 118)">
<title>/home/shiqi/Documents/thesis/new/DG_wave_c/src/dg_main.cpp</title>
<polygon fill="#ffffff" stroke="transparent" points="-4,4 -4,-118 1140.1855,-118 1140.1855,4 -4,4"/>
<!-- Node1 -->
<g id="node1" class="node">
<title>Node1</title>
<g id="a_node1"><a xlink:title=" ">
<polygon fill="#bfbfbf" stroke="#000000" points="461.545,-69.5 461.545,-113.5 584.788,-113.5 584.788,-69.5 461.545,-69.5"/>
<text text-anchor="start" x="469.545" y="-100.5" font-family="Helvetica,sans-Serif" font-size="10.00" fill="#000000">/home/shiqi/Documents</text>
<text text-anchor="start" x="469.545" y="-88.5" font-family="Helvetica,sans-Serif" font-size="10.00" fill="#000000">/thesis/new/DG_wave_c</text>
<text text-anchor="middle" x="523.1665" y="-76.5" font-family="Helvetica,sans-Serif" font-size="10.00" fill="#000000">/src/dg_main.cpp</text>
</a>
</g>
</g>
<!-- Node2 -->
<g id="node2" class="node">
<title>Node2</title>
<g id="a_node2"><a xlink:title=" ">
<polygon fill="#ffffff" stroke="#bfbfbf" points="0,-6.5 0,-26.5 54.333,-26.5 54.333,-6.5 0,-6.5"/>
<text text-anchor="middle" x="27.1665" y="-13.5" font-family="Helvetica,sans-Serif" font-size="10.00" fill="#000000">iostream</text>
</a>
</g>
</g>
<!-- Node1&#45;&gt;Node2 -->
<g id="edge1" class="edge">
<title>Node1&#45;&gt;Node2</title>
<path fill="none" stroke="#191970" d="M461.3357,-89.5618C371.8932,-85.4373 201.925,-72.6196 63.1665,-33 60.6791,-32.2898 58.1453,-31.4319 55.6323,-30.4851"/>
<polygon fill="#191970" stroke="#191970" points="56.7616,-27.1633 46.1864,-26.5172 54.0505,-33.617 56.7616,-27.1633"/>
</g>
<!-- Node3 -->
<g id="node3" class="node">
<title>Node3</title>
<g id="a_node3"><a xlink:title=" ">
<polygon fill="#ffffff" stroke="#bfbfbf" points="71.944,-6.5 71.944,-26.5 112.389,-26.5 112.389,-6.5 71.944,-6.5"/>
<text text-anchor="middle" x="92.1665" y="-13.5" font-family="Helvetica,sans-Serif" font-size="10.00" fill="#000000">mpi.h</text>
</a>
</g>
</g>
<!-- Node1&#45;&gt;Node3 -->
<g id="edge2" class="edge">
<title>Node1&#45;&gt;Node3</title>
<path fill="none" stroke="#191970" d="M461.3992,-85.3466C364.8341,-75.2502 182.7813,-54.1664 121.1665,-33 119.547,-32.4436 117.9147,-31.7957 116.2944,-31.0849"/>
<polygon fill="#191970" stroke="#191970" points="117.8151,-27.9317 107.3142,-26.5237 114.6451,-34.1728 117.8151,-27.9317"/>
</g>
<!-- Node4 -->
<g id="node4" class="node">
<title>Node4</title>
<g id="a_node4"><a xlink:title=" ">
<polygon fill="#ffffff" stroke="#bfbfbf" points="130.6055,-6.5 130.6055,-26.5 187.7275,-26.5 187.7275,-6.5 130.6055,-6.5"/>
<text text-anchor="middle" x="159.1665" y="-13.5" font-family="Helvetica,sans-Serif" font-size="10.00" fill="#000000">dg_mpi.h</text>
</a>
</g>
</g>
<!-- Node1&#45;&gt;Node4 -->
<g id="edge3" class="edge">
<title>Node1&#45;&gt;Node4</title>
<path fill="none" stroke="#191970" d="M461.2431,-84.9591C394.6841,-76.8858 286.2975,-60.7083 196.1665,-33 193.7547,-32.2585 191.2922,-31.4009 188.8406,-30.4741"/>
<polygon fill="#191970" stroke="#191970" points="190.149,-27.2278 179.5696,-26.657 187.484,-33.7007 190.149,-27.2278"/>
</g>
<!-- Node5 -->
<g id="node5" class="node">
<title>Node5</title>
<g id="a_node5"><a xlink:title=" ">
<polygon fill="#ffffff" stroke="#bfbfbf" points="205.4915,-6.5 205.4915,-26.5 274.8415,-26.5 274.8415,-6.5 205.4915,-6.5"/>
<text text-anchor="middle" x="240.1665" y="-13.5" font-family="Helvetica,sans-Serif" font-size="10.00" fill="#000000">dg_param.h</text>
</a>
</g>
</g>
<!-- Node1&#45;&gt;Node5 -->
<g id="edge4" class="edge">
<title>Node1&#45;&gt;Node5</title>
<path fill="none" stroke="#191970" d="M461.466,-78.5135C412.8784,-67.7802 343.6579,-51.3644 284.1665,-33 281.2213,-32.0908 278.1871,-31.0907 275.1543,-30.0461"/>
<polygon fill="#191970" stroke="#191970" points="276.1771,-26.6948 265.5826,-26.6158 273.8155,-33.2844 276.1771,-26.6948"/>
</g>
<!-- Node6 -->
<g id="node6" class="node">
<title>Node6</title>
<g id="a_node6"><a xlink:title=" ">
<polygon fill="#ffffff" stroke="#bfbfbf" points="293.2105,-.5 293.2105,-32.5 393.1225,-32.5 393.1225,-.5 293.2105,-.5"/>
<text text-anchor="start" x="301.2105" y="-19.5" font-family="Helvetica,sans-Serif" font-size="10.00" fill="#000000">dg_prepare_hilbert</text>
<text text-anchor="middle" x="343.1665" y="-7.5" font-family="Helvetica,sans-Serif" font-size="10.00" fill="#000000">_scheme.h</text>
</a>
</g>
</g>
<!-- Node1&#45;&gt;Node6 -->
<g id="edge5" class="edge">
<title>Node1&#45;&gt;Node6</title>
<path fill="none" stroke="#191970" d="M470.1341,-69.4032C445.1411,-58.9894 415.5444,-46.6575 391.2161,-36.5207"/>
<polygon fill="#191970" stroke="#191970" points="392.4063,-33.225 381.8294,-32.6095 389.714,-39.6865 392.4063,-33.225"/>
</g>
<!-- Node7 -->
<g id="node7" class="node">
<title>Node7</title>
<g id="a_node7"><a xlink:title=" ">
<polygon fill="#ffffff" stroke="#bfbfbf" points="411.0455,-6.5 411.0455,-26.5 509.2875,-26.5 509.2875,-6.5 411.0455,-6.5"/>
<text text-anchor="middle" x="460.1665" y="-13.5" font-family="Helvetica,sans-Serif" font-size="10.00" fill="#000000">dg_start_parallel.h</text>
</a>
</g>
</g>
<!-- Node1&#45;&gt;Node7 -->
<g id="edge6" class="edge">
<title>Node1&#45;&gt;Node7</title>
<path fill="none" stroke="#191970" d="M504.6052,-69.4032C495.2114,-58.2201 483.9595,-44.8249 475.1283,-34.3117"/>
<polygon fill="#191970" stroke="#191970" points="477.7585,-32.0012 468.6466,-26.5954 472.3986,-36.5036 477.7585,-32.0012"/>
</g>
<!-- Node8 -->
<g id="node8" class="node">
<title>Node8</title>
<g id="a_node8"><a xlink:title=" ">
<polygon fill="#ffffff" stroke="#bfbfbf" points="527.036,-.5 527.036,-32.5 645.297,-32.5 645.297,-.5 527.036,-.5"/>
<text text-anchor="start" x="535.036" y="-19.5" font-family="Helvetica,sans-Serif" font-size="10.00" fill="#000000">dg_advection_diffusion</text>
<text text-anchor="middle" x="586.1665" y="-7.5" font-family="Helvetica,sans-Serif" font-size="10.00" fill="#000000">_driver.h</text>
</a>
</g>
</g>
<!-- Node1&#45;&gt;Node8 -->
<g id="edge7" class="edge">
<title>Node1&#45;&gt;Node8</title>
<path fill="none" stroke="#191970" d="M541.7278,-69.4032C549.3636,-60.313 558.227,-49.7613 566.0201,-40.4839"/>
<polygon fill="#191970" stroke="#191970" points="568.7833,-42.6359 572.5352,-32.7277 563.4233,-38.1336 568.7833,-42.6359"/>
</g>
<!-- Node9 -->
<g id="node9" class="node">
<title>Node9</title>
<g id="a_node9"><a xlink:title=" ">
<polygon fill="#ffffff" stroke="#bfbfbf" points="663.769,-6.5 663.769,-26.5 752.564,-26.5 752.564,-6.5 663.769,-6.5"/>
<text text-anchor="middle" x="708.1665" y="-13.5" font-family="Helvetica,sans-Serif" font-size="10.00" fill="#000000">dg_verification.h</text>
</a>
</g>
</g>
<!-- Node1&#45;&gt;Node9 -->
<g id="edge8" class="edge">
<title>Node1&#45;&gt;Node9</title>
<path fill="none" stroke="#191970" d="M577.672,-69.4032C608.8075,-56.7807 646.8944,-41.34 673.8646,-30.4062"/>
<polygon fill="#191970" stroke="#191970" points="675.3122,-33.5961 683.2646,-26.5954 672.6822,-27.1089 675.3122,-33.5961"/>
</g>
<!-- Node10 -->
<g id="node10" class="node">
<title>Node10</title>
<g id="a_node10"><a xlink:title=" ">
<polygon fill="#ffffff" stroke="#bfbfbf" points="770.2235,-6.5 770.2235,-26.5 810.1095,-26.5 810.1095,-6.5 770.2235,-6.5"/>
<text text-anchor="middle" x="790.1665" y="-13.5" font-family="Helvetica,sans-Serif" font-size="10.00" fill="#000000">ctime</text>
</a>
</g>
</g>
<!-- Node1&#45;&gt;Node10 -->
<g id="edge9" class="edge">
<title>Node1&#45;&gt;Node10</title>
<path fill="none" stroke="#191970" d="M585.0142,-81.1631C633.9236,-71.8416 703.3577,-56.0329 761.1665,-33 762.5454,-32.4506 763.9389,-31.8458 765.3301,-31.2024"/>
<polygon fill="#191970" stroke="#191970" points="767.0228,-34.2674 774.3021,-26.5692 763.8109,-28.0478 767.0228,-34.2674"/>
</g>
<!-- Node11 -->
<g id="node11" class="node">
<title>Node11</title>
<g id="a_node11"><a xlink:title=" ">
<polygon fill="#ffffff" stroke="#bfbfbf" points="827.999,-6.5 827.999,-26.5 872.334,-26.5 872.334,-6.5 827.999,-6.5"/>
<text text-anchor="middle" x="850.1665" y="-13.5" font-family="Helvetica,sans-Serif" font-size="10.00" fill="#000000">cstdlib</text>
</a>
</g>
</g>
<!-- Node1&#45;&gt;Node11 -->
<g id="edge10" class="edge">
<title>Node1&#45;&gt;Node11</title>
<path fill="none" stroke="#191970" d="M584.9451,-84.6656C645.8222,-76.692 740.828,-60.8982 819.1665,-33 820.8249,-32.4094 822.5036,-31.7421 824.1769,-31.0229"/>
<polygon fill="#191970" stroke="#191970" points="826.0399,-34.0101 833.5227,-26.5096 822.9957,-27.7067 826.0399,-34.0101"/>
</g>
<!-- Node12 -->
<g id="node12" class="node">
<title>Node12</title>
<g id="a_node12"><a xlink:title=" ">
<polygon fill="#ffffff" stroke="#bfbfbf" points="890.098,-6.5 890.098,-26.5 992.235,-26.5 992.235,-6.5 890.098,-6.5"/>
<text text-anchor="middle" x="941.1665" y="-13.5" font-family="Helvetica,sans-Serif" font-size="10.00" fill="#000000">dg_cross_section.h</text>
</a>
</g>
</g>
<!-- Node1&#45;&gt;Node12 -->
<g id="edge11" class="edge">
<title>Node1&#45;&gt;Node12</title>
<path fill="none" stroke="#191970" d="M584.9911,-83.435C656.6529,-73.6166 778.1124,-55.523 881.1665,-33 886.3117,-31.8755 891.6731,-30.5809 896.9818,-29.2218"/>
<polygon fill="#191970" stroke="#191970" points="898.283,-32.4981 907.055,-26.5565 896.4924,-25.7309 898.283,-32.4981"/>
</g>
<!-- Node13 -->
<g id="node13" class="node">
<title>Node13</title>
<g id="a_node13"><a xlink:title=" ">
<polygon fill="#ffffff" stroke="#bfbfbf" points="1010.1475,-6.5 1010.1475,-26.5 1136.1855,-26.5 1136.1855,-6.5 1010.1475,-6.5"/>
<text text-anchor="middle" x="1073.1665" y="-13.5" font-family="Helvetica,sans-Serif" font-size="10.00" fill="#000000">dg_total_element_num.h</text>
</a>
</g>
</g>
<!-- Node1&#45;&gt;Node13 -->
<g id="edge12" class="edge">
<title>Node1&#45;&gt;Node13</title>
<path fill="none" stroke="#191970" d="M584.9648,-85.9996C676.3501,-77.4001 852.7312,-59.0194 1001.1665,-33 1008.0408,-31.795 1015.2462,-30.3567 1022.3312,-28.8386"/>
<polygon fill="#191970" stroke="#191970" points="1023.5638,-32.1508 1032.573,-26.5754 1022.0533,-25.3157 1023.5638,-32.1508"/>
</g>
</g>
</svg>
