<?xml version="1.0" encoding="UTF-8" standalone="no"?>
<!DOCTYPE svg PUBLIC "-//W3C//DTD SVG 1.1//EN"
 "http://www.w3.org/Graphics/SVG/1.1/DTD/svg11.dtd">
<!-- Generated by graphviz version 2.40.1 (20161225.0304)
 -->
<!-- Title: /home/shiqi/Documents/thesis/DG_wave_c/src/dg_distribute_elements.cpp Pages: 1 -->
<svg width="614pt" height="110pt"
 viewBox="0.00 0.00 614.07 110.00" xmlns="http://www.w3.org/2000/svg" xmlns:xlink="http://www.w3.org/1999/xlink">
<g id="graph0" class="graph" transform="scale(1 1) rotate(0) translate(4 106)">
<title>/home/shiqi/Documents/thesis/DG_wave_c/src/dg_distribute_elements.cpp</title>
<polygon fill="#ffffff" stroke="transparent" points="-4,4 -4,-106 610.0715,-106 610.0715,4 -4,4"/>
<!-- Node1 -->
<g id="node1" class="node">
<title>Node1</title>
<g id="a_node1"><a xlink:title=" ">
<polygon fill="#bfbfbf" stroke="#000000" points="153.7045,-57.5 153.7045,-101.5 294.7405,-101.5 294.7405,-57.5 153.7045,-57.5"/>
<text text-anchor="start" x="161.7045" y="-88.5" font-family="Helvetica,sans-Serif" font-size="10.00" fill="#000000">/home/shiqi/Documents</text>
<text text-anchor="start" x="161.7045" y="-76.5" font-family="Helvetica,sans-Serif" font-size="10.00" fill="#000000">/thesis/DG_wave_c/src</text>
<text text-anchor="middle" x="224.2225" y="-64.5" font-family="Helvetica,sans-Serif" font-size="10.00" fill="#000000">/dg_distribute_elements.cpp</text>
</a>
</g>
</g>
<!-- Node2 -->
<g id="node2" class="node">
<title>Node2</title>
<g id="a_node2"><a xlink:title=" ">
<polygon fill="#ffffff" stroke="#bfbfbf" points="0,-.5 0,-20.5 40.445,-20.5 40.445,-.5 0,-.5"/>
<text text-anchor="middle" x="20.2225" y="-7.5" font-family="Helvetica,sans-Serif" font-size="10.00" fill="#000000">mpi.h</text>
</a>
</g>
</g>
<!-- Node1&#45;&gt;Node2 -->
<g id="edge1" class="edge">
<title>Node1&#45;&gt;Node2</title>
<path fill="none" stroke="#191970" d="M156.7776,-57.3872C126.5681,-47.3801 90.3055,-35.2284 49.9781,-21.2157"/>
<polygon fill="#191970" stroke="#191970" points="51.076,-17.8919 40.4812,-17.9074 48.7732,-24.5023 51.076,-17.8919"/>
</g>
<!-- Node3 -->
<g id="node3" class="node">
<title>Node3</title>
<g id="a_node3"><a xlink:title=" ">
<polygon fill="#ffffff" stroke="#bfbfbf" points="58.667,-.5 58.667,-20.5 115.778,-20.5 115.778,-.5 58.667,-.5"/>
<text text-anchor="middle" x="87.2225" y="-7.5" font-family="Helvetica,sans-Serif" font-size="10.00" fill="#000000">algorithm</text>
</a>
</g>
</g>
<!-- Node1&#45;&gt;Node3 -->
<g id="edge2" class="edge">
<title>Node1&#45;&gt;Node3</title>
<path fill="none" stroke="#191970" d="M180.4982,-57.4783C159.5592,-46.9323 135.0506,-34.5886 116.4119,-25.2012"/>
<polygon fill="#191970" stroke="#191970" points="117.7556,-21.9592 107.25,-20.5869 114.6069,-28.211 117.7556,-21.9592"/>
</g>
<!-- Node4 -->
<g id="node4" class="node">
<title>Node4</title>
<g id="a_node4"><a xlink:title=" ">
<polygon fill="#ffffff" stroke="#bfbfbf" points="133.5475,-.5 133.5475,-20.5 202.8975,-20.5 202.8975,-.5 133.5475,-.5"/>
<text text-anchor="middle" x="168.2225" y="-7.5" font-family="Helvetica,sans-Serif" font-size="10.00" fill="#000000">dg_param.h</text>
</a>
</g>
</g>
<!-- Node1&#45;&gt;Node4 -->
<g id="edge3" class="edge">
<title>Node1&#45;&gt;Node4</title>
<path fill="none" stroke="#191970" d="M206.1955,-57.2882C198.7136,-48.0694 190.139,-37.5042 183.0332,-28.7488"/>
<polygon fill="#191970" stroke="#191970" points="185.5312,-26.2727 176.5119,-20.7137 180.096,-30.6839 185.5312,-26.2727"/>
</g>
<!-- Node5 -->
<g id="node5" class="node">
<title>Node5</title>
<g id="a_node5"><a xlink:title=" ">
<polygon fill="#ffffff" stroke="#bfbfbf" points="220.6975,-.5 220.6975,-20.5 341.7475,-20.5 341.7475,-.5 220.6975,-.5"/>
<text text-anchor="middle" x="281.2225" y="-7.5" font-family="Helvetica,sans-Serif" font-size="10.00" fill="#000000">dg_nodal_2d_storage.h</text>
</a>
</g>
</g>
<!-- Node1&#45;&gt;Node5 -->
<g id="edge4" class="edge">
<title>Node1&#45;&gt;Node5</title>
<path fill="none" stroke="#191970" d="M242.5714,-57.2882C250.2662,-47.9734 259.0966,-37.2839 266.3729,-28.4758"/>
<polygon fill="#191970" stroke="#191970" points="269.1146,-30.6524 272.7851,-20.7137 263.7179,-26.1942 269.1146,-30.6524"/>
</g>
<!-- Node6 -->
<g id="node6" class="node">
<title>Node6</title>
<g id="a_node6"><a xlink:title=" ">
<polygon fill="#ffffff" stroke="#bfbfbf" points="359.9855,-.5 359.9855,-20.5 460.4595,-20.5 460.4595,-.5 359.9855,-.5"/>
<text text-anchor="middle" x="410.2225" y="-7.5" font-family="Helvetica,sans-Serif" font-size="10.00" fill="#000000">dg_local_storage.h</text>
</a>
</g>
</g>
<!-- Node1&#45;&gt;Node6 -->
<g id="edge5" class="edge">
<title>Node1&#45;&gt;Node6</title>
<path fill="none" stroke="#191970" d="M283.5855,-57.4783C313.0568,-46.5453 347.7366,-33.6802 373.3462,-24.1799"/>
<polygon fill="#191970" stroke="#191970" points="374.8735,-27.3465 383.0318,-20.5869 372.4388,-20.7835 374.8735,-27.3465"/>
</g>
<!-- Node7 -->
<g id="node7" class="node">
<title>Node7</title>
<g id="a_node7"><a xlink:title=" ">
<polygon fill="#ffffff" stroke="#bfbfbf" points="478.3735,-.5 478.3735,-20.5 606.0715,-20.5 606.0715,-.5 478.3735,-.5"/>
<text text-anchor="middle" x="542.2225" y="-7.5" font-family="Helvetica,sans-Serif" font-size="10.00" fill="#000000">dg_distribute_elements.h</text>
</a>
</g>
</g>
<!-- Node1&#45;&gt;Node7 -->
<g id="edge6" class="edge">
<title>Node1&#45;&gt;Node7</title>
<path fill="none" stroke="#191970" d="M294.797,-64.1867C352.3837,-51.6914 432.661,-34.2728 485.9757,-22.7045"/>
<polygon fill="#191970" stroke="#191970" points="486.9043,-26.0845 495.9347,-20.5436 485.4199,-19.2437 486.9043,-26.0845"/>
</g>
</g>
</svg>
