<?xml version="1.0" encoding="UTF-8" standalone="no"?>
<!DOCTYPE svg PUBLIC "-//W3C//DTD SVG 1.1//EN"
 "http://www.w3.org/Graphics/SVG/1.1/DTD/svg11.dtd">
<!-- Generated by graphviz version 2.40.1 (20161225.0304)
 -->
<!-- Title: /home/shiqi/Documents/thesis/DG_wave_c/src/dg_gen_dual_graph.cpp Pages: 1 -->
<svg width="710pt" height="110pt"
 viewBox="0.00 0.00 709.86 110.00" xmlns="http://www.w3.org/2000/svg" xmlns:xlink="http://www.w3.org/1999/xlink">
<g id="graph0" class="graph" transform="scale(1 1) rotate(0) translate(4 106)">
<title>/home/shiqi/Documents/thesis/DG_wave_c/src/dg_gen_dual_graph.cpp</title>
<polygon fill="#ffffff" stroke="transparent" points="-4,4 -4,-106 705.858,-106 705.858,4 -4,4"/>
<!-- Node1 -->
<g id="node1" class="node">
<title>Node1</title>
<g id="a_node1"><a xlink:title=" ">
<polygon fill="#bfbfbf" stroke="#000000" points="229.918,-57.5 229.918,-101.5 356.527,-101.5 356.527,-57.5 229.918,-57.5"/>
<text text-anchor="start" x="237.918" y="-88.5" font-family="Helvetica,sans-Serif" font-size="10.00" fill="#000000">/home/shiqi/Documents</text>
<text text-anchor="start" x="237.918" y="-76.5" font-family="Helvetica,sans-Serif" font-size="10.00" fill="#000000">/thesis/DG_wave_c/src</text>
<text text-anchor="middle" x="293.2225" y="-64.5" font-family="Helvetica,sans-Serif" font-size="10.00" fill="#000000">/dg_gen_dual_graph.cpp</text>
</a>
</g>
</g>
<!-- Node2 -->
<g id="node2" class="node">
<title>Node2</title>
<g id="a_node2"><a xlink:title=" ">
<polygon fill="#ffffff" stroke="#bfbfbf" points="0,-.5 0,-20.5 40.445,-20.5 40.445,-.5 0,-.5"/>
<text text-anchor="middle" x="20.2225" y="-7.5" font-family="Helvetica,sans-Serif" font-size="10.00" fill="#000000">mpi.h</text>
</a>
</g>
</g>
<!-- Node1&#45;&gt;Node2 -->
<g id="edge1" class="edge">
<title>Node1&#45;&gt;Node2</title>
<path fill="none" stroke="#191970" d="M229.7643,-66.3318C182.5336,-56.0631 116.3817,-40.6985 50.4468,-21.1575"/>
<polygon fill="#191970" stroke="#191970" points="51.3064,-17.7613 40.7226,-18.2441 49.2974,-24.4669 51.3064,-17.7613"/>
</g>
<!-- Node3 -->
<g id="node3" class="node">
<title>Node3</title>
<g id="a_node3"><a xlink:title=" ">
<polygon fill="#ffffff" stroke="#bfbfbf" points="58.6095,-.5 58.6095,-20.5 101.8355,-20.5 101.8355,-.5 58.6095,-.5"/>
<text text-anchor="middle" x="80.2225" y="-7.5" font-family="Helvetica,sans-Serif" font-size="10.00" fill="#000000">cmath</text>
</a>
</g>
</g>
<!-- Node1&#45;&gt;Node3 -->
<g id="edge2" class="edge">
<title>Node1&#45;&gt;Node3</title>
<path fill="none" stroke="#191970" d="M229.5651,-59.6193C196.7261,-49.2539 155.8076,-36.1703 111.872,-21.5064"/>
<polygon fill="#191970" stroke="#191970" points="112.7477,-18.1087 102.1539,-18.2534 110.5257,-24.7467 112.7477,-18.1087"/>
</g>
<!-- Node4 -->
<g id="node4" class="node">
<title>Node4</title>
<g id="a_node4"><a xlink:title=" ">
<polygon fill="#ffffff" stroke="#bfbfbf" points="119.6975,-.5 119.6975,-20.5 240.7475,-20.5 240.7475,-.5 119.6975,-.5"/>
<text text-anchor="middle" x="180.2225" y="-7.5" font-family="Helvetica,sans-Serif" font-size="10.00" fill="#000000">dg_nodal_2d_storage.h</text>
</a>
</g>
</g>
<!-- Node1&#45;&gt;Node4 -->
<g id="edge3" class="edge">
<title>Node1&#45;&gt;Node4</title>
<path fill="none" stroke="#191970" d="M257.1579,-57.4783C240.3624,-47.2226 220.7825,-35.2667 205.5786,-25.9829"/>
<polygon fill="#191970" stroke="#191970" points="207.1003,-22.8112 196.7416,-20.5869 203.4522,-28.7855 207.1003,-22.8112"/>
</g>
<!-- Node5 -->
<g id="node5" class="node">
<title>Node5</title>
<g id="a_node5"><a xlink:title=" ">
<polygon fill="#ffffff" stroke="#bfbfbf" points="258.5475,-.5 258.5475,-20.5 327.8975,-20.5 327.8975,-.5 258.5475,-.5"/>
<text text-anchor="middle" x="293.2225" y="-7.5" font-family="Helvetica,sans-Serif" font-size="10.00" fill="#000000">dg_param.h</text>
</a>
</g>
</g>
<!-- Node1&#45;&gt;Node5 -->
<g id="edge4" class="edge">
<title>Node1&#45;&gt;Node5</title>
<path fill="none" stroke="#191970" d="M293.2225,-57.2882C293.2225,-48.8377 293.2225,-39.2557 293.2225,-30.9736"/>
<polygon fill="#191970" stroke="#191970" points="296.7226,-30.7136 293.2225,-20.7137 289.7226,-30.7137 296.7226,-30.7136"/>
</g>
<!-- Node6 -->
<g id="node6" class="node">
<title>Node6</title>
<g id="a_node6"><a xlink:title=" ">
<polygon fill="#ffffff" stroke="#bfbfbf" points="346.2565,-.5 346.2565,-20.5 456.1885,-20.5 456.1885,-.5 346.2565,-.5"/>
<text text-anchor="middle" x="401.2225" y="-7.5" font-family="Helvetica,sans-Serif" font-size="10.00" fill="#000000">dg_get_dual_coord.h</text>
</a>
</g>
</g>
<!-- Node1&#45;&gt;Node6 -->
<g id="edge5" class="edge">
<title>Node1&#45;&gt;Node6</title>
<path fill="none" stroke="#191970" d="M327.6913,-57.4783C343.7436,-47.2226 362.4572,-35.2667 376.9883,-25.9829"/>
<polygon fill="#191970" stroke="#191970" points="378.8918,-28.9202 385.4344,-20.5869 375.123,-23.0214 378.8918,-28.9202"/>
</g>
<!-- Node7 -->
<g id="node7" class="node">
<title>Node7</title>
<g id="a_node7"><a xlink:title=" ">
<polygon fill="#ffffff" stroke="#bfbfbf" points="473.93,-.5 473.93,-20.5 570.515,-20.5 570.515,-.5 473.93,-.5"/>
<text text-anchor="middle" x="522.2225" y="-7.5" font-family="Helvetica,sans-Serif" font-size="10.00" fill="#000000">dg_single_index.h</text>
</a>
</g>
</g>
<!-- Node1&#45;&gt;Node7 -->
<g id="edge6" class="edge">
<title>Node1&#45;&gt;Node7</title>
<path fill="none" stroke="#191970" d="M356.7077,-60.3713C395.7411,-48.6101 444.7172,-33.8531 479.2343,-23.4528"/>
<polygon fill="#191970" stroke="#191970" points="480.445,-26.7435 489.01,-20.5073 478.4254,-20.0411 480.445,-26.7435"/>
</g>
<!-- Node8 -->
<g id="node8" class="node">
<title>Node8</title>
<g id="a_node8"><a xlink:title=" ">
<polygon fill="#ffffff" stroke="#bfbfbf" points="588.587,-.5 588.587,-20.5 701.858,-20.5 701.858,-.5 588.587,-.5"/>
<text text-anchor="middle" x="645.2225" y="-7.5" font-family="Helvetica,sans-Serif" font-size="10.00" fill="#000000">dg_gen_dual_graph.h</text>
</a>
</g>
</g>
<!-- Node1&#45;&gt;Node8 -->
<g id="edge7" class="edge">
<title>Node1&#45;&gt;Node8</title>
<path fill="none" stroke="#191970" d="M356.5596,-67.0845C421.0978,-54.4335 520.5041,-34.9476 584.1948,-22.4628"/>
<polygon fill="#191970" stroke="#191970" points="584.9594,-25.8796 594.0993,-20.5213 583.6128,-19.0104 584.9594,-25.8796"/>
</g>
</g>
</svg>
