<?xml version="1.0" encoding="UTF-8" standalone="no"?>
<!DOCTYPE svg PUBLIC "-//W3C//DTD SVG 1.1//EN"
 "http://www.w3.org/Graphics/SVG/1.1/DTD/svg11.dtd">
<!-- Generated by graphviz version 2.40.1 (20161225.0304)
 -->
<!-- Title: /home/shiqi/Documents/thesis/new/DG_wave_c/src/dg_gen_dual_graph.cpp Pages: 1 -->
<svg width="782pt" height="110pt"
 viewBox="0.00 0.00 782.39 110.00" xmlns="http://www.w3.org/2000/svg" xmlns:xlink="http://www.w3.org/1999/xlink">
<g id="graph0" class="graph" transform="scale(1 1) rotate(0) translate(4 106)">
<title>/home/shiqi/Documents/thesis/new/DG_wave_c/src/dg_gen_dual_graph.cpp</title>
<polygon fill="#ffffff" stroke="transparent" points="-4,4 -4,-106 778.389,-106 778.389,4 -4,4"/>
<!-- Node1 -->
<g id="node1" class="node">
<title>Node1</title>
<g id="a_node1"><a xlink:title=" ">
<polygon fill="#bfbfbf" stroke="#000000" points="275.864,-57.5 275.864,-101.5 418.581,-101.5 418.581,-57.5 275.864,-57.5"/>
<text text-anchor="start" x="283.864" y="-88.5" font-family="Helvetica,sans-Serif" font-size="10.00" fill="#000000">/home/shiqi/Documents</text>
<text text-anchor="start" x="283.864" y="-76.5" font-family="Helvetica,sans-Serif" font-size="10.00" fill="#000000">/thesis/new/DG_wave_c</text>
<text text-anchor="middle" x="347.2225" y="-64.5" font-family="Helvetica,sans-Serif" font-size="10.00" fill="#000000">/src/dg_gen_dual_graph.cpp</text>
</a>
</g>
</g>
<!-- Node2 -->
<g id="node2" class="node">
<title>Node2</title>
<g id="a_node2"><a xlink:title=" ">
<polygon fill="#ffffff" stroke="#bfbfbf" points="0,-.5 0,-20.5 40.445,-20.5 40.445,-.5 0,-.5"/>
<text text-anchor="middle" x="20.2225" y="-7.5" font-family="Helvetica,sans-Serif" font-size="10.00" fill="#000000">mpi.h</text>
</a>
</g>
</g>
<!-- Node1&#45;&gt;Node2 -->
<g id="edge1" class="edge">
<title>Node1&#45;&gt;Node2</title>
<path fill="none" stroke="#191970" d="M275.7588,-68.6406C217.3149,-59.0373 132.4961,-43.4535 50.6554,-21.1101"/>
<polygon fill="#191970" stroke="#191970" points="51.2629,-17.6467 40.6915,-18.3517 49.3952,-24.393 51.2629,-17.6467"/>
</g>
<!-- Node3 -->
<g id="node3" class="node">
<title>Node3</title>
<g id="a_node3"><a xlink:title=" ">
<polygon fill="#ffffff" stroke="#bfbfbf" points="58.6095,-.5 58.6095,-20.5 101.8355,-20.5 101.8355,-.5 58.6095,-.5"/>
<text text-anchor="middle" x="80.2225" y="-7.5" font-family="Helvetica,sans-Serif" font-size="10.00" fill="#000000">cmath</text>
</a>
</g>
</g>
<!-- Node1&#45;&gt;Node3 -->
<g id="edge2" class="edge">
<title>Node1&#45;&gt;Node3</title>
<path fill="none" stroke="#191970" d="M275.7091,-63.7084C230.834,-53.3669 171.6363,-38.9399 111.7198,-21.2865"/>
<polygon fill="#191970" stroke="#191970" points="112.6822,-17.9213 102.0994,-18.4256 110.6869,-24.6309 112.6822,-17.9213"/>
</g>
<!-- Node4 -->
<g id="node4" class="node">
<title>Node4</title>
<g id="a_node4"><a xlink:title=" ">
<polygon fill="#ffffff" stroke="#bfbfbf" points="119.6975,-.5 119.6975,-20.5 240.7475,-20.5 240.7475,-.5 119.6975,-.5"/>
<text text-anchor="middle" x="180.2225" y="-7.5" font-family="Helvetica,sans-Serif" font-size="10.00" fill="#000000">dg_nodal_2d_storage.h</text>
</a>
</g>
</g>
<!-- Node1&#45;&gt;Node4 -->
<g id="edge3" class="edge">
<title>Node1&#45;&gt;Node4</title>
<path fill="none" stroke="#191970" d="M293.9235,-57.4783C267.6968,-46.6421 236.8761,-33.9078 213.9442,-24.4329"/>
<polygon fill="#191970" stroke="#191970" points="215.2144,-21.1708 204.6356,-20.5869 212.5413,-27.6403 215.2144,-21.1708"/>
</g>
<!-- Node5 -->
<g id="node5" class="node">
<title>Node5</title>
<g id="a_node5"><a xlink:title=" ">
<polygon fill="#ffffff" stroke="#bfbfbf" points="258.5475,-.5 258.5475,-20.5 327.8975,-20.5 327.8975,-.5 258.5475,-.5"/>
<text text-anchor="middle" x="293.2225" y="-7.5" font-family="Helvetica,sans-Serif" font-size="10.00" fill="#000000">dg_param.h</text>
</a>
</g>
</g>
<!-- Node1&#45;&gt;Node5 -->
<g id="edge4" class="edge">
<title>Node1&#45;&gt;Node5</title>
<path fill="none" stroke="#191970" d="M329.8393,-57.2882C322.6247,-48.0694 314.3562,-37.5042 307.5042,-28.7488"/>
<polygon fill="#191970" stroke="#191970" points="310.1352,-26.4316 301.2158,-20.7137 304.6227,-30.7458 310.1352,-26.4316"/>
</g>
<!-- Node6 -->
<g id="node6" class="node">
<title>Node6</title>
<g id="a_node6"><a xlink:title=" ">
<polygon fill="#ffffff" stroke="#bfbfbf" points="346.2565,-.5 346.2565,-20.5 456.1885,-20.5 456.1885,-.5 346.2565,-.5"/>
<text text-anchor="middle" x="401.2225" y="-7.5" font-family="Helvetica,sans-Serif" font-size="10.00" fill="#000000">dg_get_dual_coord.h</text>
</a>
</g>
</g>
<!-- Node1&#45;&gt;Node6 -->
<g id="edge5" class="edge">
<title>Node1&#45;&gt;Node6</title>
<path fill="none" stroke="#191970" d="M364.6057,-57.2882C371.8203,-48.0694 380.0888,-37.5042 386.9408,-28.7488"/>
<polygon fill="#191970" stroke="#191970" points="389.8223,-30.7458 393.2292,-20.7137 384.3098,-26.4316 389.8223,-30.7458"/>
</g>
<!-- Node7 -->
<g id="node7" class="node">
<title>Node7</title>
<g id="a_node7"><a xlink:title=" ">
<polygon fill="#ffffff" stroke="#bfbfbf" points="473.93,-.5 473.93,-20.5 570.515,-20.5 570.515,-.5 473.93,-.5"/>
<text text-anchor="middle" x="522.2225" y="-7.5" font-family="Helvetica,sans-Serif" font-size="10.00" fill="#000000">dg_single_index.h</text>
</a>
</g>
</g>
<!-- Node1&#45;&gt;Node7 -->
<g id="edge6" class="edge">
<title>Node1&#45;&gt;Node7</title>
<path fill="none" stroke="#191970" d="M403.0747,-57.4783C430.6805,-46.5937 463.1434,-33.7941 487.2067,-24.3062"/>
<polygon fill="#191970" stroke="#191970" points="488.6207,-27.511 496.6399,-20.5869 486.0531,-20.9989 488.6207,-27.511"/>
</g>
<!-- Node8 -->
<g id="node8" class="node">
<title>Node8</title>
<g id="a_node8"><a xlink:title=" ">
<polygon fill="#ffffff" stroke="#bfbfbf" points="588.587,-.5 588.587,-20.5 701.858,-20.5 701.858,-.5 588.587,-.5"/>
<text text-anchor="middle" x="645.2225" y="-7.5" font-family="Helvetica,sans-Serif" font-size="10.00" fill="#000000">dg_gen_dual_graph.h</text>
</a>
</g>
</g>
<!-- Node1&#45;&gt;Node8 -->
<g id="edge7" class="edge">
<title>Node1&#45;&gt;Node8</title>
<path fill="none" stroke="#191970" d="M418.6009,-62.9728C471.8106,-50.6524 543.3436,-34.0894 591.6985,-22.8931"/>
<polygon fill="#191970" stroke="#191970" points="592.6975,-26.2545 601.6502,-20.5889 591.1184,-19.4349 592.6975,-26.2545"/>
</g>
<!-- Node9 -->
<g id="node9" class="node">
<title>Node9</title>
<g id="a_node9"><a xlink:title=" ">
<polygon fill="#ffffff" stroke="#bfbfbf" points="720.056,-.5 720.056,-20.5 774.389,-20.5 774.389,-.5 720.056,-.5"/>
<text text-anchor="middle" x="747.2225" y="-7.5" font-family="Helvetica,sans-Serif" font-size="10.00" fill="#000000">iostream</text>
</a>
</g>
</g>
<!-- Node1&#45;&gt;Node9 -->
<g id="edge8" class="edge">
<title>Node1&#45;&gt;Node9</title>
<path fill="none" stroke="#191970" d="M418.8672,-70.6669C490.4071,-61.2403 603.5859,-44.6869 709.8648,-21.1096"/>
<polygon fill="#191970" stroke="#191970" points="710.8058,-24.4856 719.7968,-18.8809 709.2731,-17.6554 710.8058,-24.4856"/>
</g>
</g>
</svg>
