<?xml version="1.0" encoding="UTF-8" standalone="no"?>
<!DOCTYPE svg PUBLIC "-//W3C//DTD SVG 1.1//EN"
 "http://www.w3.org/Graphics/SVG/1.1/DTD/svg11.dtd">
<!-- Generated by graphviz version 2.40.1 (20161225.0304)
 -->
<!-- Title: /home/shiqi/Documents/thesis/DG_wave_c/src/dg_read_mesh_2d.cpp Pages: 1 -->
<svg width="844pt" height="110pt"
 viewBox="0.00 0.00 843.51 110.00" xmlns="http://www.w3.org/2000/svg" xmlns:xlink="http://www.w3.org/1999/xlink">
<g id="graph0" class="graph" transform="scale(1 1) rotate(0) translate(4 106)">
<title>/home/shiqi/Documents/thesis/DG_wave_c/src/dg_read_mesh_2d.cpp</title>
<polygon fill="#ffffff" stroke="transparent" points="-4,4 -4,-106 839.515,-106 839.515,4 -4,4"/>
<!-- Node1 -->
<g id="node1" class="node">
<title>Node1</title>
<g id="a_node1"><a xlink:title=" ">
<polygon fill="#bfbfbf" stroke="#000000" points="253.7015,-57.5 253.7015,-101.5 374.7435,-101.5 374.7435,-57.5 253.7015,-57.5"/>
<text text-anchor="start" x="261.7015" y="-88.5" font-family="Helvetica,sans-Serif" font-size="10.00" fill="#000000">/home/shiqi/Documents</text>
<text text-anchor="start" x="261.7015" y="-76.5" font-family="Helvetica,sans-Serif" font-size="10.00" fill="#000000">/thesis/DG_wave_c/src</text>
<text text-anchor="middle" x="314.2225" y="-64.5" font-family="Helvetica,sans-Serif" font-size="10.00" fill="#000000">/dg_read_mesh_2d.cpp</text>
</a>
</g>
</g>
<!-- Node2 -->
<g id="node2" class="node">
<title>Node2</title>
<g id="a_node2"><a xlink:title=" ">
<polygon fill="#ffffff" stroke="#bfbfbf" points="0,-.5 0,-20.5 40.445,-20.5 40.445,-.5 0,-.5"/>
<text text-anchor="middle" x="20.2225" y="-7.5" font-family="Helvetica,sans-Serif" font-size="10.00" fill="#000000">mpi.h</text>
</a>
</g>
</g>
<!-- Node1&#45;&gt;Node2 -->
<g id="edge1" class="edge">
<title>Node1&#45;&gt;Node2</title>
<path fill="none" stroke="#191970" d="M253.6689,-68.4632C201.9121,-58.5031 125.3765,-42.529 50.747,-21.1966"/>
<polygon fill="#191970" stroke="#191970" points="51.2877,-17.7094 40.7088,-18.2909 49.3413,-24.4334 51.2877,-17.7094"/>
</g>
<!-- Node3 -->
<g id="node3" class="node">
<title>Node3</title>
<g id="a_node3"><a xlink:title=" ">
<polygon fill="#ffffff" stroke="#bfbfbf" points="58.056,-.5 58.056,-20.5 112.389,-20.5 112.389,-.5 58.056,-.5"/>
<text text-anchor="middle" x="85.2225" y="-7.5" font-family="Helvetica,sans-Serif" font-size="10.00" fill="#000000">iostream</text>
</a>
</g>
</g>
<!-- Node1&#45;&gt;Node3 -->
<g id="edge2" class="edge">
<title>Node1&#45;&gt;Node3</title>
<path fill="none" stroke="#191970" d="M253.4559,-61.1904C211.8489,-48.6538 157.9997,-32.4285 122.5736,-21.7542"/>
<polygon fill="#191970" stroke="#191970" points="123.2352,-18.2982 112.6506,-18.7644 121.2157,-25.0006 123.2352,-18.2982"/>
</g>
<!-- Node4 -->
<g id="node4" class="node">
<title>Node4</title>
<g id="a_node4"><a xlink:title=" ">
<polygon fill="#ffffff" stroke="#bfbfbf" points="130.5555,-.5 130.5555,-20.5 179.8895,-20.5 179.8895,-.5 130.5555,-.5"/>
<text text-anchor="middle" x="155.2225" y="-7.5" font-family="Helvetica,sans-Serif" font-size="10.00" fill="#000000">fstream</text>
</a>
</g>
</g>
<!-- Node1&#45;&gt;Node4 -->
<g id="edge3" class="edge">
<title>Node1&#45;&gt;Node4</title>
<path fill="none" stroke="#191970" d="M263.4767,-57.4783C238.7294,-46.7388 209.6859,-34.135 187.9154,-24.6875"/>
<polygon fill="#191970" stroke="#191970" points="189.0329,-21.3571 178.4661,-20.5869 186.2462,-27.7786 189.0329,-21.3571"/>
</g>
<!-- Node5 -->
<g id="node5" class="node">
<title>Node5</title>
<g id="a_node5"><a xlink:title=" ">
<polygon fill="#ffffff" stroke="#bfbfbf" points="198,-.5 198,-20.5 238.445,-20.5 238.445,-.5 198,-.5"/>
<text text-anchor="middle" x="218.2225" y="-7.5" font-family="Helvetica,sans-Serif" font-size="10.00" fill="#000000">string</text>
</a>
</g>
</g>
<!-- Node1&#45;&gt;Node5 -->
<g id="edge4" class="edge">
<title>Node1&#45;&gt;Node5</title>
<path fill="none" stroke="#191970" d="M283.5836,-57.4783C269.584,-47.4161 253.3074,-35.7173 240.499,-26.5113"/>
<polygon fill="#191970" stroke="#191970" points="242.4193,-23.5812 232.2564,-20.5869 238.3338,-29.2653 242.4193,-23.5812"/>
</g>
<!-- Node6 -->
<g id="node6" class="node">
<title>Node6</title>
<g id="a_node6"><a xlink:title=" ">
<polygon fill="#ffffff" stroke="#bfbfbf" points="256.445,-.5 256.445,-20.5 308,-20.5 308,-.5 256.445,-.5"/>
<text text-anchor="middle" x="282.2225" y="-7.5" font-family="Helvetica,sans-Serif" font-size="10.00" fill="#000000">sstream</text>
</a>
</g>
</g>
<!-- Node1&#45;&gt;Node6 -->
<g id="edge5" class="edge">
<title>Node1&#45;&gt;Node6</title>
<path fill="none" stroke="#191970" d="M303.9214,-57.2882C299.8241,-48.4535 295.1534,-38.3823 291.1976,-29.8525"/>
<polygon fill="#191970" stroke="#191970" points="294.3417,-28.313 286.9593,-20.7137 287.9914,-31.2581 294.3417,-28.313"/>
</g>
<!-- Node7 -->
<g id="node7" class="node">
<title>Node7</title>
<g id="a_node7"><a xlink:title=" ">
<polygon fill="#ffffff" stroke="#bfbfbf" points="325.6095,-.5 325.6095,-20.5 368.8355,-20.5 368.8355,-.5 325.6095,-.5"/>
<text text-anchor="middle" x="347.2225" y="-7.5" font-family="Helvetica,sans-Serif" font-size="10.00" fill="#000000">cmath</text>
</a>
</g>
</g>
<!-- Node1&#45;&gt;Node7 -->
<g id="edge6" class="edge">
<title>Node1&#45;&gt;Node7</title>
<path fill="none" stroke="#191970" d="M324.8456,-57.2882C329.0708,-48.4535 333.8875,-38.3823 337.967,-29.8525"/>
<polygon fill="#191970" stroke="#191970" points="341.1806,-31.2451 342.3377,-20.7137 334.8656,-28.2249 341.1806,-31.2451"/>
</g>
<!-- Node8 -->
<g id="node8" class="node">
<title>Node8</title>
<g id="a_node8"><a xlink:title=" ">
<polygon fill="#ffffff" stroke="#bfbfbf" points="386.5475,-.5 386.5475,-20.5 455.8975,-20.5 455.8975,-.5 386.5475,-.5"/>
<text text-anchor="middle" x="421.2225" y="-7.5" font-family="Helvetica,sans-Serif" font-size="10.00" fill="#000000">dg_param.h</text>
</a>
</g>
</g>
<!-- Node1&#45;&gt;Node8 -->
<g id="edge7" class="edge">
<title>Node1&#45;&gt;Node8</title>
<path fill="none" stroke="#191970" d="M348.3722,-57.4783C364.1258,-47.3194 382.4665,-35.4922 396.8042,-26.2464"/>
<polygon fill="#191970" stroke="#191970" points="399.0733,-28.9478 405.5806,-20.5869 395.2796,-23.0649 399.0733,-28.9478"/>
</g>
<!-- Node9 -->
<g id="node9" class="node">
<title>Node9</title>
<g id="a_node9"><a xlink:title=" ">
<polygon fill="#ffffff" stroke="#bfbfbf" points="474.3705,-.5 474.3705,-20.5 582.0745,-20.5 582.0745,-.5 474.3705,-.5"/>
<text text-anchor="middle" x="528.2225" y="-7.5" font-family="Helvetica,sans-Serif" font-size="10.00" fill="#000000">dg_read_mesh_2d.h</text>
</a>
</g>
</g>
<!-- Node1&#45;&gt;Node9 -->
<g id="edge8" class="edge">
<title>Node1&#45;&gt;Node9</title>
<path fill="none" stroke="#191970" d="M374.9739,-59.9119C410.8777,-48.3355 455.3843,-33.9852 487.1671,-23.7375"/>
<polygon fill="#191970" stroke="#191970" points="488.5686,-26.9631 497.012,-20.5632 486.4204,-20.3009 488.5686,-26.9631"/>
</g>
<!-- Node10 -->
<g id="node10" class="node">
<title>Node10</title>
<g id="a_node10"><a xlink:title=" ">
<polygon fill="#ffffff" stroke="#bfbfbf" points="599.6975,-.5 599.6975,-20.5 720.7475,-20.5 720.7475,-.5 599.6975,-.5"/>
<text text-anchor="middle" x="660.2225" y="-7.5" font-family="Helvetica,sans-Serif" font-size="10.00" fill="#000000">dg_nodal_2d_storage.h</text>
</a>
</g>
</g>
<!-- Node1&#45;&gt;Node10 -->
<g id="edge9" class="edge">
<title>Node1&#45;&gt;Node10</title>
<path fill="none" stroke="#191970" d="M374.887,-67.4022C438.2644,-54.7633 537.0787,-35.0576 600.2112,-22.4676"/>
<polygon fill="#191970" stroke="#191970" points="600.904,-25.8984 610.0264,-20.5102 599.5349,-19.0336 600.904,-25.8984"/>
</g>
<!-- Node11 -->
<g id="node11" class="node">
<title>Node11</title>
<g id="a_node11"><a xlink:title=" ">
<polygon fill="#ffffff" stroke="#bfbfbf" points="738.93,-.5 738.93,-20.5 835.515,-20.5 835.515,-.5 738.93,-.5"/>
<text text-anchor="middle" x="787.2225" y="-7.5" font-family="Helvetica,sans-Serif" font-size="10.00" fill="#000000">dg_single_index.h</text>
</a>
</g>
</g>
<!-- Node1&#45;&gt;Node11 -->
<g id="edge10" class="edge">
<title>Node1&#45;&gt;Node11</title>
<path fill="none" stroke="#191970" d="M374.9711,-71.779C454.1211,-61.536 597.046,-42.415 728.8628,-21.1748"/>
<polygon fill="#191970" stroke="#191970" points="729.4247,-24.6294 738.7369,-19.5763 728.306,-17.7194 729.4247,-24.6294"/>
</g>
</g>
</svg>
