<?xml version="1.0" encoding="UTF-8" standalone="no"?>
<!DOCTYPE svg PUBLIC "-//W3C//DTD SVG 1.1//EN"
 "http://www.w3.org/Graphics/SVG/1.1/DTD/svg11.dtd">
<!-- Generated by graphviz version 2.40.1 (20161225.0304)
 -->
<!-- Title: /home/shiqi/Documents/thesis/new/DG_wave_c/src/dg_time_derivative.cpp Pages: 1 -->
<svg width="1066pt" height="122pt"
 viewBox="0.00 0.00 1065.80 122.00" xmlns="http://www.w3.org/2000/svg" xmlns:xlink="http://www.w3.org/1999/xlink">
<g id="graph0" class="graph" transform="scale(1 1) rotate(0) translate(4 118)">
<title>/home/shiqi/Documents/thesis/new/DG_wave_c/src/dg_time_derivative.cpp</title>
<polygon fill="#ffffff" stroke="transparent" points="-4,4 -4,-118 1061.796,-118 1061.796,4 -4,4"/>
<!-- Node1 -->
<g id="node1" class="node">
<title>Node1</title>
<g id="a_node1"><a xlink:title=" ">
<polygon fill="#bfbfbf" stroke="#000000" points="501.277,-69.5 501.277,-113.5 638.965,-113.5 638.965,-69.5 501.277,-69.5"/>
<text text-anchor="start" x="509.277" y="-100.5" font-family="Helvetica,sans-Serif" font-size="10.00" fill="#000000">/home/shiqi/Documents</text>
<text text-anchor="start" x="509.277" y="-88.5" font-family="Helvetica,sans-Serif" font-size="10.00" fill="#000000">/thesis/new/DG_wave_c</text>
<text text-anchor="middle" x="570.121" y="-76.5" font-family="Helvetica,sans-Serif" font-size="10.00" fill="#000000">/src/dg_time_derivative.cpp</text>
</a>
</g>
</g>
<!-- Node2 -->
<g id="node2" class="node">
<title>Node2</title>
<g id="a_node2"><a xlink:title=" ">
<polygon fill="#ffffff" stroke="#bfbfbf" points="0,-6.5 0,-26.5 108.242,-26.5 108.242,-6.5 0,-6.5"/>
<text text-anchor="middle" x="54.121" y="-13.5" font-family="Helvetica,sans-Serif" font-size="10.00" fill="#000000">dg_time_derivative.h</text>
</a>
</g>
</g>
<!-- Node1&#45;&gt;Node2 -->
<g id="edge1" class="edge">
<title>Node1&#45;&gt;Node2</title>
<path fill="none" stroke="#191970" d="M500.9952,-85.3443C411.776,-76.7667 251.9742,-59.2553 117.121,-33 111.2911,-31.8649 105.201,-30.5009 99.203,-29.0498"/>
<polygon fill="#191970" stroke="#191970" points="99.8096,-25.5934 89.258,-26.5502 98.1032,-32.3823 99.8096,-25.5934"/>
</g>
<!-- Node3 -->
<g id="node3" class="node">
<title>Node3</title>
<g id="a_node3"><a xlink:title=" ">
<polygon fill="#ffffff" stroke="#bfbfbf" points="125.884,-6.5 125.884,-26.5 226.358,-26.5 226.358,-6.5 125.884,-6.5"/>
<text text-anchor="middle" x="176.121" y="-13.5" font-family="Helvetica,sans-Serif" font-size="10.00" fill="#000000">dg_local_storage.h</text>
</a>
</g>
</g>
<!-- Node1&#45;&gt;Node3 -->
<g id="edge2" class="edge">
<title>Node1&#45;&gt;Node3</title>
<path fill="none" stroke="#191970" d="M501.0713,-81.5042C433.0568,-71.1745 326.3864,-53.6761 235.121,-33 230.0641,-31.8544 224.7936,-30.5467 219.5742,-29.1803"/>
<polygon fill="#191970" stroke="#191970" points="220.2364,-25.7338 209.6698,-26.5073 218.4124,-32.492 220.2364,-25.7338"/>
</g>
<!-- Node4 -->
<g id="node4" class="node">
<title>Node4</title>
<g id="a_node4"><a xlink:title=" ">
<polygon fill="#ffffff" stroke="#bfbfbf" points="244.508,-6.5 244.508,-26.5 287.734,-26.5 287.734,-6.5 244.508,-6.5"/>
<text text-anchor="middle" x="266.121" y="-13.5" font-family="Helvetica,sans-Serif" font-size="10.00" fill="#000000">vector</text>
</a>
</g>
</g>
<!-- Node1&#45;&gt;Node4 -->
<g id="edge3" class="edge">
<title>Node1&#45;&gt;Node4</title>
<path fill="none" stroke="#191970" d="M501.2742,-82.5118C444.8934,-73.8089 363.6957,-58.1729 296.121,-33 294.6936,-32.4683 293.2514,-31.8777 291.8117,-31.2453"/>
<polygon fill="#191970" stroke="#191970" points="293.0431,-27.9495 282.5286,-26.6477 289.9363,-34.2223 293.0431,-27.9495"/>
</g>
<!-- Node5 -->
<g id="node5" class="node">
<title>Node5</title>
<g id="a_node5"><a xlink:title=" ">
<polygon fill="#ffffff" stroke="#bfbfbf" points="305.381,-6.5 305.381,-26.5 430.861,-26.5 430.861,-6.5 305.381,-6.5"/>
<text text-anchor="middle" x="368.121" y="-13.5" font-family="Helvetica,sans-Serif" font-size="10.00" fill="#000000">dg_interface_construct.h</text>
</a>
</g>
</g>
<!-- Node1&#45;&gt;Node5 -->
<g id="edge4" class="edge">
<title>Node1&#45;&gt;Node5</title>
<path fill="none" stroke="#191970" d="M510.6069,-69.4032C476.312,-56.6699 434.2933,-41.0689 404.8028,-30.1195"/>
<polygon fill="#191970" stroke="#191970" points="405.9041,-26.795 395.3112,-26.5954 403.4676,-33.3573 405.9041,-26.795"/>
</g>
<!-- Node6 -->
<g id="node6" class="node">
<title>Node6</title>
<g id="a_node6"><a xlink:title=" ">
<polygon fill="#ffffff" stroke="#bfbfbf" points="448.8745,-6.5 448.8745,-26.5 579.3675,-26.5 579.3675,-6.5 448.8745,-6.5"/>
<text text-anchor="middle" x="514.121" y="-13.5" font-family="Helvetica,sans-Serif" font-size="10.00" fill="#000000">dg_message_exchange.h</text>
</a>
</g>
</g>
<!-- Node1&#45;&gt;Node6 -->
<g id="edge5" class="edge">
<title>Node1&#45;&gt;Node6</title>
<path fill="none" stroke="#191970" d="M553.622,-69.4032C545.3547,-58.3308 535.4682,-45.09 527.6542,-34.6248"/>
<polygon fill="#191970" stroke="#191970" points="530.4463,-32.5142 521.6589,-26.5954 524.8373,-36.7022 530.4463,-32.5142"/>
</g>
<!-- Node7 -->
<g id="node7" class="node">
<title>Node7</title>
<g id="a_node7"><a xlink:title=" ">
<polygon fill="#ffffff" stroke="#bfbfbf" points="597.5555,-6.5 597.5555,-26.5 654.6865,-26.5 654.6865,-6.5 597.5555,-6.5"/>
<text text-anchor="middle" x="626.121" y="-13.5" font-family="Helvetica,sans-Serif" font-size="10.00" fill="#000000">dg_unit.h</text>
</a>
</g>
</g>
<!-- Node1&#45;&gt;Node7 -->
<g id="edge6" class="edge">
<title>Node1&#45;&gt;Node7</title>
<path fill="none" stroke="#191970" d="M586.62,-69.4032C594.8873,-58.3308 604.7738,-45.09 612.5878,-34.6248"/>
<polygon fill="#191970" stroke="#191970" points="615.4047,-36.7022 618.5831,-26.5954 609.7957,-32.5142 615.4047,-36.7022"/>
</g>
<!-- Node8 -->
<g id="node8" class="node">
<title>Node8</title>
<g id="a_node8"><a xlink:title=" ">
<polygon fill="#ffffff" stroke="#bfbfbf" points="672.3895,-6.5 672.3895,-26.5 777.8525,-26.5 777.8525,-6.5 672.3895,-6.5"/>
<text text-anchor="middle" x="725.121" y="-13.5" font-family="Helvetica,sans-Serif" font-size="10.00" fill="#000000">dg_numerical_flux.h</text>
</a>
</g>
</g>
<!-- Node1&#45;&gt;Node8 -->
<g id="edge7" class="edge">
<title>Node1&#45;&gt;Node8</title>
<path fill="none" stroke="#191970" d="M615.7878,-69.4032C641.4166,-57.0021 672.667,-41.881 695.1838,-30.9857"/>
<polygon fill="#191970" stroke="#191970" points="696.7801,-34.1016 704.2573,-26.5954 693.7312,-27.8005 696.7801,-34.1016"/>
</g>
<!-- Node9 -->
<g id="node9" class="node">
<title>Node9</title>
<g id="a_node9"><a xlink:title=" ">
<polygon fill="#ffffff" stroke="#bfbfbf" points="796.054,-.5 796.054,-32.5 898.188,-32.5 898.188,-.5 796.054,-.5"/>
<text text-anchor="start" x="804.054" y="-19.5" font-family="Helvetica,sans-Serif" font-size="10.00" fill="#000000">dg_a_times_spatial</text>
<text text-anchor="middle" x="847.121" y="-7.5" font-family="Helvetica,sans-Serif" font-size="10.00" fill="#000000">_derivative.h</text>
</a>
</g>
</g>
<!-- Node1&#45;&gt;Node9 -->
<g id="edge8" class="edge">
<title>Node1&#45;&gt;Node9</title>
<path fill="none" stroke="#191970" d="M639.0445,-73.0143C679.2937,-62.1969 731.3237,-48.1756 785.8854,-33.3307"/>
<polygon fill="#191970" stroke="#191970" points="787.0092,-36.6523 795.7387,-30.6484 785.1705,-29.8981 787.0092,-36.6523"/>
</g>
<!-- Node10 -->
<g id="node10" class="node">
<title>Node10</title>
<g id="a_node10"><a xlink:title=" ">
<polygon fill="#ffffff" stroke="#bfbfbf" points="915.9545,-6.5 915.9545,-26.5 970.2875,-26.5 970.2875,-6.5 915.9545,-6.5"/>
<text text-anchor="middle" x="943.121" y="-13.5" font-family="Helvetica,sans-Serif" font-size="10.00" fill="#000000">iostream</text>
</a>
</g>
</g>
<!-- Node1&#45;&gt;Node10 -->
<g id="edge9" class="edge">
<title>Node1&#45;&gt;Node10</title>
<path fill="none" stroke="#191970" d="M639.1147,-84.7926C708.1028,-76.8667 816.6601,-61.0641 907.121,-33 909.5342,-32.2513 911.9964,-31.3776 914.4438,-30.4301"/>
<polygon fill="#191970" stroke="#191970" points="915.8329,-33.6429 923.6751,-26.519 913.102,-27.1975 915.8329,-33.6429"/>
</g>
<!-- Node11 -->
<g id="node11" class="node">
<title>Node11</title>
<g id="a_node11"><a xlink:title=" ">
<polygon fill="#ffffff" stroke="#bfbfbf" points="988.446,-6.5 988.446,-26.5 1057.796,-26.5 1057.796,-6.5 988.446,-6.5"/>
<text text-anchor="middle" x="1023.121" y="-13.5" font-family="Helvetica,sans-Serif" font-size="10.00" fill="#000000">dg_param.h</text>
</a>
</g>
</g>
<!-- Node1&#45;&gt;Node11 -->
<g id="edge10" class="edge">
<title>Node1&#45;&gt;Node11</title>
<path fill="none" stroke="#191970" d="M639.0341,-86.2315C721.0524,-78.9127 861.6791,-63.0403 979.121,-33 982.5444,-32.1243 986.0688,-31.0727 989.5622,-29.9296"/>
<polygon fill="#191970" stroke="#191970" points="990.9418,-33.1547 999.2152,-26.5365 988.6204,-26.5508 990.9418,-33.1547"/>
</g>
</g>
</svg>
