<?xml version="1.0" encoding="UTF-8" standalone="no"?>
<!DOCTYPE svg PUBLIC "-//W3C//DTD SVG 1.1//EN"
 "http://www.w3.org/Graphics/SVG/1.1/DTD/svg11.dtd">
<!-- Generated by graphviz version 2.40.1 (20161225.0304)
 -->
<!-- Title: /home/shiqihe/Documents/amr/code/cpp/src/dg_main.cpp Pages: 1 -->
<svg width="409pt" height="98pt"
 viewBox="0.00 0.00 409.02 98.00" xmlns="http://www.w3.org/2000/svg" xmlns:xlink="http://www.w3.org/1999/xlink">
<g id="graph0" class="graph" transform="scale(1 1) rotate(0) translate(4 94)">
<title>/home/shiqihe/Documents/amr/code/cpp/src/dg_main.cpp</title>
<polygon fill="#ffffff" stroke="transparent" points="-4,4 -4,-94 405.0185,-94 405.0185,4 -4,4"/>
<!-- Node0 -->
<g id="node1" class="node">
<title>Node0</title>
<polygon fill="#bfbfbf" stroke="#000000" points="81.4285,-57.5 81.4285,-89.5 236.9045,-89.5 236.9045,-57.5 81.4285,-57.5"/>
<text text-anchor="start" x="89.4285" y="-76.5" font-family="Helvetica,sans-Serif" font-size="10.00" fill="#000000">/home/shiqihe/Documents</text>
<text text-anchor="middle" x="159.1665" y="-64.5" font-family="Helvetica,sans-Serif" font-size="10.00" fill="#000000">/amr/code/cpp/src/dg_main.cpp</text>
</g>
<!-- Node1 -->
<g id="node2" class="node">
<title>Node1</title>
<polygon fill="#ffffff" stroke="#bfbfbf" points="0,-.5 0,-20.5 54.333,-20.5 54.333,-.5 0,-.5"/>
<text text-anchor="middle" x="27.1665" y="-7.5" font-family="Helvetica,sans-Serif" font-size="10.00" fill="#000000">iostream</text>
</g>
<!-- Node0&#45;&gt;Node1 -->
<g id="edge1" class="edge">
<title>Node0&#45;&gt;Node1</title>
<path fill="none" stroke="#191970" d="M125.5158,-57.4394C104.5468,-47.4315 77.7898,-34.6611 57.48,-24.9678"/>
<polygon fill="#191970" stroke="#191970" points="58.8967,-21.7658 48.3643,-20.6171 55.8815,-28.0832 58.8967,-21.7658"/>
</g>
<!-- Node2 -->
<g id="node3" class="node">
<title>Node2</title>
<polygon fill="#ffffff" stroke="#bfbfbf" points="71.944,-.5 71.944,-20.5 112.389,-20.5 112.389,-.5 71.944,-.5"/>
<text text-anchor="middle" x="92.1665" y="-7.5" font-family="Helvetica,sans-Serif" font-size="10.00" fill="#000000">mpi.h</text>
</g>
<!-- Node0&#45;&gt;Node2 -->
<g id="edge2" class="edge">
<title>Node0&#45;&gt;Node2</title>
<path fill="none" stroke="#191970" d="M141.9123,-57.2759C132.2446,-48.1854 120.1951,-36.8552 110.3765,-27.6229"/>
<polygon fill="#191970" stroke="#191970" points="112.7515,-25.0517 103.0686,-20.7513 107.9563,-30.1514 112.7515,-25.0517"/>
</g>
<!-- Node3 -->
<g id="node4" class="node">
<title>Node3</title>
<polygon fill="#ffffff" stroke="#bfbfbf" points="130.6055,-.5 130.6055,-20.5 187.7275,-20.5 187.7275,-.5 130.6055,-.5"/>
<text text-anchor="middle" x="159.1665" y="-7.5" font-family="Helvetica,sans-Serif" font-size="10.00" fill="#000000">dg_mpi.h</text>
</g>
<!-- Node0&#45;&gt;Node3 -->
<g id="edge3" class="edge">
<title>Node0&#45;&gt;Node3</title>
<path fill="none" stroke="#191970" d="M159.1665,-57.2759C159.1665,-49.2654 159.1665,-39.5159 159.1665,-30.9952"/>
<polygon fill="#191970" stroke="#191970" points="162.6666,-30.7512 159.1665,-20.7513 155.6666,-30.7513 162.6666,-30.7512"/>
</g>
<!-- Node4 -->
<g id="node5" class="node">
<title>Node4</title>
<polygon fill="#ffffff" stroke="#bfbfbf" points="205.4915,-.5 205.4915,-20.5 274.8415,-20.5 274.8415,-.5 205.4915,-.5"/>
<text text-anchor="middle" x="240.1665" y="-7.5" font-family="Helvetica,sans-Serif" font-size="10.00" fill="#000000">dg_param.h</text>
</g>
<!-- Node0&#45;&gt;Node4 -->
<g id="edge4" class="edge">
<title>Node0&#45;&gt;Node4</title>
<path fill="none" stroke="#191970" d="M180.026,-57.2759C191.9453,-48.0054 206.8592,-36.4056 218.8533,-27.0769"/>
<polygon fill="#191970" stroke="#191970" points="221.2416,-29.6535 226.9863,-20.7513 216.9439,-24.128 221.2416,-29.6535"/>
</g>
<!-- Node5 -->
<g id="node6" class="node">
<title>Node5</title>
<polygon fill="#ffffff" stroke="#bfbfbf" points="293.3145,-.5 293.3145,-20.5 401.0185,-20.5 401.0185,-.5 293.3145,-.5"/>
<text text-anchor="middle" x="347.1665" y="-7.5" font-family="Helvetica,sans-Serif" font-size="10.00" fill="#000000">dg_read_mesh_2d.h</text>
</g>
<!-- Node0&#45;&gt;Node5 -->
<g id="edge5" class="edge">
<title>Node0&#45;&gt;Node5</title>
<path fill="none" stroke="#191970" d="M207.0933,-57.4394C238.2722,-46.9912 278.4359,-33.5321 307.7558,-23.7068"/>
<polygon fill="#191970" stroke="#191970" points="308.8851,-27.0197 317.2548,-20.5236 306.6609,-20.3825 308.8851,-27.0197"/>
</g>
</g>
</svg>
