<?xml version="1.0" encoding="UTF-8" standalone="no"?>
<!DOCTYPE svg PUBLIC "-//W3C//DTD SVG 1.1//EN"
 "http://www.w3.org/Graphics/SVG/1.1/DTD/svg11.dtd">
<!-- Generated by graphviz version 2.40.1 (20161225.0304)
 -->
<!-- Title: /home/shiqi/Documents/thesis/new/DG_wave_c/src/dg_write_mpi_table.cpp Pages: 1 -->
<svg width="836pt" height="110pt"
 viewBox="0.00 0.00 836.39 110.00" xmlns="http://www.w3.org/2000/svg" xmlns:xlink="http://www.w3.org/1999/xlink">
<g id="graph0" class="graph" transform="scale(1 1) rotate(0) translate(4 106)">
<title>/home/shiqi/Documents/thesis/new/DG_wave_c/src/dg_write_mpi_table.cpp</title>
<polygon fill="#ffffff" stroke="transparent" points="-4,4 -4,-106 832.389,-106 832.389,4 -4,4"/>
<!-- Node1 -->
<g id="node1" class="node">
<title>Node1</title>
<g id="a_node1"><a xlink:title=" ">
<polygon fill="#bfbfbf" stroke="#000000" points="355.9335,-57.5 355.9335,-101.5 496.3995,-101.5 496.3995,-57.5 355.9335,-57.5"/>
<text text-anchor="start" x="363.9335" y="-88.5" font-family="Helvetica,sans-Serif" font-size="10.00" fill="#000000">/home/shiqi/Documents</text>
<text text-anchor="start" x="363.9335" y="-76.5" font-family="Helvetica,sans-Serif" font-size="10.00" fill="#000000">/thesis/new/DG_wave_c</text>
<text text-anchor="middle" x="426.1665" y="-64.5" font-family="Helvetica,sans-Serif" font-size="10.00" fill="#000000">/src/dg_write_mpi_table.cpp</text>
</a>
</g>
</g>
<!-- Node2 -->
<g id="node2" class="node">
<title>Node2</title>
<g id="a_node2"><a xlink:title=" ">
<polygon fill="#ffffff" stroke="#bfbfbf" points="0,-.5 0,-20.5 54.333,-20.5 54.333,-.5 0,-.5"/>
<text text-anchor="middle" x="27.1665" y="-7.5" font-family="Helvetica,sans-Serif" font-size="10.00" fill="#000000">iostream</text>
</a>
</g>
</g>
<!-- Node1&#45;&gt;Node2 -->
<g id="edge1" class="edge">
<title>Node1&#45;&gt;Node2</title>
<path fill="none" stroke="#191970" d="M355.7448,-70.7863C284.4719,-61.3721 171.0139,-44.7571 64.5422,-21.1145"/>
<polygon fill="#191970" stroke="#191970" points="65.1164,-17.6563 54.5925,-18.8797 63.5823,-24.4862 65.1164,-17.6563"/>
</g>
<!-- Node3 -->
<g id="node3" class="node">
<title>Node3</title>
<g id="a_node3"><a xlink:title=" ">
<polygon fill="#ffffff" stroke="#bfbfbf" points="72.5535,-.5 72.5535,-20.5 115.7795,-20.5 115.7795,-.5 72.5535,-.5"/>
<text text-anchor="middle" x="94.1665" y="-7.5" font-family="Helvetica,sans-Serif" font-size="10.00" fill="#000000">vector</text>
</a>
</g>
</g>
<!-- Node1&#45;&gt;Node3 -->
<g id="edge2" class="edge">
<title>Node1&#45;&gt;Node3</title>
<path fill="none" stroke="#191970" d="M355.9197,-68.6012C296.8057,-58.8015 209.9835,-42.9424 125.7913,-20.902"/>
<polygon fill="#191970" stroke="#191970" points="126.6335,-17.5044 116.0706,-18.3261 124.8404,-24.2709 126.6335,-17.5044"/>
</g>
<!-- Node4 -->
<g id="node4" class="node">
<title>Node4</title>
<g id="a_node4"><a xlink:title=" ">
<polygon fill="#ffffff" stroke="#bfbfbf" points="133.878,-.5 133.878,-20.5 220.455,-20.5 220.455,-.5 133.878,-.5"/>
<text text-anchor="middle" x="177.1665" y="-7.5" font-family="Helvetica,sans-Serif" font-size="10.00" fill="#000000">unordered_map</text>
</a>
</g>
</g>
<!-- Node1&#45;&gt;Node4 -->
<g id="edge3" class="edge">
<title>Node1&#45;&gt;Node4</title>
<path fill="none" stroke="#191970" d="M355.8115,-60.004C313.4834,-48.2746 260.7851,-33.6714 223.6272,-23.3747"/>
<polygon fill="#191970" stroke="#191970" points="224.152,-19.8882 213.5805,-20.5906 222.2826,-26.634 224.152,-19.8882"/>
</g>
<!-- Node5 -->
<g id="node5" class="node">
<title>Node5</title>
<g id="a_node5"><a xlink:title=" ">
<polygon fill="#ffffff" stroke="#bfbfbf" points="238.2005,-.5 238.2005,-20.5 348.1325,-20.5 348.1325,-.5 238.2005,-.5"/>
<text text-anchor="middle" x="293.1665" y="-7.5" font-family="Helvetica,sans-Serif" font-size="10.00" fill="#000000">dg_boundary_table.h</text>
</a>
</g>
</g>
<!-- Node1&#45;&gt;Node5 -->
<g id="edge4" class="edge">
<title>Node1&#45;&gt;Node5</title>
<path fill="none" stroke="#191970" d="M383.7188,-57.4783C363.3912,-46.9323 339.5982,-34.5886 321.5036,-25.2012"/>
<polygon fill="#191970" stroke="#191970" points="323.0976,-22.0852 312.6093,-20.5869 319.874,-28.2988 323.0976,-22.0852"/>
</g>
<!-- Node6 -->
<g id="node6" class="node">
<title>Node6</title>
<g id="a_node6"><a xlink:title=" ">
<polygon fill="#ffffff" stroke="#bfbfbf" points="366.389,-.5 366.389,-20.5 417.944,-20.5 417.944,-.5 366.389,-.5"/>
<text text-anchor="middle" x="392.1665" y="-7.5" font-family="Helvetica,sans-Serif" font-size="10.00" fill="#000000">sstream</text>
</a>
</g>
</g>
<!-- Node1&#45;&gt;Node6 -->
<g id="edge5" class="edge">
<title>Node1&#45;&gt;Node6</title>
<path fill="none" stroke="#191970" d="M415.2215,-57.2882C410.8682,-48.4535 405.9056,-38.3823 401.7025,-29.8525"/>
<polygon fill="#191970" stroke="#191970" points="404.759,-28.1368 397.1993,-20.7137 398.4799,-31.2308 404.759,-28.1368"/>
</g>
<!-- Node7 -->
<g id="node7" class="node">
<title>Node7</title>
<g id="a_node7"><a xlink:title=" ">
<polygon fill="#ffffff" stroke="#bfbfbf" points="435.4995,-.5 435.4995,-20.5 484.8335,-20.5 484.8335,-.5 435.4995,-.5"/>
<text text-anchor="middle" x="460.1665" y="-7.5" font-family="Helvetica,sans-Serif" font-size="10.00" fill="#000000">fstream</text>
</a>
</g>
</g>
<!-- Node1&#45;&gt;Node7 -->
<g id="edge6" class="edge">
<title>Node1&#45;&gt;Node7</title>
<path fill="none" stroke="#191970" d="M437.1115,-57.2882C441.4648,-48.4535 446.4274,-38.3823 450.6305,-29.8525"/>
<polygon fill="#191970" stroke="#191970" points="453.8531,-31.2308 455.1337,-20.7137 447.574,-28.1368 453.8531,-31.2308"/>
</g>
<!-- Node8 -->
<g id="node8" class="node">
<title>Node8</title>
<g id="a_node8"><a xlink:title=" ">
<polygon fill="#ffffff" stroke="#bfbfbf" points="502.665,-.5 502.665,-20.5 553.668,-20.5 553.668,-.5 502.665,-.5"/>
<text text-anchor="middle" x="528.1665" y="-7.5" font-family="Helvetica,sans-Serif" font-size="10.00" fill="#000000">iomanip</text>
</a>
</g>
</g>
<!-- Node1&#45;&gt;Node8 -->
<g id="edge7" class="edge">
<title>Node1&#45;&gt;Node8</title>
<path fill="none" stroke="#191970" d="M458.7204,-57.4783C473.7379,-47.3194 491.2216,-35.4922 504.8892,-26.2464"/>
<polygon fill="#191970" stroke="#191970" points="506.9337,-29.089 513.2555,-20.5869 503.0115,-23.291 506.9337,-29.089"/>
</g>
<!-- Node9 -->
<g id="node9" class="node">
<title>Node9</title>
<g id="a_node9"><a xlink:title=" ">
<polygon fill="#ffffff" stroke="#bfbfbf" points="571.6565,-.5 571.6565,-20.5 682.6765,-20.5 682.6765,-.5 571.6565,-.5"/>
<text text-anchor="middle" x="627.1665" y="-7.5" font-family="Helvetica,sans-Serif" font-size="10.00" fill="#000000">dg_write_mpi_table.h</text>
</a>
</g>
</g>
<!-- Node1&#45;&gt;Node9 -->
<g id="edge8" class="edge">
<title>Node1&#45;&gt;Node9</title>
<path fill="none" stroke="#191970" d="M490.3168,-57.4783C522.4467,-46.4486 560.3052,-33.4524 588.0487,-23.9285"/>
<polygon fill="#191970" stroke="#191970" points="589.4612,-27.1442 597.783,-20.5869 587.1884,-20.5234 589.4612,-27.1442"/>
</g>
<!-- Node10 -->
<g id="node10" class="node">
<title>Node10</title>
<g id="a_node10"><a xlink:title=" ">
<polygon fill="#ffffff" stroke="#bfbfbf" points="700.4915,-.5 700.4915,-20.5 769.8415,-20.5 769.8415,-.5 700.4915,-.5"/>
<text text-anchor="middle" x="735.1665" y="-7.5" font-family="Helvetica,sans-Serif" font-size="10.00" fill="#000000">dg_param.h</text>
</a>
</g>
</g>
<!-- Node1&#45;&gt;Node10 -->
<g id="edge9" class="edge">
<title>Node1&#45;&gt;Node10</title>
<path fill="none" stroke="#191970" d="M496.5524,-64.4824C547.8182,-53.4374 619.1955,-37.84 690.4044,-21.3783"/>
<polygon fill="#191970" stroke="#191970" points="691.4976,-24.7178 700.4491,-19.0501 689.917,-17.8986 691.4976,-24.7178"/>
</g>
<!-- Node11 -->
<g id="node11" class="node">
<title>Node11</title>
<g id="a_node11"><a xlink:title=" ">
<polygon fill="#ffffff" stroke="#bfbfbf" points="787.944,-.5 787.944,-20.5 828.389,-20.5 828.389,-.5 787.944,-.5"/>
<text text-anchor="middle" x="808.1665" y="-7.5" font-family="Helvetica,sans-Serif" font-size="10.00" fill="#000000">mpi.h</text>
</a>
</g>
</g>
<!-- Node1&#45;&gt;Node11 -->
<g id="edge10" class="edge">
<title>Node1&#45;&gt;Node11</title>
<path fill="none" stroke="#191970" d="M496.6185,-71.6831C566.2006,-63.0939 675.6075,-47.257 777.848,-21.0024"/>
<polygon fill="#191970" stroke="#191970" points="778.9248,-24.3387 787.7183,-18.429 777.1587,-17.5651 778.9248,-24.3387"/>
</g>
</g>
</svg>
