<?xml version="1.0" encoding="UTF-8" standalone="no"?>
<!DOCTYPE svg PUBLIC "-//W3C//DTD SVG 1.1//EN"
 "http://www.w3.org/Graphics/SVG/1.1/DTD/svg11.dtd">
<!-- Generated by graphviz version 2.40.1 (20161225.0304)
 -->
<!-- Title: /home/shiqi/Documents/thesis/new/DG_wave_c/src/dg_mortar_construction.cpp Pages: 1 -->
<svg width="965pt" height="122pt"
 viewBox="0.00 0.00 964.73 122.00" xmlns="http://www.w3.org/2000/svg" xmlns:xlink="http://www.w3.org/1999/xlink">
<g id="graph0" class="graph" transform="scale(1 1) rotate(0) translate(4 118)">
<title>/home/shiqi/Documents/thesis/new/DG_wave_c/src/dg_mortar_construction.cpp</title>
<polygon fill="#ffffff" stroke="transparent" points="-4,4 -4,-118 960.732,-118 960.732,4 -4,4"/>
<!-- Node1 -->
<g id="node1" class="node">
<title>Node1</title>
<g id="a_node1"><a xlink:title=" ">
<polygon fill="#bfbfbf" stroke="#000000" points="359.163,-69.5 359.163,-113.5 517.968,-113.5 517.968,-69.5 359.163,-69.5"/>
<text text-anchor="start" x="367.163" y="-100.5" font-family="Helvetica,sans-Serif" font-size="10.00" fill="#000000">/home/shiqi/Documents</text>
<text text-anchor="start" x="367.163" y="-88.5" font-family="Helvetica,sans-Serif" font-size="10.00" fill="#000000">/thesis/new/DG_wave_c</text>
<text text-anchor="middle" x="438.5655" y="-76.5" font-family="Helvetica,sans-Serif" font-size="10.00" fill="#000000">/src/dg_mortar_construction.cpp</text>
</a>
</g>
</g>
<!-- Node2 -->
<g id="node2" class="node">
<title>Node2</title>
<g id="a_node2"><a xlink:title=" ">
<polygon fill="#ffffff" stroke="#bfbfbf" points="0,-6.5 0,-26.5 57.131,-26.5 57.131,-6.5 0,-6.5"/>
<text text-anchor="middle" x="28.5655" y="-13.5" font-family="Helvetica,sans-Serif" font-size="10.00" fill="#000000">dg_unit.h</text>
</a>
</g>
</g>
<!-- Node1&#45;&gt;Node2 -->
<g id="edge1" class="edge">
<title>Node1&#45;&gt;Node2</title>
<path fill="none" stroke="#191970" d="M359.003,-85.1495C282.5595,-77.6232 164.4093,-62.2298 65.5655,-33 63.0868,-32.267 60.5573,-31.4044 58.0426,-30.4646"/>
<polygon fill="#191970" stroke="#191970" points="59.1362,-27.1301 48.5563,-26.5675 56.4762,-33.605 59.1362,-27.1301"/>
</g>
<!-- Node3 -->
<g id="node3" class="node">
<title>Node3</title>
<g id="a_node3"><a xlink:title=" ">
<polygon fill="#ffffff" stroke="#bfbfbf" points="74.886,-6.5 74.886,-26.5 204.245,-26.5 204.245,-6.5 74.886,-6.5"/>
<text text-anchor="middle" x="139.5655" y="-13.5" font-family="Helvetica,sans-Serif" font-size="10.00" fill="#000000">dg_mortar_construction.h</text>
</a>
</g>
</g>
<!-- Node1&#45;&gt;Node3 -->
<g id="edge2" class="edge">
<title>Node1&#45;&gt;Node3</title>
<path fill="none" stroke="#191970" d="M358.8318,-71.4999C305.0007,-57.9971 235.6131,-40.5922 189.461,-29.0156"/>
<polygon fill="#191970" stroke="#191970" points="190.2434,-25.6035 179.6923,-26.5653 188.5403,-32.3932 190.2434,-25.6035"/>
</g>
<!-- Node4 -->
<g id="node4" class="node">
<title>Node4</title>
<g id="a_node4"><a xlink:title=" ">
<polygon fill="#ffffff" stroke="#bfbfbf" points="221.9525,-6.5 221.9525,-26.5 265.1785,-26.5 265.1785,-6.5 221.9525,-6.5"/>
<text text-anchor="middle" x="243.5655" y="-13.5" font-family="Helvetica,sans-Serif" font-size="10.00" fill="#000000">vector</text>
</a>
</g>
</g>
<!-- Node1&#45;&gt;Node4 -->
<g id="edge3" class="edge">
<title>Node1&#45;&gt;Node4</title>
<path fill="none" stroke="#191970" d="M368.5411,-69.4758C338.8214,-59.4123 304.0678,-46.6867 273.5655,-33 272.3758,-32.4662 271.1697,-31.9027 269.9587,-31.3185"/>
<polygon fill="#191970" stroke="#191970" points="271.2648,-28.0542 260.7723,-26.5852 268.0586,-34.2768 271.2648,-28.0542"/>
</g>
<!-- Node5 -->
<g id="node5" class="node">
<title>Node5</title>
<g id="a_node5"><a xlink:title=" ">
<polygon fill="#ffffff" stroke="#bfbfbf" points="282.8905,-6.5 282.8905,-26.5 352.2405,-26.5 352.2405,-6.5 282.8905,-6.5"/>
<text text-anchor="middle" x="317.5655" y="-13.5" font-family="Helvetica,sans-Serif" font-size="10.00" fill="#000000">dg_param.h</text>
</a>
</g>
</g>
<!-- Node1&#45;&gt;Node5 -->
<g id="edge4" class="edge">
<title>Node1&#45;&gt;Node5</title>
<path fill="none" stroke="#191970" d="M402.916,-69.4032C383.4448,-57.3343 359.8172,-42.6891 342.3628,-31.8702"/>
<polygon fill="#191970" stroke="#191970" points="344.1963,-28.8889 333.8527,-26.5954 340.5084,-34.8387 344.1963,-28.8889"/>
</g>
<!-- Node6 -->
<g id="node6" class="node">
<title>Node6</title>
<g id="a_node6"><a xlink:title=" ">
<polygon fill="#ffffff" stroke="#bfbfbf" points="370.3895,-6.5 370.3895,-26.5 434.7415,-26.5 434.7415,-6.5 370.3895,-6.5"/>
<text text-anchor="middle" x="402.5655" y="-13.5" font-family="Helvetica,sans-Serif" font-size="10.00" fill="#000000">dg_basis.h</text>
</a>
</g>
</g>
<!-- Node1&#45;&gt;Node6 -->
<g id="edge5" class="edge">
<title>Node1&#45;&gt;Node6</title>
<path fill="none" stroke="#191970" d="M427.959,-69.4032C422.8569,-58.7737 416.7955,-46.1458 411.8744,-35.8936"/>
<polygon fill="#191970" stroke="#191970" points="414.894,-34.096 407.4113,-26.5954 408.5833,-37.1252 414.894,-34.096"/>
</g>
<!-- Node7 -->
<g id="node7" class="node">
<title>Node7</title>
<g id="a_node7"><a xlink:title=" ">
<polygon fill="#ffffff" stroke="#bfbfbf" points="452.9525,-6.5 452.9525,-26.5 496.1785,-26.5 496.1785,-6.5 452.9525,-6.5"/>
<text text-anchor="middle" x="474.5655" y="-13.5" font-family="Helvetica,sans-Serif" font-size="10.00" fill="#000000">cmath</text>
</a>
</g>
</g>
<!-- Node1&#45;&gt;Node7 -->
<g id="edge6" class="edge">
<title>Node1&#45;&gt;Node7</title>
<path fill="none" stroke="#191970" d="M449.172,-69.4032C454.2741,-58.7737 460.3355,-46.1458 465.2566,-35.8936"/>
<polygon fill="#191970" stroke="#191970" points="468.5477,-37.1252 469.7197,-26.5954 462.237,-34.096 468.5477,-37.1252"/>
</g>
<!-- Node8 -->
<g id="node8" class="node">
<title>Node8</title>
<g id="a_node8"><a xlink:title=" ">
<polygon fill="#ffffff" stroke="#bfbfbf" points="514.0405,-6.5 514.0405,-26.5 635.0905,-26.5 635.0905,-6.5 514.0405,-6.5"/>
<text text-anchor="middle" x="574.5655" y="-13.5" font-family="Helvetica,sans-Serif" font-size="10.00" fill="#000000">dg_nodal_2d_storage.h</text>
</a>
</g>
</g>
<!-- Node1&#45;&gt;Node8 -->
<g id="edge7" class="edge">
<title>Node1&#45;&gt;Node8</title>
<path fill="none" stroke="#191970" d="M478.6344,-69.4032C500.8205,-57.1682 527.8078,-42.2855 547.5001,-31.4258"/>
<polygon fill="#191970" stroke="#191970" points="549.1927,-34.4893 556.2593,-26.5954 545.8123,-28.3596 549.1927,-34.4893"/>
</g>
<!-- Node9 -->
<g id="node9" class="node">
<title>Node9</title>
<g id="a_node9"><a xlink:title=" ">
<polygon fill="#ffffff" stroke="#bfbfbf" points="652.991,-.5 652.991,-32.5 770.14,-32.5 770.14,-.5 652.991,-.5"/>
<text text-anchor="start" x="660.991" y="-19.5" font-family="Helvetica,sans-Serif" font-size="10.00" fill="#000000">dg_interpolate_to_new</text>
<text text-anchor="middle" x="711.5655" y="-7.5" font-family="Helvetica,sans-Serif" font-size="10.00" fill="#000000">_points.h</text>
</a>
</g>
</g>
<!-- Node1&#45;&gt;Node9 -->
<g id="edge8" class="edge">
<title>Node1&#45;&gt;Node9</title>
<path fill="none" stroke="#191970" d="M518.2623,-69.6053C557.8476,-58.7302 605.1903,-45.724 643.1154,-35.305"/>
<polygon fill="#191970" stroke="#191970" points="644.3291,-38.6013 653.0447,-32.5772 642.4747,-31.8514 644.3291,-38.6013"/>
</g>
<!-- Node10 -->
<g id="node10" class="node">
<title>Node10</title>
<g id="a_node10"><a xlink:title=" ">
<polygon fill="#ffffff" stroke="#bfbfbf" points="788.273,-6.5 788.273,-26.5 884.858,-26.5 884.858,-6.5 788.273,-6.5"/>
<text text-anchor="middle" x="836.5655" y="-13.5" font-family="Helvetica,sans-Serif" font-size="10.00" fill="#000000">dg_single_index.h</text>
</a>
</g>
</g>
<!-- Node1&#45;&gt;Node10 -->
<g id="edge9" class="edge">
<title>Node1&#45;&gt;Node10</title>
<path fill="none" stroke="#191970" d="M518.304,-80.4009C587.7325,-70.1239 690.8759,-53.3769 779.5655,-33 784.3347,-31.9042 789.2965,-30.6471 794.2152,-29.3261"/>
<polygon fill="#191970" stroke="#191970" points="795.4788,-32.6076 804.1754,-26.5563 793.6033,-25.8635 795.4788,-32.6076"/>
</g>
<!-- Node11 -->
<g id="node11" class="node">
<title>Node11</title>
<g id="a_node11"><a xlink:title=" ">
<polygon fill="#ffffff" stroke="#bfbfbf" points="902.399,-6.5 902.399,-26.5 956.732,-26.5 956.732,-6.5 902.399,-6.5"/>
<text text-anchor="middle" x="929.5655" y="-13.5" font-family="Helvetica,sans-Serif" font-size="10.00" fill="#000000">iostream</text>
</a>
</g>
</g>
<!-- Node1&#45;&gt;Node11 -->
<g id="edge10" class="edge">
<title>Node1&#45;&gt;Node11</title>
<path fill="none" stroke="#191970" d="M518.1187,-88.5232C610.1046,-83.4289 765.3147,-69.7147 893.5655,-33 896.0524,-32.2881 898.5859,-31.429 901.0986,-30.4814"/>
<polygon fill="#191970" stroke="#191970" points="902.681,-33.613 910.5441,-26.512 899.9691,-27.1596 902.681,-33.613"/>
</g>
</g>
</svg>
