<?xml version="1.0" encoding="UTF-8" standalone="no"?>
<!DOCTYPE svg PUBLIC "-//W3C//DTD SVG 1.1//EN"
 "http://www.w3.org/Graphics/SVG/1.1/DTD/svg11.dtd">
<!-- Generated by graphviz version 2.40.1 (20161225.0304)
 -->
<!-- Title: /home/shiqi/Documents/thesis/new/DG_wave_c/src/dg_distribute_elements.cpp Pages: 1 -->
<svg width="874pt" height="110pt"
 viewBox="0.00 0.00 874.39 110.00" xmlns="http://www.w3.org/2000/svg" xmlns:xlink="http://www.w3.org/1999/xlink">
<g id="graph0" class="graph" transform="scale(1 1) rotate(0) translate(4 106)">
<title>/home/shiqi/Documents/thesis/new/DG_wave_c/src/dg_distribute_elements.cpp</title>
<polygon fill="#ffffff" stroke="transparent" points="-4,4 -4,-106 870.389,-106 870.389,4 -4,4"/>
<!-- Node1 -->
<g id="node1" class="node">
<title>Node1</title>
<g id="a_node1"><a xlink:title=" ">
<polygon fill="#bfbfbf" stroke="#000000" points="397.6505,-57.5 397.6505,-101.5 554.7945,-101.5 554.7945,-57.5 397.6505,-57.5"/>
<text text-anchor="start" x="405.6505" y="-88.5" font-family="Helvetica,sans-Serif" font-size="10.00" fill="#000000">/home/shiqi/Documents</text>
<text text-anchor="start" x="405.6505" y="-76.5" font-family="Helvetica,sans-Serif" font-size="10.00" fill="#000000">/thesis/new/DG_wave_c</text>
<text text-anchor="middle" x="476.2225" y="-64.5" font-family="Helvetica,sans-Serif" font-size="10.00" fill="#000000">/src/dg_distribute_elements.cpp</text>
</a>
</g>
</g>
<!-- Node2 -->
<g id="node2" class="node">
<title>Node2</title>
<g id="a_node2"><a xlink:title=" ">
<polygon fill="#ffffff" stroke="#bfbfbf" points="0,-.5 0,-20.5 40.445,-20.5 40.445,-.5 0,-.5"/>
<text text-anchor="middle" x="20.2225" y="-7.5" font-family="Helvetica,sans-Serif" font-size="10.00" fill="#000000">mpi.h</text>
</a>
</g>
</g>
<!-- Node1&#45;&gt;Node2 -->
<g id="edge1" class="edge">
<title>Node1&#45;&gt;Node2</title>
<path fill="none" stroke="#191970" d="M397.3695,-73.7163C313.1559,-66.4114 175.9156,-51.2641 50.4341,-20.9062"/>
<polygon fill="#191970" stroke="#191970" points="51.1984,-17.4899 40.6521,-18.5024 49.5279,-24.2877 51.1984,-17.4899"/>
</g>
<!-- Node3 -->
<g id="node3" class="node">
<title>Node3</title>
<g id="a_node3"><a xlink:title=" ">
<polygon fill="#ffffff" stroke="#bfbfbf" points="58.667,-.5 58.667,-20.5 115.778,-20.5 115.778,-.5 58.667,-.5"/>
<text text-anchor="middle" x="87.2225" y="-7.5" font-family="Helvetica,sans-Serif" font-size="10.00" fill="#000000">algorithm</text>
</a>
</g>
</g>
<!-- Node1&#45;&gt;Node3 -->
<g id="edge2" class="edge">
<title>Node1&#45;&gt;Node3</title>
<path fill="none" stroke="#191970" d="M397.4448,-68.9816C328.0938,-59.1329 224.2656,-42.9596 125.6569,-21.1553"/>
<polygon fill="#191970" stroke="#191970" points="126.3475,-17.7234 115.8249,-18.9584 124.8209,-24.5549 126.3475,-17.7234"/>
</g>
<!-- Node4 -->
<g id="node4" class="node">
<title>Node4</title>
<g id="a_node4"><a xlink:title=" ">
<polygon fill="#ffffff" stroke="#bfbfbf" points="133.5475,-.5 133.5475,-20.5 202.8975,-20.5 202.8975,-.5 133.5475,-.5"/>
<text text-anchor="middle" x="168.2225" y="-7.5" font-family="Helvetica,sans-Serif" font-size="10.00" fill="#000000">dg_param.h</text>
</a>
</g>
</g>
<!-- Node1&#45;&gt;Node4 -->
<g id="edge3" class="edge">
<title>Node1&#45;&gt;Node4</title>
<path fill="none" stroke="#191970" d="M397.5597,-62.6144C347.2583,-51.7046 280.3687,-36.9902 212.8976,-21.3602"/>
<polygon fill="#191970" stroke="#191970" points="213.473,-17.9007 202.9405,-19.0478 211.8895,-24.7193 213.473,-17.9007"/>
</g>
<!-- Node5 -->
<g id="node5" class="node">
<title>Node5</title>
<g id="a_node5"><a xlink:title=" ">
<polygon fill="#ffffff" stroke="#bfbfbf" points="220.6975,-.5 220.6975,-20.5 341.7475,-20.5 341.7475,-.5 220.6975,-.5"/>
<text text-anchor="middle" x="281.2225" y="-7.5" font-family="Helvetica,sans-Serif" font-size="10.00" fill="#000000">dg_nodal_2d_storage.h</text>
</a>
</g>
</g>
<!-- Node1&#45;&gt;Node5 -->
<g id="edge4" class="edge">
<title>Node1&#45;&gt;Node5</title>
<path fill="none" stroke="#191970" d="M413.9871,-57.4783C382.8163,-46.4486 346.088,-33.4524 319.1726,-23.9285"/>
<polygon fill="#191970" stroke="#191970" points="320.3236,-20.6232 309.7288,-20.5869 317.9885,-27.2222 320.3236,-20.6232"/>
</g>
<!-- Node6 -->
<g id="node6" class="node">
<title>Node6</title>
<g id="a_node6"><a xlink:title=" ">
<polygon fill="#ffffff" stroke="#bfbfbf" points="359.9855,-.5 359.9855,-20.5 460.4595,-20.5 460.4595,-.5 359.9855,-.5"/>
<text text-anchor="middle" x="410.2225" y="-7.5" font-family="Helvetica,sans-Serif" font-size="10.00" fill="#000000">dg_local_storage.h</text>
</a>
</g>
</g>
<!-- Node1&#45;&gt;Node6 -->
<g id="edge5" class="edge">
<title>Node1&#45;&gt;Node6</title>
<path fill="none" stroke="#191970" d="M454.9764,-57.2882C445.9748,-47.8774 435.631,-37.0634 427.1568,-28.204"/>
<polygon fill="#191970" stroke="#191970" points="429.4336,-25.5208 419.9921,-20.7137 424.3751,-30.3594 429.4336,-25.5208"/>
</g>
<!-- Node7 -->
<g id="node7" class="node">
<title>Node7</title>
<g id="a_node7"><a xlink:title=" ">
<polygon fill="#ffffff" stroke="#bfbfbf" points="478.3735,-.5 478.3735,-20.5 606.0715,-20.5 606.0715,-.5 478.3735,-.5"/>
<text text-anchor="middle" x="542.2225" y="-7.5" font-family="Helvetica,sans-Serif" font-size="10.00" fill="#000000">dg_distribute_elements.h</text>
</a>
</g>
</g>
<!-- Node1&#45;&gt;Node7 -->
<g id="edge6" class="edge">
<title>Node1&#45;&gt;Node7</title>
<path fill="none" stroke="#191970" d="M497.4686,-57.2882C506.4702,-47.8774 516.814,-37.0634 525.2882,-28.204"/>
<polygon fill="#191970" stroke="#191970" points="528.0699,-30.3594 532.4529,-20.7137 523.0114,-25.5208 528.0699,-30.3594"/>
</g>
<!-- Node8 -->
<g id="node8" class="node">
<title>Node8</title>
<g id="a_node8"><a xlink:title=" ">
<polygon fill="#ffffff" stroke="#bfbfbf" points="623.6095,-.5 623.6095,-20.5 666.8355,-20.5 666.8355,-.5 623.6095,-.5"/>
<text text-anchor="middle" x="645.2225" y="-7.5" font-family="Helvetica,sans-Serif" font-size="10.00" fill="#000000">cmath</text>
</a>
</g>
</g>
<!-- Node1&#45;&gt;Node8 -->
<g id="edge7" class="edge">
<title>Node1&#45;&gt;Node8</title>
<path fill="none" stroke="#191970" d="M530.1598,-57.4783C557.8839,-46.159 590.6809,-32.7685 614.1523,-23.1855"/>
<polygon fill="#191970" stroke="#191970" points="615.6634,-26.3491 623.5985,-19.3287 613.0174,-19.8684 615.6634,-26.3491"/>
</g>
<!-- Node9 -->
<g id="node9" class="node">
<title>Node9</title>
<g id="a_node9"><a xlink:title=" ">
<polygon fill="#ffffff" stroke="#bfbfbf" points="684.6095,-.5 684.6095,-20.5 727.8355,-20.5 727.8355,-.5 684.6095,-.5"/>
<text text-anchor="middle" x="706.2225" y="-7.5" font-family="Helvetica,sans-Serif" font-size="10.00" fill="#000000">vector</text>
</a>
</g>
</g>
<!-- Node1&#45;&gt;Node9 -->
<g id="edge8" class="edge">
<title>Node1&#45;&gt;Node9</title>
<path fill="none" stroke="#191970" d="M554.8732,-57.5196C589.314,-47.6507 630.376,-35.5579 674.5412,-21.4538"/>
<polygon fill="#191970" stroke="#191970" points="675.8606,-24.7062 684.3119,-18.3167 673.7206,-18.0413 675.8606,-24.7062"/>
</g>
<!-- Node10 -->
<g id="node10" class="node">
<title>Node10</title>
<g id="a_node10"><a xlink:title=" ">
<polygon fill="#ffffff" stroke="#bfbfbf" points="746.1095,-.5 746.1095,-20.5 794.3355,-20.5 794.3355,-.5 746.1095,-.5"/>
<text text-anchor="middle" x="770.2225" y="-7.5" font-family="Helvetica,sans-Serif" font-size="10.00" fill="#000000">cassert</text>
</a>
</g>
</g>
<!-- Node1&#45;&gt;Node10 -->
<g id="edge9" class="edge">
<title>Node1&#45;&gt;Node10</title>
<path fill="none" stroke="#191970" d="M554.8948,-63.7424C604.4847,-53.3717 670.0023,-38.8719 736.0397,-21.1726"/>
<polygon fill="#191970" stroke="#191970" points="737.0448,-24.5266 745.7848,-18.5381 735.2179,-17.7692 737.0448,-24.5266"/>
</g>
<!-- Node11 -->
<g id="node11" class="node">
<title>Node11</title>
<g id="a_node11"><a xlink:title=" ">
<polygon fill="#ffffff" stroke="#bfbfbf" points="812.056,-.5 812.056,-20.5 866.389,-20.5 866.389,-.5 812.056,-.5"/>
<text text-anchor="middle" x="839.2225" y="-7.5" font-family="Helvetica,sans-Serif" font-size="10.00" fill="#000000">iostream</text>
</a>
</g>
</g>
<!-- Node1&#45;&gt;Node11 -->
<g id="edge10" class="edge">
<title>Node1&#45;&gt;Node11</title>
<path fill="none" stroke="#191970" d="M554.9992,-67.8262C619.1963,-57.7565 712.3163,-41.8877 801.9972,-21.1198"/>
<polygon fill="#191970" stroke="#191970" points="802.8452,-24.516 811.7851,-18.8301 801.2507,-17.7 802.8452,-24.516"/>
</g>
</g>
</svg>
