<?xml version="1.0" encoding="UTF-8" standalone="no"?>
<!DOCTYPE svg PUBLIC "-//W3C//DTD SVG 1.1//EN"
 "http://www.w3.org/Graphics/SVG/1.1/DTD/svg11.dtd">
<!-- Generated by graphviz version 2.40.1 (20161225.0304)
 -->
<!-- Title: /home/shiqi/Documents/thesis/new/DG_wave_c/src/dg_write_send_list.cpp Pages: 1 -->
<svg width="950pt" height="110pt"
 viewBox="0.00 0.00 950.40 110.00" xmlns="http://www.w3.org/2000/svg" xmlns:xlink="http://www.w3.org/1999/xlink">
<g id="graph0" class="graph" transform="scale(1 1) rotate(0) translate(4 106)">
<title>/home/shiqi/Documents/thesis/new/DG_wave_c/src/dg_write_send_list.cpp</title>
<polygon fill="#ffffff" stroke="transparent" points="-4,4 -4,-106 946.4035,-106 946.4035,4 -4,4"/>
<!-- Node1 -->
<g id="node1" class="node">
<title>Node1</title>
<g id="a_node1"><a xlink:title=" ">
<polygon fill="#bfbfbf" stroke="#000000" points="391.8775,-57.5 391.8775,-101.5 528.4555,-101.5 528.4555,-57.5 391.8775,-57.5"/>
<text text-anchor="start" x="399.8775" y="-88.5" font-family="Helvetica,sans-Serif" font-size="10.00" fill="#000000">/home/shiqi/Documents</text>
<text text-anchor="start" x="399.8775" y="-76.5" font-family="Helvetica,sans-Serif" font-size="10.00" fill="#000000">/thesis/new/DG_wave_c</text>
<text text-anchor="middle" x="460.1665" y="-64.5" font-family="Helvetica,sans-Serif" font-size="10.00" fill="#000000">/src/dg_write_send_list.cpp</text>
</a>
</g>
</g>
<!-- Node2 -->
<g id="node2" class="node">
<title>Node2</title>
<g id="a_node2"><a xlink:title=" ">
<polygon fill="#ffffff" stroke="#bfbfbf" points="0,-.5 0,-20.5 54.333,-20.5 54.333,-.5 0,-.5"/>
<text text-anchor="middle" x="27.1665" y="-7.5" font-family="Helvetica,sans-Serif" font-size="10.00" fill="#000000">iostream</text>
</a>
</g>
</g>
<!-- Node1&#45;&gt;Node2 -->
<g id="edge1" class="edge">
<title>Node1&#45;&gt;Node2</title>
<path fill="none" stroke="#191970" d="M391.8642,-72.3282C314.5248,-63.5597 184.6842,-46.8829 64.68,-21.1134"/>
<polygon fill="#191970" stroke="#191970" points="65.0992,-17.6228 54.5839,-18.9184 63.6121,-24.463 65.0992,-17.6228"/>
</g>
<!-- Node3 -->
<g id="node3" class="node">
<title>Node3</title>
<g id="a_node3"><a xlink:title=" ">
<polygon fill="#ffffff" stroke="#bfbfbf" points="72.5535,-.5 72.5535,-20.5 115.7795,-20.5 115.7795,-.5 72.5535,-.5"/>
<text text-anchor="middle" x="94.1665" y="-7.5" font-family="Helvetica,sans-Serif" font-size="10.00" fill="#000000">vector</text>
</a>
</g>
</g>
<!-- Node1&#45;&gt;Node3 -->
<g id="edge2" class="edge">
<title>Node1&#45;&gt;Node3</title>
<path fill="none" stroke="#191970" d="M391.8256,-70.7056C325.8606,-61.5079 223.1519,-45.3225 125.7663,-20.8513"/>
<polygon fill="#191970" stroke="#191970" points="126.6112,-17.4548 116.0568,-18.379 124.8839,-24.2384 126.6112,-17.4548"/>
</g>
<!-- Node4 -->
<g id="node4" class="node">
<title>Node4</title>
<g id="a_node4"><a xlink:title=" ">
<polygon fill="#ffffff" stroke="#bfbfbf" points="133.878,-.5 133.878,-20.5 220.455,-20.5 220.455,-.5 133.878,-.5"/>
<text text-anchor="middle" x="177.1665" y="-7.5" font-family="Helvetica,sans-Serif" font-size="10.00" fill="#000000">unordered_map</text>
</a>
</g>
</g>
<!-- Node1&#45;&gt;Node4 -->
<g id="edge3" class="edge">
<title>Node1&#45;&gt;Node4</title>
<path fill="none" stroke="#191970" d="M391.6601,-62.797C341.3212,-50.5236 274.0099,-34.112 228.3121,-22.9701"/>
<polygon fill="#191970" stroke="#191970" points="228.8758,-19.5051 218.3313,-20.5367 227.2176,-26.3059 228.8758,-19.5051"/>
</g>
<!-- Node5 -->
<g id="node5" class="node">
<title>Node5</title>
<g id="a_node5"><a xlink:title=" ">
<polygon fill="#ffffff" stroke="#bfbfbf" points="238.2005,-.5 238.2005,-20.5 348.1325,-20.5 348.1325,-.5 238.2005,-.5"/>
<text text-anchor="middle" x="293.1665" y="-7.5" font-family="Helvetica,sans-Serif" font-size="10.00" fill="#000000">dg_boundary_table.h</text>
</a>
</g>
</g>
<!-- Node1&#45;&gt;Node5 -->
<g id="edge4" class="edge">
<title>Node1&#45;&gt;Node5</title>
<path fill="none" stroke="#191970" d="M406.8675,-57.4783C380.6408,-46.6421 349.8201,-33.9078 326.8882,-24.4329"/>
<polygon fill="#191970" stroke="#191970" points="328.1584,-21.1708 317.5796,-20.5869 325.4853,-27.6403 328.1584,-21.1708"/>
</g>
<!-- Node6 -->
<g id="node6" class="node">
<title>Node6</title>
<g id="a_node6"><a xlink:title=" ">
<polygon fill="#ffffff" stroke="#bfbfbf" points="366.389,-.5 366.389,-20.5 417.944,-20.5 417.944,-.5 366.389,-.5"/>
<text text-anchor="middle" x="392.1665" y="-7.5" font-family="Helvetica,sans-Serif" font-size="10.00" fill="#000000">sstream</text>
</a>
</g>
</g>
<!-- Node1&#45;&gt;Node6 -->
<g id="edge5" class="edge">
<title>Node1&#45;&gt;Node6</title>
<path fill="none" stroke="#191970" d="M438.2766,-57.2882C428.9075,-47.7813 418.1273,-36.8426 409.3473,-27.9334"/>
<polygon fill="#191970" stroke="#191970" points="411.7443,-25.3794 402.2321,-20.7137 406.7586,-30.2929 411.7443,-25.3794"/>
</g>
<!-- Node7 -->
<g id="node7" class="node">
<title>Node7</title>
<g id="a_node7"><a xlink:title=" ">
<polygon fill="#ffffff" stroke="#bfbfbf" points="435.4995,-.5 435.4995,-20.5 484.8335,-20.5 484.8335,-.5 435.4995,-.5"/>
<text text-anchor="middle" x="460.1665" y="-7.5" font-family="Helvetica,sans-Serif" font-size="10.00" fill="#000000">fstream</text>
</a>
</g>
</g>
<!-- Node1&#45;&gt;Node7 -->
<g id="edge6" class="edge">
<title>Node1&#45;&gt;Node7</title>
<path fill="none" stroke="#191970" d="M460.1665,-57.2882C460.1665,-48.8377 460.1665,-39.2557 460.1665,-30.9736"/>
<polygon fill="#191970" stroke="#191970" points="463.6666,-30.7136 460.1665,-20.7137 456.6666,-30.7137 463.6666,-30.7136"/>
</g>
<!-- Node8 -->
<g id="node8" class="node">
<title>Node8</title>
<g id="a_node8"><a xlink:title=" ">
<polygon fill="#ffffff" stroke="#bfbfbf" points="502.665,-.5 502.665,-20.5 553.668,-20.5 553.668,-.5 502.665,-.5"/>
<text text-anchor="middle" x="528.1665" y="-7.5" font-family="Helvetica,sans-Serif" font-size="10.00" fill="#000000">iomanip</text>
</a>
</g>
</g>
<!-- Node1&#45;&gt;Node8 -->
<g id="edge7" class="edge">
<title>Node1&#45;&gt;Node8</title>
<path fill="none" stroke="#191970" d="M482.0564,-57.2882C491.4255,-47.7813 502.2057,-36.8426 510.9857,-27.9334"/>
<polygon fill="#191970" stroke="#191970" points="513.5744,-30.2929 518.1009,-20.7137 508.5887,-25.3794 513.5744,-30.2929"/>
</g>
<!-- Node9 -->
<g id="node9" class="node">
<title>Node9</title>
<g id="a_node9"><a xlink:title=" ">
<polygon fill="#ffffff" stroke="#bfbfbf" points="571.6005,-.5 571.6005,-20.5 678.7325,-20.5 678.7325,-.5 571.6005,-.5"/>
<text text-anchor="middle" x="625.1665" y="-7.5" font-family="Helvetica,sans-Serif" font-size="10.00" fill="#000000">dg_write_send_list.h</text>
</a>
</g>
</g>
<!-- Node1&#45;&gt;Node9 -->
<g id="edge8" class="edge">
<title>Node1&#45;&gt;Node9</title>
<path fill="none" stroke="#191970" d="M512.8272,-57.4783C538.6241,-46.6905 568.9195,-34.0215 591.5447,-24.56"/>
<polygon fill="#191970" stroke="#191970" points="593.1703,-27.674 601.0457,-20.5869 590.4696,-21.216 593.1703,-27.674"/>
</g>
<!-- Node10 -->
<g id="node10" class="node">
<title>Node10</title>
<g id="a_node10"><a xlink:title=" ">
<polygon fill="#ffffff" stroke="#bfbfbf" points="696.4915,-.5 696.4915,-20.5 765.8415,-20.5 765.8415,-.5 696.4915,-.5"/>
<text text-anchor="middle" x="731.1665" y="-7.5" font-family="Helvetica,sans-Serif" font-size="10.00" fill="#000000">dg_param.h</text>
</a>
</g>
</g>
<!-- Node1&#45;&gt;Node10 -->
<g id="edge9" class="edge">
<title>Node1&#45;&gt;Node10</title>
<path fill="none" stroke="#191970" d="M528.5512,-62.0884C578.0516,-49.485 643.5392,-32.811 686.4802,-21.8777"/>
<polygon fill="#191970" stroke="#191970" points="687.5261,-25.2232 696.3533,-19.3639 685.7988,-18.4396 687.5261,-25.2232"/>
</g>
<!-- Node11 -->
<g id="node11" class="node">
<title>Node11</title>
<g id="a_node11"><a xlink:title=" ">
<polygon fill="#ffffff" stroke="#bfbfbf" points="783.944,-.5 783.944,-20.5 824.389,-20.5 824.389,-.5 783.944,-.5"/>
<text text-anchor="middle" x="804.1665" y="-7.5" font-family="Helvetica,sans-Serif" font-size="10.00" fill="#000000">mpi.h</text>
</a>
</g>
</g>
<!-- Node1&#45;&gt;Node11 -->
<g id="edge10" class="edge">
<title>Node1&#45;&gt;Node11</title>
<path fill="none" stroke="#191970" d="M528.4822,-70.1171C590.5199,-60.8488 684.5415,-44.9368 773.9514,-21.0242"/>
<polygon fill="#191970" stroke="#191970" points="774.97,-24.3745 783.7048,-18.3784 773.1372,-17.6186 774.97,-24.3745"/>
</g>
<!-- Node12 -->
<g id="node12" class="node">
<title>Node12</title>
<g id="a_node12"><a xlink:title=" ">
<polygon fill="#ffffff" stroke="#bfbfbf" points="841.9295,-.5 841.9295,-20.5 942.4035,-20.5 942.4035,-.5 841.9295,-.5"/>
<text text-anchor="middle" x="892.1665" y="-7.5" font-family="Helvetica,sans-Serif" font-size="10.00" fill="#000000">dg_local_storage.h</text>
</a>
</g>
</g>
<!-- Node1&#45;&gt;Node12 -->
<g id="edge11" class="edge">
<title>Node1&#45;&gt;Node12</title>
<path fill="none" stroke="#191970" d="M528.6398,-69.1924C601.3128,-58.155 719.7872,-39.8833 831.5484,-21.249"/>
<polygon fill="#191970" stroke="#191970" points="832.3616,-24.6617 841.6478,-19.561 831.2076,-17.7575 832.3616,-24.6617"/>
</g>
</g>
</svg>
