<?xml version="1.0" encoding="UTF-8" standalone="no"?>
<!DOCTYPE svg PUBLIC "-//W3C//DTD SVG 1.1//EN"
 "http://www.w3.org/Graphics/SVG/1.1/DTD/svg11.dtd">
<!-- Generated by graphviz version 2.40.1 (20161225.0304)
 -->
<!-- Title: /home/shiqi/Documents/thesis/DG_wave_c/src/dg_single_index.cpp Pages: 1 -->
<svg width="128pt" height="110pt"
 viewBox="0.00 0.00 128.46 110.00" xmlns="http://www.w3.org/2000/svg" xmlns:xlink="http://www.w3.org/1999/xlink">
<g id="graph0" class="graph" transform="scale(1 1) rotate(0) translate(4 106)">
<title>/home/shiqi/Documents/thesis/DG_wave_c/src/dg_single_index.cpp</title>
<polygon fill="#ffffff" stroke="transparent" points="-4,4 -4,-106 124.462,-106 124.462,4 -4,4"/>
<!-- Node1 -->
<g id="node1" class="node">
<title>Node1</title>
<g id="a_node1"><a xlink:title=" ">
<polygon fill="#bfbfbf" stroke="#000000" points="0,-57.5 0,-101.5 120.462,-101.5 120.462,-57.5 0,-57.5"/>
<text text-anchor="start" x="8" y="-88.5" font-family="Helvetica,sans-Serif" font-size="10.00" fill="#000000">/home/shiqi/Documents</text>
<text text-anchor="start" x="8" y="-76.5" font-family="Helvetica,sans-Serif" font-size="10.00" fill="#000000">/thesis/DG_wave_c/src</text>
<text text-anchor="middle" x="60.231" y="-64.5" font-family="Helvetica,sans-Serif" font-size="10.00" fill="#000000">/dg_single_index.cpp</text>
</a>
</g>
</g>
<!-- Node2 -->
<g id="node2" class="node">
<title>Node2</title>
<g id="a_node2"><a xlink:title=" ">
<polygon fill="#ffffff" stroke="#bfbfbf" points="40.0085,-.5 40.0085,-20.5 80.4535,-20.5 80.4535,-.5 40.0085,-.5"/>
<text text-anchor="middle" x="60.231" y="-7.5" font-family="Helvetica,sans-Serif" font-size="10.00" fill="#000000">mpi.h</text>
</a>
</g>
</g>
<!-- Node1&#45;&gt;Node2 -->
<g id="edge1" class="edge">
<title>Node1&#45;&gt;Node2</title>
<path fill="none" stroke="#191970" d="M60.231,-57.2882C60.231,-48.8377 60.231,-39.2557 60.231,-30.9736"/>
<polygon fill="#191970" stroke="#191970" points="63.7311,-30.7136 60.231,-20.7137 56.7311,-30.7137 63.7311,-30.7136"/>
</g>
</g>
</svg>
