<?xml version="1.0" encoding="UTF-8" standalone="no"?>
<!DOCTYPE svg PUBLIC "-//W3C//DTD SVG 1.1//EN"
 "http://www.w3.org/Graphics/SVG/1.1/DTD/svg11.dtd">
<!-- Generated by graphviz version 2.40.1 (20161225.0304)
 -->
<!-- Title: /home/shiqi/Documents/thesis/new/DG_wave_c/src/dg_basis.cpp Pages: 1 -->
<svg width="422pt" height="110pt"
 viewBox="0.00 0.00 422.28 110.00" xmlns="http://www.w3.org/2000/svg" xmlns:xlink="http://www.w3.org/1999/xlink">
<g id="graph0" class="graph" transform="scale(1 1) rotate(0) translate(4 106)">
<title>/home/shiqi/Documents/thesis/new/DG_wave_c/src/dg_basis.cpp</title>
<polygon fill="#ffffff" stroke="transparent" points="-4,4 -4,-106 418.2795,-106 418.2795,4 -4,4"/>
<!-- Node1 -->
<g id="node1" class="node">
<title>Node1</title>
<g id="a_node1"><a xlink:title=" ">
<polygon fill="#bfbfbf" stroke="#000000" points="120.545,-57.5 120.545,-101.5 243.788,-101.5 243.788,-57.5 120.545,-57.5"/>
<text text-anchor="start" x="128.545" y="-88.5" font-family="Helvetica,sans-Serif" font-size="10.00" fill="#000000">/home/shiqi/Documents</text>
<text text-anchor="start" x="128.545" y="-76.5" font-family="Helvetica,sans-Serif" font-size="10.00" fill="#000000">/thesis/new/DG_wave_c</text>
<text text-anchor="middle" x="182.1665" y="-64.5" font-family="Helvetica,sans-Serif" font-size="10.00" fill="#000000">/src/dg_basis.cpp</text>
</a>
</g>
</g>
<!-- Node2 -->
<g id="node2" class="node">
<title>Node2</title>
<g id="a_node2"><a xlink:title=" ">
<polygon fill="#ffffff" stroke="#bfbfbf" points="0,-.5 0,-20.5 54.333,-20.5 54.333,-.5 0,-.5"/>
<text text-anchor="middle" x="27.1665" y="-7.5" font-family="Helvetica,sans-Serif" font-size="10.00" fill="#000000">iostream</text>
</a>
</g>
</g>
<!-- Node1&#45;&gt;Node2 -->
<g id="edge1" class="edge">
<title>Node1&#45;&gt;Node2</title>
<path fill="none" stroke="#191970" d="M132.6974,-57.4783C108.5726,-46.7388 80.2597,-34.135 59.037,-24.6875"/>
<polygon fill="#191970" stroke="#191970" points="60.3845,-21.4563 49.8254,-20.5869 57.5377,-27.8513 60.3845,-21.4563"/>
</g>
<!-- Node3 -->
<g id="node3" class="node">
<title>Node3</title>
<g id="a_node3"><a xlink:title=" ">
<polygon fill="#ffffff" stroke="#bfbfbf" points="72.5535,-.5 72.5535,-20.5 115.7795,-20.5 115.7795,-.5 72.5535,-.5"/>
<text text-anchor="middle" x="94.1665" y="-7.5" font-family="Helvetica,sans-Serif" font-size="10.00" fill="#000000">vector</text>
</a>
</g>
</g>
<!-- Node1&#45;&gt;Node3 -->
<g id="edge2" class="edge">
<title>Node1&#45;&gt;Node3</title>
<path fill="none" stroke="#191970" d="M153.8384,-57.2882C141.3463,-47.4933 126.9156,-36.1783 115.3747,-27.1292"/>
<polygon fill="#191970" stroke="#191970" points="117.2217,-24.1297 107.1926,-20.7137 112.9024,-29.6383 117.2217,-24.1297"/>
</g>
<!-- Node4 -->
<g id="node4" class="node">
<title>Node4</title>
<g id="a_node4"><a xlink:title=" ">
<polygon fill="#ffffff" stroke="#bfbfbf" points="133.784,-.5 133.784,-20.5 172.549,-20.5 172.549,-.5 133.784,-.5"/>
<text text-anchor="middle" x="153.1665" y="-7.5" font-family="Helvetica,sans-Serif" font-size="10.00" fill="#000000">limits</text>
</a>
</g>
</g>
<!-- Node1&#45;&gt;Node4 -->
<g id="edge3" class="edge">
<title>Node1&#45;&gt;Node4</title>
<path fill="none" stroke="#191970" d="M172.8311,-57.2882C169.1583,-48.5496 164.9771,-38.6011 161.4173,-30.1311"/>
<polygon fill="#191970" stroke="#191970" points="164.5605,-28.5764 157.4592,-20.7137 158.1073,-31.2887 164.5605,-28.5764"/>
</g>
<!-- Node5 -->
<g id="node5" class="node">
<title>Node5</title>
<g id="a_node5"><a xlink:title=" ">
<polygon fill="#ffffff" stroke="#bfbfbf" points="190.5535,-.5 190.5535,-20.5 233.7795,-20.5 233.7795,-.5 190.5535,-.5"/>
<text text-anchor="middle" x="212.1665" y="-7.5" font-family="Helvetica,sans-Serif" font-size="10.00" fill="#000000">cmath</text>
</a>
</g>
</g>
<!-- Node1&#45;&gt;Node5 -->
<g id="edge4" class="edge">
<title>Node1&#45;&gt;Node5</title>
<path fill="none" stroke="#191970" d="M191.8238,-57.2882C195.6232,-48.5496 199.9486,-38.6011 203.6312,-30.1311"/>
<polygon fill="#191970" stroke="#191970" points="206.9482,-31.2799 207.7258,-20.7137 200.5287,-28.4888 206.9482,-31.2799"/>
</g>
<!-- Node6 -->
<g id="node6" class="node">
<title>Node6</title>
<g id="a_node6"><a xlink:title=" ">
<polygon fill="#ffffff" stroke="#bfbfbf" points="251.874,-.5 251.874,-20.5 348.459,-20.5 348.459,-.5 251.874,-.5"/>
<text text-anchor="middle" x="300.1665" y="-7.5" font-family="Helvetica,sans-Serif" font-size="10.00" fill="#000000">dg_single_index.h</text>
</a>
</g>
</g>
<!-- Node1&#45;&gt;Node6 -->
<g id="edge5" class="edge">
<title>Node1&#45;&gt;Node6</title>
<path fill="none" stroke="#191970" d="M219.8269,-57.4783C237.531,-47.1259 258.1978,-35.041 274.1365,-25.7209"/>
<polygon fill="#191970" stroke="#191970" points="276.0508,-28.6561 282.9165,-20.5869 272.5173,-22.6133 276.0508,-28.6561"/>
</g>
<!-- Node7 -->
<g id="node7" class="node">
<title>Node7</title>
<g id="a_node7"><a xlink:title=" ">
<polygon fill="#ffffff" stroke="#bfbfbf" points="366.0535,-.5 366.0535,-20.5 414.2795,-20.5 414.2795,-.5 366.0535,-.5"/>
<text text-anchor="middle" x="390.1665" y="-7.5" font-family="Helvetica,sans-Serif" font-size="10.00" fill="#000000">cassert</text>
</a>
</g>
</g>
<!-- Node1&#45;&gt;Node7 -->
<g id="edge6" class="edge">
<title>Node1&#45;&gt;Node7</title>
<path fill="none" stroke="#191970" d="M244.0102,-58.9845C280.6981,-46.814 325.8113,-31.8486 356.1306,-21.7907"/>
<polygon fill="#191970" stroke="#191970" points="357.4228,-25.0497 365.8122,-18.5791 355.2187,-18.4057 357.4228,-25.0497"/>
</g>
</g>
</svg>
