<?xml version="1.0" encoding="UTF-8" standalone="no"?>
<!DOCTYPE svg PUBLIC "-//W3C//DTD SVG 1.1//EN"
 "http://www.w3.org/Graphics/SVG/1.1/DTD/svg11.dtd">
<!-- Generated by graphviz version 2.40.1 (20161225.0304)
 -->
<!-- Title: /home/shiqi/Documents/thesis/new/DG_wave_c/src/dg_vector_operation.cpp Pages: 1 -->
<svg width="403pt" height="110pt"
 viewBox="0.00 0.00 403.01 110.00" xmlns="http://www.w3.org/2000/svg" xmlns:xlink="http://www.w3.org/1999/xlink">
<g id="graph0" class="graph" transform="scale(1 1) rotate(0) translate(4 106)">
<title>/home/shiqi/Documents/thesis/new/DG_wave_c/src/dg_vector_operation.cpp</title>
<polygon fill="#ffffff" stroke="transparent" points="-4,4 -4,-106 399.0085,-106 399.0085,4 -4,4"/>
<!-- Node1 -->
<g id="node1" class="node">
<title>Node1</title>
<g id="a_node1"><a xlink:title=" ">
<polygon fill="#bfbfbf" stroke="#000000" points="146.1495,-57.5 146.1495,-101.5 291.0765,-101.5 291.0765,-57.5 146.1495,-57.5"/>
<text text-anchor="start" x="154.1495" y="-88.5" font-family="Helvetica,sans-Serif" font-size="10.00" fill="#000000">/home/shiqi/Documents</text>
<text text-anchor="start" x="154.1495" y="-76.5" font-family="Helvetica,sans-Serif" font-size="10.00" fill="#000000">/thesis/new/DG_wave_c</text>
<text text-anchor="middle" x="218.613" y="-64.5" font-family="Helvetica,sans-Serif" font-size="10.00" fill="#000000">/src/dg_vector_operation.cpp</text>
</a>
</g>
</g>
<!-- Node2 -->
<g id="node2" class="node">
<title>Node2</title>
<g id="a_node2"><a xlink:title=" ">
<polygon fill="#ffffff" stroke="#bfbfbf" points="0,-.5 0,-20.5 43.226,-20.5 43.226,-.5 0,-.5"/>
<text text-anchor="middle" x="21.613" y="-7.5" font-family="Helvetica,sans-Serif" font-size="10.00" fill="#000000">vector</text>
</a>
</g>
</g>
<!-- Node1&#45;&gt;Node2 -->
<g id="edge1" class="edge">
<title>Node1&#45;&gt;Node2</title>
<path fill="none" stroke="#191970" d="M155.7393,-57.4783C121.4408,-45.4651 80.4816,-31.119 52.9257,-21.4674"/>
<polygon fill="#191970" stroke="#191970" points="54.0119,-18.1394 43.4171,-18.137 51.6979,-24.7459 54.0119,-18.1394"/>
</g>
<!-- Node3 -->
<g id="node3" class="node">
<title>Node3</title>
<g id="a_node3"><a xlink:title=" ">
<polygon fill="#ffffff" stroke="#bfbfbf" points="60.8725,-.5 60.8725,-20.5 176.3535,-20.5 176.3535,-.5 60.8725,-.5"/>
<text text-anchor="middle" x="118.613" y="-7.5" font-family="Helvetica,sans-Serif" font-size="10.00" fill="#000000">dg_vector_operation.h</text>
</a>
</g>
</g>
<!-- Node1&#45;&gt;Node3 -->
<g id="edge2" class="edge">
<title>Node1&#45;&gt;Node3</title>
<path fill="none" stroke="#191970" d="M186.6974,-57.4783C172.1146,-47.4161 155.1598,-35.7173 141.8177,-26.5113"/>
<polygon fill="#191970" stroke="#191970" points="143.4502,-23.3854 133.2316,-20.5869 139.4747,-29.1469 143.4502,-23.3854"/>
</g>
<!-- Node4 -->
<g id="node4" class="node">
<title>Node4</title>
<g id="a_node4"><a xlink:title=" ">
<polygon fill="#ffffff" stroke="#bfbfbf" points="194.5,-.5 194.5,-20.5 242.726,-20.5 242.726,-.5 194.5,-.5"/>
<text text-anchor="middle" x="218.613" y="-7.5" font-family="Helvetica,sans-Serif" font-size="10.00" fill="#000000">cassert</text>
</a>
</g>
</g>
<!-- Node1&#45;&gt;Node4 -->
<g id="edge3" class="edge">
<title>Node1&#45;&gt;Node4</title>
<path fill="none" stroke="#191970" d="M218.613,-57.2882C218.613,-48.8377 218.613,-39.2557 218.613,-30.9736"/>
<polygon fill="#191970" stroke="#191970" points="222.1131,-30.7136 218.613,-20.7137 215.1131,-30.7137 222.1131,-30.7136"/>
</g>
<!-- Node5 -->
<g id="node5" class="node">
<title>Node5</title>
<g id="a_node5"><a xlink:title=" ">
<polygon fill="#ffffff" stroke="#bfbfbf" points="261.0575,-.5 261.0575,-20.5 318.1685,-20.5 318.1685,-.5 261.0575,-.5"/>
<text text-anchor="middle" x="289.613" y="-7.5" font-family="Helvetica,sans-Serif" font-size="10.00" fill="#000000">algorithm</text>
</a>
</g>
</g>
<!-- Node1&#45;&gt;Node5 -->
<g id="edge4" class="edge">
<title>Node1&#45;&gt;Node5</title>
<path fill="none" stroke="#191970" d="M241.4687,-57.2882C251.251,-47.7813 262.5069,-36.8426 271.6743,-27.9334"/>
<polygon fill="#191970" stroke="#191970" points="274.3712,-30.193 279.1033,-20.7137 269.4926,-25.1731 274.3712,-30.193"/>
</g>
<!-- Node6 -->
<g id="node6" class="node">
<title>Node6</title>
<g id="a_node6"><a xlink:title=" ">
<polygon fill="#ffffff" stroke="#bfbfbf" points="336.2175,-.5 336.2175,-20.5 395.0085,-20.5 395.0085,-.5 336.2175,-.5"/>
<text text-anchor="middle" x="365.613" y="-7.5" font-family="Helvetica,sans-Serif" font-size="10.00" fill="#000000">functional</text>
</a>
</g>
</g>
<!-- Node1&#45;&gt;Node6 -->
<g id="edge5" class="edge">
<title>Node1&#45;&gt;Node6</title>
<path fill="none" stroke="#191970" d="M265.5289,-57.4783C288.2024,-46.8356 314.7766,-34.362 334.8419,-24.9436"/>
<polygon fill="#191970" stroke="#191970" points="336.5584,-28.0043 344.1236,-20.5869 333.584,-21.6677 336.5584,-28.0043"/>
</g>
</g>
</svg>
