<?xml version="1.0" encoding="UTF-8" standalone="no"?>
<!DOCTYPE svg PUBLIC "-//W3C//DTD SVG 1.1//EN"
 "http://www.w3.org/Graphics/SVG/1.1/DTD/svg11.dtd">
<!-- Generated by graphviz version 2.40.1 (20161225.0304)
 -->
<!-- Title: /home/shiqi/Documents/thesis/new/DG_wave_c/src/dg_prepare_hilbert_scheme.cpp Pages: 1 -->
<svg width="727pt" height="134pt"
 viewBox="0.00 0.00 727.19 134.00" xmlns="http://www.w3.org/2000/svg" xmlns:xlink="http://www.w3.org/1999/xlink">
<g id="graph0" class="graph" transform="scale(1 1) rotate(0) translate(4 130)">
<title>/home/shiqi/Documents/thesis/new/DG_wave_c/src/dg_prepare_hilbert_scheme.cpp</title>
<polygon fill="#ffffff" stroke="transparent" points="-4,4 -4,-130 723.186,-130 723.186,4 -4,4"/>
<!-- Node1 -->
<g id="node1" class="node">
<title>Node1</title>
<g id="a_node1"><a xlink:title=" ">
<polygon fill="#bfbfbf" stroke="#000000" points="266.601,-69.5 266.601,-125.5 389.844,-125.5 389.844,-69.5 266.601,-69.5"/>
<text text-anchor="start" x="274.601" y="-112.5" font-family="Helvetica,sans-Serif" font-size="10.00" fill="#000000">/home/shiqi/Documents</text>
<text text-anchor="start" x="274.601" y="-100.5" font-family="Helvetica,sans-Serif" font-size="10.00" fill="#000000">/thesis/new/DG_wave_c</text>
<text text-anchor="start" x="274.601" y="-88.5" font-family="Helvetica,sans-Serif" font-size="10.00" fill="#000000">/src/dg_prepare_hilbert</text>
<text text-anchor="middle" x="328.2225" y="-76.5" font-family="Helvetica,sans-Serif" font-size="10.00" fill="#000000">_scheme.cpp</text>
</a>
</g>
</g>
<!-- Node2 -->
<g id="node2" class="node">
<title>Node2</title>
<g id="a_node2"><a xlink:title=" ">
<polygon fill="#ffffff" stroke="#bfbfbf" points="0,-6.5 0,-26.5 40.445,-26.5 40.445,-6.5 0,-6.5"/>
<text text-anchor="middle" x="20.2225" y="-13.5" font-family="Helvetica,sans-Serif" font-size="10.00" fill="#000000">mpi.h</text>
</a>
</g>
</g>
<!-- Node1&#45;&gt;Node2 -->
<g id="edge1" class="edge">
<title>Node1&#45;&gt;Node2</title>
<path fill="none" stroke="#191970" d="M266.5595,-88.5293C208.9851,-78.9311 121.3508,-61.1619 49.2225,-33 47.8398,-32.4601 46.4433,-31.863 45.0497,-31.2255"/>
<polygon fill="#191970" stroke="#191970" points="46.5643,-28.0688 36.0702,-26.6115 43.3651,-34.295 46.5643,-28.0688"/>
</g>
<!-- Node3 -->
<g id="node3" class="node">
<title>Node3</title>
<g id="a_node3"><a xlink:title=" ">
<polygon fill="#ffffff" stroke="#bfbfbf" points="58.5475,-6.5 58.5475,-26.5 127.8975,-26.5 127.8975,-6.5 58.5475,-6.5"/>
<text text-anchor="middle" x="93.2225" y="-13.5" font-family="Helvetica,sans-Serif" font-size="10.00" fill="#000000">dg_param.h</text>
</a>
</g>
</g>
<!-- Node1&#45;&gt;Node3 -->
<g id="edge2" class="edge">
<title>Node1&#45;&gt;Node3</title>
<path fill="none" stroke="#191970" d="M266.5411,-77.2456C229.0413,-64.7891 180.2482,-48.3274 137.2225,-33 134.6455,-32.082 131.9888,-31.1214 129.3173,-30.1451"/>
<polygon fill="#191970" stroke="#191970" points="130.2884,-26.7727 119.6951,-26.589 127.8618,-33.3386 130.2884,-26.7727"/>
</g>
<!-- Node4 -->
<g id="node4" class="node">
<title>Node4</title>
<g id="a_node4"><a xlink:title=" ">
<polygon fill="#ffffff" stroke="#bfbfbf" points="146.3705,-6.5 146.3705,-26.5 254.0745,-26.5 254.0745,-6.5 146.3705,-6.5"/>
<text text-anchor="middle" x="200.2225" y="-13.5" font-family="Helvetica,sans-Serif" font-size="10.00" fill="#000000">dg_read_mesh_2d.h</text>
</a>
</g>
</g>
<!-- Node1&#45;&gt;Node4 -->
<g id="edge3" class="edge">
<title>Node1&#45;&gt;Node4</title>
<path fill="none" stroke="#191970" d="M283.8135,-69.3975C264.0742,-56.9062 241.5832,-42.6736 224.9064,-32.1203"/>
<polygon fill="#191970" stroke="#191970" points="226.6159,-29.0601 216.2941,-26.6703 222.8727,-34.9753 226.6159,-29.0601"/>
</g>
<!-- Node5 -->
<g id="node5" class="node">
<title>Node5</title>
<g id="a_node5"><a xlink:title=" ">
<polygon fill="#ffffff" stroke="#bfbfbf" points="271.587,-6.5 271.587,-26.5 384.858,-26.5 384.858,-6.5 271.587,-6.5"/>
<text text-anchor="middle" x="328.2225" y="-13.5" font-family="Helvetica,sans-Serif" font-size="10.00" fill="#000000">dg_gen_dual_graph.h</text>
</a>
</g>
</g>
<!-- Node1&#45;&gt;Node5 -->
<g id="edge4" class="edge">
<title>Node1&#45;&gt;Node5</title>
<path fill="none" stroke="#191970" d="M328.2225,-69.1701C328.2225,-58.5461 328.2225,-46.6903 328.2225,-36.9211"/>
<polygon fill="#191970" stroke="#191970" points="331.7226,-36.6102 328.2225,-26.6102 324.7226,-36.6103 331.7226,-36.6102"/>
</g>
<!-- Node6 -->
<g id="node6" class="node">
<title>Node6</title>
<g id="a_node6"><a xlink:title=" ">
<polygon fill="#ffffff" stroke="#bfbfbf" points="402.9905,-6.5 402.9905,-26.5 493.4545,-26.5 493.4545,-6.5 402.9905,-6.5"/>
<text text-anchor="middle" x="448.2225" y="-13.5" font-family="Helvetica,sans-Serif" font-size="10.00" fill="#000000">dg_hilbert_sort.h</text>
</a>
</g>
</g>
<!-- Node1&#45;&gt;Node6 -->
<g id="edge5" class="edge">
<title>Node1&#45;&gt;Node6</title>
<path fill="none" stroke="#191970" d="M369.8559,-69.3975C388.1902,-57.0218 409.0566,-42.937 424.6456,-32.4144"/>
<polygon fill="#191970" stroke="#191970" points="426.8251,-35.166 433.1554,-26.6703 422.9087,-29.3641 426.8251,-35.166"/>
</g>
<!-- Node7 -->
<g id="node7" class="node">
<title>Node7</title>
<g id="a_node7"><a xlink:title=" ">
<polygon fill="#ffffff" stroke="#bfbfbf" points="511.2665,-.5 511.2665,-32.5 611.1785,-32.5 611.1785,-.5 511.2665,-.5"/>
<text text-anchor="start" x="519.2665" y="-19.5" font-family="Helvetica,sans-Serif" font-size="10.00" fill="#000000">dg_prepare_hilbert</text>
<text text-anchor="middle" x="561.2225" y="-7.5" font-family="Helvetica,sans-Serif" font-size="10.00" fill="#000000">_scheme.h</text>
</a>
</g>
</g>
<!-- Node1&#45;&gt;Node7 -->
<g id="edge6" class="edge">
<title>Node1&#45;&gt;Node7</title>
<path fill="none" stroke="#191970" d="M390.0505,-76.0061C425.9113,-63.5395 470.7104,-47.9656 505.4819,-35.8776"/>
<polygon fill="#191970" stroke="#191970" points="506.7113,-39.1558 515.0075,-32.5661 504.4127,-32.5439 506.7113,-39.1558"/>
</g>
<!-- Node8 -->
<g id="node8" class="node">
<title>Node8</title>
<g id="a_node8"><a xlink:title=" ">
<polygon fill="#ffffff" stroke="#bfbfbf" points="629.259,-6.5 629.259,-26.5 719.186,-26.5 719.186,-6.5 629.259,-6.5"/>
<text text-anchor="middle" x="674.2225" y="-13.5" font-family="Helvetica,sans-Serif" font-size="10.00" fill="#000000">dg_gen_status.h</text>
</a>
</g>
</g>
<!-- Node1&#45;&gt;Node8 -->
<g id="edge7" class="edge">
<title>Node1&#45;&gt;Node8</title>
<path fill="none" stroke="#191970" d="M390.0858,-85.3167C449.4253,-73.2817 541.3901,-53.7158 620.2225,-33 624.3823,-31.9069 628.7024,-30.7038 633.0056,-29.4605"/>
<polygon fill="#191970" stroke="#191970" points="634.3388,-32.716 642.9326,-26.5196 632.3503,-26.0044 634.3388,-32.716"/>
</g>
</g>
</svg>
