<?xml version="1.0" encoding="UTF-8" standalone="no"?>
<!DOCTYPE svg PUBLIC "-//W3C//DTD SVG 1.1//EN"
 "http://www.w3.org/Graphics/SVG/1.1/DTD/svg11.dtd">
<!-- Generated by graphviz version 2.40.1 (20161225.0304)
 -->
<!-- Title: /home/shiqi/Documents/thesis/new/DG_wave_c/src/dg_element_load.cpp Pages: 1 -->
<svg width="257pt" height="110pt"
 viewBox="0.00 0.00 257.29 110.00" xmlns="http://www.w3.org/2000/svg" xmlns:xlink="http://www.w3.org/1999/xlink">
<g id="graph0" class="graph" transform="scale(1 1) rotate(0) translate(4 106)">
<title>/home/shiqi/Documents/thesis/new/DG_wave_c/src/dg_element_load.cpp</title>
<polygon fill="#ffffff" stroke="transparent" points="-4,4 -4,-106 253.288,-106 253.288,4 -4,4"/>
<!-- Node1 -->
<g id="node1" class="node">
<title>Node1</title>
<g id="a_node1"><a xlink:title=" ">
<polygon fill="#bfbfbf" stroke="#000000" points="72.4355,-57.5 72.4355,-101.5 202.9145,-101.5 202.9145,-57.5 72.4355,-57.5"/>
<text text-anchor="start" x="80.4355" y="-88.5" font-family="Helvetica,sans-Serif" font-size="10.00" fill="#000000">/home/shiqi/Documents</text>
<text text-anchor="start" x="80.4355" y="-76.5" font-family="Helvetica,sans-Serif" font-size="10.00" fill="#000000">/thesis/new/DG_wave_c</text>
<text text-anchor="middle" x="137.675" y="-64.5" font-family="Helvetica,sans-Serif" font-size="10.00" fill="#000000">/src/dg_element_load.cpp</text>
</a>
</g>
</g>
<!-- Node2 -->
<g id="node2" class="node">
<title>Node2</title>
<g id="a_node2"><a xlink:title=" ">
<polygon fill="#ffffff" stroke="#bfbfbf" points="0,-.5 0,-20.5 69.35,-20.5 69.35,-.5 0,-.5"/>
<text text-anchor="middle" x="34.675" y="-7.5" font-family="Helvetica,sans-Serif" font-size="10.00" fill="#000000">dg_param.h</text>
</a>
</g>
</g>
<!-- Node1&#45;&gt;Node2 -->
<g id="edge1" class="edge">
<title>Node1&#45;&gt;Node2</title>
<path fill="none" stroke="#191970" d="M104.802,-57.4783C89.6372,-47.3194 71.9821,-35.4922 58.1805,-26.2464"/>
<polygon fill="#191970" stroke="#191970" points="59.9883,-23.2447 49.7322,-20.5869 56.0923,-29.0603 59.9883,-23.2447"/>
</g>
<!-- Node3 -->
<g id="node3" class="node">
<title>Node3</title>
<g id="a_node3"><a xlink:title=" ">
<polygon fill="#ffffff" stroke="#bfbfbf" points="87.1585,-.5 87.1585,-20.5 188.1915,-20.5 188.1915,-.5 87.1585,-.5"/>
<text text-anchor="middle" x="137.675" y="-7.5" font-family="Helvetica,sans-Serif" font-size="10.00" fill="#000000">dg_element_load.h</text>
</a>
</g>
</g>
<!-- Node1&#45;&gt;Node3 -->
<g id="edge2" class="edge">
<title>Node1&#45;&gt;Node3</title>
<path fill="none" stroke="#191970" d="M137.675,-57.2882C137.675,-48.8377 137.675,-39.2557 137.675,-30.9736"/>
<polygon fill="#191970" stroke="#191970" points="141.1751,-30.7136 137.675,-20.7137 134.1751,-30.7137 141.1751,-30.7136"/>
</g>
<!-- Node4 -->
<g id="node4" class="node">
<title>Node4</title>
<g id="a_node4"><a xlink:title=" ">
<polygon fill="#ffffff" stroke="#bfbfbf" points="206.062,-.5 206.062,-20.5 249.288,-20.5 249.288,-.5 206.062,-.5"/>
<text text-anchor="middle" x="227.675" y="-7.5" font-family="Helvetica,sans-Serif" font-size="10.00" fill="#000000">cmath</text>
</a>
</g>
</g>
<!-- Node1&#45;&gt;Node4 -->
<g id="edge3" class="edge">
<title>Node1&#45;&gt;Node4</title>
<path fill="none" stroke="#191970" d="M166.647,-57.2882C179.5482,-47.3972 194.4712,-35.9563 206.3311,-26.8637"/>
<polygon fill="#191970" stroke="#191970" points="208.5463,-29.5757 214.3528,-20.7137 204.2872,-24.0204 208.5463,-29.5757"/>
</g>
</g>
</svg>
