<?xml version="1.0" encoding="UTF-8" standalone="no"?>
<!DOCTYPE svg PUBLIC "-//W3C//DTD SVG 1.1//EN"
 "http://www.w3.org/Graphics/SVG/1.1/DTD/svg11.dtd">
<!-- Generated by graphviz version 2.40.1 (20161225.0304)
 -->
<!-- Title: /home/shiqi/Documents/thesis/DG_wave_c/src/dg_hilbert_curve.cpp Pages: 1 -->
<svg width="305pt" height="110pt"
 viewBox="0.00 0.00 305.06 110.00" xmlns="http://www.w3.org/2000/svg" xmlns:xlink="http://www.w3.org/1999/xlink">
<g id="graph0" class="graph" transform="scale(1 1) rotate(0) translate(4 106)">
<title>/home/shiqi/Documents/thesis/DG_wave_c/src/dg_hilbert_curve.cpp</title>
<polygon fill="#ffffff" stroke="transparent" points="-4,4 -4,-106 301.065,-106 301.065,4 -4,4"/>
<!-- Node1 -->
<g id="node1" class="node">
<title>Node1</title>
<g id="a_node1"><a xlink:title=" ">
<polygon fill="#bfbfbf" stroke="#000000" points="57.712,-57.5 57.712,-101.5 178.174,-101.5 178.174,-57.5 57.712,-57.5"/>
<text text-anchor="start" x="65.712" y="-88.5" font-family="Helvetica,sans-Serif" font-size="10.00" fill="#000000">/home/shiqi/Documents</text>
<text text-anchor="start" x="65.712" y="-76.5" font-family="Helvetica,sans-Serif" font-size="10.00" fill="#000000">/thesis/DG_wave_c/src</text>
<text text-anchor="middle" x="117.943" y="-64.5" font-family="Helvetica,sans-Serif" font-size="10.00" fill="#000000">/dg_hilbert_curve.cpp</text>
</a>
</g>
</g>
<!-- Node2 -->
<g id="node2" class="node">
<title>Node2</title>
<g id="a_node2"><a xlink:title=" ">
<polygon fill="#ffffff" stroke="#bfbfbf" points="0,-.5 0,-20.5 39.886,-20.5 39.886,-.5 0,-.5"/>
<text text-anchor="middle" x="19.943" y="-7.5" font-family="Helvetica,sans-Serif" font-size="10.00" fill="#000000">ctime</text>
</a>
</g>
</g>
<!-- Node1&#45;&gt;Node2 -->
<g id="edge1" class="edge">
<title>Node1&#45;&gt;Node2</title>
<path fill="none" stroke="#191970" d="M86.6657,-57.4783C72.3746,-47.4161 55.7589,-35.7173 42.6836,-26.5113"/>
<polygon fill="#191970" stroke="#191970" points="44.4609,-23.4821 34.2693,-20.5869 40.4309,-29.2057 44.4609,-23.4821"/>
</g>
<!-- Node3 -->
<g id="node3" class="node">
<title>Node3</title>
<g id="a_node3"><a xlink:title=" ">
<polygon fill="#ffffff" stroke="#bfbfbf" points="57.4415,-.5 57.4415,-20.5 108.4445,-20.5 108.4445,-.5 57.4415,-.5"/>
<text text-anchor="middle" x="82.943" y="-7.5" font-family="Helvetica,sans-Serif" font-size="10.00" fill="#000000">iomanip</text>
</a>
</g>
</g>
<!-- Node1&#45;&gt;Node3 -->
<g id="edge2" class="edge">
<title>Node1&#45;&gt;Node3</title>
<path fill="none" stroke="#191970" d="M106.6761,-57.2882C102.1948,-48.4535 97.0862,-38.3823 92.7595,-29.8525"/>
<polygon fill="#191970" stroke="#191970" points="95.7691,-28.0486 88.1238,-20.7137 89.5263,-31.2153 95.7691,-28.0486"/>
</g>
<!-- Node4 -->
<g id="node4" class="node">
<title>Node4</title>
<g id="a_node4"><a xlink:title=" ">
<polygon fill="#ffffff" stroke="#bfbfbf" points="126.7765,-.5 126.7765,-20.5 181.1095,-20.5 181.1095,-.5 126.7765,-.5"/>
<text text-anchor="middle" x="153.943" y="-7.5" font-family="Helvetica,sans-Serif" font-size="10.00" fill="#000000">iostream</text>
</a>
</g>
</g>
<!-- Node1&#45;&gt;Node4 -->
<g id="edge3" class="edge">
<title>Node1&#45;&gt;Node4</title>
<path fill="none" stroke="#191970" d="M129.5318,-57.2882C134.1412,-48.4535 139.3957,-38.3823 143.8461,-29.8525"/>
<polygon fill="#191970" stroke="#191970" points="147.0915,-31.1985 148.6141,-20.7137 140.8854,-27.9605 147.0915,-31.1985"/>
</g>
<!-- Node5 -->
<g id="node5" class="node">
<title>Node5</title>
<g id="a_node5"><a xlink:title=" ">
<polygon fill="#ffffff" stroke="#bfbfbf" points="198.821,-.5 198.821,-20.5 297.065,-20.5 297.065,-.5 198.821,-.5"/>
<text text-anchor="middle" x="247.943" y="-7.5" font-family="Helvetica,sans-Serif" font-size="10.00" fill="#000000">dg_hilbert_curve.h</text>
</a>
</g>
</g>
<!-- Node1&#45;&gt;Node5 -->
<g id="edge4" class="edge">
<title>Node1&#45;&gt;Node5</title>
<path fill="none" stroke="#191970" d="M159.4332,-57.4783C179.1201,-47.0291 202.1322,-34.815 219.7569,-25.4603"/>
<polygon fill="#191970" stroke="#191970" points="221.7467,-28.3667 228.9388,-20.5869 218.4649,-22.1836 221.7467,-28.3667"/>
</g>
</g>
</svg>
