<?xml version="1.0" encoding="UTF-8" standalone="no"?>
<!DOCTYPE svg PUBLIC "-//W3C//DTD SVG 1.1//EN"
 "http://www.w3.org/Graphics/SVG/1.1/DTD/svg11.dtd">
<!-- Generated by graphviz version 2.40.1 (20161225.0304)
 -->
<!-- Title: /home/shiqi/Documents/thesis/new/DG_wave_c/src/dg_get_dual_coord.cpp Pages: 1 -->
<svg width="238pt" height="110pt"
 viewBox="0.00 0.00 238.19 110.00" xmlns="http://www.w3.org/2000/svg" xmlns:xlink="http://www.w3.org/1999/xlink">
<g id="graph0" class="graph" transform="scale(1 1) rotate(0) translate(4 106)">
<title>/home/shiqi/Documents/thesis/new/DG_wave_c/src/dg_get_dual_coord.cpp</title>
<polygon fill="#ffffff" stroke="transparent" points="-4,4 -4,-106 234.1885,-106 234.1885,4 -4,4"/>
<!-- Node1 -->
<g id="node1" class="node">
<title>Node1</title>
<g id="a_node1"><a xlink:title=" ">
<polygon fill="#bfbfbf" stroke="#000000" points="10.5335,-57.5 10.5335,-101.5 149.9115,-101.5 149.9115,-57.5 10.5335,-57.5"/>
<text text-anchor="start" x="18.5335" y="-88.5" font-family="Helvetica,sans-Serif" font-size="10.00" fill="#000000">/home/shiqi/Documents</text>
<text text-anchor="start" x="18.5335" y="-76.5" font-family="Helvetica,sans-Serif" font-size="10.00" fill="#000000">/thesis/new/DG_wave_c</text>
<text text-anchor="middle" x="80.2225" y="-64.5" font-family="Helvetica,sans-Serif" font-size="10.00" fill="#000000">/src/dg_get_dual_coord.cpp</text>
</a>
</g>
</g>
<!-- Node2 -->
<g id="node2" class="node">
<title>Node2</title>
<g id="a_node2"><a xlink:title=" ">
<polygon fill="#ffffff" stroke="#bfbfbf" points="0,-.5 0,-20.5 40.445,-20.5 40.445,-.5 0,-.5"/>
<text text-anchor="middle" x="20.2225" y="-7.5" font-family="Helvetica,sans-Serif" font-size="10.00" fill="#000000">mpi.h</text>
</a>
</g>
</g>
<!-- Node1&#45;&gt;Node2 -->
<g id="edge1" class="edge">
<title>Node1&#45;&gt;Node2</title>
<path fill="none" stroke="#191970" d="M60.9079,-57.2882C52.8081,-47.9734 43.5129,-37.2839 35.8537,-28.4758"/>
<polygon fill="#191970" stroke="#191970" points="38.3069,-25.9631 29.104,-20.7137 33.0246,-30.5564 38.3069,-25.9631"/>
</g>
<!-- Node3 -->
<g id="node3" class="node">
<title>Node3</title>
<g id="a_node3"><a xlink:title=" ">
<polygon fill="#ffffff" stroke="#bfbfbf" points="58.6095,-.5 58.6095,-20.5 101.8355,-20.5 101.8355,-.5 58.6095,-.5"/>
<text text-anchor="middle" x="80.2225" y="-7.5" font-family="Helvetica,sans-Serif" font-size="10.00" fill="#000000">cmath</text>
</a>
</g>
</g>
<!-- Node1&#45;&gt;Node3 -->
<g id="edge2" class="edge">
<title>Node1&#45;&gt;Node3</title>
<path fill="none" stroke="#191970" d="M80.2225,-57.2882C80.2225,-48.8377 80.2225,-39.2557 80.2225,-30.9736"/>
<polygon fill="#191970" stroke="#191970" points="83.7226,-30.7136 80.2225,-20.7137 76.7226,-30.7137 83.7226,-30.7136"/>
</g>
<!-- Node4 -->
<g id="node4" class="node">
<title>Node4</title>
<g id="a_node4"><a xlink:title=" ">
<polygon fill="#ffffff" stroke="#bfbfbf" points="120.2565,-.5 120.2565,-20.5 230.1885,-20.5 230.1885,-.5 120.2565,-.5"/>
<text text-anchor="middle" x="175.2225" y="-7.5" font-family="Helvetica,sans-Serif" font-size="10.00" fill="#000000">dg_get_dual_coord.h</text>
</a>
</g>
</g>
<!-- Node1&#45;&gt;Node4 -->
<g id="edge3" class="edge">
<title>Node1&#45;&gt;Node4</title>
<path fill="none" stroke="#191970" d="M110.5423,-57.4783C124.396,-47.4161 140.503,-35.7173 153.178,-26.5113"/>
<polygon fill="#191970" stroke="#191970" points="155.3006,-29.2954 161.3348,-20.5869 151.1869,-23.6317 155.3006,-29.2954"/>
</g>
</g>
</svg>
