<?xml version="1.0" encoding="UTF-8" standalone="no"?>
<!DOCTYPE svg PUBLIC "-//W3C//DTD SVG 1.1//EN"
 "http://www.w3.org/Graphics/SVG/1.1/DTD/svg11.dtd">
<!-- Generated by graphviz version 2.40.1 (20161225.0304)
 -->
<!-- Title: /home/shiqi/Documents/thesis/new/DG_wave_c/src/dg_amr.cpp Pages: 1 -->
<svg width="1689pt" height="122pt"
 viewBox="0.00 0.00 1689.41 122.00" xmlns="http://www.w3.org/2000/svg" xmlns:xlink="http://www.w3.org/1999/xlink">
<g id="graph0" class="graph" transform="scale(1 1) rotate(0) translate(4 118)">
<title>/home/shiqi/Documents/thesis/new/DG_wave_c/src/dg_amr.cpp</title>
<polygon fill="#ffffff" stroke="transparent" points="-4,4 -4,-118 1685.4085,-118 1685.4085,4 -4,4"/>
<!-- Node1 -->
<g id="node1" class="node">
<title>Node1</title>
<g id="a_node1"><a xlink:title=" ">
<polygon fill="#bfbfbf" stroke="#000000" points="746.4945,-69.5 746.4945,-113.5 869.7375,-113.5 869.7375,-69.5 746.4945,-69.5"/>
<text text-anchor="start" x="754.4945" y="-100.5" font-family="Helvetica,sans-Serif" font-size="10.00" fill="#000000">/home/shiqi/Documents</text>
<text text-anchor="start" x="754.4945" y="-88.5" font-family="Helvetica,sans-Serif" font-size="10.00" fill="#000000">/thesis/new/DG_wave_c</text>
<text text-anchor="middle" x="808.116" y="-76.5" font-family="Helvetica,sans-Serif" font-size="10.00" fill="#000000">/src/dg_amr.cpp</text>
</a>
</g>
</g>
<!-- Node2 -->
<g id="node2" class="node">
<title>Node2</title>
<g id="a_node2"><a xlink:title=" ">
<polygon fill="#ffffff" stroke="#bfbfbf" points="0,-6.5 0,-26.5 58.232,-26.5 58.232,-6.5 0,-6.5"/>
<text text-anchor="middle" x="29.116" y="-13.5" font-family="Helvetica,sans-Serif" font-size="10.00" fill="#000000">dg_amr.h</text>
</a>
</g>
</g>
<!-- Node1&#45;&gt;Node2 -->
<g id="edge1" class="edge">
<title>Node1&#45;&gt;Node2</title>
<path fill="none" stroke="#191970" d="M746.326,-89.2458C592.4509,-83.2117 195.3069,-64.9437 67.116,-33 64.1412,-32.2587 61.1036,-31.3069 58.1065,-30.2351"/>
<polygon fill="#191970" stroke="#191970" points="59.3824,-26.9759 48.7977,-26.5141 56.7842,-33.4758 59.3824,-26.9759"/>
</g>
<!-- Node3 -->
<g id="node3" class="node">
<title>Node3</title>
<g id="a_node3"><a xlink:title=" ">
<polygon fill="#ffffff" stroke="#bfbfbf" points="76.5505,-6.5 76.5505,-26.5 133.6815,-26.5 133.6815,-6.5 76.5505,-6.5"/>
<text text-anchor="middle" x="105.116" y="-13.5" font-family="Helvetica,sans-Serif" font-size="10.00" fill="#000000">dg_unit.h</text>
</a>
</g>
</g>
<!-- Node1&#45;&gt;Node3 -->
<g id="edge2" class="edge">
<title>Node1&#45;&gt;Node3</title>
<path fill="none" stroke="#191970" d="M746.4484,-88.609C604.1597,-81.5294 256.4305,-61.7765 143.116,-33 140.3058,-32.2863 137.4384,-31.3883 134.6014,-30.3816"/>
<polygon fill="#191970" stroke="#191970" points="135.7867,-27.0865 125.2008,-26.6507 133.2044,-33.5928 135.7867,-27.0865"/>
</g>
<!-- Node4 -->
<g id="node4" class="node">
<title>Node4</title>
<g id="a_node4"><a xlink:title=" ">
<polygon fill="#ffffff" stroke="#bfbfbf" points="151.879,-6.5 151.879,-26.5 252.353,-26.5 252.353,-6.5 151.879,-6.5"/>
<text text-anchor="middle" x="202.116" y="-13.5" font-family="Helvetica,sans-Serif" font-size="10.00" fill="#000000">dg_local_storage.h</text>
</a>
</g>
</g>
<!-- Node1&#45;&gt;Node4 -->
<g id="edge3" class="edge">
<title>Node1&#45;&gt;Node4</title>
<path fill="none" stroke="#191970" d="M746.0976,-88.2312C644.1534,-82.1081 435.1057,-66.3928 261.116,-33 255.6321,-31.9475 249.9162,-30.6328 244.2939,-29.2076"/>
<polygon fill="#191970" stroke="#191970" points="244.9095,-25.7496 234.3454,-26.5558 243.1066,-32.5134 244.9095,-25.7496"/>
</g>
<!-- Node5 -->
<g id="node5" class="node">
<title>Node5</title>
<g id="a_node5"><a xlink:title=" ">
<polygon fill="#ffffff" stroke="#bfbfbf" points="269.9485,-6.5 269.9485,-26.5 314.2835,-26.5 314.2835,-6.5 269.9485,-6.5"/>
<text text-anchor="middle" x="292.116" y="-13.5" font-family="Helvetica,sans-Serif" font-size="10.00" fill="#000000">cstdlib</text>
</a>
</g>
</g>
<!-- Node1&#45;&gt;Node5 -->
<g id="edge4" class="edge">
<title>Node1&#45;&gt;Node5</title>
<path fill="none" stroke="#191970" d="M746.4596,-86.903C634.1553,-78.0608 400.6866,-57.3852 323.116,-33 321.2403,-32.4103 319.3452,-31.7074 317.4653,-30.9291"/>
<polygon fill="#191970" stroke="#191970" points="318.8867,-27.7293 308.3539,-26.5846 315.8739,-34.0478 318.8867,-27.7293"/>
</g>
<!-- Node6 -->
<g id="node6" class="node">
<title>Node6</title>
<g id="a_node6"><a xlink:title=" ">
<polygon fill="#ffffff" stroke="#bfbfbf" points="331.935,-6.5 331.935,-26.5 436.297,-26.5 436.297,-6.5 331.935,-6.5"/>
<text text-anchor="middle" x="384.116" y="-13.5" font-family="Helvetica,sans-Serif" font-size="10.00" fill="#000000">dg_cantor_pairing.h</text>
</a>
</g>
</g>
<!-- Node1&#45;&gt;Node6 -->
<g id="edge5" class="edge">
<title>Node1&#45;&gt;Node6</title>
<path fill="none" stroke="#191970" d="M746.4135,-83.5567C673.8928,-73.7597 550.1127,-55.5963 445.116,-33 439.7533,-31.8459 434.1585,-30.5132 428.6268,-29.1157"/>
<polygon fill="#191970" stroke="#191970" points="429.361,-25.6902 418.8015,-26.5547 427.5954,-32.4639 429.361,-25.6902"/>
</g>
<!-- Node7 -->
<g id="node7" class="node">
<title>Node7</title>
<g id="a_node7"><a xlink:title=" ">
<polygon fill="#ffffff" stroke="#bfbfbf" points="454.003,-6.5 454.003,-26.5 502.229,-26.5 502.229,-6.5 454.003,-6.5"/>
<text text-anchor="middle" x="478.116" y="-13.5" font-family="Helvetica,sans-Serif" font-size="10.00" fill="#000000">cassert</text>
</a>
</g>
</g>
<!-- Node1&#45;&gt;Node7 -->
<g id="edge6" class="edge">
<title>Node1&#45;&gt;Node7</title>
<path fill="none" stroke="#191970" d="M746.2796,-84.2596C685.3109,-75.9795 590.0679,-59.9604 511.116,-33 509.252,-32.3635 507.3597,-31.6418 505.4728,-30.8647"/>
<polygon fill="#191970" stroke="#191970" points="506.7895,-27.6184 496.2387,-26.6534 503.8849,-33.9874 506.7895,-27.6184"/>
</g>
<!-- Node8 -->
<g id="node8" class="node">
<title>Node8</title>
<g id="a_node8"><a xlink:title=" ">
<polygon fill="#ffffff" stroke="#bfbfbf" points="519.8275,-6.5 519.8275,-26.5 606.4045,-26.5 606.4045,-6.5 519.8275,-6.5"/>
<text text-anchor="middle" x="563.116" y="-13.5" font-family="Helvetica,sans-Serif" font-size="10.00" fill="#000000">unordered_map</text>
</a>
</g>
</g>
<!-- Node1&#45;&gt;Node8 -->
<g id="edge7" class="edge">
<title>Node1&#45;&gt;Node8</title>
<path fill="none" stroke="#191970" d="M746.2621,-72.7577C708.6201,-61.326 659.5757,-46.3856 616.116,-33 612.5442,-31.8999 608.8383,-30.7544 605.1209,-29.6026"/>
<polygon fill="#191970" stroke="#191970" points="605.9261,-26.1879 595.338,-26.5656 603.8507,-32.8731 605.9261,-26.1879"/>
</g>
<!-- Node9 -->
<g id="node9" class="node">
<title>Node9</title>
<g id="a_node9"><a xlink:title=" ">
<polygon fill="#ffffff" stroke="#bfbfbf" points="624.6535,-6.5 624.6535,-26.5 719.5785,-26.5 719.5785,-6.5 624.6535,-6.5"/>
<text text-anchor="middle" x="672.116" y="-13.5" font-family="Helvetica,sans-Serif" font-size="10.00" fill="#000000">dg_status_table.h</text>
</a>
</g>
</g>
<!-- Node1&#45;&gt;Node9 -->
<g id="edge8" class="edge">
<title>Node1&#45;&gt;Node9</title>
<path fill="none" stroke="#191970" d="M768.0471,-69.4032C745.861,-57.1682 718.8737,-42.2855 699.1814,-31.4258"/>
<polygon fill="#191970" stroke="#191970" points="700.8692,-28.3596 690.4222,-26.5954 697.4888,-34.4893 700.8692,-28.3596"/>
</g>
<!-- Node10 -->
<g id="node10" class="node">
<title>Node10</title>
<g id="a_node10"><a xlink:title=" ">
<polygon fill="#ffffff" stroke="#bfbfbf" points="737.441,-6.5 737.441,-26.5 806.791,-26.5 806.791,-6.5 737.441,-6.5"/>
<text text-anchor="middle" x="772.116" y="-13.5" font-family="Helvetica,sans-Serif" font-size="10.00" fill="#000000">dg_param.h</text>
</a>
</g>
</g>
<!-- Node1&#45;&gt;Node10 -->
<g id="edge9" class="edge">
<title>Node1&#45;&gt;Node10</title>
<path fill="none" stroke="#191970" d="M797.5095,-69.4032C792.4074,-58.7737 786.346,-46.1458 781.4249,-35.8936"/>
<polygon fill="#191970" stroke="#191970" points="784.4445,-34.096 776.9618,-26.5954 778.1338,-37.1252 784.4445,-34.096"/>
</g>
<!-- Node11 -->
<g id="node11" class="node">
<title>Node11</title>
<g id="a_node11"><a xlink:title=" ">
<polygon fill="#ffffff" stroke="#bfbfbf" points="824.728,-6.5 824.728,-26.5 863.504,-26.5 863.504,-6.5 824.728,-6.5"/>
<text text-anchor="middle" x="844.116" y="-13.5" font-family="Helvetica,sans-Serif" font-size="10.00" fill="#000000">array</text>
</a>
</g>
</g>
<!-- Node1&#45;&gt;Node11 -->
<g id="edge10" class="edge">
<title>Node1&#45;&gt;Node11</title>
<path fill="none" stroke="#191970" d="M818.7225,-69.4032C823.8246,-58.7737 829.886,-46.1458 834.8071,-35.8936"/>
<polygon fill="#191970" stroke="#191970" points="838.0982,-37.1252 839.2702,-26.5954 831.7875,-34.096 838.0982,-37.1252"/>
</g>
<!-- Node12 -->
<g id="node12" class="node">
<title>Node12</title>
<g id="a_node12"><a xlink:title=" ">
<polygon fill="#ffffff" stroke="#bfbfbf" points="881.379,-6.5 881.379,-26.5 976.853,-26.5 976.853,-6.5 881.379,-6.5"/>
<text text-anchor="middle" x="929.116" y="-13.5" font-family="Helvetica,sans-Serif" font-size="10.00" fill="#000000">dg_elem_length.h</text>
</a>
</g>
</g>
<!-- Node1&#45;&gt;Node12 -->
<g id="edge11" class="edge">
<title>Node1&#45;&gt;Node12</title>
<path fill="none" stroke="#191970" d="M843.7655,-69.4032C863.2367,-57.3343 886.8643,-42.6891 904.3187,-31.8702"/>
<polygon fill="#191970" stroke="#191970" points="906.1731,-34.8387 912.8288,-26.5954 902.4852,-28.8889 906.1731,-34.8387"/>
</g>
<!-- Node13 -->
<g id="node13" class="node">
<title>Node13</title>
<g id="a_node13"><a xlink:title=" ">
<polygon fill="#ffffff" stroke="#bfbfbf" points="994.49,-6.5 994.49,-26.5 1097.742,-26.5 1097.742,-6.5 994.49,-6.5"/>
<text text-anchor="middle" x="1046.116" y="-13.5" font-family="Helvetica,sans-Serif" font-size="10.00" fill="#000000">dg_neighbour_list.h</text>
</a>
</g>
</g>
<!-- Node1&#45;&gt;Node13 -->
<g id="edge12" class="edge">
<title>Node1&#45;&gt;Node13</title>
<path fill="none" stroke="#191970" d="M870.0264,-71.9904C912.2012,-58.7001 966.9139,-41.4587 1004.0821,-29.746"/>
<polygon fill="#191970" stroke="#191970" points="1005.5896,-32.9407 1014.0752,-26.5969 1003.4856,-26.2643 1005.5896,-32.9407"/>
</g>
<!-- Node14 -->
<g id="node14" class="node">
<title>Node14</title>
<g id="a_node14"><a xlink:title=" ">
<polygon fill="#ffffff" stroke="#bfbfbf" points="1115.5605,-6.5 1115.5605,-26.5 1172.6715,-26.5 1172.6715,-6.5 1115.5605,-6.5"/>
<text text-anchor="middle" x="1144.116" y="-13.5" font-family="Helvetica,sans-Serif" font-size="10.00" fill="#000000">algorithm</text>
</a>
</g>
</g>
<!-- Node1&#45;&gt;Node14 -->
<g id="edge13" class="edge">
<title>Node1&#45;&gt;Node14</title>
<path fill="none" stroke="#191970" d="M869.8305,-83.5923C931.0087,-74.7871 1026.9302,-58.3629 1107.116,-33 1109.5218,-32.2391 1111.9799,-31.3674 1114.4284,-30.4309"/>
<polygon fill="#191970" stroke="#191970" points="1115.7929,-33.6541 1123.6937,-26.5953 1113.1153,-27.1864 1115.7929,-33.6541"/>
</g>
<!-- Node15 -->
<g id="node15" class="node">
<title>Node15</title>
<g id="a_node15"><a xlink:title=" ">
<polygon fill="#ffffff" stroke="#bfbfbf" points="1190.5415,-.5 1190.5415,-32.5 1307.6905,-32.5 1307.6905,-.5 1190.5415,-.5"/>
<text text-anchor="start" x="1198.5415" y="-19.5" font-family="Helvetica,sans-Serif" font-size="10.00" fill="#000000">dg_interpolate_to_new</text>
<text text-anchor="middle" x="1249.116" y="-7.5" font-family="Helvetica,sans-Serif" font-size="10.00" fill="#000000">_points.h</text>
</a>
</g>
</g>
<!-- Node1&#45;&gt;Node15 -->
<g id="edge14" class="edge">
<title>Node1&#45;&gt;Node15</title>
<path fill="none" stroke="#191970" d="M869.9529,-83.4936C942.2479,-73.7605 1065.6661,-55.9893 1180.3504,-33.274"/>
<polygon fill="#191970" stroke="#191970" points="1181.2339,-36.6668 1190.3544,-31.2754 1179.8624,-29.8024 1181.2339,-36.6668"/>
</g>
<!-- Node16 -->
<g id="node16" class="node">
<title>Node16</title>
<g id="a_node16"><a xlink:title=" ">
<polygon fill="#ffffff" stroke="#bfbfbf" points="1325.214,-6.5 1325.214,-26.5 1419.018,-26.5 1419.018,-6.5 1325.214,-6.5"/>
<text text-anchor="middle" x="1372.116" y="-13.5" font-family="Helvetica,sans-Serif" font-size="10.00" fill="#000000">dg_prefinement.h</text>
</a>
</g>
</g>
<!-- Node1&#45;&gt;Node16 -->
<g id="edge15" class="edge">
<title>Node1&#45;&gt;Node16</title>
<path fill="none" stroke="#191970" d="M869.7845,-87.9456C966.087,-81.6046 1157.6785,-65.8084 1317.116,-33 1322.1142,-31.9715 1327.3125,-30.6946 1332.4311,-29.3098"/>
<polygon fill="#191970" stroke="#191970" points="1333.4465,-32.6599 1342.1026,-26.5507 1331.526,-25.9284 1333.4465,-32.6599"/>
</g>
<!-- Node17 -->
<g id="node17" class="node">
<title>Node17</title>
<g id="a_node17"><a xlink:title=" ">
<polygon fill="#ffffff" stroke="#bfbfbf" points="1436.9495,-6.5 1436.9495,-26.5 1491.2825,-26.5 1491.2825,-6.5 1436.9495,-6.5"/>
<text text-anchor="middle" x="1464.116" y="-13.5" font-family="Helvetica,sans-Serif" font-size="10.00" fill="#000000">iostream</text>
</a>
</g>
</g>
<!-- Node1&#45;&gt;Node17 -->
<g id="edge16" class="edge">
<title>Node1&#45;&gt;Node17</title>
<path fill="none" stroke="#191970" d="M869.9093,-88.3039C1005.2081,-80.8786 1323.8822,-60.9428 1428.116,-33 1430.6146,-32.3302 1433.1563,-31.5009 1435.6746,-30.5733"/>
<polygon fill="#191970" stroke="#191970" points="1437.2416,-33.7123 1445.1299,-26.6394 1434.5526,-27.2494 1437.2416,-33.7123"/>
</g>
<!-- Node18 -->
<g id="node18" class="node">
<title>Node18</title>
<g id="a_node18"><a xlink:title=" ">
<polygon fill="#ffffff" stroke="#bfbfbf" points="1509.55,-6.5 1509.55,-26.5 1566.682,-26.5 1566.682,-6.5 1509.55,-6.5"/>
<text text-anchor="middle" x="1538.116" y="-13.5" font-family="Helvetica,sans-Serif" font-size="10.00" fill="#000000">dg_test.h</text>
</a>
</g>
</g>
<!-- Node1&#45;&gt;Node18 -->
<g id="edge17" class="edge">
<title>Node1&#45;&gt;Node18</title>
<path fill="none" stroke="#191970" d="M869.8283,-88.8508C1016.3034,-82.1496 1381.527,-62.901 1500.116,-33 1502.9274,-32.2911 1505.7957,-31.3964 1508.6332,-30.3918"/>
<polygon fill="#191970" stroke="#191970" points="1510.0287,-33.6037 1518.0346,-26.6642 1507.4486,-27.0965 1510.0287,-33.6037"/>
</g>
<!-- Node19 -->
<g id="node19" class="node">
<title>Node19</title>
<g id="a_node19"><a xlink:title=" ">
<polygon fill="#ffffff" stroke="#bfbfbf" points="1584.8235,-6.5 1584.8235,-26.5 1681.4085,-26.5 1681.4085,-6.5 1584.8235,-6.5"/>
<text text-anchor="middle" x="1633.116" y="-13.5" font-family="Helvetica,sans-Serif" font-size="10.00" fill="#000000">dg_single_index.h</text>
</a>
</g>
</g>
<!-- Node1&#45;&gt;Node19 -->
<g id="edge18" class="edge">
<title>Node1&#45;&gt;Node19</title>
<path fill="none" stroke="#191970" d="M869.911,-88.4377C1027.3855,-80.3702 1440.8297,-57.4641 1576.116,-33 1581.565,-32.0146 1587.2386,-30.7157 1592.8023,-29.2782"/>
<polygon fill="#191970" stroke="#191970" points="1593.9106,-32.6035 1602.626,-26.5791 1592.056,-25.8537 1593.9106,-32.6035"/>
</g>
</g>
</svg>
