<?xml version="1.0" encoding="UTF-8" standalone="no"?>
<!DOCTYPE svg PUBLIC "-//W3C//DTD SVG 1.1//EN"
 "http://www.w3.org/Graphics/SVG/1.1/DTD/svg11.dtd">
<!-- Generated by graphviz version 2.40.1 (20161225.0304)
 -->
<!-- Title: /home/shiqi/Documents/thesis/new/DG_wave_c/src/dg_start_parallel.cpp Pages: 1 -->
<svg width="597pt" height="110pt"
 viewBox="0.00 0.00 597.34 110.00" xmlns="http://www.w3.org/2000/svg" xmlns:xlink="http://www.w3.org/1999/xlink">
<g id="graph0" class="graph" transform="scale(1 1) rotate(0) translate(4 106)">
<title>/home/shiqi/Documents/thesis/new/DG_wave_c/src/dg_start_parallel.cpp</title>
<polygon fill="#ffffff" stroke="transparent" points="-4,4 -4,-106 593.3435,-106 593.3435,4 -4,4"/>
<!-- Node1 -->
<g id="node1" class="node">
<title>Node1</title>
<g id="a_node1"><a xlink:title=" ">
<polygon fill="#bfbfbf" stroke="#000000" points="146.3785,-57.5 146.3785,-101.5 274.0665,-101.5 274.0665,-57.5 146.3785,-57.5"/>
<text text-anchor="start" x="154.3785" y="-88.5" font-family="Helvetica,sans-Serif" font-size="10.00" fill="#000000">/home/shiqi/Documents</text>
<text text-anchor="start" x="154.3785" y="-76.5" font-family="Helvetica,sans-Serif" font-size="10.00" fill="#000000">/thesis/new/DG_wave_c</text>
<text text-anchor="middle" x="210.2225" y="-64.5" font-family="Helvetica,sans-Serif" font-size="10.00" fill="#000000">/src/dg_start_parallel.cpp</text>
</a>
</g>
</g>
<!-- Node2 -->
<g id="node2" class="node">
<title>Node2</title>
<g id="a_node2"><a xlink:title=" ">
<polygon fill="#ffffff" stroke="#bfbfbf" points="0,-.5 0,-20.5 40.445,-20.5 40.445,-.5 0,-.5"/>
<text text-anchor="middle" x="20.2225" y="-7.5" font-family="Helvetica,sans-Serif" font-size="10.00" fill="#000000">mpi.h</text>
</a>
</g>
</g>
<!-- Node1&#45;&gt;Node2 -->
<g id="edge1" class="edge">
<title>Node1&#45;&gt;Node2</title>
<path fill="none" stroke="#191970" d="M149.5829,-57.4783C116.4556,-45.4478 76.8859,-31.0777 50.3081,-21.4258"/>
<polygon fill="#191970" stroke="#191970" points="51.3927,-18.0961 40.7986,-17.9724 49.0032,-24.6757 51.3927,-18.0961"/>
</g>
<!-- Node3 -->
<g id="node3" class="node">
<title>Node3</title>
<g id="a_node3"><a xlink:title=" ">
<polygon fill="#ffffff" stroke="#bfbfbf" points="58.6095,-.5 58.6095,-20.5 101.8355,-20.5 101.8355,-.5 58.6095,-.5"/>
<text text-anchor="middle" x="80.2225" y="-7.5" font-family="Helvetica,sans-Serif" font-size="10.00" fill="#000000">cmath</text>
</a>
</g>
</g>
<!-- Node1&#45;&gt;Node3 -->
<g id="edge2" class="edge">
<title>Node1&#45;&gt;Node3</title>
<path fill="none" stroke="#191970" d="M168.7323,-57.4783C149.0454,-47.0291 126.0333,-34.815 108.4086,-25.4603"/>
<polygon fill="#191970" stroke="#191970" points="109.7006,-22.1836 99.2267,-20.5869 106.4188,-28.3667 109.7006,-22.1836"/>
</g>
<!-- Node4 -->
<g id="node4" class="node">
<title>Node4</title>
<g id="a_node4"><a xlink:title=" ">
<polygon fill="#ffffff" stroke="#bfbfbf" points="119.5475,-.5 119.5475,-20.5 188.8975,-20.5 188.8975,-.5 119.5475,-.5"/>
<text text-anchor="middle" x="154.2225" y="-7.5" font-family="Helvetica,sans-Serif" font-size="10.00" fill="#000000">dg_param.h</text>
</a>
</g>
</g>
<!-- Node1&#45;&gt;Node4 -->
<g id="edge3" class="edge">
<title>Node1&#45;&gt;Node4</title>
<path fill="none" stroke="#191970" d="M192.1955,-57.2882C184.7136,-48.0694 176.139,-37.5042 169.0332,-28.7488"/>
<polygon fill="#191970" stroke="#191970" points="171.5312,-26.2727 162.5119,-20.7137 166.096,-30.6839 171.5312,-26.2727"/>
</g>
<!-- Node5 -->
<g id="node5" class="node">
<title>Node5</title>
<g id="a_node5"><a xlink:title=" ">
<polygon fill="#ffffff" stroke="#bfbfbf" points="206.6975,-.5 206.6975,-20.5 327.7475,-20.5 327.7475,-.5 206.6975,-.5"/>
<text text-anchor="middle" x="267.2225" y="-7.5" font-family="Helvetica,sans-Serif" font-size="10.00" fill="#000000">dg_nodal_2d_storage.h</text>
</a>
</g>
</g>
<!-- Node1&#45;&gt;Node5 -->
<g id="edge4" class="edge">
<title>Node1&#45;&gt;Node5</title>
<path fill="none" stroke="#191970" d="M228.5714,-57.2882C236.2662,-47.9734 245.0966,-37.2839 252.3729,-28.4758"/>
<polygon fill="#191970" stroke="#191970" points="255.1146,-30.6524 258.7851,-20.7137 249.7179,-26.1942 255.1146,-30.6524"/>
</g>
<!-- Node6 -->
<g id="node6" class="node">
<title>Node6</title>
<g id="a_node6"><a xlink:title=" ">
<polygon fill="#ffffff" stroke="#bfbfbf" points="345.3735,-.5 345.3735,-20.5 473.0715,-20.5 473.0715,-.5 345.3735,-.5"/>
<text text-anchor="middle" x="409.2225" y="-7.5" font-family="Helvetica,sans-Serif" font-size="10.00" fill="#000000">dg_distribute_elements.h</text>
</a>
</g>
</g>
<!-- Node1&#45;&gt;Node6 -->
<g id="edge5" class="edge">
<title>Node1&#45;&gt;Node6</title>
<path fill="none" stroke="#191970" d="M273.7345,-57.4783C305.5447,-46.4486 343.0265,-33.4524 370.494,-23.9285"/>
<polygon fill="#191970" stroke="#191970" points="371.8299,-27.1698 380.1314,-20.5869 369.5366,-20.5561 371.8299,-27.1698"/>
</g>
<!-- Node7 -->
<g id="node7" class="node">
<title>Node7</title>
<g id="a_node7"><a xlink:title=" ">
<polygon fill="#ffffff" stroke="#bfbfbf" points="491.1015,-.5 491.1015,-20.5 589.3435,-20.5 589.3435,-.5 491.1015,-.5"/>
<text text-anchor="middle" x="540.2225" y="-7.5" font-family="Helvetica,sans-Serif" font-size="10.00" fill="#000000">dg_start_parallel.h</text>
</a>
</g>
</g>
<!-- Node1&#45;&gt;Node7 -->
<g id="edge6" class="edge">
<title>Node1&#45;&gt;Node7</title>
<path fill="none" stroke="#191970" d="M274.2411,-66.1143C334.4473,-53.5257 423.799,-34.8431 482.0293,-22.6677"/>
<polygon fill="#191970" stroke="#191970" points="483.0964,-26.0203 492.1684,-20.5477 481.6637,-19.1685 483.0964,-26.0203"/>
</g>
</g>
</svg>
