<?xml version="1.0" encoding="UTF-8" standalone="no"?>
<!DOCTYPE svg PUBLIC "-//W3C//DTD SVG 1.1//EN"
 "http://www.w3.org/Graphics/SVG/1.1/DTD/svg11.dtd">
<!-- Generated by graphviz version 2.40.1 (20161225.0304)
 -->
<!-- Title: /home/shiqi/Documents/thesis/DG_wave_c/src/dg_read_mesh_2d.cpp Pages: 1 -->
<svg width="729pt" height="110pt"
 viewBox="0.00 0.00 728.75 110.00" xmlns="http://www.w3.org/2000/svg" xmlns:xlink="http://www.w3.org/1999/xlink">
<g id="graph0" class="graph" transform="scale(1 1) rotate(0) translate(4 106)">
<title>/home/shiqi/Documents/thesis/DG_wave_c/src/dg_read_mesh_2d.cpp</title>
<polygon fill="#ffffff" stroke="transparent" points="-4,4 -4,-106 724.7475,-106 724.7475,4 -4,4"/>
<!-- Node1 -->
<g id="node1" class="node">
<title>Node1</title>
<g id="a_node1"><a xlink:title=" ">
<polygon fill="#bfbfbf" stroke="#000000" points="221.7015,-57.5 221.7015,-101.5 342.7435,-101.5 342.7435,-57.5 221.7015,-57.5"/>
<text text-anchor="start" x="229.7015" y="-88.5" font-family="Helvetica,sans-Serif" font-size="10.00" fill="#000000">/home/shiqi/Documents</text>
<text text-anchor="start" x="229.7015" y="-76.5" font-family="Helvetica,sans-Serif" font-size="10.00" fill="#000000">/thesis/DG_wave_c/src</text>
<text text-anchor="middle" x="282.2225" y="-64.5" font-family="Helvetica,sans-Serif" font-size="10.00" fill="#000000">/dg_read_mesh_2d.cpp</text>
</a>
</g>
</g>
<!-- Node2 -->
<g id="node2" class="node">
<title>Node2</title>
<g id="a_node2"><a xlink:title=" ">
<polygon fill="#ffffff" stroke="#bfbfbf" points="0,-.5 0,-20.5 40.445,-20.5 40.445,-.5 0,-.5"/>
<text text-anchor="middle" x="20.2225" y="-7.5" font-family="Helvetica,sans-Serif" font-size="10.00" fill="#000000">mpi.h</text>
</a>
</g>
</g>
<!-- Node1&#45;&gt;Node2 -->
<g id="edge1" class="edge">
<title>Node1&#45;&gt;Node2</title>
<path fill="none" stroke="#191970" d="M221.4134,-66.0146C176.4336,-55.6326 113.5579,-40.2704 50.4494,-21.185"/>
<polygon fill="#191970" stroke="#191970" points="51.3172,-17.7906 40.7309,-18.2166 49.2723,-24.4852 51.3172,-17.7906"/>
</g>
<!-- Node3 -->
<g id="node3" class="node">
<title>Node3</title>
<g id="a_node3"><a xlink:title=" ">
<polygon fill="#ffffff" stroke="#bfbfbf" points="58.056,-.5 58.056,-20.5 112.389,-20.5 112.389,-.5 58.056,-.5"/>
<text text-anchor="middle" x="85.2225" y="-7.5" font-family="Helvetica,sans-Serif" font-size="10.00" fill="#000000">iostream</text>
</a>
</g>
</g>
<!-- Node1&#45;&gt;Node3 -->
<g id="edge2" class="edge">
<title>Node1&#45;&gt;Node3</title>
<path fill="none" stroke="#191970" d="M221.5085,-58.2347C189.087,-46.8789 150.2278,-33.2683 122.3143,-23.4916"/>
<polygon fill="#191970" stroke="#191970" points="123.1527,-20.0768 112.5579,-20.0743 120.8387,-26.6833 123.1527,-20.0768"/>
</g>
<!-- Node4 -->
<g id="node4" class="node">
<title>Node4</title>
<g id="a_node4"><a xlink:title=" ">
<polygon fill="#ffffff" stroke="#bfbfbf" points="130.5555,-.5 130.5555,-20.5 179.8895,-20.5 179.8895,-.5 130.5555,-.5"/>
<text text-anchor="middle" x="155.2225" y="-7.5" font-family="Helvetica,sans-Serif" font-size="10.00" fill="#000000">fstream</text>
</a>
</g>
</g>
<!-- Node1&#45;&gt;Node4 -->
<g id="edge3" class="edge">
<title>Node1&#45;&gt;Node4</title>
<path fill="none" stroke="#191970" d="M241.6897,-57.4783C222.4572,-47.0291 199.9761,-34.815 182.7582,-25.4603"/>
<polygon fill="#191970" stroke="#191970" points="184.246,-22.2855 173.7882,-20.5869 180.9042,-28.4363 184.246,-22.2855"/>
</g>
<!-- Node5 -->
<g id="node5" class="node">
<title>Node5</title>
<g id="a_node5"><a xlink:title=" ">
<polygon fill="#ffffff" stroke="#bfbfbf" points="198,-.5 198,-20.5 238.445,-20.5 238.445,-.5 198,-.5"/>
<text text-anchor="middle" x="218.2225" y="-7.5" font-family="Helvetica,sans-Serif" font-size="10.00" fill="#000000">string</text>
</a>
</g>
</g>
<!-- Node1&#45;&gt;Node5 -->
<g id="edge4" class="edge">
<title>Node1&#45;&gt;Node5</title>
<path fill="none" stroke="#191970" d="M261.6202,-57.2882C252.8914,-47.8774 242.861,-37.0634 234.6436,-28.204"/>
<polygon fill="#191970" stroke="#191970" points="237.0626,-25.6653 227.696,-20.7137 231.9304,-30.4256 237.0626,-25.6653"/>
</g>
<!-- Node6 -->
<g id="node6" class="node">
<title>Node6</title>
<g id="a_node6"><a xlink:title=" ">
<polygon fill="#ffffff" stroke="#bfbfbf" points="256.445,-.5 256.445,-20.5 308,-20.5 308,-.5 256.445,-.5"/>
<text text-anchor="middle" x="282.2225" y="-7.5" font-family="Helvetica,sans-Serif" font-size="10.00" fill="#000000">sstream</text>
</a>
</g>
</g>
<!-- Node1&#45;&gt;Node6 -->
<g id="edge5" class="edge">
<title>Node1&#45;&gt;Node6</title>
<path fill="none" stroke="#191970" d="M282.2225,-57.2882C282.2225,-48.8377 282.2225,-39.2557 282.2225,-30.9736"/>
<polygon fill="#191970" stroke="#191970" points="285.7226,-30.7136 282.2225,-20.7137 278.7226,-30.7137 285.7226,-30.7136"/>
</g>
<!-- Node7 -->
<g id="node7" class="node">
<title>Node7</title>
<g id="a_node7"><a xlink:title=" ">
<polygon fill="#ffffff" stroke="#bfbfbf" points="325.6095,-.5 325.6095,-20.5 368.8355,-20.5 368.8355,-.5 325.6095,-.5"/>
<text text-anchor="middle" x="347.2225" y="-7.5" font-family="Helvetica,sans-Serif" font-size="10.00" fill="#000000">cmath</text>
</a>
</g>
</g>
<!-- Node1&#45;&gt;Node7 -->
<g id="edge6" class="edge">
<title>Node1&#45;&gt;Node7</title>
<path fill="none" stroke="#191970" d="M303.1467,-57.2882C312.0119,-47.8774 322.199,-37.0634 330.5448,-28.204"/>
<polygon fill="#191970" stroke="#191970" points="333.2916,-30.3925 337.6009,-20.7137 328.1963,-25.5927 333.2916,-30.3925"/>
</g>
<!-- Node8 -->
<g id="node8" class="node">
<title>Node8</title>
<g id="a_node8"><a xlink:title=" ">
<polygon fill="#ffffff" stroke="#bfbfbf" points="386.5475,-.5 386.5475,-20.5 455.8975,-20.5 455.8975,-.5 386.5475,-.5"/>
<text text-anchor="middle" x="421.2225" y="-7.5" font-family="Helvetica,sans-Serif" font-size="10.00" fill="#000000">dg_param.h</text>
</a>
</g>
</g>
<!-- Node1&#45;&gt;Node8 -->
<g id="edge7" class="edge">
<title>Node1&#45;&gt;Node8</title>
<path fill="none" stroke="#191970" d="M326.5851,-57.4783C347.9273,-46.884 372.9243,-34.4753 391.8669,-25.0722"/>
<polygon fill="#191970" stroke="#191970" points="393.5017,-28.1683 400.9026,-20.5869 390.3892,-21.8983 393.5017,-28.1683"/>
</g>
<!-- Node9 -->
<g id="node9" class="node">
<title>Node9</title>
<g id="a_node9"><a xlink:title=" ">
<polygon fill="#ffffff" stroke="#bfbfbf" points="474.3705,-.5 474.3705,-20.5 582.0745,-20.5 582.0745,-.5 474.3705,-.5"/>
<text text-anchor="middle" x="528.2225" y="-7.5" font-family="Helvetica,sans-Serif" font-size="10.00" fill="#000000">dg_read_mesh_2d.h</text>
</a>
</g>
</g>
<!-- Node1&#45;&gt;Node9 -->
<g id="edge8" class="edge">
<title>Node1&#45;&gt;Node9</title>
<path fill="none" stroke="#191970" d="M343.0315,-62.4438C386.2242,-50.3288 443.3017,-34.3192 482.6144,-23.2925"/>
<polygon fill="#191970" stroke="#191970" points="483.7729,-26.6027 492.4561,-20.532 481.8824,-19.8628 483.7729,-26.6027"/>
</g>
<!-- Node10 -->
<g id="node10" class="node">
<title>Node10</title>
<g id="a_node10"><a xlink:title=" ">
<polygon fill="#ffffff" stroke="#bfbfbf" points="599.6975,-.5 599.6975,-20.5 720.7475,-20.5 720.7475,-.5 599.6975,-.5"/>
<text text-anchor="middle" x="660.2225" y="-7.5" font-family="Helvetica,sans-Serif" font-size="10.00" fill="#000000">dg_nodal_2d_storage.h</text>
</a>
</g>
</g>
<!-- Node1&#45;&gt;Node10 -->
<g id="edge9" class="edge">
<title>Node1&#45;&gt;Node10</title>
<path fill="none" stroke="#191970" d="M342.9547,-68.414C411.9773,-55.8146 524.2143,-35.3269 595.0345,-22.3994"/>
<polygon fill="#191970" stroke="#191970" points="595.9638,-25.7877 605.1728,-20.5488 594.7068,-18.9015 595.9638,-25.7877"/>
</g>
</g>
</svg>
