<?xml version="1.0" encoding="UTF-8" standalone="no"?>
<!DOCTYPE svg PUBLIC "-//W3C//DTD SVG 1.1//EN"
 "http://www.w3.org/Graphics/SVG/1.1/DTD/svg11.dtd">
<!-- Generated by graphviz version 2.40.1 (20161225.0304)
 -->
<!-- Title: /home/shiqi/Documents/thesis/new/DG_wave_c/src/dg_proc_mapping.cpp Pages: 1 -->
<svg width="1670pt" height="110pt"
 viewBox="0.00 0.00 1670.35 110.00" xmlns="http://www.w3.org/2000/svg" xmlns:xlink="http://www.w3.org/1999/xlink">
<g id="graph0" class="graph" transform="scale(1 1) rotate(0) translate(4 106)">
<title>/home/shiqi/Documents/thesis/new/DG_wave_c/src/dg_proc_mapping.cpp</title>
<polygon fill="#ffffff" stroke="transparent" points="-4,4 -4,-106 1666.3485,-106 1666.3485,4 -4,4"/>
<!-- Node1 -->
<g id="node1" class="node">
<title>Node1</title>
<g id="a_node1"><a xlink:title=" ">
<polygon fill="#bfbfbf" stroke="#000000" points="701.277,-57.5 701.277,-101.5 835.087,-101.5 835.087,-57.5 701.277,-57.5"/>
<text text-anchor="start" x="709.277" y="-88.5" font-family="Helvetica,sans-Serif" font-size="10.00" fill="#000000">/home/shiqi/Documents</text>
<text text-anchor="start" x="709.277" y="-76.5" font-family="Helvetica,sans-Serif" font-size="10.00" fill="#000000">/thesis/new/DG_wave_c</text>
<text text-anchor="middle" x="768.182" y="-64.5" font-family="Helvetica,sans-Serif" font-size="10.00" fill="#000000">/src/dg_proc_mapping.cpp</text>
</a>
</g>
</g>
<!-- Node2 -->
<g id="node2" class="node">
<title>Node2</title>
<g id="a_node2"><a xlink:title=" ">
<polygon fill="#ffffff" stroke="#bfbfbf" points="0,-.5 0,-20.5 104.364,-20.5 104.364,-.5 0,-.5"/>
<text text-anchor="middle" x="52.182" y="-7.5" font-family="Helvetica,sans-Serif" font-size="10.00" fill="#000000">dg_proc_mapping.h</text>
</a>
</g>
</g>
<!-- Node1&#45;&gt;Node2 -->
<g id="edge1" class="edge">
<title>Node1&#45;&gt;Node2</title>
<path fill="none" stroke="#191970" d="M701.0375,-75.3141C583.991,-67.62 334.835,-49.4826 114.5203,-21.0894"/>
<polygon fill="#191970" stroke="#191970" points="114.7505,-17.5899 104.383,-19.7729 113.849,-24.5317 114.7505,-17.5899"/>
</g>
<!-- Node3 -->
<g id="node3" class="node">
<title>Node3</title>
<g id="a_node3"><a xlink:title=" ">
<polygon fill="#ffffff" stroke="#bfbfbf" points="122.6165,-.5 122.6165,-20.5 179.7475,-20.5 179.7475,-.5 122.6165,-.5"/>
<text text-anchor="middle" x="151.182" y="-7.5" font-family="Helvetica,sans-Serif" font-size="10.00" fill="#000000">dg_unit.h</text>
</a>
</g>
</g>
<!-- Node1&#45;&gt;Node3 -->
<g id="edge2" class="edge">
<title>Node1&#45;&gt;Node3</title>
<path fill="none" stroke="#191970" d="M701.2313,-76.4129C594.7153,-70.6943 380.144,-55.879 190.0052,-20.8795"/>
<polygon fill="#191970" stroke="#191970" points="190.5822,-17.4268 180.1102,-19.0355 189.2997,-24.3084 190.5822,-17.4268"/>
</g>
<!-- Node4 -->
<g id="node4" class="node">
<title>Node4</title>
<g id="a_node4"><a xlink:title=" ">
<polygon fill="#ffffff" stroke="#bfbfbf" points="197.945,-.5 197.945,-20.5 298.419,-20.5 298.419,-.5 197.945,-.5"/>
<text text-anchor="middle" x="248.182" y="-7.5" font-family="Helvetica,sans-Serif" font-size="10.00" fill="#000000">dg_local_storage.h</text>
</a>
</g>
</g>
<!-- Node1&#45;&gt;Node4 -->
<g id="edge3" class="edge">
<title>Node1&#45;&gt;Node4</title>
<path fill="none" stroke="#191970" d="M701.2358,-72.0659C613.4184,-62.0772 454.3047,-43.1661 308.6994,-21.1791"/>
<polygon fill="#191970" stroke="#191970" points="309.0972,-17.6995 298.6851,-19.6587 308.0464,-24.6202 309.0972,-17.6995"/>
</g>
<!-- Node5 -->
<g id="node5" class="node">
<title>Node5</title>
<g id="a_node5"><a xlink:title=" ">
<polygon fill="#ffffff" stroke="#bfbfbf" points="316.507,-.5 316.507,-20.5 385.857,-20.5 385.857,-.5 316.507,-.5"/>
<text text-anchor="middle" x="351.182" y="-7.5" font-family="Helvetica,sans-Serif" font-size="10.00" fill="#000000">dg_param.h</text>
</a>
</g>
</g>
<!-- Node1&#45;&gt;Node5 -->
<g id="edge4" class="edge">
<title>Node1&#45;&gt;Node5</title>
<path fill="none" stroke="#191970" d="M700.996,-70.731C628.1014,-60.8252 508.123,-43.3835 395.9897,-21.2505"/>
<polygon fill="#191970" stroke="#191970" points="396.3507,-17.7538 385.8598,-19.2338 394.9839,-24.6191 396.3507,-17.7538"/>
</g>
<!-- Node6 -->
<g id="node6" class="node">
<title>Node6</title>
<g id="a_node6"><a xlink:title=" ">
<polygon fill="#ffffff" stroke="#bfbfbf" points="403.569,-.5 403.569,-20.5 446.795,-20.5 446.795,-.5 403.569,-.5"/>
<text text-anchor="middle" x="425.182" y="-7.5" font-family="Helvetica,sans-Serif" font-size="10.00" fill="#000000">cmath</text>
</a>
</g>
</g>
<!-- Node1&#45;&gt;Node6 -->
<g id="edge5" class="edge">
<title>Node1&#45;&gt;Node6</title>
<path fill="none" stroke="#191970" d="M701.2365,-69.7537C639.879,-60.1856 546.4698,-44.0228 456.8598,-20.8998"/>
<polygon fill="#191970" stroke="#191970" points="457.6413,-17.4866 447.0812,-18.3444 455.8714,-24.2591 457.6413,-17.4866"/>
</g>
<!-- Node7 -->
<g id="node7" class="node">
<title>Node7</title>
<g id="a_node7"><a xlink:title=" ">
<polygon fill="#ffffff" stroke="#bfbfbf" points="464.9595,-.5 464.9595,-20.5 505.4045,-20.5 505.4045,-.5 464.9595,-.5"/>
<text text-anchor="middle" x="485.182" y="-7.5" font-family="Helvetica,sans-Serif" font-size="10.00" fill="#000000">mpi.h</text>
</a>
</g>
</g>
<!-- Node1&#45;&gt;Node7 -->
<g id="edge6" class="edge">
<title>Node1&#45;&gt;Node7</title>
<path fill="none" stroke="#191970" d="M701.0269,-66.3488C651.904,-56.1987 583.5589,-40.9795 515.6838,-21.2161"/>
<polygon fill="#191970" stroke="#191970" points="516.2567,-17.7362 505.6752,-18.2673 514.2783,-24.4509 516.2567,-17.7362"/>
</g>
<!-- Node8 -->
<g id="node8" class="node">
<title>Node8</title>
<g id="a_node8"><a xlink:title=" ">
<polygon fill="#ffffff" stroke="#bfbfbf" points="523.001,-.5 523.001,-20.5 627.363,-20.5 627.363,-.5 523.001,-.5"/>
<text text-anchor="middle" x="575.182" y="-7.5" font-family="Helvetica,sans-Serif" font-size="10.00" fill="#000000">dg_cantor_pairing.h</text>
</a>
</g>
</g>
<!-- Node1&#45;&gt;Node8 -->
<g id="edge7" class="edge">
<title>Node1&#45;&gt;Node8</title>
<path fill="none" stroke="#191970" d="M706.585,-57.4783C675.8692,-46.497 639.7009,-33.5664 613.0939,-24.054"/>
<polygon fill="#191970" stroke="#191970" points="613.9906,-20.6577 603.396,-20.5869 611.634,-27.2491 613.9906,-20.6577"/>
</g>
<!-- Node9 -->
<g id="node9" class="node">
<title>Node9</title>
<g id="a_node9"><a xlink:title=" ">
<polygon fill="#ffffff" stroke="#bfbfbf" points="645.6265,-.5 645.6265,-20.5 702.7375,-20.5 702.7375,-.5 645.6265,-.5"/>
<text text-anchor="middle" x="674.182" y="-7.5" font-family="Helvetica,sans-Serif" font-size="10.00" fill="#000000">algorithm</text>
</a>
</g>
</g>
<!-- Node1&#45;&gt;Node9 -->
<g id="edge8" class="edge">
<title>Node1&#45;&gt;Node9</title>
<path fill="none" stroke="#191970" d="M738.1814,-57.4783C724.4735,-47.4161 708.536,-35.7173 695.9944,-26.5113"/>
<polygon fill="#191970" stroke="#191970" points="698.056,-23.6828 687.9235,-20.5869 693.9138,-29.3257 698.056,-23.6828"/>
</g>
<!-- Node10 -->
<g id="node10" class="node">
<title>Node10</title>
<g id="a_node10"><a xlink:title=" ">
<polygon fill="#ffffff" stroke="#bfbfbf" points="720.7195,-.5 720.7195,-20.5 815.6445,-20.5 815.6445,-.5 720.7195,-.5"/>
<text text-anchor="middle" x="768.182" y="-7.5" font-family="Helvetica,sans-Serif" font-size="10.00" fill="#000000">dg_status_table.h</text>
</a>
</g>
</g>
<!-- Node1&#45;&gt;Node10 -->
<g id="edge9" class="edge">
<title>Node1&#45;&gt;Node10</title>
<path fill="none" stroke="#191970" d="M768.182,-57.2882C768.182,-48.8377 768.182,-39.2557 768.182,-30.9736"/>
<polygon fill="#191970" stroke="#191970" points="771.6821,-30.7136 768.182,-20.7137 764.6821,-30.7137 771.6821,-30.7136"/>
</g>
<!-- Node11 -->
<g id="node11" class="node">
<title>Node11</title>
<g id="a_node11"><a xlink:title=" ">
<polygon fill="#ffffff" stroke="#bfbfbf" points="833.445,-.5 833.445,-20.5 928.919,-20.5 928.919,-.5 833.445,-.5"/>
<text text-anchor="middle" x="881.182" y="-7.5" font-family="Helvetica,sans-Serif" font-size="10.00" fill="#000000">dg_elem_length.h</text>
</a>
</g>
</g>
<!-- Node1&#45;&gt;Node11 -->
<g id="edge10" class="edge">
<title>Node1&#45;&gt;Node11</title>
<path fill="none" stroke="#191970" d="M804.2466,-57.4783C821.0421,-47.2226 840.622,-35.2667 855.8259,-25.9829"/>
<polygon fill="#191970" stroke="#191970" points="857.9523,-28.7855 864.6629,-20.5869 854.3042,-22.8112 857.9523,-28.7855"/>
</g>
<!-- Node12 -->
<g id="node12" class="node">
<title>Node12</title>
<g id="a_node12"><a xlink:title=" ">
<polygon fill="#ffffff" stroke="#bfbfbf" points="947.224,-.5 947.224,-20.5 1037.14,-20.5 1037.14,-.5 947.224,-.5"/>
<text text-anchor="middle" x="992.182" y="-7.5" font-family="Helvetica,sans-Serif" font-size="10.00" fill="#000000">dg_load_struct.h</text>
</a>
</g>
</g>
<!-- Node1&#45;&gt;Node12 -->
<g id="edge11" class="edge">
<title>Node1&#45;&gt;Node12</title>
<path fill="none" stroke="#191970" d="M835.3894,-58.7977C872.6444,-47.3218 917.8161,-33.4074 950.0869,-23.4668"/>
<polygon fill="#191970" stroke="#191970" points="951.1382,-26.8053 959.6647,-20.5165 949.0775,-20.1155 951.1382,-26.8053"/>
</g>
<!-- Node13 -->
<g id="node13" class="node">
<title>Node13</title>
<g id="a_node13"><a xlink:title=" ">
<polygon fill="#ffffff" stroke="#bfbfbf" points="1054.8935,-.5 1054.8935,-20.5 1141.4705,-20.5 1141.4705,-.5 1054.8935,-.5"/>
<text text-anchor="middle" x="1098.182" y="-7.5" font-family="Helvetica,sans-Serif" font-size="10.00" fill="#000000">unordered_map</text>
</a>
</g>
</g>
<!-- Node1&#45;&gt;Node13 -->
<g id="edge12" class="edge">
<title>Node1&#45;&gt;Node13</title>
<path fill="none" stroke="#191970" d="M835.3602,-65.4537C897.2267,-52.5179 987.8093,-33.5779 1044.8482,-21.6516"/>
<polygon fill="#191970" stroke="#191970" points="1045.6741,-25.0547 1054.746,-19.5821 1044.2414,-18.2029 1045.6741,-25.0547"/>
</g>
<!-- Node14 -->
<g id="node14" class="node">
<title>Node14</title>
<g id="a_node14"><a xlink:title=" ">
<polygon fill="#ffffff" stroke="#bfbfbf" points="1159.216,-.5 1159.216,-20.5 1269.148,-20.5 1269.148,-.5 1159.216,-.5"/>
<text text-anchor="middle" x="1214.182" y="-7.5" font-family="Helvetica,sans-Serif" font-size="10.00" fill="#000000">dg_boundary_table.h</text>
</a>
</g>
</g>
<!-- Node1&#45;&gt;Node14 -->
<g id="edge13" class="edge">
<title>Node1&#45;&gt;Node14</title>
<path fill="none" stroke="#191970" d="M835.151,-69.465C909.2872,-58.3062 1032.6207,-39.5952 1148.8837,-21.1945"/>
<polygon fill="#191970" stroke="#191970" points="1149.7011,-24.6088 1159.03,-19.5866 1148.6054,-17.6951 1149.7011,-24.6088"/>
</g>
<!-- Node15 -->
<g id="node15" class="node">
<title>Node15</title>
<g id="a_node15"><a xlink:title=" ">
<polygon fill="#ffffff" stroke="#bfbfbf" points="1287.3265,-.5 1287.3265,-20.5 1405.0375,-20.5 1405.0375,-.5 1287.3265,-.5"/>
<text text-anchor="middle" x="1346.182" y="-7.5" font-family="Helvetica,sans-Serif" font-size="10.00" fill="#000000">dg_derived_datatype.h</text>
</a>
</g>
</g>
<!-- Node1&#45;&gt;Node15 -->
<g id="edge14" class="edge">
<title>Node1&#45;&gt;Node15</title>
<path fill="none" stroke="#191970" d="M835.116,-72.6633C930.6872,-62.7147 1112.0052,-43.1491 1276.8959,-21.1328"/>
<polygon fill="#191970" stroke="#191970" points="1277.7845,-24.545 1287.2304,-19.7467 1276.8539,-17.6071 1277.7845,-24.545"/>
</g>
<!-- Node16 -->
<g id="node16" class="node">
<title>Node16</title>
<g id="a_node16"><a xlink:title=" ">
<polygon fill="#ffffff" stroke="#bfbfbf" points="1422.6655,-.5 1422.6655,-20.5 1523.6985,-20.5 1523.6985,-.5 1422.6655,-.5"/>
<text text-anchor="middle" x="1473.182" y="-7.5" font-family="Helvetica,sans-Serif" font-size="10.00" fill="#000000">dg_element_load.h</text>
</a>
</g>
</g>
<!-- Node1&#45;&gt;Node16 -->
<g id="edge15" class="edge">
<title>Node1&#45;&gt;Node16</title>
<path fill="none" stroke="#191970" d="M835.3521,-75.324C951.2047,-67.7029 1196.2275,-49.749 1412.4289,-21.1531"/>
<polygon fill="#191970" stroke="#191970" points="1412.9267,-24.6178 1422.3765,-19.827 1412.0017,-17.6791 1412.9267,-24.6178"/>
</g>
<!-- Node17 -->
<g id="node17" class="node">
<title>Node17</title>
<g id="a_node17"><a xlink:title=" ">
<polygon fill="#ffffff" stroke="#bfbfbf" points="1542.069,-.5 1542.069,-20.5 1590.295,-20.5 1590.295,-.5 1542.069,-.5"/>
<text text-anchor="middle" x="1566.182" y="-7.5" font-family="Helvetica,sans-Serif" font-size="10.00" fill="#000000">cassert</text>
</a>
</g>
</g>
<!-- Node1&#45;&gt;Node17 -->
<g id="edge16" class="edge">
<title>Node1&#45;&gt;Node17</title>
<path fill="none" stroke="#191970" d="M835.314,-76.3655C992.5931,-68.7067 1382.2791,-47.8223 1531.9093,-20.8109"/>
<polygon fill="#191970" stroke="#191970" points="1532.659,-24.2313 1541.8375,-18.9393 1531.3622,-17.3524 1532.659,-24.2313"/>
</g>
<!-- Node18 -->
<g id="node18" class="node">
<title>Node18</title>
<g id="a_node18"><a xlink:title=" ">
<polygon fill="#ffffff" stroke="#bfbfbf" points="1608.0155,-.5 1608.0155,-20.5 1662.3485,-20.5 1662.3485,-.5 1608.0155,-.5"/>
<text text-anchor="middle" x="1635.182" y="-7.5" font-family="Helvetica,sans-Serif" font-size="10.00" fill="#000000">iostream</text>
</a>
</g>
</g>
<!-- Node1&#45;&gt;Node18 -->
<g id="edge17" class="edge">
<title>Node1&#45;&gt;Node18</title>
<path fill="none" stroke="#191970" d="M835.3587,-76.6241C1002.488,-69.1778 1434.6854,-48.0617 1597.9142,-20.855"/>
<polygon fill="#191970" stroke="#191970" points="1598.5539,-24.2964 1607.8083,-19.1382 1597.3571,-17.3994 1598.5539,-24.2964"/>
</g>
</g>
</svg>
