<?xml version="1.0" encoding="UTF-8" standalone="no"?>
<!DOCTYPE svg PUBLIC "-//W3C//DTD SVG 1.1//EN"
 "http://www.w3.org/Graphics/SVG/1.1/DTD/svg11.dtd">
<!-- Generated by graphviz version 2.40.1 (20161225.0304)
 -->
<!-- Title: /home/shiqi/Documents/thesis/new/DG_wave_c/src/dg_status_table.cpp Pages: 1 -->
<svg width="332pt" height="110pt"
 viewBox="0.00 0.00 331.58 110.00" xmlns="http://www.w3.org/2000/svg" xmlns:xlink="http://www.w3.org/1999/xlink">
<g id="graph0" class="graph" transform="scale(1 1) rotate(0) translate(4 106)">
<title>/home/shiqi/Documents/thesis/new/DG_wave_c/src/dg_status_table.cpp</title>
<polygon fill="#ffffff" stroke="transparent" points="-4,4 -4,-106 327.5755,-106 327.5755,4 -4,4"/>
<!-- Node1 -->
<g id="node1" class="node">
<title>Node1</title>
<g id="a_node1"><a xlink:title=" ">
<polygon fill="#bfbfbf" stroke="#000000" points="134.277,-57.5 134.277,-101.5 258.648,-101.5 258.648,-57.5 134.277,-57.5"/>
<text text-anchor="start" x="142.277" y="-88.5" font-family="Helvetica,sans-Serif" font-size="10.00" fill="#000000">/home/shiqi/Documents</text>
<text text-anchor="start" x="142.277" y="-76.5" font-family="Helvetica,sans-Serif" font-size="10.00" fill="#000000">/thesis/new/DG_wave_c</text>
<text text-anchor="middle" x="196.4625" y="-64.5" font-family="Helvetica,sans-Serif" font-size="10.00" fill="#000000">/src/dg_status_table.cpp</text>
</a>
</g>
</g>
<!-- Node2 -->
<g id="node2" class="node">
<title>Node2</title>
<g id="a_node2"><a xlink:title=" ">
<polygon fill="#ffffff" stroke="#bfbfbf" points="0,-.5 0,-20.5 94.925,-20.5 94.925,-.5 0,-.5"/>
<text text-anchor="middle" x="47.4625" y="-7.5" font-family="Helvetica,sans-Serif" font-size="10.00" fill="#000000">dg_status_table.h</text>
</a>
</g>
</g>
<!-- Node1&#45;&gt;Node2 -->
<g id="edge1" class="edge">
<title>Node1&#45;&gt;Node2</title>
<path fill="none" stroke="#191970" d="M148.9083,-57.4783C125.8219,-46.7872 98.7456,-34.2486 78.3754,-24.8154"/>
<polygon fill="#191970" stroke="#191970" points="79.7893,-21.6131 69.2443,-20.5869 76.8477,-27.9651 79.7893,-21.6131"/>
</g>
<!-- Node3 -->
<g id="node3" class="node">
<title>Node3</title>
<g id="a_node3"><a xlink:title=" ">
<polygon fill="#ffffff" stroke="#bfbfbf" points="113.174,-.5 113.174,-20.5 199.751,-20.5 199.751,-.5 113.174,-.5"/>
<text text-anchor="middle" x="156.4625" y="-7.5" font-family="Helvetica,sans-Serif" font-size="10.00" fill="#000000">unordered_map</text>
</a>
</g>
</g>
<!-- Node1&#45;&gt;Node3 -->
<g id="edge2" class="edge">
<title>Node1&#45;&gt;Node3</title>
<path fill="none" stroke="#191970" d="M183.5861,-57.2882C178.4089,-48.3575 172.4991,-38.1632 167.5204,-29.5749"/>
<polygon fill="#191970" stroke="#191970" points="170.4268,-27.6097 162.3835,-20.7137 164.3708,-31.1205 170.4268,-27.6097"/>
</g>
<!-- Node4 -->
<g id="node4" class="node">
<title>Node4</title>
<g id="a_node4"><a xlink:title=" ">
<polygon fill="#ffffff" stroke="#bfbfbf" points="218.0745,-.5 218.0745,-20.5 256.8505,-20.5 256.8505,-.5 218.0745,-.5"/>
<text text-anchor="middle" x="237.4625" y="-7.5" font-family="Helvetica,sans-Serif" font-size="10.00" fill="#000000">array</text>
</a>
</g>
</g>
<!-- Node1&#45;&gt;Node4 -->
<g id="edge3" class="edge">
<title>Node1&#45;&gt;Node4</title>
<path fill="none" stroke="#191970" d="M209.6608,-57.2882C214.9675,-48.3575 221.0249,-38.1632 226.1282,-29.5749"/>
<polygon fill="#191970" stroke="#191970" points="229.2941,-31.0984 231.3935,-20.7137 223.2763,-27.5226 229.2941,-31.0984"/>
</g>
<!-- Node5 -->
<g id="node5" class="node">
<title>Node5</title>
<g id="a_node5"><a xlink:title=" ">
<polygon fill="#ffffff" stroke="#bfbfbf" points="275.3495,-.5 275.3495,-20.5 323.5755,-20.5 323.5755,-.5 275.3495,-.5"/>
<text text-anchor="middle" x="299.4625" y="-7.5" font-family="Helvetica,sans-Serif" font-size="10.00" fill="#000000">cassert</text>
</a>
</g>
</g>
<!-- Node1&#45;&gt;Node5 -->
<g id="edge4" class="edge">
<title>Node1&#45;&gt;Node5</title>
<path fill="none" stroke="#191970" d="M229.3355,-57.4783C244.5003,-47.3194 262.1554,-35.4922 275.957,-26.2464"/>
<polygon fill="#191970" stroke="#191970" points="278.0452,-29.0603 284.4053,-20.5869 274.1492,-23.2447 278.0452,-29.0603"/>
</g>
</g>
</svg>
