<?xml version="1.0" encoding="UTF-8" standalone="no"?>
<!DOCTYPE svg PUBLIC "-//W3C//DTD SVG 1.1//EN"
 "http://www.w3.org/Graphics/SVG/1.1/DTD/svg11.dtd">
<!-- Generated by graphviz version 2.40.1 (20161225.0304)
 -->
<!-- Title: /home/shiqi/Documents/thesis/DG_wave_c/src/dg_basis_storage.cpp Pages: 1 -->
<svg width="705pt" height="110pt"
 viewBox="0.00 0.00 705.39 110.00" xmlns="http://www.w3.org/2000/svg" xmlns:xlink="http://www.w3.org/1999/xlink">
<g id="graph0" class="graph" transform="scale(1 1) rotate(0) translate(4 106)">
<title>/home/shiqi/Documents/thesis/DG_wave_c/src/dg_basis_storage.cpp</title>
<polygon fill="#ffffff" stroke="transparent" points="-4,4 -4,-106 701.389,-106 701.389,4 -4,4"/>
<!-- Node1 -->
<g id="node1" class="node">
<title>Node1</title>
<g id="a_node1"><a xlink:title=" ">
<polygon fill="#bfbfbf" stroke="#000000" points="256.9915,-57.5 256.9915,-101.5 377.4535,-101.5 377.4535,-57.5 256.9915,-57.5"/>
<text text-anchor="start" x="264.9915" y="-88.5" font-family="Helvetica,sans-Serif" font-size="10.00" fill="#000000">/home/shiqi/Documents</text>
<text text-anchor="start" x="264.9915" y="-76.5" font-family="Helvetica,sans-Serif" font-size="10.00" fill="#000000">/thesis/DG_wave_c/src</text>
<text text-anchor="middle" x="317.2225" y="-64.5" font-family="Helvetica,sans-Serif" font-size="10.00" fill="#000000">/dg_basis_storage.cpp</text>
</a>
</g>
</g>
<!-- Node2 -->
<g id="node2" class="node">
<title>Node2</title>
<g id="a_node2"><a xlink:title=" ">
<polygon fill="#ffffff" stroke="#bfbfbf" points="0,-.5 0,-20.5 40.445,-20.5 40.445,-.5 0,-.5"/>
<text text-anchor="middle" x="20.2225" y="-7.5" font-family="Helvetica,sans-Serif" font-size="10.00" fill="#000000">mpi.h</text>
</a>
</g>
</g>
<!-- Node1&#45;&gt;Node2 -->
<g id="edge1" class="edge">
<title>Node1&#45;&gt;Node2</title>
<path fill="none" stroke="#191970" d="M256.7798,-68.6804C204.3288,-58.7546 126.2907,-42.7004 50.427,-21.099"/>
<polygon fill="#191970" stroke="#191970" points="51.2853,-17.704 40.707,-18.297 49.3462,-24.4301 51.2853,-17.704"/>
</g>
<!-- Node3 -->
<g id="node3" class="node">
<title>Node3</title>
<g id="a_node3"><a xlink:title=" ">
<polygon fill="#ffffff" stroke="#bfbfbf" points="58.6975,-.5 58.6975,-20.5 179.7475,-20.5 179.7475,-.5 58.6975,-.5"/>
<text text-anchor="middle" x="119.2225" y="-7.5" font-family="Helvetica,sans-Serif" font-size="10.00" fill="#000000">dg_nodal_2d_storage.h</text>
</a>
</g>
</g>
<!-- Node1&#45;&gt;Node3 -->
<g id="edge2" class="edge">
<title>Node1&#45;&gt;Node3</title>
<path fill="none" stroke="#191970" d="M256.7401,-58.4228C224.491,-47.1845 185.7815,-33.6948 157.6598,-23.8948"/>
<polygon fill="#191970" stroke="#191970" points="158.7772,-20.5778 148.1823,-20.5921 156.4736,-27.1879 158.7772,-20.5778"/>
</g>
<!-- Node4 -->
<g id="node4" class="node">
<title>Node4</title>
<g id="a_node4"><a xlink:title=" ">
<polygon fill="#ffffff" stroke="#bfbfbf" points="197.5475,-.5 197.5475,-20.5 266.8975,-20.5 266.8975,-.5 197.5475,-.5"/>
<text text-anchor="middle" x="232.2225" y="-7.5" font-family="Helvetica,sans-Serif" font-size="10.00" fill="#000000">dg_param.h</text>
</a>
</g>
</g>
<!-- Node1&#45;&gt;Node4 -->
<g id="edge3" class="edge">
<title>Node1&#45;&gt;Node4</title>
<path fill="none" stroke="#191970" d="M289.8601,-57.2882C277.7939,-47.4933 263.8552,-36.1783 252.7077,-27.1292"/>
<polygon fill="#191970" stroke="#191970" points="254.7744,-24.2988 244.8046,-20.7137 250.3626,-29.7336 254.7744,-24.2988"/>
</g>
<!-- Node5 -->
<g id="node5" class="node">
<title>Node5</title>
<g id="a_node5"><a xlink:title=" ">
<polygon fill="#ffffff" stroke="#bfbfbf" points="285.0465,-.5 285.0465,-20.5 349.3985,-20.5 349.3985,-.5 285.0465,-.5"/>
<text text-anchor="middle" x="317.2225" y="-7.5" font-family="Helvetica,sans-Serif" font-size="10.00" fill="#000000">dg_basis.h</text>
</a>
</g>
</g>
<!-- Node1&#45;&gt;Node5 -->
<g id="edge4" class="edge">
<title>Node1&#45;&gt;Node5</title>
<path fill="none" stroke="#191970" d="M317.2225,-57.2882C317.2225,-48.8377 317.2225,-39.2557 317.2225,-30.9736"/>
<polygon fill="#191970" stroke="#191970" points="320.7226,-30.7136 317.2225,-20.7137 313.7226,-30.7137 320.7226,-30.7136"/>
</g>
<!-- Node6 -->
<g id="node6" class="node">
<title>Node6</title>
<g id="a_node6"><a xlink:title=" ">
<polygon fill="#ffffff" stroke="#bfbfbf" points="366.924,-.5 366.924,-20.5 503.521,-20.5 503.521,-.5 366.924,-.5"/>
<text text-anchor="middle" x="435.2225" y="-7.5" font-family="Helvetica,sans-Serif" font-size="10.00" fill="#000000">dg_poly_level_and_order.h</text>
</a>
</g>
</g>
<!-- Node1&#45;&gt;Node6 -->
<g id="edge5" class="edge">
<title>Node1&#45;&gt;Node6</title>
<path fill="none" stroke="#191970" d="M354.8829,-57.4783C372.587,-47.1259 393.2538,-35.041 409.1925,-25.7209"/>
<polygon fill="#191970" stroke="#191970" points="411.1068,-28.6561 417.9725,-20.5869 407.5733,-22.6133 411.1068,-28.6561"/>
</g>
<!-- Node7 -->
<g id="node7" class="node">
<title>Node7</title>
<g id="a_node7"><a xlink:title=" ">
<polygon fill="#ffffff" stroke="#bfbfbf" points="521.595,-.5 521.595,-20.5 624.85,-20.5 624.85,-.5 521.595,-.5"/>
<text text-anchor="middle" x="573.2225" y="-7.5" font-family="Helvetica,sans-Serif" font-size="10.00" fill="#000000">dg_basis_storage.h</text>
</a>
</g>
</g>
<!-- Node1&#45;&gt;Node7 -->
<g id="edge6" class="edge">
<title>Node1&#45;&gt;Node7</title>
<path fill="none" stroke="#191970" d="M377.5668,-63.2353C423.0012,-50.9893 484.3952,-34.4417 526.214,-23.1703"/>
<polygon fill="#191970" stroke="#191970" points="527.1314,-26.548 535.8759,-20.5661 525.3096,-19.7892 527.1314,-26.548"/>
</g>
<!-- Node8 -->
<g id="node8" class="node">
<title>Node8</title>
<g id="a_node8"><a xlink:title=" ">
<polygon fill="#ffffff" stroke="#bfbfbf" points="643.056,-.5 643.056,-20.5 697.389,-20.5 697.389,-.5 643.056,-.5"/>
<text text-anchor="middle" x="670.2225" y="-7.5" font-family="Helvetica,sans-Serif" font-size="10.00" fill="#000000">iostream</text>
</a>
</g>
</g>
<!-- Node1&#45;&gt;Node8 -->
<g id="edge7" class="edge">
<title>Node1&#45;&gt;Node8</title>
<path fill="none" stroke="#191970" d="M377.4886,-70.2449C439.3528,-60.3251 538.5383,-43.2598 632.7948,-21.1776"/>
<polygon fill="#191970" stroke="#191970" points="633.8562,-24.5232 642.7814,-18.8145 632.2442,-17.7114 633.8562,-24.5232"/>
</g>
</g>
</svg>
