<?xml version="1.0" encoding="UTF-8" standalone="no"?>
<!DOCTYPE svg PUBLIC "-//W3C//DTD SVG 1.1//EN"
 "http://www.w3.org/Graphics/SVG/1.1/DTD/svg11.dtd">
<!-- Generated by graphviz version 2.40.1 (20161225.0304)
 -->
<!-- Title: /home/shiqi/Documents/thesis/new/DG_wave_c/src/dg_create_hash.cpp Pages: 1 -->
<svg width="1045pt" height="110pt"
 viewBox="0.00 0.00 1044.63 110.00" xmlns="http://www.w3.org/2000/svg" xmlns:xlink="http://www.w3.org/1999/xlink">
<g id="graph0" class="graph" transform="scale(1 1) rotate(0) translate(4 106)">
<title>/home/shiqi/Documents/thesis/new/DG_wave_c/src/dg_create_hash.cpp</title>
<polygon fill="#ffffff" stroke="transparent" points="-4,4 -4,-106 1040.631,-106 1040.631,4 -4,4"/>
<!-- Node1 -->
<g id="node1" class="node">
<title>Node1</title>
<g id="a_node1"><a xlink:title=" ">
<polygon fill="#bfbfbf" stroke="#000000" points="455.277,-57.5 455.277,-101.5 580.759,-101.5 580.759,-57.5 455.277,-57.5"/>
<text text-anchor="start" x="463.277" y="-88.5" font-family="Helvetica,sans-Serif" font-size="10.00" fill="#000000">/home/shiqi/Documents</text>
<text text-anchor="start" x="463.277" y="-76.5" font-family="Helvetica,sans-Serif" font-size="10.00" fill="#000000">/thesis/new/DG_wave_c</text>
<text text-anchor="middle" x="518.018" y="-64.5" font-family="Helvetica,sans-Serif" font-size="10.00" fill="#000000">/src/dg_create_hash.cpp</text>
</a>
</g>
</g>
<!-- Node2 -->
<g id="node2" class="node">
<title>Node2</title>
<g id="a_node2"><a xlink:title=" ">
<polygon fill="#ffffff" stroke="#bfbfbf" points="0,-.5 0,-20.5 96.036,-20.5 96.036,-.5 0,-.5"/>
<text text-anchor="middle" x="48.018" y="-7.5" font-family="Helvetica,sans-Serif" font-size="10.00" fill="#000000">dg_create_hash.h</text>
</a>
</g>
</g>
<!-- Node1&#45;&gt;Node2 -->
<g id="edge1" class="edge">
<title>Node1&#45;&gt;Node2</title>
<path fill="none" stroke="#191970" d="M455.2736,-71.4358C376.2853,-61.0998 236.1903,-42.1595 106.3235,-21.1648"/>
<polygon fill="#191970" stroke="#191970" points="106.6274,-17.6684 96.1957,-19.5199 105.5052,-24.5779 106.6274,-17.6684"/>
</g>
<!-- Node3 -->
<g id="node3" class="node">
<title>Node3</title>
<g id="a_node3"><a xlink:title=" ">
<polygon fill="#ffffff" stroke="#bfbfbf" points="113.781,-.5 113.781,-20.5 214.255,-20.5 214.255,-.5 113.781,-.5"/>
<text text-anchor="middle" x="164.018" y="-7.5" font-family="Helvetica,sans-Serif" font-size="10.00" fill="#000000">dg_local_storage.h</text>
</a>
</g>
</g>
<!-- Node1&#45;&gt;Node3 -->
<g id="edge2" class="edge">
<title>Node1&#45;&gt;Node3</title>
<path fill="none" stroke="#191970" d="M455.1378,-67.2437C389.8846,-54.5248 288.5576,-34.7747 224.2872,-22.2474"/>
<polygon fill="#191970" stroke="#191970" points="224.7864,-18.7789 214.3015,-20.301 223.4472,-25.6496 224.7864,-18.7789"/>
</g>
<!-- Node4 -->
<g id="node4" class="node">
<title>Node4</title>
<g id="a_node4"><a xlink:title=" ">
<polygon fill="#ffffff" stroke="#bfbfbf" points="232.7295,-.5 232.7295,-20.5 319.3065,-20.5 319.3065,-.5 232.7295,-.5"/>
<text text-anchor="middle" x="276.018" y="-7.5" font-family="Helvetica,sans-Serif" font-size="10.00" fill="#000000">unordered_map</text>
</a>
</g>
</g>
<!-- Node1&#45;&gt;Node4 -->
<g id="edge3" class="edge">
<title>Node1&#45;&gt;Node4</title>
<path fill="none" stroke="#191970" d="M455.0671,-61.5512C413.0287,-49.565 358.7392,-34.0858 321.0135,-23.3293"/>
<polygon fill="#191970" stroke="#191970" points="321.8936,-19.9408 311.3171,-20.5646 319.9742,-26.6725 321.8936,-19.9408"/>
</g>
<!-- Node5 -->
<g id="node5" class="node">
<title>Node5</title>
<g id="a_node5"><a xlink:title=" ">
<polygon fill="#ffffff" stroke="#bfbfbf" points="337.4525,-.5 337.4525,-20.5 394.5835,-20.5 394.5835,-.5 337.4525,-.5"/>
<text text-anchor="middle" x="366.018" y="-7.5" font-family="Helvetica,sans-Serif" font-size="10.00" fill="#000000">dg_unit.h</text>
</a>
</g>
</g>
<!-- Node1&#45;&gt;Node5 -->
<g id="edge4" class="edge">
<title>Node1&#45;&gt;Node5</title>
<path fill="none" stroke="#191970" d="M469.5063,-57.4783C445.9551,-46.7872 418.3337,-34.2486 397.5533,-24.8154"/>
<polygon fill="#191970" stroke="#191970" points="398.7908,-21.5334 388.2383,-20.5869 395.8973,-27.9074 398.7908,-21.5334"/>
</g>
<!-- Node6 -->
<g id="node6" class="node">
<title>Node6</title>
<g id="a_node6"><a xlink:title=" ">
<polygon fill="#ffffff" stroke="#bfbfbf" points="412.7255,-.5 412.7255,-20.5 509.3105,-20.5 509.3105,-.5 412.7255,-.5"/>
<text text-anchor="middle" x="461.018" y="-7.5" font-family="Helvetica,sans-Serif" font-size="10.00" fill="#000000">dg_single_index.h</text>
</a>
</g>
</g>
<!-- Node1&#45;&gt;Node6 -->
<g id="edge5" class="edge">
<title>Node1&#45;&gt;Node6</title>
<path fill="none" stroke="#191970" d="M499.6691,-57.2882C491.9743,-47.9734 483.1439,-37.2839 475.8676,-28.4758"/>
<polygon fill="#191970" stroke="#191970" points="478.5226,-26.1942 469.4554,-20.7137 473.1259,-30.6524 478.5226,-26.1942"/>
</g>
<!-- Node7 -->
<g id="node7" class="node">
<title>Node7</title>
<g id="a_node7"><a xlink:title=" ">
<polygon fill="#ffffff" stroke="#bfbfbf" points="526.896,-.5 526.896,-20.5 625.14,-20.5 625.14,-.5 526.896,-.5"/>
<text text-anchor="middle" x="576.018" y="-7.5" font-family="Helvetica,sans-Serif" font-size="10.00" fill="#000000">dg_hilbert_curve.h</text>
</a>
</g>
</g>
<!-- Node1&#45;&gt;Node7 -->
<g id="edge6" class="edge">
<title>Node1&#45;&gt;Node7</title>
<path fill="none" stroke="#191970" d="M536.6888,-57.2882C544.5186,-47.9734 553.504,-37.2839 560.9079,-28.4758"/>
<polygon fill="#191970" stroke="#191970" points="563.6772,-30.6207 567.4326,-20.7137 558.3188,-26.1165 563.6772,-30.6207"/>
</g>
<!-- Node8 -->
<g id="node8" class="node">
<title>Node8</title>
<g id="a_node8"><a xlink:title=" ">
<polygon fill="#ffffff" stroke="#bfbfbf" points="642.837,-.5 642.837,-20.5 747.199,-20.5 747.199,-.5 642.837,-.5"/>
<text text-anchor="middle" x="695.018" y="-7.5" font-family="Helvetica,sans-Serif" font-size="10.00" fill="#000000">dg_cantor_pairing.h</text>
</a>
</g>
</g>
<!-- Node1&#45;&gt;Node8 -->
<g id="edge7" class="edge">
<title>Node1&#45;&gt;Node8</title>
<path fill="none" stroke="#191970" d="M574.5086,-57.4783C602.4298,-46.5937 635.2637,-33.7941 659.602,-24.3062"/>
<polygon fill="#191970" stroke="#191970" points="661.0972,-27.48 669.143,-20.5869 658.5547,-20.958 661.0972,-27.48"/>
</g>
<!-- Node9 -->
<g id="node9" class="node">
<title>Node9</title>
<g id="a_node9"><a xlink:title=" ">
<polygon fill="#ffffff" stroke="#bfbfbf" points="765.343,-.5 765.343,-20.5 834.693,-20.5 834.693,-.5 765.343,-.5"/>
<text text-anchor="middle" x="800.018" y="-7.5" font-family="Helvetica,sans-Serif" font-size="10.00" fill="#000000">dg_param.h</text>
</a>
</g>
</g>
<!-- Node1&#45;&gt;Node9 -->
<g id="edge8" class="edge">
<title>Node1&#45;&gt;Node9</title>
<path fill="none" stroke="#191970" d="M580.9533,-64.1009C633.8842,-51.1498 708.2472,-32.9546 755.2751,-21.4477"/>
<polygon fill="#191970" stroke="#191970" points="756.2848,-24.804 765.1664,-19.0275 754.6211,-18.0046 756.2848,-24.804"/>
</g>
<!-- Node10 -->
<g id="node10" class="node">
<title>Node10</title>
<g id="a_node10"><a xlink:title=" ">
<polygon fill="#ffffff" stroke="#bfbfbf" points="852.3885,-.5 852.3885,-20.5 975.6475,-20.5 975.6475,-.5 852.3885,-.5"/>
<text text-anchor="middle" x="914.018" y="-7.5" font-family="Helvetica,sans-Serif" font-size="10.00" fill="#000000">dg_index_local_global.h</text>
</a>
</g>
</g>
<!-- Node1&#45;&gt;Node10 -->
<g id="edge9" class="edge">
<title>Node1&#45;&gt;Node10</title>
<path fill="none" stroke="#191970" d="M580.7654,-68.5667C653.1467,-55.9549 771.7197,-35.2944 846.1854,-22.3193"/>
<polygon fill="#191970" stroke="#191970" points="847.14,-25.7058 856.3907,-20.5411 845.9383,-18.8097 847.14,-25.7058"/>
</g>
<!-- Node11 -->
<g id="node11" class="node">
<title>Node11</title>
<g id="a_node11"><a xlink:title=" ">
<polygon fill="#ffffff" stroke="#bfbfbf" points="993.405,-.5 993.405,-20.5 1036.631,-20.5 1036.631,-.5 993.405,-.5"/>
<text text-anchor="middle" x="1015.018" y="-7.5" font-family="Helvetica,sans-Serif" font-size="10.00" fill="#000000">vector</text>
</a>
</g>
</g>
<!-- Node1&#45;&gt;Node11 -->
<g id="edge10" class="edge">
<title>Node1&#45;&gt;Node11</title>
<path fill="none" stroke="#191970" d="M581.0838,-75.8554C669.4912,-69.8112 835.1745,-55.0715 983.0575,-21.1017"/>
<polygon fill="#191970" stroke="#191970" points="984.2791,-24.4108 993.2219,-18.7296 982.6881,-17.594 984.2791,-24.4108"/>
</g>
</g>
</svg>
