<?xml version="1.0" encoding="UTF-8" standalone="no"?>
<!DOCTYPE svg PUBLIC "-//W3C//DTD SVG 1.1//EN"
 "http://www.w3.org/Graphics/SVG/1.1/DTD/svg11.dtd">
<!-- Generated by graphviz version 2.40.1 (20161225.0304)
 -->
<!-- Title: /home/shiqi/Documents/thesis/new/DG_wave_c/src/dg_interpolate_to_new_points.cpp Pages: 1 -->
<svg width="1147pt" height="134pt"
 viewBox="0.00 0.00 1146.74 134.00" xmlns="http://www.w3.org/2000/svg" xmlns:xlink="http://www.w3.org/1999/xlink">
<g id="graph0" class="graph" transform="scale(1 1) rotate(0) translate(4 130)">
<title>/home/shiqi/Documents/thesis/new/DG_wave_c/src/dg_interpolate_to_new_points.cpp</title>
<polygon fill="#ffffff" stroke="transparent" points="-4,4 -4,-130 1142.741,-130 1142.741,4 -4,4"/>
<!-- Node1 -->
<g id="node1" class="node">
<title>Node1</title>
<g id="a_node1"><a xlink:title=" ">
<polygon fill="#bfbfbf" stroke="#000000" points="607.953,-69.5 607.953,-125.5 731.196,-125.5 731.196,-69.5 607.953,-69.5"/>
<text text-anchor="start" x="615.953" y="-112.5" font-family="Helvetica,sans-Serif" font-size="10.00" fill="#000000">/home/shiqi/Documents</text>
<text text-anchor="start" x="615.953" y="-100.5" font-family="Helvetica,sans-Serif" font-size="10.00" fill="#000000">/thesis/new/DG_wave_c</text>
<text text-anchor="start" x="615.953" y="-88.5" font-family="Helvetica,sans-Serif" font-size="10.00" fill="#000000">/src/dg_interpolate_to</text>
<text text-anchor="middle" x="669.5745" y="-76.5" font-family="Helvetica,sans-Serif" font-size="10.00" fill="#000000">_new_points.cpp</text>
</a>
</g>
</g>
<!-- Node2 -->
<g id="node2" class="node">
<title>Node2</title>
<g id="a_node2"><a xlink:title=" ">
<polygon fill="#ffffff" stroke="#bfbfbf" points="0,-.5 0,-32.5 117.149,-32.5 117.149,-.5 0,-.5"/>
<text text-anchor="start" x="8" y="-19.5" font-family="Helvetica,sans-Serif" font-size="10.00" fill="#000000">dg_interpolate_to_new</text>
<text text-anchor="middle" x="58.5745" y="-7.5" font-family="Helvetica,sans-Serif" font-size="10.00" fill="#000000">_points.h</text>
</a>
</g>
</g>
<!-- Node1&#45;&gt;Node2 -->
<g id="edge1" class="edge">
<title>Node1&#45;&gt;Node2</title>
<path fill="none" stroke="#191970" d="M607.7366,-92.5842C508.409,-84.1549 307.0982,-64.8759 127.3532,-33.0155"/>
<polygon fill="#191970" stroke="#191970" points="127.9148,-29.5605 117.4546,-31.2441 126.6817,-36.451 127.9148,-29.5605"/>
</g>
<!-- Node3 -->
<g id="node3" class="node">
<title>Node3</title>
<g id="a_node3"><a xlink:title=" ">
<polygon fill="#ffffff" stroke="#bfbfbf" points="135.3375,-6.5 135.3375,-26.5 235.8115,-26.5 235.8115,-6.5 135.3375,-6.5"/>
<text text-anchor="middle" x="185.5745" y="-13.5" font-family="Helvetica,sans-Serif" font-size="10.00" fill="#000000">dg_local_storage.h</text>
</a>
</g>
</g>
<!-- Node1&#45;&gt;Node3 -->
<g id="edge2" class="edge">
<title>Node1&#45;&gt;Node3</title>
<path fill="none" stroke="#191970" d="M607.9166,-90.5397C524.8465,-80.6177 372.6267,-60.515 244.5745,-33 239.4418,-31.8971 234.0949,-30.6061 228.8074,-29.2406"/>
<polygon fill="#191970" stroke="#191970" points="229.3495,-25.7623 218.7842,-26.5525 227.5362,-32.5234 229.3495,-25.7623"/>
</g>
<!-- Node4 -->
<g id="node4" class="node">
<title>Node4</title>
<g id="a_node4"><a xlink:title=" ">
<polygon fill="#ffffff" stroke="#bfbfbf" points="254.009,-6.5 254.009,-26.5 311.14,-26.5 311.14,-6.5 254.009,-6.5"/>
<text text-anchor="middle" x="282.5745" y="-13.5" font-family="Helvetica,sans-Serif" font-size="10.00" fill="#000000">dg_unit.h</text>
</a>
</g>
</g>
<!-- Node1&#45;&gt;Node4 -->
<g id="edge3" class="edge">
<title>Node1&#45;&gt;Node4</title>
<path fill="none" stroke="#191970" d="M607.7275,-90.3828C537.1689,-81.277 418.8455,-62.99 320.5745,-33 318.1066,-32.2469 315.5842,-31.3808 313.0709,-30.4482"/>
<polygon fill="#191970" stroke="#191970" points="314.1416,-27.1063 303.558,-26.62 311.5283,-33.6003 314.1416,-27.1063"/>
</g>
<!-- Node5 -->
<g id="node5" class="node">
<title>Node5</title>
<g id="a_node5"><a xlink:title=" ">
<polygon fill="#ffffff" stroke="#bfbfbf" points="329.337,-6.5 329.337,-26.5 419.812,-26.5 419.812,-6.5 329.337,-6.5"/>
<text text-anchor="middle" x="374.5745" y="-13.5" font-family="Helvetica,sans-Serif" font-size="10.00" fill="#000000">dg_affine_map.h</text>
</a>
</g>
</g>
<!-- Node1&#45;&gt;Node5 -->
<g id="edge4" class="edge">
<title>Node1&#45;&gt;Node5</title>
<path fill="none" stroke="#191970" d="M607.7459,-81.5895C558.9644,-68.883 489.2614,-50.3868 428.5745,-33 424.7093,-31.8926 420.6965,-30.7165 416.6826,-29.5222"/>
<polygon fill="#191970" stroke="#191970" points="417.3706,-26.0743 406.7862,-26.5444 415.3536,-32.7774 417.3706,-26.0743"/>
</g>
<!-- Node6 -->
<g id="node6" class="node">
<title>Node6</title>
<g id="a_node6"><a xlink:title=" ">
<polygon fill="#ffffff" stroke="#bfbfbf" points="438.0495,-6.5 438.0495,-26.5 559.0995,-26.5 559.0995,-6.5 438.0495,-6.5"/>
<text text-anchor="middle" x="498.5745" y="-13.5" font-family="Helvetica,sans-Serif" font-size="10.00" fill="#000000">dg_nodal_2d_storage.h</text>
</a>
</g>
</g>
<!-- Node1&#45;&gt;Node6 -->
<g id="edge5" class="edge">
<title>Node1&#45;&gt;Node6</title>
<path fill="none" stroke="#191970" d="M610.2469,-69.3975C582.8997,-56.4435 551.5991,-41.6169 529.1077,-30.9631"/>
<polygon fill="#191970" stroke="#191970" points="530.5808,-27.7881 520.0451,-26.6703 527.5842,-34.1143 530.5808,-27.7881"/>
</g>
<!-- Node7 -->
<g id="node7" class="node">
<title>Node7</title>
<g id="a_node7"><a xlink:title=" ">
<polygon fill="#ffffff" stroke="#bfbfbf" points="577.282,-6.5 577.282,-26.5 673.867,-26.5 673.867,-6.5 577.282,-6.5"/>
<text text-anchor="middle" x="625.5745" y="-13.5" font-family="Helvetica,sans-Serif" font-size="10.00" fill="#000000">dg_single_index.h</text>
</a>
</g>
</g>
<!-- Node1&#45;&gt;Node7 -->
<g id="edge6" class="edge">
<title>Node1&#45;&gt;Node7</title>
<path fill="none" stroke="#191970" d="M654.1854,-69.1701C648.1634,-58.0842 641.4129,-45.6571 635.9819,-35.659"/>
<polygon fill="#191970" stroke="#191970" points="638.9154,-33.7268 631.0665,-26.6102 632.7643,-37.0682 638.9154,-33.7268"/>
</g>
<!-- Node8 -->
<g id="node8" class="node">
<title>Node8</title>
<g id="a_node8"><a xlink:title=" ">
<polygon fill="#ffffff" stroke="#bfbfbf" points="691.9615,-6.5 691.9615,-26.5 735.1875,-26.5 735.1875,-6.5 691.9615,-6.5"/>
<text text-anchor="middle" x="713.5745" y="-13.5" font-family="Helvetica,sans-Serif" font-size="10.00" fill="#000000">vector</text>
</a>
</g>
</g>
<!-- Node1&#45;&gt;Node8 -->
<g id="edge7" class="edge">
<title>Node1&#45;&gt;Node8</title>
<path fill="none" stroke="#191970" d="M684.9636,-69.1701C690.9856,-58.0842 697.7361,-45.6571 703.1671,-35.659"/>
<polygon fill="#191970" stroke="#191970" points="706.3847,-37.0682 708.0825,-26.6102 700.2336,-33.7268 706.3847,-37.0682"/>
</g>
<!-- Node9 -->
<g id="node9" class="node">
<title>Node9</title>
<g id="a_node9"><a xlink:title=" ">
<polygon fill="#ffffff" stroke="#bfbfbf" points="752.8995,-6.5 752.8995,-26.5 822.2495,-26.5 822.2495,-6.5 752.8995,-6.5"/>
<text text-anchor="middle" x="787.5745" y="-13.5" font-family="Helvetica,sans-Serif" font-size="10.00" fill="#000000">dg_param.h</text>
</a>
</g>
</g>
<!-- Node1&#45;&gt;Node9 -->
<g id="edge8" class="edge">
<title>Node1&#45;&gt;Node9</title>
<path fill="none" stroke="#191970" d="M710.514,-69.3975C728.5427,-57.0218 749.0613,-42.937 764.3906,-32.4144"/>
<polygon fill="#191970" stroke="#191970" points="766.4948,-35.2153 772.7585,-26.6703 762.5332,-29.4441 766.4948,-35.2153"/>
</g>
<!-- Node10 -->
<g id="node10" class="node">
<title>Node10</title>
<g id="a_node10"><a xlink:title=" ">
<polygon fill="#ffffff" stroke="#bfbfbf" points="840.3985,-6.5 840.3985,-26.5 904.7505,-26.5 904.7505,-6.5 840.3985,-6.5"/>
<text text-anchor="middle" x="872.5745" y="-13.5" font-family="Helvetica,sans-Serif" font-size="10.00" fill="#000000">dg_basis.h</text>
</a>
</g>
</g>
<!-- Node1&#45;&gt;Node10 -->
<g id="edge9" class="edge">
<title>Node1&#45;&gt;Node10</title>
<path fill="none" stroke="#191970" d="M731.5221,-72.8978C761.7151,-60.891 798.552,-46.2186 831.5745,-33 833.6581,-32.166 835.8008,-31.3071 837.9619,-30.44"/>
<polygon fill="#191970" stroke="#191970" points="839.454,-33.6125 847.4284,-26.6369 836.8444,-27.1171 839.454,-33.6125"/>
</g>
<!-- Node11 -->
<g id="node11" class="node">
<title>Node11</title>
<g id="a_node11"><a xlink:title=" ">
<polygon fill="#ffffff" stroke="#bfbfbf" points="923.1865,-6.5 923.1865,-26.5 961.9625,-26.5 961.9625,-6.5 923.1865,-6.5"/>
<text text-anchor="middle" x="942.5745" y="-13.5" font-family="Helvetica,sans-Serif" font-size="10.00" fill="#000000">array</text>
</a>
</g>
</g>
<!-- Node1&#45;&gt;Node11 -->
<g id="edge10" class="edge">
<title>Node1&#45;&gt;Node11</title>
<path fill="none" stroke="#191970" d="M731.4154,-85.7887C781.6153,-75.1917 853.6448,-57.4846 913.5745,-33 914.9486,-32.4386 916.3382,-31.8243 917.7264,-31.1732"/>
<polygon fill="#191970" stroke="#191970" points="919.4291,-34.2328 926.6887,-26.516 916.2013,-28.0214 919.4291,-34.2328"/>
</g>
<!-- Node12 -->
<g id="node12" class="node">
<title>Node12</title>
<g id="a_node12"><a xlink:title=" ">
<polygon fill="#ffffff" stroke="#bfbfbf" points="980.286,-6.5 980.286,-26.5 1066.863,-26.5 1066.863,-6.5 980.286,-6.5"/>
<text text-anchor="middle" x="1023.5745" y="-13.5" font-family="Helvetica,sans-Serif" font-size="10.00" fill="#000000">unordered_map</text>
</a>
</g>
</g>
<!-- Node1&#45;&gt;Node12 -->
<g id="edge11" class="edge">
<title>Node1&#45;&gt;Node12</title>
<path fill="none" stroke="#191970" d="M731.3556,-85.9645C792.475,-74.1533 888.508,-54.52 970.5745,-33 974.6644,-31.9275 978.9093,-30.738 983.1357,-29.503"/>
<polygon fill="#191970" stroke="#191970" points="984.3137,-32.8037 992.8826,-26.5728 982.2984,-26.1001 984.3137,-32.8037"/>
</g>
<!-- Node13 -->
<g id="node13" class="node">
<title>Node13</title>
<g id="a_node13"><a xlink:title=" ">
<polygon fill="#ffffff" stroke="#bfbfbf" points="1084.408,-6.5 1084.408,-26.5 1138.741,-26.5 1138.741,-6.5 1084.408,-6.5"/>
<text text-anchor="middle" x="1111.5745" y="-13.5" font-family="Helvetica,sans-Serif" font-size="10.00" fill="#000000">iostream</text>
</a>
</g>
</g>
<!-- Node1&#45;&gt;Node13 -->
<g id="edge12" class="edge">
<title>Node1&#45;&gt;Node13</title>
<path fill="none" stroke="#191970" d="M731.2682,-92.9504C811.8629,-85.825 956.7067,-68.9455 1075.5745,-33 1077.993,-32.2687 1080.459,-31.4073 1082.909,-30.4682"/>
<polygon fill="#191970" stroke="#191970" points="1084.2913,-33.6838 1092.145,-26.5725 1081.5709,-27.2341 1084.2913,-33.6838"/>
</g>
</g>
</svg>
