<?xml version="1.0" encoding="UTF-8" standalone="no"?>
<!DOCTYPE svg PUBLIC "-//W3C//DTD SVG 1.1//EN"
 "http://www.w3.org/Graphics/SVG/1.1/DTD/svg11.dtd">
<!-- Generated by graphviz version 2.40.1 (20161225.0304)
 -->
<!-- Title: /home/shiqihe/Documents/amr/code/cpp/src/dg_mpi.cpp Pages: 1 -->
<svg width="211pt" height="98pt"
 viewBox="0.00 0.00 210.78 98.00" xmlns="http://www.w3.org/2000/svg" xmlns:xlink="http://www.w3.org/1999/xlink">
<g id="graph0" class="graph" transform="scale(1 1) rotate(0) translate(4 94)">
<title>/home/shiqihe/Documents/amr/code/cpp/src/dg_mpi.cpp</title>
<polygon fill="#ffffff" stroke="transparent" points="-4,4 -4,-94 206.7835,-94 206.7835,4 -4,4"/>
<!-- Node0 -->
<g id="node1" class="node">
<title>Node0</title>
<polygon fill="#bfbfbf" stroke="#000000" points="18.264,-57.5 18.264,-89.5 168.181,-89.5 168.181,-57.5 18.264,-57.5"/>
<text text-anchor="start" x="26.264" y="-76.5" font-family="Helvetica,sans-Serif" font-size="10.00" fill="#000000">/home/shiqihe/Documents</text>
<text text-anchor="middle" x="93.2225" y="-64.5" font-family="Helvetica,sans-Serif" font-size="10.00" fill="#000000">/amr/code/cpp/src/dg_mpi.cpp</text>
</g>
<!-- Node1 -->
<g id="node2" class="node">
<title>Node1</title>
<polygon fill="#ffffff" stroke="#bfbfbf" points="0,-.5 0,-20.5 40.445,-20.5 40.445,-.5 0,-.5"/>
<text text-anchor="middle" x="20.2225" y="-7.5" font-family="Helvetica,sans-Serif" font-size="10.00" fill="#000000">mpi.h</text>
</g>
<!-- Node0&#45;&gt;Node1 -->
<g id="edge1" class="edge">
<title>Node0&#45;&gt;Node1</title>
<path fill="none" stroke="#191970" d="M74.4232,-57.2759C63.7854,-48.0954 50.5009,-36.6307 39.7462,-27.3492"/>
<polygon fill="#191970" stroke="#191970" points="41.9583,-24.6351 32.101,-20.7513 37.3848,-29.9345 41.9583,-24.6351"/>
</g>
<!-- Node2 -->
<g id="node3" class="node">
<title>Node2</title>
<polygon fill="#ffffff" stroke="#bfbfbf" points="58.5475,-.5 58.5475,-20.5 127.8975,-20.5 127.8975,-.5 58.5475,-.5"/>
<text text-anchor="middle" x="93.2225" y="-7.5" font-family="Helvetica,sans-Serif" font-size="10.00" fill="#000000">dg_param.h</text>
</g>
<!-- Node0&#45;&gt;Node2 -->
<g id="edge2" class="edge">
<title>Node0&#45;&gt;Node2</title>
<path fill="none" stroke="#191970" d="M93.2225,-57.2759C93.2225,-49.2654 93.2225,-39.5159 93.2225,-30.9952"/>
<polygon fill="#191970" stroke="#191970" points="96.7226,-30.7512 93.2225,-20.7513 89.7226,-30.7513 96.7226,-30.7512"/>
</g>
<!-- Node3 -->
<g id="node4" class="node">
<title>Node3</title>
<polygon fill="#ffffff" stroke="#bfbfbf" points="145.6615,-.5 145.6615,-20.5 202.7835,-20.5 202.7835,-.5 145.6615,-.5"/>
<text text-anchor="middle" x="174.2225" y="-7.5" font-family="Helvetica,sans-Serif" font-size="10.00" fill="#000000">dg_mpi.h</text>
</g>
<!-- Node0&#45;&gt;Node3 -->
<g id="edge3" class="edge">
<title>Node0&#45;&gt;Node3</title>
<path fill="none" stroke="#191970" d="M114.082,-57.2759C126.0013,-48.0054 140.9152,-36.4056 152.9093,-27.0769"/>
<polygon fill="#191970" stroke="#191970" points="155.2976,-29.6535 161.0423,-20.7513 150.9999,-24.128 155.2976,-29.6535"/>
</g>
</g>
</svg>
