<?xml version="1.0" encoding="UTF-8" standalone="no"?>
<!DOCTYPE svg PUBLIC "-//W3C//DTD SVG 1.1//EN"
 "http://www.w3.org/Graphics/SVG/1.1/DTD/svg11.dtd">
<!-- Generated by graphviz version 2.40.1 (20161225.0304)
 -->
<!-- Title: /home/shiqi/Documents/thesis/DG_wave_c/src/dg_distribute_elements.cpp Pages: 1 -->
<svg width="275pt" height="110pt"
 viewBox="0.00 0.00 274.75 110.00" xmlns="http://www.w3.org/2000/svg" xmlns:xlink="http://www.w3.org/1999/xlink">
<g id="graph0" class="graph" transform="scale(1 1) rotate(0) translate(4 106)">
<title>/home/shiqi/Documents/thesis/DG_wave_c/src/dg_distribute_elements.cpp</title>
<polygon fill="#ffffff" stroke="transparent" points="-4,4 -4,-106 270.7475,-106 270.7475,4 -4,4"/>
<!-- Node1 -->
<g id="node1" class="node">
<title>Node1</title>
<g id="a_node1"><a xlink:title=" ">
<polygon fill="#bfbfbf" stroke="#000000" points="22.7045,-57.5 22.7045,-101.5 163.7405,-101.5 163.7405,-57.5 22.7045,-57.5"/>
<text text-anchor="start" x="30.7045" y="-88.5" font-family="Helvetica,sans-Serif" font-size="10.00" fill="#000000">/home/shiqi/Documents</text>
<text text-anchor="start" x="30.7045" y="-76.5" font-family="Helvetica,sans-Serif" font-size="10.00" fill="#000000">/thesis/DG_wave_c/src</text>
<text text-anchor="middle" x="93.2225" y="-64.5" font-family="Helvetica,sans-Serif" font-size="10.00" fill="#000000">/dg_distribute_elements.cpp</text>
</a>
</g>
</g>
<!-- Node2 -->
<g id="node2" class="node">
<title>Node2</title>
<g id="a_node2"><a xlink:title=" ">
<polygon fill="#ffffff" stroke="#bfbfbf" points="0,-.5 0,-20.5 40.445,-20.5 40.445,-.5 0,-.5"/>
<text text-anchor="middle" x="20.2225" y="-7.5" font-family="Helvetica,sans-Serif" font-size="10.00" fill="#000000">mpi.h</text>
</a>
</g>
</g>
<!-- Node1&#45;&gt;Node2 -->
<g id="edge1" class="edge">
<title>Node1&#45;&gt;Node2</title>
<path fill="none" stroke="#191970" d="M69.723,-57.2882C59.5635,-47.6853 47.8582,-36.6214 38.3816,-27.6641"/>
<polygon fill="#191970" stroke="#191970" points="40.6999,-25.0393 31.0283,-20.7137 35.8914,-30.1264 40.6999,-25.0393"/>
</g>
<!-- Node3 -->
<g id="node3" class="node">
<title>Node3</title>
<g id="a_node3"><a xlink:title=" ">
<polygon fill="#ffffff" stroke="#bfbfbf" points="58.5475,-.5 58.5475,-20.5 127.8975,-20.5 127.8975,-.5 58.5475,-.5"/>
<text text-anchor="middle" x="93.2225" y="-7.5" font-family="Helvetica,sans-Serif" font-size="10.00" fill="#000000">dg_param.h</text>
</a>
</g>
</g>
<!-- Node1&#45;&gt;Node3 -->
<g id="edge2" class="edge">
<title>Node1&#45;&gt;Node3</title>
<path fill="none" stroke="#191970" d="M93.2225,-57.2882C93.2225,-48.8377 93.2225,-39.2557 93.2225,-30.9736"/>
<polygon fill="#191970" stroke="#191970" points="96.7226,-30.7136 93.2225,-20.7137 89.7226,-30.7137 96.7226,-30.7136"/>
</g>
<!-- Node4 -->
<g id="node4" class="node">
<title>Node4</title>
<g id="a_node4"><a xlink:title=" ">
<polygon fill="#ffffff" stroke="#bfbfbf" points="145.6975,-.5 145.6975,-20.5 266.7475,-20.5 266.7475,-.5 145.6975,-.5"/>
<text text-anchor="middle" x="206.2225" y="-7.5" font-family="Helvetica,sans-Serif" font-size="10.00" fill="#000000">dg_nodal_2d_storage.h</text>
</a>
</g>
</g>
<!-- Node1&#45;&gt;Node4 -->
<g id="edge3" class="edge">
<title>Node1&#45;&gt;Node4</title>
<path fill="none" stroke="#191970" d="M129.2871,-57.4783C146.0826,-47.2226 165.6625,-35.2667 180.8664,-25.9829"/>
<polygon fill="#191970" stroke="#191970" points="182.9928,-28.7855 189.7034,-20.5869 179.3447,-22.8112 182.9928,-28.7855"/>
</g>
</g>
</svg>
