<?xml version="1.0" encoding="UTF-8" standalone="no"?>
<!DOCTYPE svg PUBLIC "-//W3C//DTD SVG 1.1//EN"
 "http://www.w3.org/Graphics/SVG/1.1/DTD/svg11.dtd">
<!-- Generated by graphviz version 2.40.1 (20161225.0304)
 -->
<!-- Title: /home/shiqi/Documents/thesis/DG_wave_c/src/dg_poly_level_and_order.cpp Pages: 1 -->
<svg width="205pt" height="110pt"
 viewBox="0.00 0.00 205.27 110.00" xmlns="http://www.w3.org/2000/svg" xmlns:xlink="http://www.w3.org/1999/xlink">
<g id="graph0" class="graph" transform="scale(1 1) rotate(0) translate(4 106)">
<title>/home/shiqi/Documents/thesis/DG_wave_c/src/dg_poly_level_and_order.cpp</title>
<polygon fill="#ffffff" stroke="transparent" points="-4,4 -4,-106 201.266,-106 201.266,4 -4,4"/>
<!-- Node1 -->
<g id="node1" class="node">
<title>Node1</title>
<g id="a_node1"><a xlink:title=" ">
<polygon fill="#bfbfbf" stroke="#000000" points="0,-57.5 0,-101.5 149.935,-101.5 149.935,-57.5 0,-57.5"/>
<text text-anchor="start" x="8" y="-88.5" font-family="Helvetica,sans-Serif" font-size="10.00" fill="#000000">/home/shiqi/Documents</text>
<text text-anchor="start" x="8" y="-76.5" font-family="Helvetica,sans-Serif" font-size="10.00" fill="#000000">/thesis/DG_wave_c/src</text>
<text text-anchor="middle" x="74.9675" y="-64.5" font-family="Helvetica,sans-Serif" font-size="10.00" fill="#000000">/dg_poly_level_and_order.cpp</text>
</a>
</g>
</g>
<!-- Node2 -->
<g id="node2" class="node">
<title>Node2</title>
<g id="a_node2"><a xlink:title=" ">
<polygon fill="#ffffff" stroke="#bfbfbf" points="1.745,-.5 1.745,-20.5 42.19,-20.5 42.19,-.5 1.745,-.5"/>
<text text-anchor="middle" x="21.9675" y="-7.5" font-family="Helvetica,sans-Serif" font-size="10.00" fill="#000000">mpi.h</text>
</a>
</g>
</g>
<!-- Node1&#45;&gt;Node2 -->
<g id="edge1" class="edge">
<title>Node1&#45;&gt;Node2</title>
<path fill="none" stroke="#191970" d="M57.9062,-57.2882C50.8252,-48.0694 42.7099,-37.5042 35.9847,-28.7488"/>
<polygon fill="#191970" stroke="#191970" points="38.6801,-26.5121 29.8128,-20.7137 33.1287,-30.7763 38.6801,-26.5121"/>
</g>
<!-- Node3 -->
<g id="node3" class="node">
<title>Node3</title>
<g id="a_node3"><a xlink:title=" ">
<polygon fill="#ffffff" stroke="#bfbfbf" points="60.669,-.5 60.669,-20.5 197.266,-20.5 197.266,-.5 60.669,-.5"/>
<text text-anchor="middle" x="128.9675" y="-7.5" font-family="Helvetica,sans-Serif" font-size="10.00" fill="#000000">dg_poly_level_and_order.h</text>
</a>
</g>
</g>
<!-- Node1&#45;&gt;Node3 -->
<g id="edge2" class="edge">
<title>Node1&#45;&gt;Node3</title>
<path fill="none" stroke="#191970" d="M92.3507,-57.2882C99.5653,-48.0694 107.8338,-37.5042 114.6858,-28.7488"/>
<polygon fill="#191970" stroke="#191970" points="117.5673,-30.7458 120.9742,-20.7137 112.0548,-26.4316 117.5673,-30.7458"/>
</g>
</g>
</svg>
