<?xml version="1.0" encoding="UTF-8" standalone="no"?>
<!DOCTYPE svg PUBLIC "-//W3C//DTD SVG 1.1//EN"
 "http://www.w3.org/Graphics/SVG/1.1/DTD/svg11.dtd">
<!-- Generated by graphviz version 2.40.1 (20161225.0304)
 -->
<!-- Title: /home/shiqi/Documents/thesis/new/DG_wave_c/src/dg_unit.cpp Pages: 1 -->
<svg width="213pt" height="110pt"
 viewBox="0.00 0.00 213.18 110.00" xmlns="http://www.w3.org/2000/svg" xmlns:xlink="http://www.w3.org/1999/xlink">
<g id="graph0" class="graph" transform="scale(1 1) rotate(0) translate(4 106)">
<title>/home/shiqi/Documents/thesis/new/DG_wave_c/src/dg_unit.cpp</title>
<polygon fill="#ffffff" stroke="transparent" points="-4,4 -4,-106 209.1785,-106 209.1785,4 -4,4"/>
<!-- Node1 -->
<g id="node1" class="node">
<title>Node1</title>
<g id="a_node1"><a xlink:title=" ">
<polygon fill="#bfbfbf" stroke="#000000" points="47.944,-57.5 47.944,-101.5 171.187,-101.5 171.187,-57.5 47.944,-57.5"/>
<text text-anchor="start" x="55.944" y="-88.5" font-family="Helvetica,sans-Serif" font-size="10.00" fill="#000000">/home/shiqi/Documents</text>
<text text-anchor="start" x="55.944" y="-76.5" font-family="Helvetica,sans-Serif" font-size="10.00" fill="#000000">/thesis/new/DG_wave_c</text>
<text text-anchor="middle" x="109.5655" y="-64.5" font-family="Helvetica,sans-Serif" font-size="10.00" fill="#000000">/src/dg_unit.cpp</text>
</a>
</g>
</g>
<!-- Node2 -->
<g id="node2" class="node">
<title>Node2</title>
<g id="a_node2"><a xlink:title=" ">
<polygon fill="#ffffff" stroke="#bfbfbf" points="0,-.5 0,-20.5 57.131,-20.5 57.131,-.5 0,-.5"/>
<text text-anchor="middle" x="28.5655" y="-7.5" font-family="Helvetica,sans-Serif" font-size="10.00" fill="#000000">dg_unit.h</text>
</a>
</g>
</g>
<!-- Node1&#45;&gt;Node2 -->
<g id="edge1" class="edge">
<title>Node1&#45;&gt;Node2</title>
<path fill="none" stroke="#191970" d="M83.4907,-57.2882C72.1051,-47.5893 58.9698,-36.4 48.3999,-27.396"/>
<polygon fill="#191970" stroke="#191970" points="50.4376,-24.534 40.5555,-20.7137 45.8983,-29.8627 50.4376,-24.534"/>
</g>
<!-- Node3 -->
<g id="node3" class="node">
<title>Node3</title>
<g id="a_node3"><a xlink:title=" ">
<polygon fill="#ffffff" stroke="#bfbfbf" points="74.8905,-.5 74.8905,-20.5 144.2405,-20.5 144.2405,-.5 74.8905,-.5"/>
<text text-anchor="middle" x="109.5655" y="-7.5" font-family="Helvetica,sans-Serif" font-size="10.00" fill="#000000">dg_param.h</text>
</a>
</g>
</g>
<!-- Node1&#45;&gt;Node3 -->
<g id="edge2" class="edge">
<title>Node1&#45;&gt;Node3</title>
<path fill="none" stroke="#191970" d="M109.5655,-57.2882C109.5655,-48.8377 109.5655,-39.2557 109.5655,-30.9736"/>
<polygon fill="#191970" stroke="#191970" points="113.0656,-30.7136 109.5655,-20.7137 106.0656,-30.7137 113.0656,-30.7136"/>
</g>
<!-- Node4 -->
<g id="node4" class="node">
<title>Node4</title>
<g id="a_node4"><a xlink:title=" ">
<polygon fill="#ffffff" stroke="#bfbfbf" points="161.9525,-.5 161.9525,-20.5 205.1785,-20.5 205.1785,-.5 161.9525,-.5"/>
<text text-anchor="middle" x="183.5655" y="-7.5" font-family="Helvetica,sans-Serif" font-size="10.00" fill="#000000">vector</text>
</a>
</g>
</g>
<!-- Node1&#45;&gt;Node4 -->
<g id="edge3" class="edge">
<title>Node1&#45;&gt;Node4</title>
<path fill="none" stroke="#191970" d="M133.3869,-57.2882C143.6856,-47.6853 155.5512,-36.6214 165.1577,-27.6641"/>
<polygon fill="#191970" stroke="#191970" points="167.6847,-30.0932 172.6117,-20.7137 162.911,-24.9735 167.6847,-30.0932"/>
</g>
</g>
</svg>
