<?xml version="1.0" encoding="UTF-8" standalone="no"?>
<!DOCTYPE svg PUBLIC "-//W3C//DTD SVG 1.1//EN"
 "http://www.w3.org/Graphics/SVG/1.1/DTD/svg11.dtd">
<!-- Generated by graphviz version 2.40.1 (20161225.0304)
 -->
<!-- Title: /home/shiqi/Documents/thesis/new/DG_wave_c/src/dg_message_exchange.cpp Pages: 1 -->
<svg width="1377pt" height="110pt"
 viewBox="0.00 0.00 1377.39 110.00" xmlns="http://www.w3.org/2000/svg" xmlns:xlink="http://www.w3.org/1999/xlink">
<g id="graph0" class="graph" transform="scale(1 1) rotate(0) translate(4 106)">
<title>/home/shiqi/Documents/thesis/new/DG_wave_c/src/dg_message_exchange.cpp</title>
<polygon fill="#ffffff" stroke="transparent" points="-4,4 -4,-106 1373.389,-106 1373.389,4 -4,4"/>
<!-- Node1 -->
<g id="node1" class="node">
<title>Node1</title>
<g id="a_node1"><a xlink:title=" ">
<polygon fill="#bfbfbf" stroke="#000000" points="530.253,-57.5 530.253,-101.5 690.192,-101.5 690.192,-57.5 530.253,-57.5"/>
<text text-anchor="start" x="538.253" y="-88.5" font-family="Helvetica,sans-Serif" font-size="10.00" fill="#000000">/home/shiqi/Documents</text>
<text text-anchor="start" x="538.253" y="-76.5" font-family="Helvetica,sans-Serif" font-size="10.00" fill="#000000">/thesis/new/DG_wave_c</text>
<text text-anchor="middle" x="610.2225" y="-64.5" font-family="Helvetica,sans-Serif" font-size="10.00" fill="#000000">/src/dg_message_exchange.cpp</text>
</a>
</g>
</g>
<!-- Node2 -->
<g id="node2" class="node">
<title>Node2</title>
<g id="a_node2"><a xlink:title=" ">
<polygon fill="#ffffff" stroke="#bfbfbf" points="0,-.5 0,-20.5 40.445,-20.5 40.445,-.5 0,-.5"/>
<text text-anchor="middle" x="20.2225" y="-7.5" font-family="Helvetica,sans-Serif" font-size="10.00" fill="#000000">mpi.h</text>
</a>
</g>
</g>
<!-- Node1&#45;&gt;Node2 -->
<g id="edge1" class="edge">
<title>Node1&#45;&gt;Node2</title>
<path fill="none" stroke="#191970" d="M529.7878,-77.2477C421.9809,-72.8704 224.9212,-60.1004 50.4994,-20.8423"/>
<polygon fill="#191970" stroke="#191970" points="51.1603,-17.4031 40.6319,-18.5872 49.6007,-24.2272 51.1603,-17.4031"/>
</g>
<!-- Node3 -->
<g id="node3" class="node">
<title>Node3</title>
<g id="a_node3"><a xlink:title=" ">
<polygon fill="#ffffff" stroke="#bfbfbf" points="58.657,-.5 58.657,-20.5 115.788,-20.5 115.788,-.5 58.657,-.5"/>
<text text-anchor="middle" x="87.2225" y="-7.5" font-family="Helvetica,sans-Serif" font-size="10.00" fill="#000000">dg_unit.h</text>
</a>
</g>
</g>
<!-- Node1&#45;&gt;Node3 -->
<g id="edge2" class="edge">
<title>Node1&#45;&gt;Node3</title>
<path fill="none" stroke="#191970" d="M529.8312,-73.5083C435.3224,-65.6329 273.7207,-49.5712 126.3004,-20.9682"/>
<polygon fill="#191970" stroke="#191970" points="126.6492,-17.4699 116.162,-18.9767 125.2998,-24.3386 126.6492,-17.4699"/>
</g>
<!-- Node4 -->
<g id="node4" class="node">
<title>Node4</title>
<g id="a_node4"><a xlink:title=" ">
<polygon fill="#ffffff" stroke="#bfbfbf" points="133.9855,-.5 133.9855,-20.5 234.4595,-20.5 234.4595,-.5 133.9855,-.5"/>
<text text-anchor="middle" x="184.2225" y="-7.5" font-family="Helvetica,sans-Serif" font-size="10.00" fill="#000000">dg_local_storage.h</text>
</a>
</g>
</g>
<!-- Node1&#45;&gt;Node4 -->
<g id="edge3" class="edge">
<title>Node1&#45;&gt;Node4</title>
<path fill="none" stroke="#191970" d="M529.9705,-67.1346C457.8983,-55.9314 348.9053,-38.7478 244.8006,-21.2471"/>
<polygon fill="#191970" stroke="#191970" points="245.1851,-17.7626 234.7426,-19.5527 244.0222,-24.6654 245.1851,-17.7626"/>
</g>
<!-- Node5 -->
<g id="node5" class="node">
<title>Node5</title>
<g id="a_node5"><a xlink:title=" ">
<polygon fill="#ffffff" stroke="#bfbfbf" points="252.6095,-.5 252.6095,-20.5 295.8355,-20.5 295.8355,-.5 252.6095,-.5"/>
<text text-anchor="middle" x="274.2225" y="-7.5" font-family="Helvetica,sans-Serif" font-size="10.00" fill="#000000">vector</text>
</a>
</g>
</g>
<!-- Node1&#45;&gt;Node5 -->
<g id="edge4" class="edge">
<title>Node1&#45;&gt;Node5</title>
<path fill="none" stroke="#191970" d="M530.2381,-67.2421C470.7386,-57.4124 387.4902,-42.1645 306.0463,-20.9497"/>
<polygon fill="#191970" stroke="#191970" points="306.6867,-17.499 296.1248,-18.3329 304.9015,-24.2676 306.6867,-17.499"/>
</g>
<!-- Node6 -->
<g id="node6" class="node">
<title>Node6</title>
<g id="a_node6"><a xlink:title=" ">
<polygon fill="#ffffff" stroke="#bfbfbf" points="313.934,-.5 313.934,-20.5 400.511,-20.5 400.511,-.5 313.934,-.5"/>
<text text-anchor="middle" x="357.2225" y="-7.5" font-family="Helvetica,sans-Serif" font-size="10.00" fill="#000000">unordered_map</text>
</a>
</g>
</g>
<!-- Node1&#45;&gt;Node6 -->
<g id="edge5" class="edge">
<title>Node1&#45;&gt;Node6</title>
<path fill="none" stroke="#191970" d="M530.1717,-57.668C488.6669,-46.3485 439.4151,-32.9162 404.1063,-23.2865"/>
<polygon fill="#191970" stroke="#191970" points="404.6471,-19.8062 394.0785,-20.5516 402.8052,-26.5596 404.6471,-19.8062"/>
</g>
<!-- Node7 -->
<g id="node7" class="node">
<title>Node7</title>
<g id="a_node7"><a xlink:title=" ">
<polygon fill="#ffffff" stroke="#bfbfbf" points="418.2565,-.5 418.2565,-20.5 528.1885,-20.5 528.1885,-.5 418.2565,-.5"/>
<text text-anchor="middle" x="473.2225" y="-7.5" font-family="Helvetica,sans-Serif" font-size="10.00" fill="#000000">dg_boundary_table.h</text>
</a>
</g>
</g>
<!-- Node1&#45;&gt;Node7 -->
<g id="edge6" class="edge">
<title>Node1&#45;&gt;Node7</title>
<path fill="none" stroke="#191970" d="M566.4982,-57.4783C545.5592,-46.9323 521.0506,-34.5886 502.4119,-25.2012"/>
<polygon fill="#191970" stroke="#191970" points="503.7556,-21.9592 493.25,-20.5869 500.6069,-28.211 503.7556,-21.9592"/>
</g>
<!-- Node8 -->
<g id="node8" class="node">
<title>Node8</title>
<g id="a_node8"><a xlink:title=" ">
<polygon fill="#ffffff" stroke="#bfbfbf" points="546.667,-.5 546.667,-20.5 603.778,-20.5 603.778,-.5 546.667,-.5"/>
<text text-anchor="middle" x="575.2225" y="-7.5" font-family="Helvetica,sans-Serif" font-size="10.00" fill="#000000">algorithm</text>
</a>
</g>
</g>
<!-- Node1&#45;&gt;Node8 -->
<g id="edge7" class="edge">
<title>Node1&#45;&gt;Node8</title>
<path fill="none" stroke="#191970" d="M598.9556,-57.2882C594.4743,-48.4535 589.3657,-38.3823 585.039,-29.8525"/>
<polygon fill="#191970" stroke="#191970" points="588.0486,-28.0486 580.4033,-20.7137 581.8058,-31.2153 588.0486,-28.0486"/>
</g>
<!-- Node9 -->
<g id="node9" class="node">
<title>Node9</title>
<g id="a_node9"><a xlink:title=" ">
<polygon fill="#ffffff" stroke="#bfbfbf" points="622.1095,-.5 622.1095,-20.5 670.3355,-20.5 670.3355,-.5 622.1095,-.5"/>
<text text-anchor="middle" x="646.2225" y="-7.5" font-family="Helvetica,sans-Serif" font-size="10.00" fill="#000000">cassert</text>
</a>
</g>
</g>
<!-- Node1&#45;&gt;Node9 -->
<g id="edge8" class="edge">
<title>Node1&#45;&gt;Node9</title>
<path fill="none" stroke="#191970" d="M621.8113,-57.2882C626.4207,-48.4535 631.6752,-38.3823 636.1256,-29.8525"/>
<polygon fill="#191970" stroke="#191970" points="639.371,-31.1985 640.8936,-20.7137 633.1649,-27.9605 639.371,-31.1985"/>
</g>
<!-- Node10 -->
<g id="node10" class="node">
<title>Node10</title>
<g id="a_node10"><a xlink:title=" ">
<polygon fill="#ffffff" stroke="#bfbfbf" points="687.976,-.5 687.976,-20.5 818.469,-20.5 818.469,-.5 687.976,-.5"/>
<text text-anchor="middle" x="753.2225" y="-7.5" font-family="Helvetica,sans-Serif" font-size="10.00" fill="#000000">dg_message_exchange.h</text>
</a>
</g>
</g>
<!-- Node1&#45;&gt;Node10 -->
<g id="edge9" class="edge">
<title>Node1&#45;&gt;Node10</title>
<path fill="none" stroke="#191970" d="M655.8618,-57.4783C677.9183,-46.8356 703.7694,-34.362 723.2887,-24.9436"/>
<polygon fill="#191970" stroke="#191970" points="724.8325,-28.0849 732.3178,-20.5869 721.7904,-21.7804 724.8325,-28.0849"/>
</g>
<!-- Node11 -->
<g id="node11" class="node">
<title>Node11</title>
<g id="a_node11"><a xlink:title=" ">
<polygon fill="#ffffff" stroke="#bfbfbf" points="836.5475,-.5 836.5475,-20.5 905.8975,-20.5 905.8975,-.5 836.5475,-.5"/>
<text text-anchor="middle" x="871.2225" y="-7.5" font-family="Helvetica,sans-Serif" font-size="10.00" fill="#000000">dg_param.h</text>
</a>
</g>
</g>
<!-- Node1&#45;&gt;Node11 -->
<g id="edge10" class="edge">
<title>Node1&#45;&gt;Node11</title>
<path fill="none" stroke="#191970" d="M690.3048,-58.3288C734.9572,-46.5242 788.9154,-32.2593 826.2226,-22.3965"/>
<polygon fill="#191970" stroke="#191970" points="827.5088,-25.6768 836.2821,-19.7371 825.7196,-18.9093 827.5088,-25.6768"/>
</g>
<!-- Node12 -->
<g id="node12" class="node">
<title>Node12</title>
<g id="a_node12"><a xlink:title=" ">
<polygon fill="#ffffff" stroke="#bfbfbf" points="923.482,-.5 923.482,-20.5 1038.963,-20.5 1038.963,-.5 923.482,-.5"/>
<text text-anchor="middle" x="981.2225" y="-7.5" font-family="Helvetica,sans-Serif" font-size="10.00" fill="#000000">dg_vector_operation.h</text>
</a>
</g>
</g>
<!-- Node1&#45;&gt;Node12 -->
<g id="edge11" class="edge">
<title>Node1&#45;&gt;Node12</title>
<path fill="none" stroke="#191970" d="M690.2672,-64.613C758.1669,-51.9847 854.2939,-34.1067 917.184,-22.4101"/>
<polygon fill="#191970" stroke="#191970" points="918.1763,-25.7857 927.3677,-20.5161 916.8963,-18.9037 918.1763,-25.7857"/>
</g>
<!-- Node13 -->
<g id="node13" class="node">
<title>Node13</title>
<g id="a_node13"><a xlink:title=" ">
<polygon fill="#ffffff" stroke="#bfbfbf" points="1057.0415,-.5 1057.0415,-20.5 1161.4035,-20.5 1161.4035,-.5 1057.0415,-.5"/>
<text text-anchor="middle" x="1109.2225" y="-7.5" font-family="Helvetica,sans-Serif" font-size="10.00" fill="#000000">dg_cantor_pairing.h</text>
</a>
</g>
</g>
<!-- Node1&#45;&gt;Node13 -->
<g id="edge12" class="edge">
<title>Node1&#45;&gt;Node13</title>
<path fill="none" stroke="#191970" d="M690.2765,-69.7272C775.9593,-59.0585 916.1305,-41.0065 1046.8074,-21.1757"/>
<polygon fill="#191970" stroke="#191970" points="1047.6416,-24.589 1057.0001,-19.6223 1046.5869,-17.6689 1047.6416,-24.589"/>
</g>
<!-- Node14 -->
<g id="node14" class="node">
<title>Node14</title>
<g id="a_node14"><a xlink:title=" ">
<polygon fill="#ffffff" stroke="#bfbfbf" points="1179.367,-.5 1179.367,-20.5 1297.078,-20.5 1297.078,-.5 1179.367,-.5"/>
<text text-anchor="middle" x="1238.2225" y="-7.5" font-family="Helvetica,sans-Serif" font-size="10.00" fill="#000000">dg_derived_datatype.h</text>
</a>
</g>
</g>
<!-- Node1&#45;&gt;Node14 -->
<g id="edge13" class="edge">
<title>Node1&#45;&gt;Node14</title>
<path fill="none" stroke="#191970" d="M690.5829,-72.3556C797.4469,-62.5748 992.4399,-43.7547 1169.267,-21.0738"/>
<polygon fill="#191970" stroke="#191970" points="1169.8055,-24.5334 1179.2758,-19.7833 1168.9103,-17.5909 1169.8055,-24.5334"/>
</g>
<!-- Node15 -->
<g id="node15" class="node">
<title>Node15</title>
<g id="a_node15"><a xlink:title=" ">
<polygon fill="#ffffff" stroke="#bfbfbf" points="1315.056,-.5 1315.056,-20.5 1369.389,-20.5 1369.389,-.5 1315.056,-.5"/>
<text text-anchor="middle" x="1342.2225" y="-7.5" font-family="Helvetica,sans-Serif" font-size="10.00" fill="#000000">iostream</text>
</a>
</g>
</g>
<!-- Node1&#45;&gt;Node15 -->
<g id="edge14" class="edge">
<title>Node1&#45;&gt;Node15</title>
<path fill="none" stroke="#191970" d="M690.2409,-77.959C818.5057,-74.3494 1077.9299,-62.3637 1304.748,-20.9647"/>
<polygon fill="#191970" stroke="#191970" points="1305.6444,-24.3584 1314.8416,-19.0988 1304.3719,-17.475 1305.6444,-24.3584"/>
</g>
</g>
</svg>
