<?xml version="1.0" encoding="UTF-8" standalone="no"?>
<!DOCTYPE svg PUBLIC "-//W3C//DTD SVG 1.1//EN"
 "http://www.w3.org/Graphics/SVG/1.1/DTD/svg11.dtd">
<!-- Generated by graphviz version 2.40.1 (20161225.0304)
 -->
<!-- Title: /home/shiqi/Documents/thesis/new/DG_wave_c/src/dg_step_by_RK3.cpp Pages: 1 -->
<svg width="704pt" height="110pt"
 viewBox="0.00 0.00 703.73 110.00" xmlns="http://www.w3.org/2000/svg" xmlns:xlink="http://www.w3.org/1999/xlink">
<g id="graph0" class="graph" transform="scale(1 1) rotate(0) translate(4 106)">
<title>/home/shiqi/Documents/thesis/new/DG_wave_c/src/dg_step_by_RK3.cpp</title>
<polygon fill="#ffffff" stroke="transparent" points="-4,4 -4,-106 699.732,-106 699.732,4 -4,4"/>
<!-- Node1 -->
<g id="node1" class="node">
<title>Node1</title>
<g id="a_node1"><a xlink:title=" ">
<polygon fill="#bfbfbf" stroke="#000000" points="302.3245,-57.5 302.3245,-101.5 432.8065,-101.5 432.8065,-57.5 302.3245,-57.5"/>
<text text-anchor="start" x="310.3245" y="-88.5" font-family="Helvetica,sans-Serif" font-size="10.00" fill="#000000">/home/shiqi/Documents</text>
<text text-anchor="start" x="310.3245" y="-76.5" font-family="Helvetica,sans-Serif" font-size="10.00" fill="#000000">/thesis/new/DG_wave_c</text>
<text text-anchor="middle" x="367.5655" y="-64.5" font-family="Helvetica,sans-Serif" font-size="10.00" fill="#000000">/src/dg_step_by_RK3.cpp</text>
</a>
</g>
</g>
<!-- Node2 -->
<g id="node2" class="node">
<title>Node2</title>
<g id="a_node2"><a xlink:title=" ">
<polygon fill="#ffffff" stroke="#bfbfbf" points="0,-.5 0,-20.5 57.131,-20.5 57.131,-.5 0,-.5"/>
<text text-anchor="middle" x="28.5655" y="-7.5" font-family="Helvetica,sans-Serif" font-size="10.00" fill="#000000">dg_unit.h</text>
</a>
</g>
</g>
<!-- Node1&#45;&gt;Node2 -->
<g id="edge1" class="edge">
<title>Node1&#45;&gt;Node2</title>
<path fill="none" stroke="#191970" d="M302.0792,-68.2856C243.1058,-57.8422 153.883,-41.1915 66.9084,-20.9432"/>
<polygon fill="#191970" stroke="#191970" points="67.6734,-17.5277 57.1383,-18.651 66.0744,-24.3426 67.6734,-17.5277"/>
</g>
<!-- Node3 -->
<g id="node3" class="node">
<title>Node3</title>
<g id="a_node3"><a xlink:title=" ">
<polygon fill="#ffffff" stroke="#bfbfbf" points="75.3285,-.5 75.3285,-20.5 175.8025,-20.5 175.8025,-.5 75.3285,-.5"/>
<text text-anchor="middle" x="125.5655" y="-7.5" font-family="Helvetica,sans-Serif" font-size="10.00" fill="#000000">dg_local_storage.h</text>
</a>
</g>
</g>
<!-- Node1&#45;&gt;Node3 -->
<g id="edge2" class="edge">
<title>Node1&#45;&gt;Node3</title>
<path fill="none" stroke="#191970" d="M302.0768,-60.8276C260.4932,-48.9711 207.7419,-33.9305 170.7815,-23.3922"/>
<polygon fill="#191970" stroke="#191970" points="171.3743,-19.9218 160.7979,-20.5456 169.4549,-26.6535 171.3743,-19.9218"/>
</g>
<!-- Node4 -->
<g id="node4" class="node">
<title>Node4</title>
<g id="a_node4"><a xlink:title=" ">
<polygon fill="#ffffff" stroke="#bfbfbf" points="194.0475,-.5 194.0475,-20.5 295.0835,-20.5 295.0835,-.5 194.0475,-.5"/>
<text text-anchor="middle" x="244.5655" y="-7.5" font-family="Helvetica,sans-Serif" font-size="10.00" fill="#000000">dg_step_by_RK3.h</text>
</a>
</g>
</g>
<!-- Node1&#45;&gt;Node4 -->
<g id="edge3" class="edge">
<title>Node1&#45;&gt;Node4</title>
<path fill="none" stroke="#191970" d="M328.3094,-57.4783C309.8551,-47.1259 288.3125,-35.041 271.6984,-25.7209"/>
<polygon fill="#191970" stroke="#191970" points="272.9803,-22.4269 262.5464,-20.5869 269.5555,-28.5319 272.9803,-22.4269"/>
</g>
<!-- Node5 -->
<g id="node5" class="node">
<title>Node5</title>
<g id="a_node5"><a xlink:title=" ">
<polygon fill="#ffffff" stroke="#bfbfbf" points="313.4445,-.5 313.4445,-20.5 421.6865,-20.5 421.6865,-.5 313.4445,-.5"/>
<text text-anchor="middle" x="367.5655" y="-7.5" font-family="Helvetica,sans-Serif" font-size="10.00" fill="#000000">dg_time_derivative.h</text>
</a>
</g>
</g>
<!-- Node1&#45;&gt;Node5 -->
<g id="edge4" class="edge">
<title>Node1&#45;&gt;Node5</title>
<path fill="none" stroke="#191970" d="M367.5655,-57.2882C367.5655,-48.8377 367.5655,-39.2557 367.5655,-30.9736"/>
<polygon fill="#191970" stroke="#191970" points="371.0656,-30.7136 367.5655,-20.7137 364.0656,-30.7137 371.0656,-30.7136"/>
</g>
<!-- Node6 -->
<g id="node6" class="node">
<title>Node6</title>
<g id="a_node6"><a xlink:title=" ">
<polygon fill="#ffffff" stroke="#bfbfbf" points="439.8905,-.5 439.8905,-20.5 509.2405,-20.5 509.2405,-.5 439.8905,-.5"/>
<text text-anchor="middle" x="474.5655" y="-7.5" font-family="Helvetica,sans-Serif" font-size="10.00" fill="#000000">dg_param.h</text>
</a>
</g>
</g>
<!-- Node1&#45;&gt;Node6 -->
<g id="edge5" class="edge">
<title>Node1&#45;&gt;Node6</title>
<path fill="none" stroke="#191970" d="M401.7152,-57.4783C417.4688,-47.3194 435.8095,-35.4922 450.1472,-26.2464"/>
<polygon fill="#191970" stroke="#191970" points="452.4163,-28.9478 458.9236,-20.5869 448.6226,-23.0649 452.4163,-28.9478"/>
</g>
<!-- Node7 -->
<g id="node7" class="node">
<title>Node7</title>
<g id="a_node7"><a xlink:title=" ">
<polygon fill="#ffffff" stroke="#bfbfbf" points="527.273,-.5 527.273,-20.5 623.858,-20.5 623.858,-.5 527.273,-.5"/>
<text text-anchor="middle" x="575.5655" y="-7.5" font-family="Helvetica,sans-Serif" font-size="10.00" fill="#000000">dg_single_index.h</text>
</a>
</g>
</g>
<!-- Node1&#45;&gt;Node7 -->
<g id="edge6" class="edge">
<title>Node1&#45;&gt;Node7</title>
<path fill="none" stroke="#191970" d="M432.8073,-57.8573C466.4848,-46.6854 506.4898,-33.4145 535.5704,-23.7676"/>
<polygon fill="#191970" stroke="#191970" points="536.9833,-26.9865 545.3726,-20.5159 534.7792,-20.3426 536.9833,-26.9865"/>
</g>
<!-- Node8 -->
<g id="node8" class="node">
<title>Node8</title>
<g id="a_node8"><a xlink:title=" ">
<polygon fill="#ffffff" stroke="#bfbfbf" points="641.399,-.5 641.399,-20.5 695.732,-20.5 695.732,-.5 641.399,-.5"/>
<text text-anchor="middle" x="668.5655" y="-7.5" font-family="Helvetica,sans-Serif" font-size="10.00" fill="#000000">iostream</text>
</a>
</g>
</g>
<!-- Node1&#45;&gt;Node8 -->
<g id="edge7" class="edge">
<title>Node1&#45;&gt;Node8</title>
<path fill="none" stroke="#191970" d="M432.9223,-66.3364C484.4215,-55.6742 558.2263,-39.7565 631.2683,-21.2264"/>
<polygon fill="#191970" stroke="#191970" points="632.2773,-24.5811 641.0999,-18.715 630.5447,-17.7989 632.2773,-24.5811"/>
</g>
</g>
</svg>
