<?xml version="1.0" encoding="UTF-8" standalone="no"?>
<!DOCTYPE svg PUBLIC "-//W3C//DTD SVG 1.1//EN"
 "http://www.w3.org/Graphics/SVG/1.1/DTD/svg11.dtd">
<!-- Generated by graphviz version 2.40.1 (20161225.0304)
 -->
<!-- Title: /home/shiqi/Documents/thesis/new/DG_wave_c/src/dg_basis_storage.cpp Pages: 1 -->
<svg width="668pt" height="110pt"
 viewBox="0.00 0.00 667.78 110.00" xmlns="http://www.w3.org/2000/svg" xmlns:xlink="http://www.w3.org/1999/xlink">
<g id="graph0" class="graph" transform="scale(1 1) rotate(0) translate(4 106)">
<title>/home/shiqi/Documents/thesis/new/DG_wave_c/src/dg_basis_storage.cpp</title>
<polygon fill="#ffffff" stroke="transparent" points="-4,4 -4,-106 663.7795,-106 663.7795,4 -4,4"/>
<!-- Node1 -->
<g id="node1" class="node">
<title>Node1</title>
<g id="a_node1"><a xlink:title=" ">
<polygon fill="#bfbfbf" stroke="#000000" points="253.2625,-57.5 253.2625,-101.5 385.9635,-101.5 385.9635,-57.5 253.2625,-57.5"/>
<text text-anchor="start" x="261.2625" y="-88.5" font-family="Helvetica,sans-Serif" font-size="10.00" fill="#000000">/home/shiqi/Documents</text>
<text text-anchor="start" x="261.2625" y="-76.5" font-family="Helvetica,sans-Serif" font-size="10.00" fill="#000000">/thesis/new/DG_wave_c</text>
<text text-anchor="middle" x="319.613" y="-64.5" font-family="Helvetica,sans-Serif" font-size="10.00" fill="#000000">/src/dg_basis_storage.cpp</text>
</a>
</g>
</g>
<!-- Node2 -->
<g id="node2" class="node">
<title>Node2</title>
<g id="a_node2"><a xlink:title=" ">
<polygon fill="#ffffff" stroke="#bfbfbf" points="0,-.5 0,-20.5 43.226,-20.5 43.226,-.5 0,-.5"/>
<text text-anchor="middle" x="21.613" y="-7.5" font-family="Helvetica,sans-Serif" font-size="10.00" fill="#000000">vector</text>
</a>
</g>
</g>
<!-- Node1&#45;&gt;Node2 -->
<g id="edge1" class="edge">
<title>Node1&#45;&gt;Node2</title>
<path fill="none" stroke="#191970" d="M253.2509,-67.351C201.0204,-57.2558 126.3013,-41.639 53.2912,-21.2679"/>
<polygon fill="#191970" stroke="#191970" points="54.0445,-17.8438 43.4697,-18.4953 52.1427,-24.5805 54.0445,-17.8438"/>
</g>
<!-- Node3 -->
<g id="node3" class="node">
<title>Node3</title>
<g id="a_node3"><a xlink:title=" ">
<polygon fill="#ffffff" stroke="#bfbfbf" points="61.088,-.5 61.088,-20.5 182.138,-20.5 182.138,-.5 61.088,-.5"/>
<text text-anchor="middle" x="121.613" y="-7.5" font-family="Helvetica,sans-Serif" font-size="10.00" fill="#000000">dg_nodal_2d_storage.h</text>
</a>
</g>
</g>
<!-- Node1&#45;&gt;Node3 -->
<g id="edge2" class="edge">
<title>Node1&#45;&gt;Node3</title>
<path fill="none" stroke="#191970" d="M256.4202,-57.4783C224.7698,-46.4486 187.4764,-33.4524 160.1469,-23.9285"/>
<polygon fill="#191970" stroke="#191970" points="161.1527,-20.5726 150.5579,-20.5869 158.8492,-27.1827 161.1527,-20.5726"/>
</g>
<!-- Node4 -->
<g id="node4" class="node">
<title>Node4</title>
<g id="a_node4"><a xlink:title=" ">
<polygon fill="#ffffff" stroke="#bfbfbf" points="199.938,-.5 199.938,-20.5 269.288,-20.5 269.288,-.5 199.938,-.5"/>
<text text-anchor="middle" x="234.613" y="-7.5" font-family="Helvetica,sans-Serif" font-size="10.00" fill="#000000">dg_param.h</text>
</a>
</g>
</g>
<!-- Node1&#45;&gt;Node4 -->
<g id="edge3" class="edge">
<title>Node1&#45;&gt;Node4</title>
<path fill="none" stroke="#191970" d="M292.2506,-57.2882C280.1844,-47.4933 266.2457,-36.1783 255.0982,-27.1292"/>
<polygon fill="#191970" stroke="#191970" points="257.1649,-24.2988 247.1951,-20.7137 252.7531,-29.7336 257.1649,-24.2988"/>
</g>
<!-- Node5 -->
<g id="node5" class="node">
<title>Node5</title>
<g id="a_node5"><a xlink:title=" ">
<polygon fill="#ffffff" stroke="#bfbfbf" points="287.437,-.5 287.437,-20.5 351.789,-20.5 351.789,-.5 287.437,-.5"/>
<text text-anchor="middle" x="319.613" y="-7.5" font-family="Helvetica,sans-Serif" font-size="10.00" fill="#000000">dg_basis.h</text>
</a>
</g>
</g>
<!-- Node1&#45;&gt;Node5 -->
<g id="edge4" class="edge">
<title>Node1&#45;&gt;Node5</title>
<path fill="none" stroke="#191970" d="M319.613,-57.2882C319.613,-48.8377 319.613,-39.2557 319.613,-30.9736"/>
<polygon fill="#191970" stroke="#191970" points="323.1131,-30.7136 319.613,-20.7137 316.1131,-30.7137 323.1131,-30.7136"/>
</g>
<!-- Node6 -->
<g id="node6" class="node">
<title>Node6</title>
<g id="a_node6"><a xlink:title=" ">
<polygon fill="#ffffff" stroke="#bfbfbf" points="369.9855,-.5 369.9855,-20.5 473.2405,-20.5 473.2405,-.5 369.9855,-.5"/>
<text text-anchor="middle" x="421.613" y="-7.5" font-family="Helvetica,sans-Serif" font-size="10.00" fill="#000000">dg_basis_storage.h</text>
</a>
</g>
</g>
<!-- Node1&#45;&gt;Node6 -->
<g id="edge5" class="edge">
<title>Node1&#45;&gt;Node6</title>
<path fill="none" stroke="#191970" d="M352.1669,-57.4783C367.1844,-47.3194 384.6681,-35.4922 398.3357,-26.2464"/>
<polygon fill="#191970" stroke="#191970" points="400.3802,-29.089 406.702,-20.5869 396.458,-23.291 400.3802,-29.089"/>
</g>
<!-- Node7 -->
<g id="node7" class="node">
<title>Node7</title>
<g id="a_node7"><a xlink:title=" ">
<polygon fill="#ffffff" stroke="#bfbfbf" points="491.3205,-.5 491.3205,-20.5 587.9055,-20.5 587.9055,-.5 491.3205,-.5"/>
<text text-anchor="middle" x="539.613" y="-7.5" font-family="Helvetica,sans-Serif" font-size="10.00" fill="#000000">dg_single_index.h</text>
</a>
</g>
</g>
<!-- Node1&#45;&gt;Node7 -->
<g id="edge6" class="edge">
<title>Node1&#45;&gt;Node7</title>
<path fill="none" stroke="#191970" d="M386.2173,-58.6105C422.5067,-47.2288 466.3006,-33.4934 497.789,-23.6175"/>
<polygon fill="#191970" stroke="#191970" points="499.0608,-26.8868 507.5551,-20.5545 496.9659,-20.2076 499.0608,-26.8868"/>
</g>
<!-- Node8 -->
<g id="node8" class="node">
<title>Node8</title>
<g id="a_node8"><a xlink:title=" ">
<polygon fill="#ffffff" stroke="#bfbfbf" points="605.4465,-.5 605.4465,-20.5 659.7795,-20.5 659.7795,-.5 605.4465,-.5"/>
<text text-anchor="middle" x="632.613" y="-7.5" font-family="Helvetica,sans-Serif" font-size="10.00" fill="#000000">iostream</text>
</a>
</g>
</g>
<!-- Node1&#45;&gt;Node8 -->
<g id="edge7" class="edge">
<title>Node1&#45;&gt;Node8</title>
<path fill="none" stroke="#191970" d="M385.9781,-66.9501C439.9855,-56.4018 518.3569,-40.3361 595.2923,-21.2115"/>
<polygon fill="#191970" stroke="#191970" points="596.3043,-24.5663 605.154,-18.7411 594.6032,-17.7761 596.3043,-24.5663"/>
</g>
</g>
</svg>
