<?xml version="1.0" encoding="UTF-8" standalone="no"?>
<!DOCTYPE svg PUBLIC "-//W3C//DTD SVG 1.1//EN"
 "http://www.w3.org/Graphics/SVG/1.1/DTD/svg11.dtd">
<!-- Generated by graphviz version 2.40.1 (20161225.0304)
 -->
<!-- Title: /home/shiqi/Documents/thesis/new/DG_wave_c/src/dg_spatial_derivative.cpp Pages: 1 -->
<svg width="862pt" height="110pt"
 viewBox="0.00 0.00 862.42 110.00" xmlns="http://www.w3.org/2000/svg" xmlns:xlink="http://www.w3.org/1999/xlink">
<g id="graph0" class="graph" transform="scale(1 1) rotate(0) translate(4 106)">
<title>/home/shiqi/Documents/thesis/new/DG_wave_c/src/dg_spatial_derivative.cpp</title>
<polygon fill="#ffffff" stroke="transparent" points="-4,4 -4,-106 858.4175,-106 858.4175,4 -4,4"/>
<!-- Node1 -->
<g id="node1" class="node">
<title>Node1</title>
<g id="a_node1"><a xlink:title=" ">
<polygon fill="#bfbfbf" stroke="#000000" points="318.277,-57.5 318.277,-101.5 465.973,-101.5 465.973,-57.5 318.277,-57.5"/>
<text text-anchor="start" x="326.277" y="-88.5" font-family="Helvetica,sans-Serif" font-size="10.00" fill="#000000">/home/shiqi/Documents</text>
<text text-anchor="start" x="326.277" y="-76.5" font-family="Helvetica,sans-Serif" font-size="10.00" fill="#000000">/thesis/new/DG_wave_c</text>
<text text-anchor="middle" x="392.125" y="-64.5" font-family="Helvetica,sans-Serif" font-size="10.00" fill="#000000">/src/dg_spatial_derivative.cpp</text>
</a>
</g>
</g>
<!-- Node2 -->
<g id="node2" class="node">
<title>Node2</title>
<g id="a_node2"><a xlink:title=" ">
<polygon fill="#ffffff" stroke="#bfbfbf" points="0,-.5 0,-20.5 118.25,-20.5 118.25,-.5 0,-.5"/>
<text text-anchor="middle" x="59.125" y="-7.5" font-family="Helvetica,sans-Serif" font-size="10.00" fill="#000000">dg_spatial_derivative.h</text>
</a>
</g>
</g>
<!-- Node1&#45;&gt;Node2 -->
<g id="edge1" class="edge">
<title>Node1&#45;&gt;Node2</title>
<path fill="none" stroke="#191970" d="M318.2215,-64.1867C257.7931,-51.6655 173.5049,-34.2003 117.6771,-22.6324"/>
<polygon fill="#191970" stroke="#191970" points="118.0983,-19.1454 107.5961,-20.5436 116.678,-25.9998 118.0983,-19.1454"/>
</g>
<!-- Node3 -->
<g id="node3" class="node">
<title>Node3</title>
<g id="a_node3"><a xlink:title=" ">
<polygon fill="#ffffff" stroke="#bfbfbf" points="136.5595,-.5 136.5595,-20.5 193.6905,-20.5 193.6905,-.5 136.5595,-.5"/>
<text text-anchor="middle" x="165.125" y="-7.5" font-family="Helvetica,sans-Serif" font-size="10.00" fill="#000000">dg_unit.h</text>
</a>
</g>
</g>
<!-- Node1&#45;&gt;Node3 -->
<g id="edge2" class="edge">
<title>Node1&#45;&gt;Node3</title>
<path fill="none" stroke="#191970" d="M319.6767,-57.4783C281.157,-45.7696 235.3467,-31.8449 203.6506,-22.2104"/>
<polygon fill="#191970" stroke="#191970" points="204.4685,-18.801 193.8828,-19.2414 202.4326,-25.4984 204.4685,-18.801"/>
</g>
<!-- Node4 -->
<g id="node4" class="node">
<title>Node4</title>
<g id="a_node4"><a xlink:title=" ">
<polygon fill="#ffffff" stroke="#bfbfbf" points="211.45,-.5 211.45,-20.5 280.8,-20.5 280.8,-.5 211.45,-.5"/>
<text text-anchor="middle" x="246.125" y="-7.5" font-family="Helvetica,sans-Serif" font-size="10.00" fill="#000000">dg_param.h</text>
</a>
</g>
</g>
<!-- Node1&#45;&gt;Node4 -->
<g id="edge3" class="edge">
<title>Node1&#45;&gt;Node4</title>
<path fill="none" stroke="#191970" d="M345.5283,-57.4783C323.009,-46.8356 296.6156,-34.362 276.6868,-24.9436"/>
<polygon fill="#191970" stroke="#191970" points="278.0049,-21.6954 267.4682,-20.5869 275.0139,-28.0242 278.0049,-21.6954"/>
</g>
<!-- Node5 -->
<g id="node5" class="node">
<title>Node5</title>
<g id="a_node5"><a xlink:title=" ">
<polygon fill="#ffffff" stroke="#bfbfbf" points="298.512,-.5 298.512,-20.5 341.738,-20.5 341.738,-.5 298.512,-.5"/>
<text text-anchor="middle" x="320.125" y="-7.5" font-family="Helvetica,sans-Serif" font-size="10.00" fill="#000000">vector</text>
</a>
</g>
</g>
<!-- Node1&#45;&gt;Node5 -->
<g id="edge4" class="edge">
<title>Node1&#45;&gt;Node5</title>
<path fill="none" stroke="#191970" d="M368.9474,-57.2882C358.9271,-47.6853 347.3821,-36.6214 338.0353,-27.6641"/>
<polygon fill="#191970" stroke="#191970" points="340.4243,-25.1058 330.7827,-20.7137 335.581,-30.1597 340.4243,-25.1058"/>
</g>
<!-- Node6 -->
<g id="node6" class="node">
<title>Node6</title>
<g id="a_node6"><a xlink:title=" ">
<polygon fill="#ffffff" stroke="#bfbfbf" points="359.949,-.5 359.949,-20.5 424.301,-20.5 424.301,-.5 359.949,-.5"/>
<text text-anchor="middle" x="392.125" y="-7.5" font-family="Helvetica,sans-Serif" font-size="10.00" fill="#000000">dg_basis.h</text>
</a>
</g>
</g>
<!-- Node1&#45;&gt;Node6 -->
<g id="edge5" class="edge">
<title>Node1&#45;&gt;Node6</title>
<path fill="none" stroke="#191970" d="M392.125,-57.2882C392.125,-48.8377 392.125,-39.2557 392.125,-30.9736"/>
<polygon fill="#191970" stroke="#191970" points="395.6251,-30.7136 392.125,-20.7137 388.6251,-30.7137 395.6251,-30.7136"/>
</g>
<!-- Node7 -->
<g id="node7" class="node">
<title>Node7</title>
<g id="a_node7"><a xlink:title=" ">
<polygon fill="#ffffff" stroke="#bfbfbf" points="442.6,-.5 442.6,-20.5 563.65,-20.5 563.65,-.5 442.6,-.5"/>
<text text-anchor="middle" x="503.125" y="-7.5" font-family="Helvetica,sans-Serif" font-size="10.00" fill="#000000">dg_nodal_2d_storage.h</text>
</a>
</g>
</g>
<!-- Node1&#45;&gt;Node7 -->
<g id="edge6" class="edge">
<title>Node1&#45;&gt;Node7</title>
<path fill="none" stroke="#191970" d="M427.5513,-57.4783C444.0495,-47.2226 463.2829,-35.2667 478.2177,-25.9829"/>
<polygon fill="#191970" stroke="#191970" points="480.2532,-28.8388 486.8983,-20.5869 476.5577,-22.8937 480.2532,-28.8388"/>
</g>
<!-- Node8 -->
<g id="node8" class="node">
<title>Node8</title>
<g id="a_node8"><a xlink:title=" ">
<polygon fill="#ffffff" stroke="#bfbfbf" points="581.8365,-.5 581.8365,-20.5 668.4135,-20.5 668.4135,-.5 581.8365,-.5"/>
<text text-anchor="middle" x="625.125" y="-7.5" font-family="Helvetica,sans-Serif" font-size="10.00" fill="#000000">unordered_map</text>
</a>
</g>
</g>
<!-- Node1&#45;&gt;Node8 -->
<g id="edge7" class="edge">
<title>Node1&#45;&gt;Node8</title>
<path fill="none" stroke="#191970" d="M466.1678,-57.5732C504.2075,-46.3082 549.2435,-32.9713 581.6488,-23.3749"/>
<polygon fill="#191970" stroke="#191970" points="582.6838,-26.7187 591.2784,-20.5232 580.6961,-20.0069 582.6838,-26.7187"/>
</g>
<!-- Node9 -->
<g id="node9" class="node">
<title>Node9</title>
<g id="a_node9"><a xlink:title=" ">
<polygon fill="#ffffff" stroke="#bfbfbf" points="685.9585,-.5 685.9585,-20.5 740.2915,-20.5 740.2915,-.5 685.9585,-.5"/>
<text text-anchor="middle" x="713.125" y="-7.5" font-family="Helvetica,sans-Serif" font-size="10.00" fill="#000000">iostream</text>
</a>
</g>
</g>
<!-- Node1&#45;&gt;Node9 -->
<g id="edge8" class="edge">
<title>Node1&#45;&gt;Node9</title>
<path fill="none" stroke="#191970" d="M466.0112,-66.0438C521.3954,-55.5625 599.2178,-40.0023 675.8463,-21.1889"/>
<polygon fill="#191970" stroke="#191970" points="676.804,-24.5576 685.6701,-18.7573 675.122,-17.7627 676.804,-24.5576"/>
</g>
<!-- Node10 -->
<g id="node10" class="node">
<title>Node10</title>
<g id="a_node10"><a xlink:title=" ">
<polygon fill="#ffffff" stroke="#bfbfbf" points="757.8325,-.5 757.8325,-20.5 854.4175,-20.5 854.4175,-.5 757.8325,-.5"/>
<text text-anchor="middle" x="806.125" y="-7.5" font-family="Helvetica,sans-Serif" font-size="10.00" fill="#000000">dg_single_index.h</text>
</a>
</g>
</g>
<!-- Node1&#45;&gt;Node10 -->
<g id="edge9" class="edge">
<title>Node1&#45;&gt;Node10</title>
<path fill="none" stroke="#191970" d="M466.0396,-67.8244C536.0282,-56.6692 644.3338,-39.1498 747.6458,-21.2358"/>
<polygon fill="#191970" stroke="#191970" points="748.3738,-24.6619 757.6267,-19.5012 747.1751,-17.7653 748.3738,-24.6619"/>
</g>
</g>
</svg>
