<?xml version="1.0" encoding="UTF-8" standalone="no"?>
<!DOCTYPE svg PUBLIC "-//W3C//DTD SVG 1.1//EN"
 "http://www.w3.org/Graphics/SVG/1.1/DTD/svg11.dtd">
<!-- Generated by graphviz version 2.40.1 (20161225.0304)
 -->
<!-- Title: /home/shiqi/Documents/thesis/new/DG_wave_c/src/dg_numerical_flux.cpp Pages: 1 -->
<svg width="1324pt" height="110pt"
 viewBox="0.00 0.00 1323.78 110.00" xmlns="http://www.w3.org/2000/svg" xmlns:xlink="http://www.w3.org/1999/xlink">
<g id="graph0" class="graph" transform="scale(1 1) rotate(0) translate(4 106)">
<title>/home/shiqi/Documents/thesis/new/DG_wave_c/src/dg_numerical_flux.cpp</title>
<polygon fill="#ffffff" stroke="transparent" points="-4,4 -4,-106 1319.7795,-106 1319.7795,4 -4,4"/>
<!-- Node1 -->
<g id="node1" class="node">
<title>Node1</title>
<g id="a_node1"><a xlink:title=" ">
<polygon fill="#bfbfbf" stroke="#000000" points="572.1585,-57.5 572.1585,-101.5 707.0675,-101.5 707.0675,-57.5 572.1585,-57.5"/>
<text text-anchor="start" x="580.1585" y="-88.5" font-family="Helvetica,sans-Serif" font-size="10.00" fill="#000000">/home/shiqi/Documents</text>
<text text-anchor="start" x="580.1585" y="-76.5" font-family="Helvetica,sans-Serif" font-size="10.00" fill="#000000">/thesis/new/DG_wave_c</text>
<text text-anchor="middle" x="639.613" y="-64.5" font-family="Helvetica,sans-Serif" font-size="10.00" fill="#000000">/src/dg_numerical_flux.cpp</text>
</a>
</g>
</g>
<!-- Node2 -->
<g id="node2" class="node">
<title>Node2</title>
<g id="a_node2"><a xlink:title=" ">
<polygon fill="#ffffff" stroke="#bfbfbf" points="0,-.5 0,-20.5 43.226,-20.5 43.226,-.5 0,-.5"/>
<text text-anchor="middle" x="21.613" y="-7.5" font-family="Helvetica,sans-Serif" font-size="10.00" fill="#000000">vector</text>
</a>
</g>
</g>
<!-- Node1&#45;&gt;Node2 -->
<g id="edge1" class="edge">
<title>Node1&#45;&gt;Node2</title>
<path fill="none" stroke="#191970" d="M571.7738,-77.965C463.353,-74.3727 244.5529,-62.4487 53.3419,-20.9857"/>
<polygon fill="#191970" stroke="#191970" points="53.9125,-17.5276 43.3939,-18.7961 52.4077,-24.364 53.9125,-17.5276"/>
</g>
<!-- Node3 -->
<g id="node3" class="node">
<title>Node3</title>
<g id="a_node3"><a xlink:title=" ">
<polygon fill="#ffffff" stroke="#bfbfbf" points="61.0475,-.5 61.0475,-20.5 118.1785,-20.5 118.1785,-.5 61.0475,-.5"/>
<text text-anchor="middle" x="89.613" y="-7.5" font-family="Helvetica,sans-Serif" font-size="10.00" fill="#000000">dg_unit.h</text>
</a>
</g>
</g>
<!-- Node1&#45;&gt;Node3 -->
<g id="edge2" class="edge">
<title>Node1&#45;&gt;Node3</title>
<path fill="none" stroke="#191970" d="M572.0105,-75.1462C475.5748,-68.1913 292.9506,-52.2648 128.832,-20.981"/>
<polygon fill="#191970" stroke="#191970" points="129.031,-17.4548 118.5488,-18.9957 127.704,-24.3279 129.031,-17.4548"/>
</g>
<!-- Node4 -->
<g id="node4" class="node">
<title>Node4</title>
<g id="a_node4"><a xlink:title=" ">
<polygon fill="#ffffff" stroke="#bfbfbf" points="136.376,-.5 136.376,-20.5 236.85,-20.5 236.85,-.5 136.376,-.5"/>
<text text-anchor="middle" x="186.613" y="-7.5" font-family="Helvetica,sans-Serif" font-size="10.00" fill="#000000">dg_local_storage.h</text>
</a>
</g>
</g>
<!-- Node1&#45;&gt;Node4 -->
<g id="edge3" class="edge">
<title>Node1&#45;&gt;Node4</title>
<path fill="none" stroke="#191970" d="M571.8946,-70.0483C495.475,-59.2462 367.1856,-40.704 247.2234,-21.2324"/>
<polygon fill="#191970" stroke="#191970" points="247.5598,-17.7412 237.1272,-19.5882 246.4346,-24.6501 247.5598,-17.7412"/>
</g>
<!-- Node5 -->
<g id="node5" class="node">
<title>Node5</title>
<g id="a_node5"><a xlink:title=" ">
<polygon fill="#ffffff" stroke="#bfbfbf" points="254.7065,-.5 254.7065,-20.5 358.5195,-20.5 358.5195,-.5 254.7065,-.5"/>
<text text-anchor="middle" x="306.613" y="-7.5" font-family="Helvetica,sans-Serif" font-size="10.00" fill="#000000">dg_external_state.h</text>
</a>
</g>
</g>
<!-- Node1&#45;&gt;Node5 -->
<g id="edge4" class="edge">
<title>Node1&#45;&gt;Node5</title>
<path fill="none" stroke="#191970" d="M571.8241,-65.4537C511.0097,-52.8525 422.6976,-34.5536 364.9641,-22.5908"/>
<polygon fill="#191970" stroke="#191970" points="365.4104,-19.109 354.9082,-20.5071 363.9901,-25.9634 365.4104,-19.109"/>
</g>
<!-- Node6 -->
<g id="node6" class="node">
<title>Node6</title>
<g id="a_node6"><a xlink:title=" ">
<polygon fill="#ffffff" stroke="#bfbfbf" points="376.9365,-.5 376.9365,-20.5 486.2895,-20.5 486.2895,-.5 376.9365,-.5"/>
<text text-anchor="middle" x="431.613" y="-7.5" font-family="Helvetica,sans-Serif" font-size="10.00" fill="#000000">dg_riemann_solver.h</text>
</a>
</g>
</g>
<!-- Node1&#45;&gt;Node6 -->
<g id="edge5" class="edge">
<title>Node1&#45;&gt;Node6</title>
<path fill="none" stroke="#191970" d="M573.2286,-57.4783C539.8339,-46.4002 500.4591,-33.3384 471.7159,-23.8034"/>
<polygon fill="#191970" stroke="#191970" points="472.6132,-20.4135 462.0198,-20.5869 470.4091,-27.0575 472.6132,-20.4135"/>
</g>
<!-- Node7 -->
<g id="node7" class="node">
<title>Node7</title>
<g id="a_node7"><a xlink:title=" ">
<polygon fill="#ffffff" stroke="#bfbfbf" points="504.0575,-.5 504.0575,-20.5 561.1685,-20.5 561.1685,-.5 504.0575,-.5"/>
<text text-anchor="middle" x="532.613" y="-7.5" font-family="Helvetica,sans-Serif" font-size="10.00" fill="#000000">algorithm</text>
</a>
</g>
</g>
<!-- Node1&#45;&gt;Node7 -->
<g id="edge6" class="edge">
<title>Node1&#45;&gt;Node7</title>
<path fill="none" stroke="#191970" d="M605.4633,-57.4783C589.7097,-47.3194 571.369,-35.4922 557.0313,-26.2464"/>
<polygon fill="#191970" stroke="#191970" points="558.5559,-23.0649 548.2549,-20.5869 554.7622,-28.9478 558.5559,-23.0649"/>
</g>
<!-- Node8 -->
<g id="node8" class="node">
<title>Node8</title>
<g id="a_node8"><a xlink:title=" ">
<polygon fill="#ffffff" stroke="#bfbfbf" points="579.088,-.5 579.088,-20.5 700.138,-20.5 700.138,-.5 579.088,-.5"/>
<text text-anchor="middle" x="639.613" y="-7.5" font-family="Helvetica,sans-Serif" font-size="10.00" fill="#000000">dg_nodal_2d_storage.h</text>
</a>
</g>
</g>
<!-- Node1&#45;&gt;Node8 -->
<g id="edge7" class="edge">
<title>Node1&#45;&gt;Node8</title>
<path fill="none" stroke="#191970" d="M639.613,-57.2882C639.613,-48.8377 639.613,-39.2557 639.613,-30.9736"/>
<polygon fill="#191970" stroke="#191970" points="643.1131,-30.7136 639.613,-20.7137 636.1131,-30.7137 643.1131,-30.7136"/>
</g>
<!-- Node9 -->
<g id="node9" class="node">
<title>Node9</title>
<g id="a_node9"><a xlink:title=" ">
<polygon fill="#ffffff" stroke="#bfbfbf" points="717.938,-.5 717.938,-20.5 787.288,-20.5 787.288,-.5 717.938,-.5"/>
<text text-anchor="middle" x="752.613" y="-7.5" font-family="Helvetica,sans-Serif" font-size="10.00" fill="#000000">dg_param.h</text>
</a>
</g>
</g>
<!-- Node1&#45;&gt;Node9 -->
<g id="edge8" class="edge">
<title>Node1&#45;&gt;Node9</title>
<path fill="none" stroke="#191970" d="M675.6776,-57.4783C692.4731,-47.2226 712.053,-35.2667 727.2569,-25.9829"/>
<polygon fill="#191970" stroke="#191970" points="729.3833,-28.7855 736.0939,-20.5869 725.7352,-22.8112 729.3833,-28.7855"/>
</g>
<!-- Node10 -->
<g id="node10" class="node">
<title>Node10</title>
<g id="a_node10"><a xlink:title=" ">
<polygon fill="#ffffff" stroke="#bfbfbf" points="805.3755,-.5 805.3755,-20.5 895.8505,-20.5 895.8505,-.5 805.3755,-.5"/>
<text text-anchor="middle" x="850.613" y="-7.5" font-family="Helvetica,sans-Serif" font-size="10.00" fill="#000000">dg_affine_map.h</text>
</a>
</g>
</g>
<!-- Node1&#45;&gt;Node10 -->
<g id="edge9" class="edge">
<title>Node1&#45;&gt;Node10</title>
<path fill="none" stroke="#191970" d="M706.9548,-57.4783C740.8312,-46.4002 780.774,-33.3384 809.9317,-23.8034"/>
<polygon fill="#191970" stroke="#191970" points="811.3509,-27.0217 819.7677,-20.5869 809.1751,-20.3685 811.3509,-27.0217"/>
</g>
<!-- Node11 -->
<g id="node11" class="node">
<title>Node11</title>
<g id="a_node11"><a xlink:title=" ">
<polygon fill="#ffffff" stroke="#bfbfbf" points="913.8815,-.5 913.8815,-20.5 1019.3445,-20.5 1019.3445,-.5 913.8815,-.5"/>
<text text-anchor="middle" x="966.613" y="-7.5" font-family="Helvetica,sans-Serif" font-size="10.00" fill="#000000">dg_numerical_flux.h</text>
</a>
</g>
</g>
<!-- Node1&#45;&gt;Node11 -->
<g id="edge10" class="edge">
<title>Node1&#45;&gt;Node11</title>
<path fill="none" stroke="#191970" d="M707.3676,-65.2032C767.0162,-52.6168 852.9154,-34.4912 909.2354,-22.6072"/>
<polygon fill="#191970" stroke="#191970" points="909.9861,-26.026 919.048,-20.5367 908.5408,-19.1768 909.9861,-26.026"/>
</g>
<!-- Node12 -->
<g id="node12" class="node">
<title>Node12</title>
<g id="a_node12"><a xlink:title=" ">
<polygon fill="#ffffff" stroke="#bfbfbf" points="1037.2175,-.5 1037.2175,-20.5 1096.0085,-20.5 1096.0085,-.5 1037.2175,-.5"/>
<text text-anchor="middle" x="1066.613" y="-7.5" font-family="Helvetica,sans-Serif" font-size="10.00" fill="#000000">functional</text>
</a>
</g>
</g>
<!-- Node1&#45;&gt;Node12 -->
<g id="edge11" class="edge">
<title>Node1&#45;&gt;Node12</title>
<path fill="none" stroke="#191970" d="M707.1706,-71.8443C782.9796,-62.6918 909.7206,-45.7079 1026.9618,-21.1818"/>
<polygon fill="#191970" stroke="#191970" points="1027.7665,-24.5891 1036.8257,-19.0954 1026.3179,-17.7406 1027.7665,-24.5891"/>
</g>
<!-- Node13 -->
<g id="node13" class="node">
<title>Node13</title>
<g id="a_node13"><a xlink:title=" ">
<polygon fill="#ffffff" stroke="#bfbfbf" points="1113.9335,-.5 1113.9335,-20.5 1243.2925,-20.5 1243.2925,-.5 1113.9335,-.5"/>
<text text-anchor="middle" x="1178.613" y="-7.5" font-family="Helvetica,sans-Serif" font-size="10.00" fill="#000000">dg_mortar_construction.h</text>
</a>
</g>
</g>
<!-- Node1&#45;&gt;Node13 -->
<g id="edge12" class="edge">
<title>Node1&#45;&gt;Node13</title>
<path fill="none" stroke="#191970" d="M707.4243,-71.3094C795.9741,-60.5378 956.0862,-40.8008 1103.5081,-21.1326"/>
<polygon fill="#191970" stroke="#191970" points="1104.2008,-24.5712 1113.6489,-19.7771 1103.2733,-17.6329 1104.2008,-24.5712"/>
</g>
<!-- Node14 -->
<g id="node14" class="node">
<title>Node14</title>
<g id="a_node14"><a xlink:title=" ">
<polygon fill="#ffffff" stroke="#bfbfbf" points="1261.4465,-.5 1261.4465,-20.5 1315.7795,-20.5 1315.7795,-.5 1261.4465,-.5"/>
<text text-anchor="middle" x="1288.613" y="-7.5" font-family="Helvetica,sans-Serif" font-size="10.00" fill="#000000">iostream</text>
</a>
</g>
</g>
<!-- Node1&#45;&gt;Node14 -->
<g id="edge13" class="edge">
<title>Node1&#45;&gt;Node14</title>
<path fill="none" stroke="#191970" d="M707.326,-77.2091C819.1208,-72.514 1049.2304,-58.9962 1251.3201,-20.9549"/>
<polygon fill="#191970" stroke="#191970" points="1252.0585,-24.3773 1261.2259,-19.0661 1250.7473,-17.5012 1252.0585,-24.3773"/>
</g>
</g>
</svg>
