<?xml version="1.0" encoding="UTF-8" standalone="no"?>
<!DOCTYPE svg PUBLIC "-//W3C//DTD SVG 1.1//EN"
 "http://www.w3.org/Graphics/SVG/1.1/DTD/svg11.dtd">
<!-- Generated by graphviz version 2.40.1 (20161225.0304)
 -->
<!-- Title: /home/shiqi/Documents/thesis/new/DG_wave_c/src/dg_total_element_num.cpp Pages: 1 -->
<svg width="470pt" height="122pt"
 viewBox="0.00 0.00 469.84 122.00" xmlns="http://www.w3.org/2000/svg" xmlns:xlink="http://www.w3.org/1999/xlink">
<g id="graph0" class="graph" transform="scale(1 1) rotate(0) translate(4 118)">
<title>/home/shiqi/Documents/thesis/new/DG_wave_c/src/dg_total_element_num.cpp</title>
<polygon fill="#ffffff" stroke="transparent" points="-4,4 -4,-118 465.8415,-118 465.8415,4 -4,4"/>
<!-- Node1 -->
<g id="node1" class="node">
<title>Node1</title>
<g id="a_node1"><a xlink:title=" ">
<polygon fill="#bfbfbf" stroke="#000000" points="118.545,-57.5 118.545,-113.5 241.788,-113.5 241.788,-57.5 118.545,-57.5"/>
<text text-anchor="start" x="126.545" y="-100.5" font-family="Helvetica,sans-Serif" font-size="10.00" fill="#000000">/home/shiqi/Documents</text>
<text text-anchor="start" x="126.545" y="-88.5" font-family="Helvetica,sans-Serif" font-size="10.00" fill="#000000">/thesis/new/DG_wave_c</text>
<text text-anchor="start" x="126.545" y="-76.5" font-family="Helvetica,sans-Serif" font-size="10.00" fill="#000000">/src/dg_total_element</text>
<text text-anchor="middle" x="180.1665" y="-64.5" font-family="Helvetica,sans-Serif" font-size="10.00" fill="#000000">_num.cpp</text>
</a>
</g>
</g>
<!-- Node2 -->
<g id="node2" class="node">
<title>Node2</title>
<g id="a_node2"><a xlink:title=" ">
<polygon fill="#ffffff" stroke="#bfbfbf" points="0,-.5 0,-20.5 54.333,-20.5 54.333,-.5 0,-.5"/>
<text text-anchor="middle" x="27.1665" y="-7.5" font-family="Helvetica,sans-Serif" font-size="10.00" fill="#000000">iostream</text>
</a>
</g>
</g>
<!-- Node1&#45;&gt;Node2 -->
<g id="edge1" class="edge">
<title>Node1&#45;&gt;Node2</title>
<path fill="none" stroke="#191970" d="M122.7596,-57.3594C100.3754,-46.3867 75.6613,-34.272 56.9704,-25.1098"/>
<polygon fill="#191970" stroke="#191970" points="58.3094,-21.8683 47.7896,-20.6094 55.2282,-28.1537 58.3094,-21.8683"/>
</g>
<!-- Node3 -->
<g id="node3" class="node">
<title>Node3</title>
<g id="a_node3"><a xlink:title=" ">
<polygon fill="#ffffff" stroke="#bfbfbf" points="71.944,-.5 71.944,-20.5 112.389,-20.5 112.389,-.5 71.944,-.5"/>
<text text-anchor="middle" x="92.1665" y="-7.5" font-family="Helvetica,sans-Serif" font-size="10.00" fill="#000000">mpi.h</text>
</a>
</g>
</g>
<!-- Node1&#45;&gt;Node3 -->
<g id="edge2" class="edge">
<title>Node1&#45;&gt;Node3</title>
<path fill="none" stroke="#191970" d="M147.1482,-57.3594C135.2955,-47.2577 122.307,-36.1879 111.9315,-27.3452"/>
<polygon fill="#191970" stroke="#191970" points="114.1236,-24.6148 104.2425,-20.792 109.583,-29.9424 114.1236,-24.6148"/>
</g>
<!-- Node4 -->
<g id="node4" class="node">
<title>Node4</title>
<g id="a_node4"><a xlink:title=" ">
<polygon fill="#ffffff" stroke="#bfbfbf" points="129.9295,-.5 129.9295,-20.5 230.4035,-20.5 230.4035,-.5 129.9295,-.5"/>
<text text-anchor="middle" x="180.1665" y="-7.5" font-family="Helvetica,sans-Serif" font-size="10.00" fill="#000000">dg_local_storage.h</text>
</a>
</g>
</g>
<!-- Node1&#45;&gt;Node4 -->
<g id="edge3" class="edge">
<title>Node1&#45;&gt;Node4</title>
<path fill="none" stroke="#191970" d="M180.1665,-57.1457C180.1665,-48.3619 180.1665,-38.8652 180.1665,-30.7476"/>
<polygon fill="#191970" stroke="#191970" points="183.6666,-30.7295 180.1665,-20.7296 176.6666,-30.7296 183.6666,-30.7295"/>
</g>
<!-- Node5 -->
<g id="node5" class="node">
<title>Node5</title>
<g id="a_node5"><a xlink:title=" ">
<polygon fill="#ffffff" stroke="#bfbfbf" points="248.1475,-.5 248.1475,-20.5 374.1855,-20.5 374.1855,-.5 248.1475,-.5"/>
<text text-anchor="middle" x="311.1665" y="-7.5" font-family="Helvetica,sans-Serif" font-size="10.00" fill="#000000">dg_total_element_num.h</text>
</a>
</g>
</g>
<!-- Node1&#45;&gt;Node5 -->
<g id="edge4" class="edge">
<title>Node1&#45;&gt;Node5</title>
<path fill="none" stroke="#191970" d="M229.3188,-57.3594C248.1327,-46.5881 268.8689,-34.7162 284.762,-25.6171"/>
<polygon fill="#191970" stroke="#191970" points="286.5695,-28.6154 293.5088,-20.6094 283.0915,-22.5405 286.5695,-28.6154"/>
</g>
<!-- Node6 -->
<g id="node6" class="node">
<title>Node6</title>
<g id="a_node6"><a xlink:title=" ">
<polygon fill="#ffffff" stroke="#bfbfbf" points="392.4915,-.5 392.4915,-20.5 461.8415,-20.5 461.8415,-.5 392.4915,-.5"/>
<text text-anchor="middle" x="427.1665" y="-7.5" font-family="Helvetica,sans-Serif" font-size="10.00" fill="#000000">dg_param.h</text>
</a>
</g>
</g>
<!-- Node1&#45;&gt;Node6 -->
<g id="edge5" class="edge">
<title>Node1&#45;&gt;Node6</title>
<path fill="none" stroke="#191970" d="M241.8579,-66.7678C286.1557,-53.317 344.748,-35.5259 384.0836,-23.5818"/>
<polygon fill="#191970" stroke="#191970" points="385.3444,-26.8569 393.8961,-20.6024 383.3105,-20.1589 385.3444,-26.8569"/>
</g>
</g>
</svg>
