<?xml version="1.0" encoding="UTF-8" standalone="no"?>
<!DOCTYPE svg PUBLIC "-//W3C//DTD SVG 1.1//EN"
 "http://www.w3.org/Graphics/SVG/1.1/DTD/svg11.dtd">
<!-- Generated by graphviz version 2.40.1 (20161225.0304)
 -->
<!-- Title: /home/shiqi/Documents/thesis/new/DG_wave_c/src/dg_derived_datatype.cpp Pages: 1 -->
<svg width="317pt" height="110pt"
 viewBox="0.00 0.00 317.39 110.00" xmlns="http://www.w3.org/2000/svg" xmlns:xlink="http://www.w3.org/1999/xlink">
<g id="graph0" class="graph" transform="scale(1 1) rotate(0) translate(4 106)">
<title>/home/shiqi/Documents/thesis/new/DG_wave_c/src/dg_derived_datatype.cpp</title>
<polygon fill="#ffffff" stroke="transparent" points="-4,4 -4,-106 313.389,-106 313.389,4 -4,4"/>
<!-- Node1 -->
<g id="node1" class="node">
<title>Node1</title>
<g id="a_node1"><a xlink:title=" ">
<polygon fill="#bfbfbf" stroke="#000000" points="92.644,-57.5 92.644,-101.5 239.801,-101.5 239.801,-57.5 92.644,-57.5"/>
<text text-anchor="start" x="100.644" y="-88.5" font-family="Helvetica,sans-Serif" font-size="10.00" fill="#000000">/home/shiqi/Documents</text>
<text text-anchor="start" x="100.644" y="-76.5" font-family="Helvetica,sans-Serif" font-size="10.00" fill="#000000">/thesis/new/DG_wave_c</text>
<text text-anchor="middle" x="166.2225" y="-64.5" font-family="Helvetica,sans-Serif" font-size="10.00" fill="#000000">/src/dg_derived_datatype.cpp</text>
</a>
</g>
</g>
<!-- Node2 -->
<g id="node2" class="node">
<title>Node2</title>
<g id="a_node2"><a xlink:title=" ">
<polygon fill="#ffffff" stroke="#bfbfbf" points="0,-.5 0,-20.5 40.445,-20.5 40.445,-.5 0,-.5"/>
<text text-anchor="middle" x="20.2225" y="-7.5" font-family="Helvetica,sans-Serif" font-size="10.00" fill="#000000">mpi.h</text>
</a>
</g>
</g>
<!-- Node1&#45;&gt;Node2 -->
<g id="edge1" class="edge">
<title>Node1&#45;&gt;Node2</title>
<path fill="none" stroke="#191970" d="M119.6258,-57.4783C96.8196,-46.7 70.04,-34.0439 50.0259,-24.5852"/>
<polygon fill="#191970" stroke="#191970" points="51.328,-21.3294 40.7913,-20.2209 48.3369,-27.6582 51.328,-21.3294"/>
</g>
<!-- Node3 -->
<g id="node3" class="node">
<title>Node3</title>
<g id="a_node3"><a xlink:title=" ">
<polygon fill="#ffffff" stroke="#bfbfbf" points="58.367,-.5 58.367,-20.5 176.078,-20.5 176.078,-.5 58.367,-.5"/>
<text text-anchor="middle" x="117.2225" y="-7.5" font-family="Helvetica,sans-Serif" font-size="10.00" fill="#000000">dg_derived_datatype.h</text>
</a>
</g>
</g>
<!-- Node1&#45;&gt;Node3 -->
<g id="edge2" class="edge">
<title>Node1&#45;&gt;Node3</title>
<path fill="none" stroke="#191970" d="M150.4489,-57.2882C143.9704,-48.1655 136.5556,-37.7242 130.3765,-29.023"/>
<polygon fill="#191970" stroke="#191970" points="133.1194,-26.8404 124.4757,-20.7137 127.4121,-30.8935 133.1194,-26.8404"/>
</g>
<!-- Node4 -->
<g id="node4" class="node">
<title>Node4</title>
<g id="a_node4"><a xlink:title=" ">
<polygon fill="#ffffff" stroke="#bfbfbf" points="193.6095,-.5 193.6095,-20.5 236.8355,-20.5 236.8355,-.5 193.6095,-.5"/>
<text text-anchor="middle" x="215.2225" y="-7.5" font-family="Helvetica,sans-Serif" font-size="10.00" fill="#000000">vector</text>
</a>
</g>
</g>
<!-- Node1&#45;&gt;Node4 -->
<g id="edge3" class="edge">
<title>Node1&#45;&gt;Node4</title>
<path fill="none" stroke="#191970" d="M181.9961,-57.2882C188.4746,-48.1655 195.8894,-37.7242 202.0685,-29.023"/>
<polygon fill="#191970" stroke="#191970" points="205.0329,-30.8935 207.9693,-20.7137 199.3256,-26.8404 205.0329,-30.8935"/>
</g>
<!-- Node5 -->
<g id="node5" class="node">
<title>Node5</title>
<g id="a_node5"><a xlink:title=" ">
<polygon fill="#ffffff" stroke="#bfbfbf" points="255.056,-.5 255.056,-20.5 309.389,-20.5 309.389,-.5 255.056,-.5"/>
<text text-anchor="middle" x="282.2225" y="-7.5" font-family="Helvetica,sans-Serif" font-size="10.00" fill="#000000">iostream</text>
</a>
</g>
</g>
<!-- Node1&#45;&gt;Node5 -->
<g id="edge4" class="edge">
<title>Node1&#45;&gt;Node5</title>
<path fill="none" stroke="#191970" d="M203.2446,-57.4783C220.6486,-47.1259 240.9652,-35.041 256.6337,-25.7209"/>
<polygon fill="#191970" stroke="#191970" points="258.4597,-28.7072 265.2649,-20.5869 254.8811,-22.6911 258.4597,-28.7072"/>
</g>
</g>
</svg>
