<?xml version="1.0" encoding="UTF-8" standalone="no"?>
<!DOCTYPE svg PUBLIC "-//W3C//DTD SVG 1.1//EN"
 "http://www.w3.org/Graphics/SVG/1.1/DTD/svg11.dtd">
<!-- Generated by graphviz version 2.40.1 (20161225.0304)
 -->
<!-- Title: /home/shiqi/Documents/thesis/new/DG_wave_c/src/dg_verification.cpp Pages: 1 -->
<svg width="1151pt" height="110pt"
 viewBox="0.00 0.00 1150.74 110.00" xmlns="http://www.w3.org/2000/svg" xmlns:xlink="http://www.w3.org/1999/xlink">
<g id="graph0" class="graph" transform="scale(1 1) rotate(0) translate(4 106)">
<title>/home/shiqi/Documents/thesis/new/DG_wave_c/src/dg_verification.cpp</title>
<polygon fill="#ffffff" stroke="transparent" points="-4,4 -4,-106 1146.7385,-106 1146.7385,4 -4,4"/>
<!-- Node1 -->
<g id="node1" class="node">
<title>Node1</title>
<g id="a_node1"><a xlink:title=" ">
<polygon fill="#bfbfbf" stroke="#000000" points="621.6155,-57.5 621.6155,-101.5 744.8585,-101.5 744.8585,-57.5 621.6155,-57.5"/>
<text text-anchor="start" x="629.6155" y="-88.5" font-family="Helvetica,sans-Serif" font-size="10.00" fill="#000000">/home/shiqi/Documents</text>
<text text-anchor="start" x="629.6155" y="-76.5" font-family="Helvetica,sans-Serif" font-size="10.00" fill="#000000">/thesis/new/DG_wave_c</text>
<text text-anchor="middle" x="683.237" y="-64.5" font-family="Helvetica,sans-Serif" font-size="10.00" fill="#000000">/src/dg_verification.cpp</text>
</a>
</g>
</g>
<!-- Node2 -->
<g id="node2" class="node">
<title>Node2</title>
<g id="a_node2"><a xlink:title=" ">
<polygon fill="#ffffff" stroke="#bfbfbf" points="0,-.5 0,-20.5 100.474,-20.5 100.474,-.5 0,-.5"/>
<text text-anchor="middle" x="50.237" y="-7.5" font-family="Helvetica,sans-Serif" font-size="10.00" fill="#000000">dg_local_storage.h</text>
</a>
</g>
</g>
<!-- Node1&#45;&gt;Node2 -->
<g id="edge1" class="edge">
<title>Node1&#45;&gt;Node2</title>
<path fill="none" stroke="#191970" d="M621.471,-74.7254C517.9089,-66.386 302.5221,-47.6148 110.711,-21.1295"/>
<polygon fill="#191970" stroke="#191970" points="111.1149,-17.652 100.7281,-19.741 110.1506,-24.5853 111.1149,-17.652"/>
</g>
<!-- Node3 -->
<g id="node3" class="node">
<title>Node3</title>
<g id="a_node3"><a xlink:title=" ">
<polygon fill="#ffffff" stroke="#bfbfbf" points="118.712,-.5 118.712,-20.5 239.762,-20.5 239.762,-.5 118.712,-.5"/>
<text text-anchor="middle" x="179.237" y="-7.5" font-family="Helvetica,sans-Serif" font-size="10.00" fill="#000000">dg_nodal_2d_storage.h</text>
</a>
</g>
</g>
<!-- Node1&#45;&gt;Node3 -->
<g id="edge2" class="edge">
<title>Node1&#45;&gt;Node3</title>
<path fill="none" stroke="#191970" d="M621.5988,-71.5527C539.2349,-60.8568 388.459,-41.0112 249.7736,-21.2043"/>
<polygon fill="#191970" stroke="#191970" points="250.2053,-17.7305 239.8103,-19.7784 249.2136,-24.6599 250.2053,-17.7305"/>
</g>
<!-- Node4 -->
<g id="node4" class="node">
<title>Node4</title>
<g id="a_node4"><a xlink:title=" ">
<polygon fill="#ffffff" stroke="#bfbfbf" points="257.562,-.5 257.562,-20.5 326.912,-20.5 326.912,-.5 257.562,-.5"/>
<text text-anchor="middle" x="292.237" y="-7.5" font-family="Helvetica,sans-Serif" font-size="10.00" fill="#000000">dg_param.h</text>
</a>
</g>
</g>
<!-- Node1&#45;&gt;Node4 -->
<g id="edge3" class="edge">
<title>Node1&#45;&gt;Node4</title>
<path fill="none" stroke="#191970" d="M621.3793,-70.496C553.7118,-60.3329 441.8731,-42.619 336.7462,-21.2149"/>
<polygon fill="#191970" stroke="#191970" points="337.4211,-17.7805 326.9217,-19.1996 336.0144,-24.6377 337.4211,-17.7805"/>
</g>
<!-- Node5 -->
<g id="node5" class="node">
<title>Node5</title>
<g id="a_node5"><a xlink:title=" ">
<polygon fill="#ffffff" stroke="#bfbfbf" points="344.6715,-.5 344.6715,-20.5 401.8025,-20.5 401.8025,-.5 344.6715,-.5"/>
<text text-anchor="middle" x="373.237" y="-7.5" font-family="Helvetica,sans-Serif" font-size="10.00" fill="#000000">dg_unit.h</text>
</a>
</g>
</g>
<!-- Node1&#45;&gt;Node5 -->
<g id="edge4" class="edge">
<title>Node1&#45;&gt;Node5</title>
<path fill="none" stroke="#191970" d="M621.4292,-67.2665C568.4144,-56.5321 489.7814,-40.0395 411.8217,-21.0408"/>
<polygon fill="#191970" stroke="#191970" points="412.3703,-17.5717 401.8245,-18.5895 410.7033,-24.3703 412.3703,-17.5717"/>
</g>
<!-- Node6 -->
<g id="node6" class="node">
<title>Node6</title>
<g id="a_node6"><a xlink:title=" ">
<polygon fill="#ffffff" stroke="#bfbfbf" points="419.83,-.5 419.83,-20.5 518.644,-20.5 518.644,-.5 419.83,-.5"/>
<text text-anchor="middle" x="469.237" y="-7.5" font-family="Helvetica,sans-Serif" font-size="10.00" fill="#000000">dg_user_defined.h</text>
</a>
</g>
</g>
<!-- Node1&#45;&gt;Node6 -->
<g id="edge5" class="edge">
<title>Node1&#45;&gt;Node6</title>
<path fill="none" stroke="#191970" d="M621.3393,-59.5423C585.584,-48.0138 541.6043,-33.8334 510.1491,-23.6913"/>
<polygon fill="#191970" stroke="#191970" points="510.9943,-20.2864 500.4027,-20.5488 508.8462,-26.9487 510.9943,-20.2864"/>
</g>
<!-- Node7 -->
<g id="node7" class="node">
<title>Node7</title>
<g id="a_node7"><a xlink:title=" ">
<polygon fill="#ffffff" stroke="#bfbfbf" points="536.624,-.5 536.624,-20.5 579.85,-20.5 579.85,-.5 536.624,-.5"/>
<text text-anchor="middle" x="558.237" y="-7.5" font-family="Helvetica,sans-Serif" font-size="10.00" fill="#000000">cmath</text>
</a>
</g>
</g>
<!-- Node1&#45;&gt;Node7 -->
<g id="edge6" class="edge">
<title>Node1&#45;&gt;Node7</title>
<path fill="none" stroke="#191970" d="M643.3425,-57.4783C624.4129,-47.0291 602.2859,-34.815 585.339,-25.4603"/>
<polygon fill="#191970" stroke="#191970" points="586.9565,-22.3554 576.5103,-20.5869 583.5736,-28.4837 586.9565,-22.3554"/>
</g>
<!-- Node8 -->
<g id="node8" class="node">
<title>Node8</title>
<g id="a_node8"><a xlink:title=" ">
<polygon fill="#ffffff" stroke="#bfbfbf" points="597.8395,-.5 597.8395,-20.5 686.6345,-20.5 686.6345,-.5 597.8395,-.5"/>
<text text-anchor="middle" x="642.237" y="-7.5" font-family="Helvetica,sans-Serif" font-size="10.00" fill="#000000">dg_verification.h</text>
</a>
</g>
</g>
<!-- Node1&#45;&gt;Node8 -->
<g id="edge7" class="edge">
<title>Node1&#45;&gt;Node8</title>
<path fill="none" stroke="#191970" d="M670.0387,-57.2882C664.732,-48.3575 658.6746,-38.1632 653.5713,-29.5749"/>
<polygon fill="#191970" stroke="#191970" points="656.4232,-27.5226 648.306,-20.7137 650.4054,-31.0984 656.4232,-27.5226"/>
</g>
<!-- Node9 -->
<g id="node9" class="node">
<title>Node9</title>
<g id="a_node9"><a xlink:title=" ">
<polygon fill="#ffffff" stroke="#bfbfbf" points="705.0145,-.5 705.0145,-20.5 745.4595,-20.5 745.4595,-.5 705.0145,-.5"/>
<text text-anchor="middle" x="725.237" y="-7.5" font-family="Helvetica,sans-Serif" font-size="10.00" fill="#000000">mpi.h</text>
</a>
</g>
</g>
<!-- Node1&#45;&gt;Node9 -->
<g id="edge8" class="edge">
<title>Node1&#45;&gt;Node9</title>
<path fill="none" stroke="#191970" d="M696.7573,-57.2882C702.2517,-48.2615 708.5321,-37.9438 713.7945,-29.2984"/>
<polygon fill="#191970" stroke="#191970" points="716.8102,-31.0755 719.02,-20.7137 710.8308,-27.4358 716.8102,-31.0755"/>
</g>
<!-- Node10 -->
<g id="node10" class="node">
<title>Node10</title>
<g id="a_node10"><a xlink:title=" ">
<polygon fill="#ffffff" stroke="#bfbfbf" points="763.624,-.5 763.624,-20.5 806.85,-20.5 806.85,-.5 763.624,-.5"/>
<text text-anchor="middle" x="785.237" y="-7.5" font-family="Helvetica,sans-Serif" font-size="10.00" fill="#000000">vector</text>
</a>
</g>
</g>
<!-- Node1&#45;&gt;Node10 -->
<g id="edge9" class="edge">
<title>Node1&#45;&gt;Node10</title>
<path fill="none" stroke="#191970" d="M715.7909,-57.4783C730.8084,-47.3194 748.2921,-35.4922 761.9597,-26.2464"/>
<polygon fill="#191970" stroke="#191970" points="764.0042,-29.089 770.326,-20.5869 760.082,-23.291 764.0042,-29.089"/>
</g>
<!-- Node11 -->
<g id="node11" class="node">
<title>Node11</title>
<g id="a_node11"><a xlink:title=" ">
<polygon fill="#ffffff" stroke="#bfbfbf" points="825.0145,-.5 825.0145,-20.5 865.4595,-20.5 865.4595,-.5 825.0145,-.5"/>
<text text-anchor="middle" x="845.237" y="-7.5" font-family="Helvetica,sans-Serif" font-size="10.00" fill="#000000">string</text>
</a>
</g>
</g>
<!-- Node1&#45;&gt;Node11 -->
<g id="edge10" class="edge">
<title>Node1&#45;&gt;Node11</title>
<path fill="none" stroke="#191970" d="M734.9402,-57.4783C761.5587,-46.1408 793.0555,-32.7255 815.562,-23.1393"/>
<polygon fill="#191970" stroke="#191970" points="817.0894,-26.2931 824.9182,-19.1543 814.3464,-19.8529 817.0894,-26.2931"/>
</g>
<!-- Node12 -->
<g id="node12" class="node">
<title>Node12</title>
<g id="a_node12"><a xlink:title=" ">
<polygon fill="#ffffff" stroke="#bfbfbf" points="883.0705,-.5 883.0705,-20.5 937.4035,-20.5 937.4035,-.5 883.0705,-.5"/>
<text text-anchor="middle" x="910.237" y="-7.5" font-family="Helvetica,sans-Serif" font-size="10.00" fill="#000000">iostream</text>
</a>
</g>
</g>
<!-- Node1&#45;&gt;Node12 -->
<g id="edge11" class="edge">
<title>Node1&#45;&gt;Node12</title>
<path fill="none" stroke="#191970" d="M744.9659,-60.7366C785.9517,-48.2784 838.4003,-32.3358 873.0958,-21.7896"/>
<polygon fill="#191970" stroke="#191970" points="874.2734,-25.0899 882.8233,-18.8328 872.2376,-18.3924 874.2734,-25.0899"/>
</g>
<!-- Node13 -->
<g id="node13" class="node">
<title>Node13</title>
<g id="a_node13"><a xlink:title=" ">
<polygon fill="#ffffff" stroke="#bfbfbf" points="955.4595,-.5 955.4595,-20.5 1007.0145,-20.5 1007.0145,-.5 955.4595,-.5"/>
<text text-anchor="middle" x="981.237" y="-7.5" font-family="Helvetica,sans-Serif" font-size="10.00" fill="#000000">sstream</text>
</a>
</g>
</g>
<!-- Node1&#45;&gt;Node13 -->
<g id="edge12" class="edge">
<title>Node1&#45;&gt;Node13</title>
<path fill="none" stroke="#191970" d="M744.9173,-67.1012C796.1107,-56.5096 871.0064,-40.322 945.3012,-21.1141"/>
<polygon fill="#191970" stroke="#191970" points="946.5076,-24.4167 955.3024,-18.5088 944.7431,-17.6427 946.5076,-24.4167"/>
</g>
<!-- Node14 -->
<g id="node14" class="node">
<title>Node14</title>
<g id="a_node14"><a xlink:title=" ">
<polygon fill="#ffffff" stroke="#bfbfbf" points="1024.57,-.5 1024.57,-20.5 1073.904,-20.5 1073.904,-.5 1024.57,-.5"/>
<text text-anchor="middle" x="1049.237" y="-7.5" font-family="Helvetica,sans-Serif" font-size="10.00" fill="#000000">fstream</text>
</a>
</g>
</g>
<!-- Node1&#45;&gt;Node14 -->
<g id="edge13" class="edge">
<title>Node1&#45;&gt;Node14</title>
<path fill="none" stroke="#191970" d="M745.1268,-71.1656C810.2154,-61.8316 915.6851,-45.0964 1014.613,-21.185"/>
<polygon fill="#191970" stroke="#191970" points="1015.5908,-24.549 1024.4723,-18.7724 1013.9269,-17.7497 1015.5908,-24.549"/>
</g>
<!-- Node15 -->
<g id="node15" class="node">
<title>Node15</title>
<g id="a_node15"><a xlink:title=" ">
<polygon fill="#ffffff" stroke="#bfbfbf" points="1091.7355,-.5 1091.7355,-20.5 1142.7385,-20.5 1142.7385,-.5 1091.7355,-.5"/>
<text text-anchor="middle" x="1117.237" y="-7.5" font-family="Helvetica,sans-Serif" font-size="10.00" fill="#000000">iomanip</text>
</a>
</g>
</g>
<!-- Node1&#45;&gt;Node15 -->
<g id="edge14" class="edge">
<title>Node1&#45;&gt;Node15</title>
<path fill="none" stroke="#191970" d="M745.1099,-73.4474C822.095,-65.2517 957.5988,-48.6452 1081.6774,-21.1014"/>
<polygon fill="#191970" stroke="#191970" points="1082.7435,-24.4491 1091.7314,-18.8395 1081.207,-17.6198 1082.7435,-24.4491"/>
</g>
</g>
</svg>
