<?xml version="1.0" encoding="UTF-8" standalone="no"?>
<!DOCTYPE svg PUBLIC "-//W3C//DTD SVG 1.1//EN"
 "http://www.w3.org/Graphics/SVG/1.1/DTD/svg11.dtd">
<!-- Generated by graphviz version 2.40.1 (20161225.0304)
 -->
<!-- Title: /home/shiqi/Documents/thesis/new/DG_wave_c/src/dg_put_into_mpi_table.cpp Pages: 1 -->
<svg width="818pt" height="110pt"
 viewBox="0.00 0.00 818.17 110.00" xmlns="http://www.w3.org/2000/svg" xmlns:xlink="http://www.w3.org/1999/xlink">
<g id="graph0" class="graph" transform="scale(1 1) rotate(0) translate(4 106)">
<title>/home/shiqi/Documents/thesis/new/DG_wave_c/src/dg_put_into_mpi_table.cpp</title>
<polygon fill="#ffffff" stroke="transparent" points="-4,4 -4,-106 814.1685,-106 814.1685,4 -4,4"/>
<!-- Node1 -->
<g id="node1" class="node">
<title>Node1</title>
<g id="a_node1"><a xlink:title=" ">
<polygon fill="#bfbfbf" stroke="#000000" points="294.1465,-57.5 294.1465,-101.5 449.0795,-101.5 449.0795,-57.5 294.1465,-57.5"/>
<text text-anchor="start" x="302.1465" y="-88.5" font-family="Helvetica,sans-Serif" font-size="10.00" fill="#000000">/home/shiqi/Documents</text>
<text text-anchor="start" x="302.1465" y="-76.5" font-family="Helvetica,sans-Serif" font-size="10.00" fill="#000000">/thesis/new/DG_wave_c</text>
<text text-anchor="middle" x="371.613" y="-64.5" font-family="Helvetica,sans-Serif" font-size="10.00" fill="#000000">/src/dg_put_into_mpi_table.cpp</text>
</a>
</g>
</g>
<!-- Node2 -->
<g id="node2" class="node">
<title>Node2</title>
<g id="a_node2"><a xlink:title=" ">
<polygon fill="#ffffff" stroke="#bfbfbf" points="0,-.5 0,-20.5 43.226,-20.5 43.226,-.5 0,-.5"/>
<text text-anchor="middle" x="21.613" y="-7.5" font-family="Helvetica,sans-Serif" font-size="10.00" fill="#000000">vector</text>
</a>
</g>
</g>
<!-- Node1&#45;&gt;Node2 -->
<g id="edge1" class="edge">
<title>Node1&#45;&gt;Node2</title>
<path fill="none" stroke="#191970" d="M293.8982,-68.4813C231.2263,-58.854 140.7739,-43.2897 53.3293,-20.902"/>
<polygon fill="#191970" stroke="#191970" points="54.0678,-17.4779 43.5094,-18.3555 52.3106,-24.2537 54.0678,-17.4779"/>
</g>
<!-- Node3 -->
<g id="node3" class="node">
<title>Node3</title>
<g id="a_node3"><a xlink:title=" ">
<polygon fill="#ffffff" stroke="#bfbfbf" points="61.3245,-.5 61.3245,-20.5 147.9015,-20.5 147.9015,-.5 61.3245,-.5"/>
<text text-anchor="middle" x="104.613" y="-7.5" font-family="Helvetica,sans-Serif" font-size="10.00" fill="#000000">unordered_map</text>
</a>
</g>
</g>
<!-- Node1&#45;&gt;Node3 -->
<g id="edge2" class="edge">
<title>Node1&#45;&gt;Node3</title>
<path fill="none" stroke="#191970" d="M294.0269,-59.4497C248.5604,-47.6999 192.5331,-33.2209 153.2506,-23.0693"/>
<polygon fill="#191970" stroke="#191970" points="153.9485,-19.6347 143.3908,-20.5212 152.197,-26.4121 153.9485,-19.6347"/>
</g>
<!-- Node4 -->
<g id="node4" class="node">
<title>Node4</title>
<g id="a_node4"><a xlink:title=" ">
<polygon fill="#ffffff" stroke="#bfbfbf" points="166.0475,-.5 166.0475,-20.5 223.1785,-20.5 223.1785,-.5 166.0475,-.5"/>
<text text-anchor="middle" x="194.613" y="-7.5" font-family="Helvetica,sans-Serif" font-size="10.00" fill="#000000">dg_unit.h</text>
</a>
</g>
</g>
<!-- Node1&#45;&gt;Node4 -->
<g id="edge3" class="edge">
<title>Node1&#45;&gt;Node4</title>
<path fill="none" stroke="#191970" d="M315.1224,-57.4783C287.2012,-46.5937 254.3673,-33.7941 230.029,-24.3062"/>
<polygon fill="#191970" stroke="#191970" points="231.0763,-20.958 220.488,-20.5869 228.5338,-27.48 231.0763,-20.958"/>
</g>
<!-- Node5 -->
<g id="node5" class="node">
<title>Node5</title>
<g id="a_node5"><a xlink:title=" ">
<polygon fill="#ffffff" stroke="#bfbfbf" points="240.8695,-.5 240.8695,-20.5 366.3565,-20.5 366.3565,-.5 240.8695,-.5"/>
<text text-anchor="middle" x="303.613" y="-7.5" font-family="Helvetica,sans-Serif" font-size="10.00" fill="#000000">dg_put_into_mpi_table.h</text>
</a>
</g>
</g>
<!-- Node1&#45;&gt;Node5 -->
<g id="edge4" class="edge">
<title>Node1&#45;&gt;Node5</title>
<path fill="none" stroke="#191970" d="M349.7231,-57.2882C340.354,-47.7813 329.5738,-36.8426 320.7938,-27.9334"/>
<polygon fill="#191970" stroke="#191970" points="323.1908,-25.3794 313.6786,-20.7137 318.2051,-30.2929 323.1908,-25.3794"/>
</g>
<!-- Node6 -->
<g id="node6" class="node">
<title>Node6</title>
<g id="a_node6"><a xlink:title=" ">
<polygon fill="#ffffff" stroke="#bfbfbf" points="384.647,-.5 384.647,-20.5 494.579,-20.5 494.579,-.5 384.647,-.5"/>
<text text-anchor="middle" x="439.613" y="-7.5" font-family="Helvetica,sans-Serif" font-size="10.00" fill="#000000">dg_boundary_table.h</text>
</a>
</g>
</g>
<!-- Node1&#45;&gt;Node6 -->
<g id="edge5" class="edge">
<title>Node1&#45;&gt;Node6</title>
<path fill="none" stroke="#191970" d="M393.5029,-57.2882C402.872,-47.7813 413.6522,-36.8426 422.4322,-27.9334"/>
<polygon fill="#191970" stroke="#191970" points="425.0209,-30.2929 429.5474,-20.7137 420.0352,-25.3794 425.0209,-30.2929"/>
</g>
<!-- Node7 -->
<g id="node7" class="node">
<title>Node7</title>
<g id="a_node7"><a xlink:title=" ">
<polygon fill="#ffffff" stroke="#bfbfbf" points="512.376,-.5 512.376,-20.5 612.85,-20.5 612.85,-.5 512.376,-.5"/>
<text text-anchor="middle" x="562.613" y="-7.5" font-family="Helvetica,sans-Serif" font-size="10.00" fill="#000000">dg_local_storage.h</text>
</a>
</g>
</g>
<!-- Node1&#45;&gt;Node7 -->
<g id="edge6" class="edge">
<title>Node1&#45;&gt;Node7</title>
<path fill="none" stroke="#191970" d="M432.5717,-57.4783C462.9692,-46.497 498.7626,-33.5664 525.0939,-24.054"/>
<polygon fill="#191970" stroke="#191970" points="526.4755,-27.2764 534.6914,-20.5869 524.0971,-20.6928 526.4755,-27.2764"/>
</g>
<!-- Node8 -->
<g id="node8" class="node">
<title>Node8</title>
<g id="a_node8"><a xlink:title=" ">
<polygon fill="#ffffff" stroke="#bfbfbf" points="630.432,-.5 630.432,-20.5 734.794,-20.5 734.794,-.5 630.432,-.5"/>
<text text-anchor="middle" x="682.613" y="-7.5" font-family="Helvetica,sans-Serif" font-size="10.00" fill="#000000">dg_cantor_pairing.h</text>
</a>
</g>
</g>
<!-- Node1&#45;&gt;Node8 -->
<g id="edge7" class="edge">
<title>Node1&#45;&gt;Node8</title>
<path fill="none" stroke="#191970" d="M449.2892,-62.2664C504.6658,-49.9802 577.784,-33.7579 627.2998,-22.7721"/>
<polygon fill="#191970" stroke="#191970" points="628.1797,-26.162 637.1842,-20.5791 626.6634,-19.3282 628.1797,-26.162"/>
</g>
<!-- Node9 -->
<g id="node9" class="node">
<title>Node9</title>
<g id="a_node9"><a xlink:title=" ">
<polygon fill="#ffffff" stroke="#bfbfbf" points="753.0575,-.5 753.0575,-20.5 810.1685,-20.5 810.1685,-.5 753.0575,-.5"/>
<text text-anchor="middle" x="781.613" y="-7.5" font-family="Helvetica,sans-Serif" font-size="10.00" fill="#000000">algorithm</text>
</a>
</g>
</g>
<!-- Node1&#45;&gt;Node9 -->
<g id="edge8" class="edge">
<title>Node1&#45;&gt;Node9</title>
<path fill="none" stroke="#191970" d="M449.3905,-69.888C522.6936,-60.2325 635.7115,-43.8116 742.6543,-21.0207"/>
<polygon fill="#191970" stroke="#191970" points="743.6121,-24.3948 752.6509,-18.8676 742.1382,-17.5517 743.6121,-24.3948"/>
</g>
</g>
</svg>
