<?xml version="1.0" encoding="UTF-8" standalone="no"?>
<!DOCTYPE svg PUBLIC "-//W3C//DTD SVG 1.1//EN"
 "http://www.w3.org/Graphics/SVG/1.1/DTD/svg11.dtd">
<!-- Generated by graphviz version 2.40.1 (20161225.0304)
 -->
<!-- Title: /home/shiqi/Documents/thesis/new/DG_wave_c/src/dg_search_rank.cpp Pages: 1 -->
<svg width="426pt" height="110pt"
 viewBox="0.00 0.00 426.14 110.00" xmlns="http://www.w3.org/2000/svg" xmlns:xlink="http://www.w3.org/1999/xlink">
<g id="graph0" class="graph" transform="scale(1 1) rotate(0) translate(4 106)">
<title>/home/shiqi/Documents/thesis/new/DG_wave_c/src/dg_search_rank.cpp</title>
<polygon fill="#ffffff" stroke="transparent" points="-4,4 -4,-106 422.1355,-106 422.1355,4 -4,4"/>
<!-- Node1 -->
<g id="node1" class="node">
<title>Node1</title>
<g id="a_node1"><a xlink:title=" ">
<polygon fill="#bfbfbf" stroke="#000000" points="152.277,-57.5 152.277,-101.5 277.75,-101.5 277.75,-57.5 152.277,-57.5"/>
<text text-anchor="start" x="160.277" y="-88.5" font-family="Helvetica,sans-Serif" font-size="10.00" fill="#000000">/home/shiqi/Documents</text>
<text text-anchor="start" x="160.277" y="-76.5" font-family="Helvetica,sans-Serif" font-size="10.00" fill="#000000">/thesis/new/DG_wave_c</text>
<text text-anchor="middle" x="215.0135" y="-64.5" font-family="Helvetica,sans-Serif" font-size="10.00" fill="#000000">/src/dg_search_rank.cpp</text>
</a>
</g>
</g>
<!-- Node2 -->
<g id="node2" class="node">
<title>Node2</title>
<g id="a_node2"><a xlink:title=" ">
<polygon fill="#ffffff" stroke="#bfbfbf" points="0,-.5 0,-20.5 96.027,-20.5 96.027,-.5 0,-.5"/>
<text text-anchor="middle" x="48.0135" y="-7.5" font-family="Helvetica,sans-Serif" font-size="10.00" fill="#000000">dg_search_rank.h</text>
</a>
</g>
</g>
<!-- Node1&#45;&gt;Node2 -->
<g id="edge1" class="edge">
<title>Node1&#45;&gt;Node2</title>
<path fill="none" stroke="#191970" d="M161.7145,-57.4783C135.4878,-46.6421 104.6671,-33.9078 81.7352,-24.4329"/>
<polygon fill="#191970" stroke="#191970" points="83.0054,-21.1708 72.4266,-20.5869 80.3323,-27.6403 83.0054,-21.1708"/>
</g>
<!-- Node3 -->
<g id="node3" class="node">
<title>Node3</title>
<g id="a_node3"><a xlink:title=" ">
<polygon fill="#ffffff" stroke="#bfbfbf" points="113.7765,-.5 113.7765,-20.5 214.2505,-20.5 214.2505,-.5 113.7765,-.5"/>
<text text-anchor="middle" x="164.0135" y="-7.5" font-family="Helvetica,sans-Serif" font-size="10.00" fill="#000000">dg_local_storage.h</text>
</a>
</g>
</g>
<!-- Node1&#45;&gt;Node3 -->
<g id="edge2" class="edge">
<title>Node1&#45;&gt;Node3</title>
<path fill="none" stroke="#191970" d="M198.5961,-57.2882C191.8532,-48.1655 184.1357,-37.7242 177.7044,-29.023"/>
<polygon fill="#191970" stroke="#191970" points="180.3213,-26.6751 171.5627,-20.7137 174.6921,-30.8358 180.3213,-26.6751"/>
</g>
<!-- Node4 -->
<g id="node4" class="node">
<title>Node4</title>
<g id="a_node4"><a xlink:title=" ">
<polygon fill="#ffffff" stroke="#bfbfbf" points="232.3385,-.5 232.3385,-20.5 301.6885,-20.5 301.6885,-.5 232.3385,-.5"/>
<text text-anchor="middle" x="267.0135" y="-7.5" font-family="Helvetica,sans-Serif" font-size="10.00" fill="#000000">dg_param.h</text>
</a>
</g>
</g>
<!-- Node1&#45;&gt;Node4 -->
<g id="edge3" class="edge">
<title>Node1&#45;&gt;Node4</title>
<path fill="none" stroke="#191970" d="M231.7529,-57.2882C238.7003,-48.0694 246.6625,-37.5042 253.2608,-28.7488"/>
<polygon fill="#191970" stroke="#191970" points="256.0928,-30.8063 259.3162,-20.7137 250.5026,-26.5933 256.0928,-30.8063"/>
</g>
<!-- Node5 -->
<g id="node5" class="node">
<title>Node5</title>
<g id="a_node5"><a xlink:title=" ">
<polygon fill="#ffffff" stroke="#bfbfbf" points="319.8915,-.5 319.8915,-20.5 418.1355,-20.5 418.1355,-.5 319.8915,-.5"/>
<text text-anchor="middle" x="369.0135" y="-7.5" font-family="Helvetica,sans-Serif" font-size="10.00" fill="#000000">dg_hilbert_curve.h</text>
</a>
</g>
</g>
<!-- Node1&#45;&gt;Node5 -->
<g id="edge4" class="edge">
<title>Node1&#45;&gt;Node5</title>
<path fill="none" stroke="#191970" d="M264.1635,-57.4783C288.1326,-46.7388 316.2628,-34.135 337.3487,-24.6875"/>
<polygon fill="#191970" stroke="#191970" points="338.8061,-27.8698 346.5008,-20.5869 335.9438,-21.4817 338.8061,-27.8698"/>
</g>
</g>
</svg>
