<?xml version="1.0" encoding="UTF-8" standalone="no"?>
<!DOCTYPE svg PUBLIC "-//W3C//DTD SVG 1.1//EN"
 "http://www.w3.org/Graphics/SVG/1.1/DTD/svg11.dtd">
<!-- Generated by graphviz version 2.40.1 (20161225.0304)
 -->
<!-- Title: /home/shiqi/Documents/thesis/DG_wave_c/src/dg_prepare_hilbert_scheme.cpp Pages: 1 -->
<svg width="619pt" height="122pt"
 viewBox="0.00 0.00 619.18 122.00" xmlns="http://www.w3.org/2000/svg" xmlns:xlink="http://www.w3.org/1999/xlink">
<g id="graph0" class="graph" transform="scale(1 1) rotate(0) translate(4 118)">
<title>/home/shiqi/Documents/thesis/DG_wave_c/src/dg_prepare_hilbert_scheme.cpp</title>
<polygon fill="#ffffff" stroke="transparent" points="-4,4 -4,-118 615.1785,-118 615.1785,4 -4,4"/>
<!-- Node1 -->
<g id="node1" class="node">
<title>Node1</title>
<g id="a_node1"><a xlink:title=" ">
<polygon fill="#bfbfbf" stroke="#000000" points="183.146,-69.5 183.146,-113.5 345.299,-113.5 345.299,-69.5 183.146,-69.5"/>
<text text-anchor="start" x="191.146" y="-100.5" font-family="Helvetica,sans-Serif" font-size="10.00" fill="#000000">/home/shiqi/Documents</text>
<text text-anchor="start" x="191.146" y="-88.5" font-family="Helvetica,sans-Serif" font-size="10.00" fill="#000000">/thesis/DG_wave_c/src</text>
<text text-anchor="middle" x="264.2225" y="-76.5" font-family="Helvetica,sans-Serif" font-size="10.00" fill="#000000">/dg_prepare_hilbert_scheme.cpp</text>
</a>
</g>
</g>
<!-- Node2 -->
<g id="node2" class="node">
<title>Node2</title>
<g id="a_node2"><a xlink:title=" ">
<polygon fill="#ffffff" stroke="#bfbfbf" points="0,-6.5 0,-26.5 40.445,-26.5 40.445,-6.5 0,-6.5"/>
<text text-anchor="middle" x="20.2225" y="-13.5" font-family="Helvetica,sans-Serif" font-size="10.00" fill="#000000">mpi.h</text>
</a>
</g>
</g>
<!-- Node1&#45;&gt;Node2 -->
<g id="edge1" class="edge">
<title>Node1&#45;&gt;Node2</title>
<path fill="none" stroke="#191970" d="M182.9871,-74.5075C142.0538,-64.6727 92.1308,-50.7117 49.2225,-33 48.0178,-32.5027 46.8008,-31.9654 45.583,-31.3989"/>
<polygon fill="#191970" stroke="#191970" points="46.9134,-28.1467 36.4226,-26.6659 43.7002,-34.3657 46.9134,-28.1467"/>
</g>
<!-- Node3 -->
<g id="node3" class="node">
<title>Node3</title>
<g id="a_node3"><a xlink:title=" ">
<polygon fill="#ffffff" stroke="#bfbfbf" points="58.5475,-6.5 58.5475,-26.5 127.8975,-26.5 127.8975,-6.5 58.5475,-6.5"/>
<text text-anchor="middle" x="93.2225" y="-13.5" font-family="Helvetica,sans-Serif" font-size="10.00" fill="#000000">dg_param.h</text>
</a>
</g>
</g>
<!-- Node1&#45;&gt;Node3 -->
<g id="edge2" class="edge">
<title>Node1&#45;&gt;Node3</title>
<path fill="none" stroke="#191970" d="M213.8417,-69.4032C185.3149,-56.8914 150.4749,-41.6107 125.5869,-30.6949"/>
<polygon fill="#191970" stroke="#191970" points="126.8036,-27.4068 116.2399,-26.5954 123.992,-33.8173 126.8036,-27.4068"/>
</g>
<!-- Node4 -->
<g id="node4" class="node">
<title>Node4</title>
<g id="a_node4"><a xlink:title=" ">
<polygon fill="#ffffff" stroke="#bfbfbf" points="146.3705,-6.5 146.3705,-26.5 254.0745,-26.5 254.0745,-6.5 146.3705,-6.5"/>
<text text-anchor="middle" x="200.2225" y="-13.5" font-family="Helvetica,sans-Serif" font-size="10.00" fill="#000000">dg_read_mesh_2d.h</text>
</a>
</g>
</g>
<!-- Node1&#45;&gt;Node4 -->
<g id="edge3" class="edge">
<title>Node1&#45;&gt;Node4</title>
<path fill="none" stroke="#191970" d="M245.3665,-69.4032C235.8236,-58.2201 224.3931,-44.8249 215.4218,-34.3117"/>
<polygon fill="#191970" stroke="#191970" points="217.9908,-31.9303 208.8372,-26.5954 212.666,-36.4742 217.9908,-31.9303"/>
</g>
<!-- Node5 -->
<g id="node5" class="node">
<title>Node5</title>
<g id="a_node5"><a xlink:title=" ">
<polygon fill="#ffffff" stroke="#bfbfbf" points="271.587,-6.5 271.587,-26.5 384.858,-26.5 384.858,-6.5 271.587,-6.5"/>
<text text-anchor="middle" x="328.2225" y="-13.5" font-family="Helvetica,sans-Serif" font-size="10.00" fill="#000000">dg_gen_dual_graph.h</text>
</a>
</g>
</g>
<!-- Node1&#45;&gt;Node5 -->
<g id="edge4" class="edge">
<title>Node1&#45;&gt;Node5</title>
<path fill="none" stroke="#191970" d="M283.0785,-69.4032C292.6214,-58.2201 304.0519,-44.8249 313.0232,-34.3117"/>
<polygon fill="#191970" stroke="#191970" points="315.779,-36.4742 319.6078,-26.5954 310.4542,-31.9303 315.779,-36.4742"/>
</g>
<!-- Node6 -->
<g id="node6" class="node">
<title>Node6</title>
<g id="a_node6"><a xlink:title=" ">
<polygon fill="#ffffff" stroke="#bfbfbf" points="402.9905,-6.5 402.9905,-26.5 493.4545,-26.5 493.4545,-6.5 402.9905,-6.5"/>
<text text-anchor="middle" x="448.2225" y="-13.5" font-family="Helvetica,sans-Serif" font-size="10.00" fill="#000000">dg_hilbert_sort.h</text>
</a>
</g>
</g>
<!-- Node1&#45;&gt;Node6 -->
<g id="edge5" class="edge">
<title>Node1&#45;&gt;Node6</title>
<path fill="none" stroke="#191970" d="M318.4334,-69.4032C349.4006,-56.7807 387.2816,-41.34 414.1061,-30.4062"/>
<polygon fill="#191970" stroke="#191970" points="415.5161,-33.6111 423.4552,-26.5954 412.8738,-27.1289 415.5161,-33.6111"/>
</g>
<!-- Node7 -->
<g id="node7" class="node">
<title>Node7</title>
<g id="a_node7"><a xlink:title=" ">
<polygon fill="#ffffff" stroke="#bfbfbf" points="511.2665,-.5 511.2665,-32.5 611.1785,-32.5 611.1785,-.5 511.2665,-.5"/>
<text text-anchor="start" x="519.2665" y="-19.5" font-family="Helvetica,sans-Serif" font-size="10.00" fill="#000000">dg_prepare_hilbert</text>
<text text-anchor="middle" x="561.2225" y="-7.5" font-family="Helvetica,sans-Serif" font-size="10.00" fill="#000000">_scheme.h</text>
</a>
</g>
</g>
<!-- Node1&#45;&gt;Node7 -->
<g id="edge6" class="edge">
<title>Node1&#45;&gt;Node7</title>
<path fill="none" stroke="#191970" d="M345.3494,-72.233C388.9191,-61.7261 443.7783,-48.2437 501.0733,-33.265"/>
<polygon fill="#191970" stroke="#191970" points="502.2552,-36.5735 511.0398,-30.6507 500.479,-29.8026 502.2552,-36.5735"/>
</g>
</g>
</svg>
