<?xml version="1.0" encoding="UTF-8" standalone="no"?>
<!DOCTYPE svg PUBLIC "-//W3C//DTD SVG 1.1//EN"
 "http://www.w3.org/Graphics/SVG/1.1/DTD/svg11.dtd">
<!-- Generated by graphviz version 2.40.1 (20161225.0304)
 -->
<!-- Title: /home/shiqi/Documents/thesis/new/DG_wave_c/src/dg_interface_construct.cpp Pages: 1 -->
<svg width="870pt" height="110pt"
 viewBox="0.00 0.00 869.91 110.00" xmlns="http://www.w3.org/2000/svg" xmlns:xlink="http://www.w3.org/1999/xlink">
<g id="graph0" class="graph" transform="scale(1 1) rotate(0) translate(4 106)">
<title>/home/shiqi/Documents/thesis/new/DG_wave_c/src/dg_interface_construct.cpp</title>
<polygon fill="#ffffff" stroke="transparent" points="-4,4 -4,-106 865.9065,-106 865.9065,4 -4,4"/>
<!-- Node1 -->
<g id="node1" class="node">
<title>Node1</title>
<g id="a_node1"><a xlink:title=" ">
<polygon fill="#bfbfbf" stroke="#000000" points="341.277,-57.5 341.277,-101.5 496.203,-101.5 496.203,-57.5 341.277,-57.5"/>
<text text-anchor="start" x="349.277" y="-88.5" font-family="Helvetica,sans-Serif" font-size="10.00" fill="#000000">/home/shiqi/Documents</text>
<text text-anchor="start" x="349.277" y="-76.5" font-family="Helvetica,sans-Serif" font-size="10.00" fill="#000000">/thesis/new/DG_wave_c</text>
<text text-anchor="middle" x="418.74" y="-64.5" font-family="Helvetica,sans-Serif" font-size="10.00" fill="#000000">/src/dg_interface_construct.cpp</text>
</a>
</g>
</g>
<!-- Node2 -->
<g id="node2" class="node">
<title>Node2</title>
<g id="a_node2"><a xlink:title=" ">
<polygon fill="#ffffff" stroke="#bfbfbf" points="0,-.5 0,-20.5 125.48,-20.5 125.48,-.5 0,-.5"/>
<text text-anchor="middle" x="62.74" y="-7.5" font-family="Helvetica,sans-Serif" font-size="10.00" fill="#000000">dg_interface_construct.h</text>
</a>
</g>
</g>
<!-- Node1&#45;&gt;Node2 -->
<g id="edge1" class="edge">
<title>Node1&#45;&gt;Node2</title>
<path fill="none" stroke="#191970" d="M341.0542,-64.4429C276.0719,-51.848 184.6059,-34.1201 124.5234,-22.4749"/>
<polygon fill="#191970" stroke="#191970" points="124.9055,-18.9839 114.4222,-20.5171 123.5735,-25.856 124.9055,-18.9839"/>
</g>
<!-- Node3 -->
<g id="node3" class="node">
<title>Node3</title>
<g id="a_node3"><a xlink:title=" ">
<polygon fill="#ffffff" stroke="#bfbfbf" points="143.1745,-.5 143.1745,-20.5 200.3055,-20.5 200.3055,-.5 143.1745,-.5"/>
<text text-anchor="middle" x="171.74" y="-7.5" font-family="Helvetica,sans-Serif" font-size="10.00" fill="#000000">dg_unit.h</text>
</a>
</g>
</g>
<!-- Node1&#45;&gt;Node3 -->
<g id="edge2" class="edge">
<title>Node1&#45;&gt;Node3</title>
<path fill="none" stroke="#191970" d="M340.9263,-57.9197C303.81,-47.6032 258.5336,-34.9857 210.1385,-21.3861"/>
<polygon fill="#191970" stroke="#191970" points="210.9934,-17.9909 200.4193,-18.6535 209.0987,-24.7296 210.9934,-17.9909"/>
</g>
<!-- Node4 -->
<g id="node4" class="node">
<title>Node4</title>
<g id="a_node4"><a xlink:title=" ">
<polygon fill="#ffffff" stroke="#bfbfbf" points="218.127,-.5 218.127,-20.5 261.353,-20.5 261.353,-.5 218.127,-.5"/>
<text text-anchor="middle" x="239.74" y="-7.5" font-family="Helvetica,sans-Serif" font-size="10.00" fill="#000000">vector</text>
</a>
</g>
</g>
<!-- Node1&#45;&gt;Node4 -->
<g id="edge3" class="edge">
<title>Node1&#45;&gt;Node4</title>
<path fill="none" stroke="#191970" d="M361.6111,-57.4783C331.6231,-45.9186 296.0314,-32.1989 271.0787,-22.5803"/>
<polygon fill="#191970" stroke="#191970" points="272.3318,-19.3123 261.7422,-18.9813 269.814,-25.8439 272.3318,-19.3123"/>
</g>
<!-- Node5 -->
<g id="node5" class="node">
<title>Node5</title>
<g id="a_node5"><a xlink:title=" ">
<polygon fill="#ffffff" stroke="#bfbfbf" points="279.4515,-.5 279.4515,-20.5 366.0285,-20.5 366.0285,-.5 279.4515,-.5"/>
<text text-anchor="middle" x="322.74" y="-7.5" font-family="Helvetica,sans-Serif" font-size="10.00" fill="#000000">unordered_map</text>
</a>
</g>
</g>
<!-- Node1&#45;&gt;Node5 -->
<g id="edge4" class="edge">
<title>Node1&#45;&gt;Node5</title>
<path fill="none" stroke="#191970" d="M388.1011,-57.4783C374.1015,-47.4161 357.8249,-35.7173 345.0165,-26.5113"/>
<polygon fill="#191970" stroke="#191970" points="346.9368,-23.5812 336.7739,-20.5869 342.8513,-29.2653 346.9368,-23.5812"/>
</g>
<!-- Node6 -->
<g id="node6" class="node">
<title>Node6</title>
<g id="a_node6"><a xlink:title=" ">
<polygon fill="#ffffff" stroke="#bfbfbf" points="384.065,-.5 384.065,-20.5 453.415,-20.5 453.415,-.5 384.065,-.5"/>
<text text-anchor="middle" x="418.74" y="-7.5" font-family="Helvetica,sans-Serif" font-size="10.00" fill="#000000">dg_param.h</text>
</a>
</g>
</g>
<!-- Node1&#45;&gt;Node6 -->
<g id="edge5" class="edge">
<title>Node1&#45;&gt;Node6</title>
<path fill="none" stroke="#191970" d="M418.74,-57.2882C418.74,-48.8377 418.74,-39.2557 418.74,-30.9736"/>
<polygon fill="#191970" stroke="#191970" points="422.2401,-30.7136 418.74,-20.7137 415.2401,-30.7137 422.2401,-30.7136"/>
</g>
<!-- Node7 -->
<g id="node7" class="node">
<title>Node7</title>
<g id="a_node7"><a xlink:title=" ">
<polygon fill="#ffffff" stroke="#bfbfbf" points="471.564,-.5 471.564,-20.5 535.916,-20.5 535.916,-.5 471.564,-.5"/>
<text text-anchor="middle" x="503.74" y="-7.5" font-family="Helvetica,sans-Serif" font-size="10.00" fill="#000000">dg_basis.h</text>
</a>
</g>
</g>
<!-- Node1&#45;&gt;Node7 -->
<g id="edge6" class="edge">
<title>Node1&#45;&gt;Node7</title>
<path fill="none" stroke="#191970" d="M446.1024,-57.2882C458.1686,-47.4933 472.1073,-36.1783 483.2548,-27.1292"/>
<polygon fill="#191970" stroke="#191970" points="485.5999,-29.7336 491.1579,-20.7137 481.1881,-24.2988 485.5999,-29.7336"/>
</g>
<!-- Node8 -->
<g id="node8" class="node">
<title>Node8</title>
<g id="a_node8"><a xlink:title=" ">
<polygon fill="#ffffff" stroke="#bfbfbf" points="554.215,-.5 554.215,-20.5 675.265,-20.5 675.265,-.5 554.215,-.5"/>
<text text-anchor="middle" x="614.74" y="-7.5" font-family="Helvetica,sans-Serif" font-size="10.00" fill="#000000">dg_nodal_2d_storage.h</text>
</a>
</g>
</g>
<!-- Node1&#45;&gt;Node8 -->
<g id="edge7" class="edge">
<title>Node1&#45;&gt;Node8</title>
<path fill="none" stroke="#191970" d="M481.2945,-57.4783C512.6252,-46.4486 549.5419,-33.4524 576.5953,-23.9285"/>
<polygon fill="#191970" stroke="#191970" points="577.8171,-27.209 586.0875,-20.5869 575.4926,-20.6062 577.8171,-27.209"/>
</g>
<!-- Node9 -->
<g id="node9" class="node">
<title>Node9</title>
<g id="a_node9"><a xlink:title=" ">
<polygon fill="#ffffff" stroke="#bfbfbf" points="693.4475,-.5 693.4475,-20.5 790.0325,-20.5 790.0325,-.5 693.4475,-.5"/>
<text text-anchor="middle" x="741.74" y="-7.5" font-family="Helvetica,sans-Serif" font-size="10.00" fill="#000000">dg_single_index.h</text>
</a>
</g>
</g>
<!-- Node1&#45;&gt;Node9 -->
<g id="edge8" class="edge">
<title>Node1&#45;&gt;Node9</title>
<path fill="none" stroke="#191970" d="M496.5176,-62.885C554.5645,-50.4849 632.5565,-33.824 684.8552,-22.6519"/>
<polygon fill="#191970" stroke="#191970" points="685.5865,-26.0747 694.6346,-20.5628 684.1241,-19.2291 685.5865,-26.0747"/>
</g>
<!-- Node10 -->
<g id="node10" class="node">
<title>Node10</title>
<g id="a_node10"><a xlink:title=" ">
<polygon fill="#ffffff" stroke="#bfbfbf" points="807.5735,-.5 807.5735,-20.5 861.9065,-20.5 861.9065,-.5 807.5735,-.5"/>
<text text-anchor="middle" x="834.74" y="-7.5" font-family="Helvetica,sans-Serif" font-size="10.00" fill="#000000">iostream</text>
</a>
</g>
</g>
<!-- Node1&#45;&gt;Node10 -->
<g id="edge9" class="edge">
<title>Node1&#45;&gt;Node10</title>
<path fill="none" stroke="#191970" d="M496.4388,-70.5668C571.3711,-61.2636 688.0458,-44.9717 797.4353,-21.0836"/>
<polygon fill="#191970" stroke="#191970" points="798.3092,-24.475 807.3185,-18.8999 796.7989,-17.6398 798.3092,-24.475"/>
</g>
</g>
</svg>
