<?xml version="1.0" encoding="UTF-8" standalone="no"?>
<!DOCTYPE svg PUBLIC "-//W3C//DTD SVG 1.1//EN"
 "http://www.w3.org/Graphics/SVG/1.1/DTD/svg11.dtd">
<!-- Generated by graphviz version 2.40.1 (20161225.0304)
 -->
<!-- Title: /home/shiqi/Documents/thesis/DG_wave_c/src/dg_single_index.cpp Pages: 1 -->
<svg width="164pt" height="110pt"
 viewBox="0.00 0.00 163.51 110.00" xmlns="http://www.w3.org/2000/svg" xmlns:xlink="http://www.w3.org/1999/xlink">
<g id="graph0" class="graph" transform="scale(1 1) rotate(0) translate(4 106)">
<title>/home/shiqi/Documents/thesis/DG_wave_c/src/dg_single_index.cpp</title>
<polygon fill="#ffffff" stroke="transparent" points="-4,4 -4,-106 159.515,-106 159.515,4 -4,4"/>
<!-- Node1 -->
<g id="node1" class="node">
<title>Node1</title>
<g id="a_node1"><a xlink:title=" ">
<polygon fill="#bfbfbf" stroke="#000000" points="2.9915,-57.5 2.9915,-101.5 123.4535,-101.5 123.4535,-57.5 2.9915,-57.5"/>
<text text-anchor="start" x="10.9915" y="-88.5" font-family="Helvetica,sans-Serif" font-size="10.00" fill="#000000">/home/shiqi/Documents</text>
<text text-anchor="start" x="10.9915" y="-76.5" font-family="Helvetica,sans-Serif" font-size="10.00" fill="#000000">/thesis/DG_wave_c/src</text>
<text text-anchor="middle" x="63.2225" y="-64.5" font-family="Helvetica,sans-Serif" font-size="10.00" fill="#000000">/dg_single_index.cpp</text>
</a>
</g>
</g>
<!-- Node2 -->
<g id="node2" class="node">
<title>Node2</title>
<g id="a_node2"><a xlink:title=" ">
<polygon fill="#ffffff" stroke="#bfbfbf" points="0,-.5 0,-20.5 40.445,-20.5 40.445,-.5 0,-.5"/>
<text text-anchor="middle" x="20.2225" y="-7.5" font-family="Helvetica,sans-Serif" font-size="10.00" fill="#000000">mpi.h</text>
</a>
</g>
</g>
<!-- Node1&#45;&gt;Node2 -->
<g id="edge1" class="edge">
<title>Node1&#45;&gt;Node2</title>
<path fill="none" stroke="#191970" d="M49.3803,-57.2882C43.755,-48.2615 37.3252,-37.9438 31.9374,-29.2984"/>
<polygon fill="#191970" stroke="#191970" points="34.8469,-27.3494 26.5875,-20.7137 28.9061,-31.0517 34.8469,-27.3494"/>
</g>
<!-- Node3 -->
<g id="node3" class="node">
<title>Node3</title>
<g id="a_node3"><a xlink:title=" ">
<polygon fill="#ffffff" stroke="#bfbfbf" points="58.93,-.5 58.93,-20.5 155.515,-20.5 155.515,-.5 58.93,-.5"/>
<text text-anchor="middle" x="107.2225" y="-7.5" font-family="Helvetica,sans-Serif" font-size="10.00" fill="#000000">dg_single_index.h</text>
</a>
</g>
</g>
<!-- Node1&#45;&gt;Node3 -->
<g id="edge2" class="edge">
<title>Node1&#45;&gt;Node3</title>
<path fill="none" stroke="#191970" d="M77.3866,-57.2882C83.1427,-48.2615 89.7221,-37.9438 95.2351,-29.2984"/>
<polygon fill="#191970" stroke="#191970" points="98.2838,-31.0271 100.7094,-20.7137 92.3817,-27.2634 98.2838,-31.0271"/>
</g>
</g>
</svg>
