<?xml version="1.0" encoding="UTF-8" standalone="no"?>
<!DOCTYPE svg PUBLIC "-//W3C//DTD SVG 1.1//EN"
 "http://www.w3.org/Graphics/SVG/1.1/DTD/svg11.dtd">
<!-- Generated by graphviz version 2.40.1 (20161225.0304)
 -->
<!-- Title: /home/shiqi/Documents/thesis/DG_wave_c/src/dg_gen_dual_graph.cpp Pages: 1 -->
<svg width="579pt" height="110pt"
 viewBox="0.00 0.00 578.51 110.00" xmlns="http://www.w3.org/2000/svg" xmlns:xlink="http://www.w3.org/1999/xlink">
<g id="graph0" class="graph" transform="scale(1 1) rotate(0) translate(4 106)">
<title>/home/shiqi/Documents/thesis/DG_wave_c/src/dg_gen_dual_graph.cpp</title>
<polygon fill="#ffffff" stroke="transparent" points="-4,4 -4,-106 574.515,-106 574.515,4 -4,4"/>
<!-- Node1 -->
<g id="node1" class="node">
<title>Node1</title>
<g id="a_node1"><a xlink:title=" ">
<polygon fill="#bfbfbf" stroke="#000000" points="172.918,-57.5 172.918,-101.5 299.527,-101.5 299.527,-57.5 172.918,-57.5"/>
<text text-anchor="start" x="180.918" y="-88.5" font-family="Helvetica,sans-Serif" font-size="10.00" fill="#000000">/home/shiqi/Documents</text>
<text text-anchor="start" x="180.918" y="-76.5" font-family="Helvetica,sans-Serif" font-size="10.00" fill="#000000">/thesis/DG_wave_c/src</text>
<text text-anchor="middle" x="236.2225" y="-64.5" font-family="Helvetica,sans-Serif" font-size="10.00" fill="#000000">/dg_gen_dual_graph.cpp</text>
</a>
</g>
</g>
<!-- Node2 -->
<g id="node2" class="node">
<title>Node2</title>
<g id="a_node2"><a xlink:title=" ">
<polygon fill="#ffffff" stroke="#bfbfbf" points="0,-.5 0,-20.5 40.445,-20.5 40.445,-.5 0,-.5"/>
<text text-anchor="middle" x="20.2225" y="-7.5" font-family="Helvetica,sans-Serif" font-size="10.00" fill="#000000">mpi.h</text>
</a>
</g>
</g>
<!-- Node1&#45;&gt;Node2 -->
<g id="edge1" class="edge">
<title>Node1&#45;&gt;Node2</title>
<path fill="none" stroke="#191970" d="M172.8103,-60.4244C138.8408,-50.0278 96.0904,-36.6621 50.0292,-21.1862"/>
<polygon fill="#191970" stroke="#191970" points="51.0581,-17.8395 40.4639,-17.9578 48.8196,-24.4719 51.0581,-17.8395"/>
</g>
<!-- Node3 -->
<g id="node3" class="node">
<title>Node3</title>
<g id="a_node3"><a xlink:title=" ">
<polygon fill="#ffffff" stroke="#bfbfbf" points="58.6095,-.5 58.6095,-20.5 101.8355,-20.5 101.8355,-.5 58.6095,-.5"/>
<text text-anchor="middle" x="80.2225" y="-7.5" font-family="Helvetica,sans-Serif" font-size="10.00" fill="#000000">cmath</text>
</a>
</g>
</g>
<!-- Node1&#45;&gt;Node3 -->
<g id="edge2" class="edge">
<title>Node1&#45;&gt;Node3</title>
<path fill="none" stroke="#191970" d="M186.4342,-57.4783C161.8445,-46.602 132.9316,-33.8136 111.4858,-24.328"/>
<polygon fill="#191970" stroke="#191970" points="112.7613,-21.0651 102.2001,-20.2209 109.9297,-27.4669 112.7613,-21.0651"/>
</g>
<!-- Node4 -->
<g id="node4" class="node">
<title>Node4</title>
<g id="a_node4"><a xlink:title=" ">
<polygon fill="#ffffff" stroke="#bfbfbf" points="119.6975,-.5 119.6975,-20.5 240.7475,-20.5 240.7475,-.5 119.6975,-.5"/>
<text text-anchor="middle" x="180.2225" y="-7.5" font-family="Helvetica,sans-Serif" font-size="10.00" fill="#000000">dg_nodal_2d_storage.h</text>
</a>
</g>
</g>
<!-- Node1&#45;&gt;Node4 -->
<g id="edge3" class="edge">
<title>Node1&#45;&gt;Node4</title>
<path fill="none" stroke="#191970" d="M218.1955,-57.2882C210.7136,-48.0694 202.139,-37.5042 195.0332,-28.7488"/>
<polygon fill="#191970" stroke="#191970" points="197.5312,-26.2727 188.5119,-20.7137 192.096,-30.6839 197.5312,-26.2727"/>
</g>
<!-- Node5 -->
<g id="node5" class="node">
<title>Node5</title>
<g id="a_node5"><a xlink:title=" ">
<polygon fill="#ffffff" stroke="#bfbfbf" points="258.5475,-.5 258.5475,-20.5 327.8975,-20.5 327.8975,-.5 258.5475,-.5"/>
<text text-anchor="middle" x="293.2225" y="-7.5" font-family="Helvetica,sans-Serif" font-size="10.00" fill="#000000">dg_param.h</text>
</a>
</g>
</g>
<!-- Node1&#45;&gt;Node5 -->
<g id="edge4" class="edge">
<title>Node1&#45;&gt;Node5</title>
<path fill="none" stroke="#191970" d="M254.5714,-57.2882C262.2662,-47.9734 271.0966,-37.2839 278.3729,-28.4758"/>
<polygon fill="#191970" stroke="#191970" points="281.1146,-30.6524 284.7851,-20.7137 275.7179,-26.1942 281.1146,-30.6524"/>
</g>
<!-- Node6 -->
<g id="node6" class="node">
<title>Node6</title>
<g id="a_node6"><a xlink:title=" ">
<polygon fill="#ffffff" stroke="#bfbfbf" points="346.2565,-.5 346.2565,-20.5 456.1885,-20.5 456.1885,-.5 346.2565,-.5"/>
<text text-anchor="middle" x="401.2225" y="-7.5" font-family="Helvetica,sans-Serif" font-size="10.00" fill="#000000">dg_get_dual_coord.h</text>
</a>
</g>
</g>
<!-- Node1&#45;&gt;Node6 -->
<g id="edge5" class="edge">
<title>Node1&#45;&gt;Node6</title>
<path fill="none" stroke="#191970" d="M288.8832,-57.4783C314.6801,-46.6905 344.9755,-34.0215 367.6007,-24.56"/>
<polygon fill="#191970" stroke="#191970" points="369.2263,-27.674 377.1017,-20.5869 366.5256,-21.216 369.2263,-27.674"/>
</g>
<!-- Node7 -->
<g id="node7" class="node">
<title>Node7</title>
<g id="a_node7"><a xlink:title=" ">
<polygon fill="#ffffff" stroke="#bfbfbf" points="473.93,-.5 473.93,-20.5 570.515,-20.5 570.515,-.5 473.93,-.5"/>
<text text-anchor="middle" x="522.2225" y="-7.5" font-family="Helvetica,sans-Serif" font-size="10.00" fill="#000000">dg_single_index.h</text>
</a>
</g>
</g>
<!-- Node1&#45;&gt;Node7 -->
<g id="edge6" class="edge">
<title>Node1&#45;&gt;Node7</title>
<path fill="none" stroke="#191970" d="M299.6952,-64.1867C351.1639,-51.7694 422.7862,-34.4899 470.7358,-22.9216"/>
<polygon fill="#191970" stroke="#191970" points="471.6924,-26.2913 480.5926,-20.5436 470.0507,-19.4866 471.6924,-26.2913"/>
</g>
</g>
</svg>
