<?xml version="1.0" encoding="UTF-8" standalone="no"?>
<!DOCTYPE svg PUBLIC "-//W3C//DTD SVG 1.1//EN"
 "http://www.w3.org/Graphics/SVG/1.1/DTD/svg11.dtd">
<!-- Generated by graphviz version 2.40.1 (20161225.0304)
 -->
<!-- Title: /home/shiqi/Documents/thesis/new/DG_wave_c/src/dg_mpi_table_construct.cpp Pages: 1 -->
<svg width="1622pt" height="110pt"
 viewBox="0.00 0.00 1622.41 110.00" xmlns="http://www.w3.org/2000/svg" xmlns:xlink="http://www.w3.org/1999/xlink">
<g id="graph0" class="graph" transform="scale(1 1) rotate(0) translate(4 106)">
<title>/home/shiqi/Documents/thesis/new/DG_wave_c/src/dg_mpi_table_construct.cpp</title>
<polygon fill="#ffffff" stroke="transparent" points="-4,4 -4,-106 1618.406,-106 1618.406,4 -4,4"/>
<!-- Node1 -->
<g id="node1" class="node">
<title>Node1</title>
<g id="a_node1"><a xlink:title=" ">
<polygon fill="#bfbfbf" stroke="#000000" points="695.277,-57.5 695.277,-101.5 855.202,-101.5 855.202,-57.5 695.277,-57.5"/>
<text text-anchor="start" x="703.277" y="-88.5" font-family="Helvetica,sans-Serif" font-size="10.00" fill="#000000">/home/shiqi/Documents</text>
<text text-anchor="start" x="703.277" y="-76.5" font-family="Helvetica,sans-Serif" font-size="10.00" fill="#000000">/thesis/new/DG_wave_c</text>
<text text-anchor="middle" x="775.2395" y="-64.5" font-family="Helvetica,sans-Serif" font-size="10.00" fill="#000000">/src/dg_mpi_table_construct.cpp</text>
</a>
</g>
</g>
<!-- Node2 -->
<g id="node2" class="node">
<title>Node2</title>
<g id="a_node2"><a xlink:title=" ">
<polygon fill="#ffffff" stroke="#bfbfbf" points="0,-.5 0,-20.5 130.479,-20.5 130.479,-.5 0,-.5"/>
<text text-anchor="middle" x="65.2395" y="-7.5" font-family="Helvetica,sans-Serif" font-size="10.00" fill="#000000">dg_mpi_table_construct.h</text>
</a>
</g>
</g>
<!-- Node1&#45;&gt;Node2 -->
<g id="edge1" class="edge">
<title>Node1&#45;&gt;Node2</title>
<path fill="none" stroke="#191970" d="M694.7887,-73.3773C575.9198,-64.0465 346.1368,-44.9249 140.662,-21.1233"/>
<polygon fill="#191970" stroke="#191970" points="140.9246,-17.6303 130.5869,-19.9501 140.1149,-24.5833 140.9246,-17.6303"/>
</g>
<!-- Node3 -->
<g id="node3" class="node">
<title>Node3</title>
<g id="a_node3"><a xlink:title=" ">
<polygon fill="#ffffff" stroke="#bfbfbf" points="148.0025,-.5 148.0025,-20.5 248.4765,-20.5 248.4765,-.5 148.0025,-.5"/>
<text text-anchor="middle" x="198.2395" y="-7.5" font-family="Helvetica,sans-Serif" font-size="10.00" fill="#000000">dg_local_storage.h</text>
</a>
</g>
</g>
<!-- Node1&#45;&gt;Node3 -->
<g id="edge2" class="edge">
<title>Node1&#45;&gt;Node3</title>
<path fill="none" stroke="#191970" d="M695.1714,-72.0535C595.3085,-62.4073 419.1438,-44.2136 258.7864,-21.1591"/>
<polygon fill="#191970" stroke="#191970" points="259.134,-17.673 248.7358,-19.7046 258.1314,-24.6008 259.134,-17.673"/>
</g>
<!-- Node4 -->
<g id="node4" class="node">
<title>Node4</title>
<g id="a_node4"><a xlink:title=" ">
<polygon fill="#ffffff" stroke="#bfbfbf" points="266.674,-.5 266.674,-20.5 323.805,-20.5 323.805,-.5 266.674,-.5"/>
<text text-anchor="middle" x="295.2395" y="-7.5" font-family="Helvetica,sans-Serif" font-size="10.00" fill="#000000">dg_unit.h</text>
</a>
</g>
</g>
<!-- Node1&#45;&gt;Node4 -->
<g id="edge3" class="edge">
<title>Node1&#45;&gt;Node4</title>
<path fill="none" stroke="#191970" d="M695.2431,-72.2659C608.4536,-63.6603 465.7637,-47.3093 334.0526,-20.9401"/>
<polygon fill="#191970" stroke="#191970" points="334.6819,-17.4966 324.186,-18.9416 333.2921,-24.3572 334.6819,-17.4966"/>
</g>
<!-- Node5 -->
<g id="node5" class="node">
<title>Node5</title>
<g id="a_node5"><a xlink:title=" ">
<polygon fill="#ffffff" stroke="#bfbfbf" points="342.0585,-.5 342.0585,-20.5 446.4205,-20.5 446.4205,-.5 342.0585,-.5"/>
<text text-anchor="middle" x="394.2395" y="-7.5" font-family="Helvetica,sans-Serif" font-size="10.00" fill="#000000">dg_cantor_pairing.h</text>
</a>
</g>
</g>
<!-- Node1&#45;&gt;Node5 -->
<g id="edge4" class="edge">
<title>Node1&#45;&gt;Node5</title>
<path fill="none" stroke="#191970" d="M694.9048,-64.9512C623.9265,-52.0969 521.8608,-33.6125 456.8051,-21.8308"/>
<polygon fill="#191970" stroke="#191970" points="457.156,-18.3375 446.6923,-19.9993 455.9085,-25.2254 457.156,-18.3375"/>
</g>
<!-- Node6 -->
<g id="node6" class="node">
<title>Node6</title>
<g id="a_node6"><a xlink:title=" ">
<polygon fill="#ffffff" stroke="#bfbfbf" points="464.684,-.5 464.684,-20.5 521.795,-20.5 521.795,-.5 464.684,-.5"/>
<text text-anchor="middle" x="493.2395" y="-7.5" font-family="Helvetica,sans-Serif" font-size="10.00" fill="#000000">algorithm</text>
</a>
</g>
</g>
<!-- Node1&#45;&gt;Node6 -->
<g id="edge5" class="edge">
<title>Node1&#45;&gt;Node6</title>
<path fill="none" stroke="#191970" d="M695.0301,-61.2463C649.613,-50.6988 591.538,-36.8605 531.8685,-21.3627"/>
<polygon fill="#191970" stroke="#191970" points="532.4499,-17.8973 521.8902,-18.7593 530.6826,-24.6706 532.4499,-17.8973"/>
</g>
<!-- Node7 -->
<g id="node7" class="node">
<title>Node7</title>
<g id="a_node7"><a xlink:title=" ">
<polygon fill="#ffffff" stroke="#bfbfbf" points="539.6265,-.5 539.6265,-20.5 582.8525,-20.5 582.8525,-.5 539.6265,-.5"/>
<text text-anchor="middle" x="561.2395" y="-7.5" font-family="Helvetica,sans-Serif" font-size="10.00" fill="#000000">vector</text>
</a>
</g>
</g>
<!-- Node1&#45;&gt;Node7 -->
<g id="edge6" class="edge">
<title>Node1&#45;&gt;Node7</title>
<path fill="none" stroke="#191970" d="M704.3104,-57.4741C672.4771,-47.4644 634.257,-35.2766 592.6633,-21.4278"/>
<polygon fill="#191970" stroke="#191970" points="593.7633,-18.1052 583.1695,-18.2574 591.546,-24.7448 593.7633,-18.1052"/>
</g>
<!-- Node8 -->
<g id="node8" class="node">
<title>Node8</title>
<g id="a_node8"><a xlink:title=" ">
<polygon fill="#ffffff" stroke="#bfbfbf" points="600.5025,-.5 600.5025,-20.5 695.9765,-20.5 695.9765,-.5 600.5025,-.5"/>
<text text-anchor="middle" x="648.2395" y="-7.5" font-family="Helvetica,sans-Serif" font-size="10.00" fill="#000000">dg_elem_length.h</text>
</a>
</g>
</g>
<!-- Node1&#45;&gt;Node8 -->
<g id="edge7" class="edge">
<title>Node1&#45;&gt;Node8</title>
<path fill="none" stroke="#191970" d="M734.7067,-57.4783C715.4742,-47.0291 692.9931,-34.815 675.7752,-25.4603"/>
<polygon fill="#191970" stroke="#191970" points="677.263,-22.2855 666.8052,-20.5869 673.9212,-28.4363 677.263,-22.2855"/>
</g>
<!-- Node9 -->
<g id="node9" class="node">
<title>Node9</title>
<g id="a_node9"><a xlink:title=" ">
<polygon fill="#ffffff" stroke="#bfbfbf" points="714.017,-.5 714.017,-20.5 754.462,-20.5 754.462,-.5 714.017,-.5"/>
<text text-anchor="middle" x="734.2395" y="-7.5" font-family="Helvetica,sans-Serif" font-size="10.00" fill="#000000">mpi.h</text>
</a>
</g>
</g>
<!-- Node1&#45;&gt;Node9 -->
<g id="edge8" class="edge">
<title>Node1&#45;&gt;Node9</title>
<path fill="none" stroke="#191970" d="M762.0412,-57.2882C756.7345,-48.3575 750.6771,-38.1632 745.5738,-29.5749"/>
<polygon fill="#191970" stroke="#191970" points="748.4257,-27.5226 740.3085,-20.7137 742.4079,-31.0984 748.4257,-27.5226"/>
</g>
<!-- Node10 -->
<g id="node10" class="node">
<title>Node10</title>
<g id="a_node10"><a xlink:title=" ">
<polygon fill="#ffffff" stroke="#bfbfbf" points="772.951,-.5 772.951,-20.5 859.528,-20.5 859.528,-.5 772.951,-.5"/>
<text text-anchor="middle" x="816.2395" y="-7.5" font-family="Helvetica,sans-Serif" font-size="10.00" fill="#000000">unordered_map</text>
</a>
</g>
</g>
<!-- Node1&#45;&gt;Node10 -->
<g id="edge9" class="edge">
<title>Node1&#45;&gt;Node10</title>
<path fill="none" stroke="#191970" d="M788.4378,-57.2882C793.7445,-48.3575 799.8019,-38.1632 804.9052,-29.5749"/>
<polygon fill="#191970" stroke="#191970" points="808.0711,-31.0984 810.1705,-20.7137 802.0533,-27.5226 808.0711,-31.0984"/>
</g>
<!-- Node11 -->
<g id="node11" class="node">
<title>Node11</title>
<g id="a_node11"><a xlink:title=" ">
<polygon fill="#ffffff" stroke="#bfbfbf" points="877.5645,-.5 877.5645,-20.5 946.9145,-20.5 946.9145,-.5 877.5645,-.5"/>
<text text-anchor="middle" x="912.2395" y="-7.5" font-family="Helvetica,sans-Serif" font-size="10.00" fill="#000000">dg_param.h</text>
</a>
</g>
</g>
<!-- Node1&#45;&gt;Node11 -->
<g id="edge10" class="edge">
<title>Node1&#45;&gt;Node11</title>
<path fill="none" stroke="#191970" d="M818.9638,-57.4783C839.9028,-46.9323 864.4114,-34.5886 883.0501,-25.2012"/>
<polygon fill="#191970" stroke="#191970" points="884.8551,-28.211 892.212,-20.5869 881.7064,-21.9592 884.8551,-28.211"/>
</g>
<!-- Node12 -->
<g id="node12" class="node">
<title>Node12</title>
<g id="a_node12"><a xlink:title=" ">
<polygon fill="#ffffff" stroke="#bfbfbf" points="964.6135,-.5 964.6135,-20.5 1067.8655,-20.5 1067.8655,-.5 964.6135,-.5"/>
<text text-anchor="middle" x="1016.2395" y="-7.5" font-family="Helvetica,sans-Serif" font-size="10.00" fill="#000000">dg_neighbour_list.h</text>
</a>
</g>
</g>
<!-- Node1&#45;&gt;Node12 -->
<g id="edge11" class="edge">
<title>Node1&#45;&gt;Node12</title>
<path fill="none" stroke="#191970" d="M852.156,-57.4783C891.3558,-46.2551 937.6673,-32.9958 971.0766,-23.4305"/>
<polygon fill="#191970" stroke="#191970" points="972.3582,-26.7042 981.0086,-20.5869 970.4314,-19.9746 972.3582,-26.7042"/>
</g>
<!-- Node13 -->
<g id="node13" class="node">
<title>Node13</title>
<g id="a_node13"><a xlink:title=" ">
<polygon fill="#ffffff" stroke="#bfbfbf" points="1086.2735,-.5 1086.2735,-20.5 1196.2055,-20.5 1196.2055,-.5 1086.2735,-.5"/>
<text text-anchor="middle" x="1141.2395" y="-7.5" font-family="Helvetica,sans-Serif" font-size="10.00" fill="#000000">dg_boundary_table.h</text>
</a>
</g>
</g>
<!-- Node1&#45;&gt;Node13 -->
<g id="edge12" class="edge">
<title>Node1&#45;&gt;Node13</title>
<path fill="none" stroke="#191970" d="M855.5598,-64.3577C922.4347,-51.7501 1016.3585,-34.0431 1077.9854,-22.425"/>
<polygon fill="#191970" stroke="#191970" points="1078.7887,-25.8352 1087.9672,-20.5431 1077.4919,-18.9564 1078.7887,-25.8352"/>
</g>
<!-- Node14 -->
<g id="node14" class="node">
<title>Node14</title>
<g id="a_node14"><a xlink:title=" ">
<polygon fill="#ffffff" stroke="#bfbfbf" points="1214.496,-.5 1214.496,-20.5 1339.983,-20.5 1339.983,-.5 1214.496,-.5"/>
<text text-anchor="middle" x="1277.2395" y="-7.5" font-family="Helvetica,sans-Serif" font-size="10.00" fill="#000000">dg_put_into_mpi_table.h</text>
</a>
</g>
</g>
<!-- Node1&#45;&gt;Node14 -->
<g id="edge13" class="edge">
<title>Node1&#45;&gt;Node14</title>
<path fill="none" stroke="#191970" d="M855.3145,-68.8397C939.5016,-57.5787 1076.1098,-39.1557 1204.4068,-21.1077"/>
<polygon fill="#191970" stroke="#191970" points="1205.0018,-24.5585 1214.416,-19.698 1204.0256,-17.6269 1205.0018,-24.5585"/>
</g>
<!-- Node15 -->
<g id="node15" class="node">
<title>Node15</title>
<g id="a_node15"><a xlink:title=" ">
<polygon fill="#ffffff" stroke="#bfbfbf" points="1358.384,-.5 1358.384,-20.5 1476.095,-20.5 1476.095,-.5 1358.384,-.5"/>
<text text-anchor="middle" x="1417.2395" y="-7.5" font-family="Helvetica,sans-Serif" font-size="10.00" fill="#000000">dg_derived_datatype.h</text>
</a>
</g>
</g>
<!-- Node1&#45;&gt;Node15 -->
<g id="edge14" class="edge">
<title>Node1&#45;&gt;Node15</title>
<path fill="none" stroke="#191970" d="M855.2468,-72.6603C964.2965,-63.044 1165.9261,-44.2198 1348.2506,-21.0743"/>
<polygon fill="#191970" stroke="#191970" points="1348.8176,-24.5305 1358.2939,-19.7924 1347.9313,-17.5868 1348.8176,-24.5305"/>
</g>
<!-- Node16 -->
<g id="node16" class="node">
<title>Node16</title>
<g id="a_node16"><a xlink:title=" ">
<polygon fill="#ffffff" stroke="#bfbfbf" points="1494.1265,-.5 1494.1265,-20.5 1542.3525,-20.5 1542.3525,-.5 1494.1265,-.5"/>
<text text-anchor="middle" x="1518.2395" y="-7.5" font-family="Helvetica,sans-Serif" font-size="10.00" fill="#000000">cassert</text>
</a>
</g>
</g>
<!-- Node1&#45;&gt;Node16 -->
<g id="edge15" class="edge">
<title>Node1&#45;&gt;Node16</title>
<path fill="none" stroke="#191970" d="M855.281,-75.1874C1010.6157,-66.4521 1348.8136,-45.5538 1483.7651,-20.8604"/>
<polygon fill="#191970" stroke="#191970" points="1484.7277,-24.2398 1493.8918,-18.9228 1483.4122,-17.3645 1484.7277,-24.2398"/>
</g>
<!-- Node17 -->
<g id="node17" class="node">
<title>Node17</title>
<g id="a_node17"><a xlink:title=" ">
<polygon fill="#ffffff" stroke="#bfbfbf" points="1560.073,-.5 1560.073,-20.5 1614.406,-20.5 1614.406,-.5 1560.073,-.5"/>
<text text-anchor="middle" x="1587.2395" y="-7.5" font-family="Helvetica,sans-Serif" font-size="10.00" fill="#000000">iostream</text>
</a>
</g>
</g>
<!-- Node1&#45;&gt;Node17 -->
<g id="edge16" class="edge">
<title>Node1&#45;&gt;Node17</title>
<path fill="none" stroke="#191970" d="M855.453,-75.5792C1021.9171,-67.1033 1401.0647,-45.9504 1549.5751,-20.9317"/>
<polygon fill="#191970" stroke="#191970" points="1550.6199,-24.3018 1559.8632,-19.1238 1549.4083,-17.4074 1550.6199,-24.3018"/>
</g>
</g>
</svg>
