<?xml version="1.0" encoding="UTF-8" standalone="no"?>
<!DOCTYPE svg PUBLIC "-//W3C//DTD SVG 1.1//EN"
 "http://www.w3.org/Graphics/SVG/1.1/DTD/svg11.dtd">
<!-- Generated by graphviz version 2.40.1 (20161225.0304)
 -->
<!-- Title: /home/shiqi/Documents/thesis/DG_wave_c/src/dg_constructor.cpp Pages: 1 -->
<svg width="536pt" height="110pt"
 viewBox="0.00 0.00 536.46 110.00" xmlns="http://www.w3.org/2000/svg" xmlns:xlink="http://www.w3.org/1999/xlink">
<g id="graph0" class="graph" transform="scale(1 1) rotate(0) translate(4 106)">
<title>/home/shiqi/Documents/thesis/DG_wave_c/src/dg_constructor.cpp</title>
<polygon fill="#ffffff" stroke="transparent" points="-4,4 -4,-106 532.456,-106 532.456,4 -4,4"/>
<!-- Node1 -->
<g id="node1" class="node">
<title>Node1</title>
<g id="a_node1"><a xlink:title=" ">
<polygon fill="#bfbfbf" stroke="#000000" points="187.9915,-57.5 187.9915,-101.5 308.4535,-101.5 308.4535,-57.5 187.9915,-57.5"/>
<text text-anchor="start" x="195.9915" y="-88.5" font-family="Helvetica,sans-Serif" font-size="10.00" fill="#000000">/home/shiqi/Documents</text>
<text text-anchor="start" x="195.9915" y="-76.5" font-family="Helvetica,sans-Serif" font-size="10.00" fill="#000000">/thesis/DG_wave_c/src</text>
<text text-anchor="middle" x="248.2225" y="-64.5" font-family="Helvetica,sans-Serif" font-size="10.00" fill="#000000">/dg_constructor.cpp</text>
</a>
</g>
</g>
<!-- Node2 -->
<g id="node2" class="node">
<title>Node2</title>
<g id="a_node2"><a xlink:title=" ">
<polygon fill="#ffffff" stroke="#bfbfbf" points="0,-.5 0,-20.5 40.445,-20.5 40.445,-.5 0,-.5"/>
<text text-anchor="middle" x="20.2225" y="-7.5" font-family="Helvetica,sans-Serif" font-size="10.00" fill="#000000">mpi.h</text>
</a>
</g>
</g>
<!-- Node1&#45;&gt;Node2 -->
<g id="edge1" class="edge">
<title>Node1&#45;&gt;Node2</title>
<path fill="none" stroke="#191970" d="M187.8384,-62.7925C150.5541,-52.2353 101.5635,-37.9327 50.0874,-21.1625"/>
<polygon fill="#191970" stroke="#191970" points="51.0417,-17.7922 40.449,-18.0028 48.8611,-24.4439 51.0417,-17.7922"/>
</g>
<!-- Node3 -->
<g id="node3" class="node">
<title>Node3</title>
<g id="a_node3"><a xlink:title=" ">
<polygon fill="#ffffff" stroke="#bfbfbf" points="58.6975,-.5 58.6975,-20.5 179.7475,-20.5 179.7475,-.5 58.6975,-.5"/>
<text text-anchor="middle" x="119.2225" y="-7.5" font-family="Helvetica,sans-Serif" font-size="10.00" fill="#000000">dg_nodal_2d_storage.h</text>
</a>
</g>
</g>
<!-- Node1&#45;&gt;Node3 -->
<g id="edge2" class="edge">
<title>Node1&#45;&gt;Node3</title>
<path fill="none" stroke="#191970" d="M207.0514,-57.4783C187.516,-47.0291 164.6809,-34.815 147.1918,-25.4603"/>
<polygon fill="#191970" stroke="#191970" points="148.5492,-22.2172 138.0805,-20.5869 145.2476,-28.3897 148.5492,-22.2172"/>
</g>
<!-- Node4 -->
<g id="node4" class="node">
<title>Node4</title>
<g id="a_node4"><a xlink:title=" ">
<polygon fill="#ffffff" stroke="#bfbfbf" points="197.9855,-.5 197.9855,-20.5 298.4595,-20.5 298.4595,-.5 197.9855,-.5"/>
<text text-anchor="middle" x="248.2225" y="-7.5" font-family="Helvetica,sans-Serif" font-size="10.00" fill="#000000">dg_local_storage.h</text>
</a>
</g>
</g>
<!-- Node1&#45;&gt;Node4 -->
<g id="edge3" class="edge">
<title>Node1&#45;&gt;Node4</title>
<path fill="none" stroke="#191970" d="M248.2225,-57.2882C248.2225,-48.8377 248.2225,-39.2557 248.2225,-30.9736"/>
<polygon fill="#191970" stroke="#191970" points="251.7226,-30.7136 248.2225,-20.7137 244.7226,-30.7137 251.7226,-30.7136"/>
</g>
<!-- Node5 -->
<g id="node5" class="node">
<title>Node5</title>
<g id="a_node5"><a xlink:title=" ">
<polygon fill="#ffffff" stroke="#bfbfbf" points="316.595,-.5 316.595,-20.5 419.85,-20.5 419.85,-.5 316.595,-.5"/>
<text text-anchor="middle" x="368.2225" y="-7.5" font-family="Helvetica,sans-Serif" font-size="10.00" fill="#000000">dg_basis_storage.h</text>
</a>
</g>
</g>
<!-- Node1&#45;&gt;Node5 -->
<g id="edge4" class="edge">
<title>Node1&#45;&gt;Node5</title>
<path fill="none" stroke="#191970" d="M286.5212,-57.4783C304.5254,-47.1259 325.5425,-35.041 341.7514,-25.7209"/>
<polygon fill="#191970" stroke="#191970" points="343.7557,-28.6058 350.6801,-20.5869 340.2664,-22.5374 343.7557,-28.6058"/>
</g>
<!-- Node6 -->
<g id="node6" class="node">
<title>Node6</title>
<g id="a_node6"><a xlink:title=" ">
<polygon fill="#ffffff" stroke="#bfbfbf" points="437.989,-.5 437.989,-20.5 528.456,-20.5 528.456,-.5 437.989,-.5"/>
<text text-anchor="middle" x="483.2225" y="-7.5" font-family="Helvetica,sans-Serif" font-size="10.00" fill="#000000">dg_constructor.h</text>
</a>
</g>
</g>
<!-- Node1&#45;&gt;Node6 -->
<g id="edge5" class="edge">
<title>Node1&#45;&gt;Node6</title>
<path fill="none" stroke="#191970" d="M308.7408,-61.7308C349.5135,-49.7592 402.3642,-34.2414 439.1672,-23.4354"/>
<polygon fill="#191970" stroke="#191970" points="440.4897,-26.6949 449.0986,-20.5194 438.5176,-19.9784 440.4897,-26.6949"/>
</g>
</g>
</svg>
