<?xml version="1.0" encoding="UTF-8" standalone="no"?>
<!DOCTYPE svg PUBLIC "-//W3C//DTD SVG 1.1//EN"
 "http://www.w3.org/Graphics/SVG/1.1/DTD/svg11.dtd">
<!-- Generated by graphviz version 2.40.1 (20161225.0304)
 -->
<!-- Title: /home/shiqi/Documents/thesis/new/DG_wave_c/src/dg_local_storage.cpp Pages: 1 -->
<svg width="604pt" height="110pt"
 viewBox="0.00 0.00 604.20 110.00" xmlns="http://www.w3.org/2000/svg" xmlns:xlink="http://www.w3.org/1999/xlink">
<g id="graph0" class="graph" transform="scale(1 1) rotate(0) translate(4 106)">
<title>/home/shiqi/Documents/thesis/new/DG_wave_c/src/dg_local_storage.cpp</title>
<polygon fill="#ffffff" stroke="transparent" points="-4,4 -4,-106 600.203,-106 600.203,4 -4,4"/>
<!-- Node1 -->
<g id="node1" class="node">
<title>Node1</title>
<g id="a_node1"><a xlink:title=" ">
<polygon fill="#bfbfbf" stroke="#000000" points="213.277,-57.5 213.277,-101.5 343.197,-101.5 343.197,-57.5 213.277,-57.5"/>
<text text-anchor="start" x="221.277" y="-88.5" font-family="Helvetica,sans-Serif" font-size="10.00" fill="#000000">/home/shiqi/Documents</text>
<text text-anchor="start" x="221.277" y="-76.5" font-family="Helvetica,sans-Serif" font-size="10.00" fill="#000000">/thesis/new/DG_wave_c</text>
<text text-anchor="middle" x="278.237" y="-64.5" font-family="Helvetica,sans-Serif" font-size="10.00" fill="#000000">/src/dg_local_storage.cpp</text>
</a>
</g>
</g>
<!-- Node2 -->
<g id="node2" class="node">
<title>Node2</title>
<g id="a_node2"><a xlink:title=" ">
<polygon fill="#ffffff" stroke="#bfbfbf" points="0,-.5 0,-20.5 100.474,-20.5 100.474,-.5 0,-.5"/>
<text text-anchor="middle" x="50.237" y="-7.5" font-family="Helvetica,sans-Serif" font-size="10.00" fill="#000000">dg_local_storage.h</text>
</a>
</g>
</g>
<!-- Node1&#45;&gt;Node2 -->
<g id="edge1" class="edge">
<title>Node1&#45;&gt;Node2</title>
<path fill="none" stroke="#191970" d="M213.2065,-59.8197C174.6319,-48.1458 126.8216,-33.6769 92.9874,-23.4376"/>
<polygon fill="#191970" stroke="#191970" points="93.9839,-20.0825 83.3987,-20.5358 91.9562,-26.7824 93.9839,-20.0825"/>
</g>
<!-- Node3 -->
<g id="node3" class="node">
<title>Node3</title>
<g id="a_node3"><a xlink:title=" ">
<polygon fill="#ffffff" stroke="#bfbfbf" points="118.6715,-.5 118.6715,-20.5 175.8025,-20.5 175.8025,-.5 118.6715,-.5"/>
<text text-anchor="middle" x="147.237" y="-7.5" font-family="Helvetica,sans-Serif" font-size="10.00" fill="#000000">dg_unit.h</text>
</a>
</g>
</g>
<!-- Node1&#45;&gt;Node3 -->
<g id="edge2" class="edge">
<title>Node1&#45;&gt;Node3</title>
<path fill="none" stroke="#191970" d="M236.4276,-57.4783C216.5893,-47.0291 193.4002,-34.815 175.6399,-25.4603"/>
<polygon fill="#191970" stroke="#191970" points="176.8663,-22.1505 166.3874,-20.5869 173.604,-28.3439 176.8663,-22.1505"/>
</g>
<!-- Node4 -->
<g id="node4" class="node">
<title>Node4</title>
<g id="a_node4"><a xlink:title=" ">
<polygon fill="#ffffff" stroke="#bfbfbf" points="193.9485,-.5 193.9485,-20.5 280.5255,-20.5 280.5255,-.5 193.9485,-.5"/>
<text text-anchor="middle" x="237.237" y="-7.5" font-family="Helvetica,sans-Serif" font-size="10.00" fill="#000000">unordered_map</text>
</a>
</g>
</g>
<!-- Node1&#45;&gt;Node4 -->
<g id="edge3" class="edge">
<title>Node1&#45;&gt;Node4</title>
<path fill="none" stroke="#191970" d="M265.0387,-57.2882C259.732,-48.3575 253.6746,-38.1632 248.5713,-29.5749"/>
<polygon fill="#191970" stroke="#191970" points="251.4232,-27.5226 243.306,-20.7137 245.4054,-31.0984 251.4232,-27.5226"/>
</g>
<!-- Node5 -->
<g id="node5" class="node">
<title>Node5</title>
<g id="a_node5"><a xlink:title=" ">
<polygon fill="#ffffff" stroke="#bfbfbf" points="298.624,-.5 298.624,-20.5 341.85,-20.5 341.85,-.5 298.624,-.5"/>
<text text-anchor="middle" x="320.237" y="-7.5" font-family="Helvetica,sans-Serif" font-size="10.00" fill="#000000">vector</text>
</a>
</g>
</g>
<!-- Node1&#45;&gt;Node5 -->
<g id="edge4" class="edge">
<title>Node1&#45;&gt;Node5</title>
<path fill="none" stroke="#191970" d="M291.7573,-57.2882C297.2517,-48.2615 303.5321,-37.9438 308.7945,-29.2984"/>
<polygon fill="#191970" stroke="#191970" points="311.8102,-31.0755 314.02,-20.7137 305.8308,-27.4358 311.8102,-31.0755"/>
</g>
<!-- Node6 -->
<g id="node6" class="node">
<title>Node6</title>
<g id="a_node6"><a xlink:title=" ">
<polygon fill="#ffffff" stroke="#bfbfbf" points="360.106,-.5 360.106,-20.5 468.368,-20.5 468.368,-.5 360.106,-.5"/>
<text text-anchor="middle" x="414.237" y="-7.5" font-family="Helvetica,sans-Serif" font-size="10.00" fill="#000000">dg_load_balancing.h</text>
</a>
</g>
</g>
<!-- Node1&#45;&gt;Node6 -->
<g id="edge5" class="edge">
<title>Node1&#45;&gt;Node6</title>
<path fill="none" stroke="#191970" d="M321.6422,-57.4783C342.4283,-46.9323 366.758,-34.5886 385.2607,-25.2012"/>
<polygon fill="#191970" stroke="#191970" points="387.0213,-28.2327 394.3556,-20.5869 383.8541,-21.9902 387.0213,-28.2327"/>
</g>
<!-- Node7 -->
<g id="node7" class="node">
<title>Node7</title>
<g id="a_node7"><a xlink:title=" ">
<polygon fill="#ffffff" stroke="#bfbfbf" points="486.271,-.5 486.271,-20.5 596.203,-20.5 596.203,-.5 486.271,-.5"/>
<text text-anchor="middle" x="541.237" y="-7.5" font-family="Helvetica,sans-Serif" font-size="10.00" fill="#000000">dg_boundary_table.h</text>
</a>
</g>
</g>
<!-- Node1&#45;&gt;Node7 -->
<g id="edge6" class="edge">
<title>Node1&#45;&gt;Node7</title>
<path fill="none" stroke="#191970" d="M343.2483,-62.4438C389.7199,-50.2516 451.2257,-34.1151 493.2779,-23.0824"/>
<polygon fill="#191970" stroke="#191970" points="494.2145,-26.4552 502.9989,-20.532 492.4381,-19.6844 494.2145,-26.4552"/>
</g>
</g>
</svg>
