<?xml version="1.0" encoding="UTF-8" standalone="no"?>
<!DOCTYPE svg PUBLIC "-//W3C//DTD SVG 1.1//EN"
 "http://www.w3.org/Graphics/SVG/1.1/DTD/svg11.dtd">
<!-- Generated by graphviz version 2.40.1 (20161225.0304)
 -->
<!-- Title: /home/shiqi/Documents/thesis/new/DG_wave_c/src/dg_init.cpp Pages: 1 -->
<svg width="884pt" height="110pt"
 viewBox="0.00 0.00 884.40 110.00" xmlns="http://www.w3.org/2000/svg" xmlns:xlink="http://www.w3.org/1999/xlink">
<g id="graph0" class="graph" transform="scale(1 1) rotate(0) translate(4 106)">
<title>/home/shiqi/Documents/thesis/new/DG_wave_c/src/dg_init.cpp</title>
<polygon fill="#ffffff" stroke="transparent" points="-4,4 -4,-106 880.4035,-106 880.4035,4 -4,4"/>
<!-- Node1 -->
<g id="node1" class="node">
<title>Node1</title>
<g id="a_node1"><a xlink:title=" ">
<polygon fill="#bfbfbf" stroke="#000000" points="388.6155,-57.5 388.6155,-101.5 511.8585,-101.5 511.8585,-57.5 388.6155,-57.5"/>
<text text-anchor="start" x="396.6155" y="-88.5" font-family="Helvetica,sans-Serif" font-size="10.00" fill="#000000">/home/shiqi/Documents</text>
<text text-anchor="start" x="396.6155" y="-76.5" font-family="Helvetica,sans-Serif" font-size="10.00" fill="#000000">/thesis/new/DG_wave_c</text>
<text text-anchor="middle" x="450.237" y="-64.5" font-family="Helvetica,sans-Serif" font-size="10.00" fill="#000000">/src/dg_init.cpp</text>
</a>
</g>
</g>
<!-- Node2 -->
<g id="node2" class="node">
<title>Node2</title>
<g id="a_node2"><a xlink:title=" ">
<polygon fill="#ffffff" stroke="#bfbfbf" points="0,-.5 0,-20.5 100.474,-20.5 100.474,-.5 0,-.5"/>
<text text-anchor="middle" x="50.237" y="-7.5" font-family="Helvetica,sans-Serif" font-size="10.00" fill="#000000">dg_local_storage.h</text>
</a>
</g>
</g>
<!-- Node1&#45;&gt;Node2 -->
<g id="edge1" class="edge">
<title>Node1&#45;&gt;Node2</title>
<path fill="none" stroke="#191970" d="M388.6146,-69.047C322.4387,-57.7948 213.9125,-39.2647 110.7309,-21.2544"/>
<polygon fill="#191970" stroke="#191970" points="111.217,-17.7864 100.7639,-19.5134 110.0124,-24.682 111.217,-17.7864"/>
</g>
<!-- Node3 -->
<g id="node3" class="node">
<title>Node3</title>
<g id="a_node3"><a xlink:title=" ">
<polygon fill="#ffffff" stroke="#bfbfbf" points="118.6715,-.5 118.6715,-20.5 175.8025,-20.5 175.8025,-.5 118.6715,-.5"/>
<text text-anchor="middle" x="147.237" y="-7.5" font-family="Helvetica,sans-Serif" font-size="10.00" fill="#000000">dg_unit.h</text>
</a>
</g>
</g>
<!-- Node1&#45;&gt;Node3 -->
<g id="edge2" class="edge">
<title>Node1&#45;&gt;Node3</title>
<path fill="none" stroke="#191970" d="M388.4473,-67.0079C336.7011,-56.2965 260.6957,-39.9845 185.9346,-21.336"/>
<polygon fill="#191970" stroke="#191970" points="186.4259,-17.8508 175.8746,-18.8103 184.7213,-24.6401 186.4259,-17.8508"/>
</g>
<!-- Node4 -->
<g id="node4" class="node">
<title>Node4</title>
<g id="a_node4"><a xlink:title=" ">
<polygon fill="#ffffff" stroke="#bfbfbf" points="193.562,-.5 193.562,-20.5 262.912,-20.5 262.912,-.5 193.562,-.5"/>
<text text-anchor="middle" x="228.237" y="-7.5" font-family="Helvetica,sans-Serif" font-size="10.00" fill="#000000">dg_param.h</text>
</a>
</g>
</g>
<!-- Node1&#45;&gt;Node4 -->
<g id="edge3" class="edge">
<title>Node1&#45;&gt;Node4</title>
<path fill="none" stroke="#191970" d="M388.3976,-60.2797C350.8427,-48.6072 303.8793,-34.0104 270.5405,-23.6484"/>
<polygon fill="#191970" stroke="#191970" points="271.2452,-20.2023 260.6569,-20.5765 269.1675,-26.8869 271.2452,-20.2023"/>
</g>
<!-- Node5 -->
<g id="node5" class="node">
<title>Node5</title>
<g id="a_node5"><a xlink:title=" ">
<polygon fill="#ffffff" stroke="#bfbfbf" points="280.9995,-.5 280.9995,-20.5 371.4745,-20.5 371.4745,-.5 280.9995,-.5"/>
<text text-anchor="middle" x="326.237" y="-7.5" font-family="Helvetica,sans-Serif" font-size="10.00" fill="#000000">dg_affine_map.h</text>
</a>
</g>
</g>
<!-- Node1&#45;&gt;Node5 -->
<g id="edge4" class="edge">
<title>Node1&#45;&gt;Node5</title>
<path fill="none" stroke="#191970" d="M410.6617,-57.4783C391.8835,-47.0291 369.9335,-34.815 353.1222,-25.4603"/>
<polygon fill="#191970" stroke="#191970" points="354.8042,-22.3909 344.3641,-20.5869 351.4005,-28.5077 354.8042,-22.3909"/>
</g>
<!-- Node6 -->
<g id="node6" class="node">
<title>Node6</title>
<g id="a_node6"><a xlink:title=" ">
<polygon fill="#ffffff" stroke="#bfbfbf" points="389.712,-.5 389.712,-20.5 510.762,-20.5 510.762,-.5 389.712,-.5"/>
<text text-anchor="middle" x="450.237" y="-7.5" font-family="Helvetica,sans-Serif" font-size="10.00" fill="#000000">dg_nodal_2d_storage.h</text>
</a>
</g>
</g>
<!-- Node1&#45;&gt;Node6 -->
<g id="edge5" class="edge">
<title>Node1&#45;&gt;Node6</title>
<path fill="none" stroke="#191970" d="M450.237,-57.2882C450.237,-48.8377 450.237,-39.2557 450.237,-30.9736"/>
<polygon fill="#191970" stroke="#191970" points="453.7371,-30.7136 450.237,-20.7137 446.7371,-30.7137 453.7371,-30.7136"/>
</g>
<!-- Node7 -->
<g id="node7" class="node">
<title>Node7</title>
<g id="a_node7"><a xlink:title=" ">
<polygon fill="#ffffff" stroke="#bfbfbf" points="528.624,-.5 528.624,-20.5 571.85,-20.5 571.85,-.5 528.624,-.5"/>
<text text-anchor="middle" x="550.237" y="-7.5" font-family="Helvetica,sans-Serif" font-size="10.00" fill="#000000">cmath</text>
</a>
</g>
</g>
<!-- Node1&#45;&gt;Node7 -->
<g id="edge6" class="edge">
<title>Node1&#45;&gt;Node7</title>
<path fill="none" stroke="#191970" d="M482.1526,-57.4783C496.7354,-47.4161 513.6902,-35.7173 527.0323,-26.5113"/>
<polygon fill="#191970" stroke="#191970" points="529.3753,-29.1469 535.6184,-20.5869 525.3998,-23.3854 529.3753,-29.1469"/>
</g>
<!-- Node8 -->
<g id="node8" class="node">
<title>Node8</title>
<g id="a_node8"><a xlink:title=" ">
<polygon fill="#ffffff" stroke="#bfbfbf" points="589.9445,-.5 589.9445,-20.5 686.5295,-20.5 686.5295,-.5 589.9445,-.5"/>
<text text-anchor="middle" x="638.237" y="-7.5" font-family="Helvetica,sans-Serif" font-size="10.00" fill="#000000">dg_single_index.h</text>
</a>
</g>
</g>
<!-- Node1&#45;&gt;Node8 -->
<g id="edge7" class="edge">
<title>Node1&#45;&gt;Node8</title>
<path fill="none" stroke="#191970" d="M510.2383,-57.4783C540.1583,-46.497 575.3895,-33.5664 601.3072,-24.054"/>
<polygon fill="#191970" stroke="#191970" points="602.5722,-27.3181 610.754,-20.5869 600.1603,-20.7467 602.5722,-27.3181"/>
</g>
<!-- Node9 -->
<g id="node9" class="node">
<title>Node9</title>
<g id="a_node9"><a xlink:title=" ">
<polygon fill="#ffffff" stroke="#bfbfbf" points="704.83,-.5 704.83,-20.5 803.644,-20.5 803.644,-.5 704.83,-.5"/>
<text text-anchor="middle" x="754.237" y="-7.5" font-family="Helvetica,sans-Serif" font-size="10.00" fill="#000000">dg_user_defined.h</text>
</a>
</g>
</g>
<!-- Node1&#45;&gt;Node9 -->
<g id="edge8" class="edge">
<title>Node1&#45;&gt;Node9</title>
<path fill="none" stroke="#191970" d="M512.1224,-65.4537C567.4107,-52.9046 647.5946,-34.705 700.3113,-22.7397"/>
<polygon fill="#191970" stroke="#191970" points="701.1704,-26.1338 710.1477,-20.5071 699.621,-19.3074 701.1704,-26.1338"/>
</g>
<!-- Node10 -->
<g id="node10" class="node">
<title>Node10</title>
<g id="a_node10"><a xlink:title=" ">
<polygon fill="#ffffff" stroke="#bfbfbf" points="822.0705,-.5 822.0705,-20.5 876.4035,-20.5 876.4035,-.5 822.0705,-.5"/>
<text text-anchor="middle" x="849.237" y="-7.5" font-family="Helvetica,sans-Serif" font-size="10.00" fill="#000000">iostream</text>
</a>
</g>
</g>
<!-- Node1&#45;&gt;Node10 -->
<g id="edge9" class="edge">
<title>Node1&#45;&gt;Node10</title>
<path fill="none" stroke="#191970" d="M512.1414,-71.7281C582.4311,-62.4044 700.6444,-45.2145 811.8044,-20.8788"/>
<polygon fill="#191970" stroke="#191970" points="812.841,-24.2342 821.8484,-18.6559 811.3283,-17.3996 812.841,-24.2342"/>
</g>
</g>
</svg>
